<?xml version="1.0" encoding="UTF-8"?>
<svg id="uuid-79241447-9a95-4b9e-b9e8-5460e21ff97f" data-name="Layer 1" xmlns="http://www.w3.org/2000/svg" width="595.276" height="285.26" viewBox="0 0 595.276 285.26">
  <defs>
    <style>
      .uuid-0d26a9a5-5d53-480c-8827-f90e65402aa3 {
        fill: #fff;
      }

      .uuid-804cbb74-ea4e-4ce8-8aec-d779cd21f42c {
        fill: #dcdcdc;
      }

      .uuid-98f53299-cc5c-4f90-82de-7ad124eaaf7a {
        fill: #231f20;
      }

      .uuid-a9bcc58a-3318-488f-9f16-461e522140c7 {
        fill: none;
        stroke: #231f20;
        stroke-miterlimit: 10;
      }
    </style>
  </defs>
  <rect class="uuid-804cbb74-ea4e-4ce8-8aec-d779cd21f42c" x="316.123" y="18.242" width="260.938" height="247.602"/>
  <g>
    <path class="uuid-98f53299-cc5c-4f90-82de-7ad124eaaf7a" d="M329.207,34.898c0-1.672,1.275-2.937,2.959-2.937s2.96,1.265,2.96,2.937-1.276,2.938-2.96,2.938-2.959-1.265-2.959-2.938Zm4.181,0c0-.847-.507-1.452-1.222-1.452s-1.221,.605-1.221,1.452,.506,1.453,1.221,1.453,1.222-.605,1.222-1.453Z"/>
    <path class="uuid-98f53299-cc5c-4f90-82de-7ad124eaaf7a" d="M335.476,32.049h1.937l1.287,3.564,1.298-3.564h1.837l-2.321,5.677h-1.738l-2.299-5.677Z"/>
    <path class="uuid-98f53299-cc5c-4f90-82de-7ad124eaaf7a" d="M342.186,34.898c0-1.661,1.231-2.937,2.86-2.937,1.639,0,2.794,1.243,2.794,3.003v.385h-3.905c.165,.638,.682,1.067,1.331,1.067,.473,0,.869-.165,1.122-.473l1.178,.979c-.737,.649-1.431,.913-2.388,.913-1.673,0-2.992-1.287-2.992-2.938Zm4.004-.561c-.153-.605-.583-.99-1.155-.99-.561,0-.957,.363-1.1,.99h2.255Z"/>
    <path class="uuid-98f53299-cc5c-4f90-82de-7ad124eaaf7a" d="M348.952,32.049h1.782v1.287c.363-.946,.869-1.397,1.54-1.397,.253,.011,.374,.033,.594,.143v1.529c-.22-.11-.527-.176-.836-.176-.528,0-1.012,.275-1.298,.704v3.586h-1.782v-5.677Z"/>
    <path class="uuid-98f53299-cc5c-4f90-82de-7ad124eaaf7a" d="M353.813,29.892l1.782-.275v8.108h-1.782v-7.833Z"/>
    <path class="uuid-98f53299-cc5c-4f90-82de-7ad124eaaf7a" d="M356.717,36.097c0-1.045,.814-1.65,2.212-1.65,.407,0,.813,.077,1.32,.264v-.462c0-.55-.363-.825-1.122-.825-.43,0-.936,.121-1.596,.396l-.616-1.243c.936-.418,1.771-.616,2.607-.616,1.573,0,2.486,.781,2.486,2.134v3.63h-1.76v-.495c-.495,.418-.969,.583-1.573,.583-1.155,0-1.959-.704-1.959-1.716Zm2.509,.539c.374,0,.715-.099,1.023-.286v-.726c-.33-.077-.649-.121-.979-.121-.583,0-.913,.198-.913,.561s.319,.572,.869,.572Z"/>
    <path class="uuid-98f53299-cc5c-4f90-82de-7ad124eaaf7a" d="M363.119,40.047v-1.496c.132,.022,.319,.044,.528,.044,.483,0,.748-.198,.924-.572l.088-.187-2.09-5.787h1.969l1.133,3.664,1.299-3.664h1.925l-2.552,6.315c-.528,1.298-1.178,1.771-2.486,1.771-.209,0-.495-.033-.737-.088Z"/>
  </g>
  <rect class="uuid-0d26a9a5-5d53-480c-8827-f90e65402aa3" x="328.768" y="49.937" width="235.648" height="59.329"/>
  <g>
    <path class="uuid-98f53299-cc5c-4f90-82de-7ad124eaaf7a" d="M339.93,76.139h1.096v5.072h.044l2.647-2.647h1.232l-3.924,3.944v1.432h-1.096v-7.8Zm2.112,5.056l.648-.701,2.516,3.445h-1.205l-1.959-2.744Z"/>
    <path class="uuid-98f53299-cc5c-4f90-82de-7ad124eaaf7a" d="M346.262,81.899v-3.335h1.097v3.191c0,.93,.311,1.373,1.119,1.373,.561,0,.968-.249,1.505-.887v-3.677h1.096v5.375h-.905l-.087-.896h-.044c-.524,.608-1.138,1.028-1.952,1.028-1.259,0-1.828-.772-1.828-2.172Z"/>
    <path class="uuid-98f53299-cc5c-4f90-82de-7ad124eaaf7a" d="M352.789,83.236l.488-.71c.63,.434,1.362,.706,2.29,.706,.824,0,1.22-.329,1.22-.732,0-.38-.224-.622-1.577-.9-1.42-.294-2.087-.786-2.087-1.599,0-.899,.809-1.567,2.297-1.567,.855,0,1.671,.335,2.21,.698l-.515,.684c-.509-.339-1.13-.551-1.791-.551-.8,0-1.109,.316-1.109,.684,0,.421,.43,.586,1.484,.811,1.749,.383,2.188,.833,2.188,1.675,0,.9-.872,1.638-2.459,1.638-1.026,0-1.98-.383-2.64-.836Z"/>
    <path class="uuid-98f53299-cc5c-4f90-82de-7ad124eaaf7a" d="M360.835,81.813v-2.375h-1.481v-.817l1.524-.057,.145-1.704h.908v1.704h2.536v.875h-2.536v2.377c0,.924,.328,1.372,1.3,1.372,.473,0,.856-.095,1.226-.23l.223,.801c-.484,.167-1.016,.312-1.701,.312-1.607,0-2.143-.909-2.143-2.258Z"/>
    <path class="uuid-98f53299-cc5c-4f90-82de-7ad124eaaf7a" d="M365.882,81.261c0-1.799,1.261-2.829,2.678-2.829s2.677,1.029,2.677,2.829c0,1.781-1.261,2.811-2.677,2.811s-2.678-1.029-2.678-2.811Zm4.232,0c0-1.158-.604-1.928-1.555-1.928s-1.556,.77-1.556,1.928c0,1.149,.604,1.91,1.556,1.91s1.555-.76,1.555-1.91Z"/>
    <path class="uuid-98f53299-cc5c-4f90-82de-7ad124eaaf7a" d="M372.43,78.564h.854l.087,.696h.026c.257-.48,.591-.828,1.211-.828,.514,0,.848,.308,.996,.916,.279-.551,.623-.916,1.241-.916,.757,0,1.196,.605,1.196,1.679v3.829h-1.066v-3.75c0-.544-.151-.822-.5-.822-.331,0-.515,.248-.766,.749v3.823h-.947v-3.75c0-.544-.14-.822-.488-.822-.329,0-.544,.248-.777,.749v3.823h-1.066v-5.375Z"/>
    <path class="uuid-98f53299-cc5c-4f90-82de-7ad124eaaf7a" d="M381.819,79.439h-2.403v-.875h3.5v5.375h-1.097v-4.501Zm-.356-2.705c0-.463,.345-.782,.816-.782s.816,.319,.816,.782c0,.472-.345,.778-.816,.778s-.816-.306-.816-.778Z"/>
    <path class="uuid-98f53299-cc5c-4f90-82de-7ad124eaaf7a" d="M385.838,83.357l3.442-3.918h-3.054v-.875h4.607v.583l-3.447,3.909h3.54v.884h-5.089v-.583Z"/>
    <path class="uuid-98f53299-cc5c-4f90-82de-7ad124eaaf7a" d="M392.485,82.521c0-1.206,1.093-1.799,3.808-2.002-.04-.665-.396-1.198-1.352-1.198-.65,0-1.291,.297-1.817,.605l-.418-.731c.604-.373,1.497-.762,2.43-.762,1.482,0,2.253,.851,2.253,2.27v3.237h-.905l-.087-.697h-.035c-.575,.45-1.322,.829-2.059,.829-1.027,0-1.817-.604-1.817-1.551Zm3.808-.042v-1.259c-2.112,.151-2.737,.576-2.737,1.218,0,.54,.484,.763,1.06,.763s1.121-.27,1.678-.722Z"/>
    <path class="uuid-98f53299-cc5c-4f90-82de-7ad124eaaf7a" d="M400.434,81.813v-2.375h-1.481v-.817l1.524-.057,.145-1.704h.908v1.704h2.536v.875h-2.536v2.377c0,.924,.328,1.372,1.3,1.372,.473,0,.856-.095,1.226-.23l.223,.801c-.484,.167-1.016,.312-1.701,.312-1.607,0-2.143-.909-2.143-2.258Z"/>
    <path class="uuid-98f53299-cc5c-4f90-82de-7ad124eaaf7a" d="M408.219,79.439h-2.403v-.875h3.5v5.375h-1.097v-4.501Zm-.356-2.705c0-.463,.345-.782,.816-.782s.816,.319,.816,.782c0,.472-.345,.778-.816,.778s-.816-.306-.816-.778Z"/>
    <path class="uuid-98f53299-cc5c-4f90-82de-7ad124eaaf7a" d="M412.081,81.261c0-1.799,1.261-2.829,2.678-2.829s2.677,1.029,2.677,2.829c0,1.781-1.261,2.811-2.677,2.811s-2.678-1.029-2.678-2.811Zm4.232,0c0-1.158-.604-1.928-1.555-1.928s-1.556,.77-1.556,1.928c0,1.149,.604,1.91,1.556,1.91s1.555-.76,1.555-1.91Z"/>
    <path class="uuid-98f53299-cc5c-4f90-82de-7ad124eaaf7a" d="M419.022,78.564h.896l.088,.857h.044c.538-.552,1.15-.989,1.98-.989,1.257,0,1.829,.772,1.829,2.172v3.335h-1.096v-3.191c0-.938-.315-1.372-1.112-1.372-.585,0-.979,.288-1.533,.856v3.707h-1.096v-5.375Z"/>
    <path class="uuid-98f53299-cc5c-4f90-82de-7ad124eaaf7a" d="M426.967,83.044c0-.593,.429-1.027,.992-1.027s.991,.434,.991,1.027c0,.604-.429,1.027-.991,1.027s-.992-.423-.992-1.027Z"/>
    <path class="uuid-98f53299-cc5c-4f90-82de-7ad124eaaf7a" d="M431.995,86.086l.214-.857c.143,.044,.311,.075,.468,.075,.717,0,1.139-.426,1.381-1.024l.142-.367-2.454-5.348h1.102l1.199,2.792c.205,.483,.422,1.042,.629,1.574h.044c.177-.517,.38-1.078,.554-1.574l1.063-2.792h1.048l-2.31,5.717c-.431,1.136-1.08,1.915-2.343,1.915-.269,0-.537-.044-.736-.11Z"/>
    <path class="uuid-98f53299-cc5c-4f90-82de-7ad124eaaf7a" d="M438.684,82.521c0-1.206,1.093-1.799,3.808-2.002-.04-.665-.396-1.198-1.352-1.198-.65,0-1.291,.297-1.817,.605l-.418-.731c.604-.373,1.497-.762,2.43-.762,1.482,0,2.253,.851,2.253,2.27v3.237h-.905l-.087-.697h-.035c-.575,.45-1.322,.829-2.059,.829-1.027,0-1.817-.604-1.817-1.551Zm3.808-.042v-1.259c-2.112,.151-2.737,.576-2.737,1.218,0,.54,.484,.763,1.06,.763s1.121-.27,1.678-.722Z"/>
    <path class="uuid-98f53299-cc5c-4f90-82de-7ad124eaaf7a" d="M445.03,78.564h.854l.087,.696h.026c.257-.48,.591-.828,1.211-.828,.514,0,.848,.308,.996,.916,.279-.551,.623-.916,1.241-.916,.757,0,1.196,.605,1.196,1.679v3.829h-1.066v-3.75c0-.544-.151-.822-.5-.822-.331,0-.515,.248-.766,.749v3.823h-.947v-3.75c0-.544-.14-.822-.488-.822-.329,0-.544,.248-.777,.749v3.823h-1.066v-5.375Z"/>
    <path class="uuid-98f53299-cc5c-4f90-82de-7ad124eaaf7a" d="M453.649,82.058v-5.044h-1.848v-.875h2.943v5.985c0,.745,.422,1.046,1.013,1.046,.294,0,.607-.071,.962-.226l.265,.814c-.514,.203-.874,.312-1.482,.312-1.203,0-1.853-.717-1.853-2.013Z"/>
    <path class="uuid-98f53299-cc5c-4f90-82de-7ad124eaaf7a" d="M339.618,94.445c0-2.255,.936-4.071,2.674-5.138l.649,.803c-1.42,.913-2.201,2.442-2.201,4.334,0,1.903,.781,3.433,2.201,4.346l-.649,.792c-1.738-1.067-2.674-2.882-2.674-5.138Z"/>
    <path class="uuid-98f53299-cc5c-4f90-82de-7ad124eaaf7a" d="M344.183,91.628h1.243v1.188c.308-.836,.836-1.287,1.518-1.287,.209,.011,.353,.033,.539,.11v1.089c-.198-.077-.451-.132-.682-.132-.605,0-1.101,.341-1.375,.913v3.63h-1.243v-5.512Z"/>
    <path class="uuid-98f53299-cc5c-4f90-82de-7ad124eaaf7a" d="M348,94.389c0-1.617,1.167-2.849,2.685-2.849,1.508,0,2.607,1.199,2.607,2.849v.297h-4.07c.121,.891,.792,1.54,1.65,1.54,.517,0,1.001-.198,1.309-.517l.814,.737c-.671,.561-1.342,.803-2.179,.803-1.584,0-2.816-1.243-2.816-2.86Zm4.115-.473c-.132-.803-.704-1.364-1.441-1.364-.748,0-1.298,.539-1.441,1.364h2.883Z"/>
    <path class="uuid-98f53299-cc5c-4f90-82de-7ad124eaaf7a" d="M355.139,92.618h-1.188v-.99h1.188v-.946c0-1.199,.671-1.848,1.903-1.848,.308,0,.615,.033,.825,.099v1.056c-.275-.055-.44-.077-.66-.077-.572,0-.825,.253-.825,.792v.924h1.485v.99h-1.485v4.521h-1.243v-4.521Z"/>
    <path class="uuid-98f53299-cc5c-4f90-82de-7ad124eaaf7a" d="M358.438,94.389c0-1.617,1.167-2.849,2.685-2.849,1.508,0,2.607,1.199,2.607,2.849v.297h-4.07c.121,.891,.792,1.54,1.65,1.54,.517,0,1.001-.198,1.309-.517l.814,.737c-.671,.561-1.342,.803-2.179,.803-1.584,0-2.816-1.243-2.816-2.86Zm4.115-.473c-.132-.803-.704-1.364-1.441-1.364-.748,0-1.298,.539-1.441,1.364h2.883Z"/>
    <path class="uuid-98f53299-cc5c-4f90-82de-7ad124eaaf7a" d="M364.996,91.628h1.243v1.188c.308-.836,.836-1.287,1.518-1.287,.209,.011,.353,.033,.539,.11v1.089c-.198-.077-.451-.132-.682-.132-.605,0-1.101,.341-1.375,.913v3.63h-1.243v-5.512Z"/>
    <path class="uuid-98f53299-cc5c-4f90-82de-7ad124eaaf7a" d="M368.845,96.502l.583-.825c.726,.451,1.21,.627,1.771,.627,.66,0,1.111-.308,1.111-.748,0-.341-.23-.517-.77-.627l-.969-.165c-1.078-.198-1.595-.693-1.595-1.518,0-1.034,.847-1.705,2.134-1.705,.771,0,1.464,.22,2.168,.66l-.583,.825c-.562-.363-1.101-.528-1.661-.528-.572,0-.946,.242-.946,.638,0,.352,.197,.506,.77,.605l.979,.187c1.1,.198,1.628,.704,1.628,1.529,0,1.012-.968,1.793-2.255,1.793-.946,0-1.782-.264-2.365-.748Z"/>
    <path class="uuid-98f53299-cc5c-4f90-82de-7ad124eaaf7a" d="M377.765,95.71v-3.091h-1.1v-.99h1.1v-1.518l1.243-.264v1.782h1.529v.99h-1.529v2.816c0,.539,.209,.748,.771,.748,.242,0,.418-.033,.748-.132v1.045c-.319,.099-.737,.154-1.067,.154-1.111,0-1.694-.528-1.694-1.54Z"/>
    <path class="uuid-98f53299-cc5c-4f90-82de-7ad124eaaf7a" d="M381.296,94.389c0-1.628,1.188-2.849,2.772-2.849,1.573,0,2.762,1.221,2.762,2.849s-1.188,2.85-2.762,2.85c-1.584,0-2.772-1.221-2.772-2.85Zm4.313,0c0-1.023-.649-1.793-1.541-1.793-.901,0-1.551,.77-1.551,1.793,0,1.034,.649,1.793,1.551,1.793,.892,0,1.541-.759,1.541-1.793Z"/>
    <path class="uuid-98f53299-cc5c-4f90-82de-7ad124eaaf7a" d="M390.592,89.285l1.243-.209v3.289c.385-.484,1.001-.781,1.694-.781,1.396,0,2.486,1.243,2.486,2.805,0,1.573-1.123,2.806-2.563,2.806-.649,0-1.222-.264-1.64-.759v.704h-1.221v-7.855Zm4.202,5.104c0-1.001-.704-1.76-1.64-1.76-.55,0-1.001,.22-1.319,.616v2.299c.318,.385,.792,.616,1.319,.616,.946,0,1.64-.759,1.64-1.771Z"/>
    <path class="uuid-98f53299-cc5c-4f90-82de-7ad124eaaf7a" d="M397.082,95.556c0-.99,.813-1.618,2.112-1.618,.517,0,1.001,.11,1.485,.352v-.616c0-.726-.419-1.1-1.266-1.1-.462,0-.968,.132-1.606,.429l-.439-.902c.825-.374,1.551-.561,2.288-.561,1.441,0,2.255,.726,2.255,2.002v3.598h-1.231v-.572c-.474,.462-1.002,.671-1.64,.671-1.155,0-1.958-.693-1.958-1.683Zm2.299,.803c.495,0,.925-.143,1.299-.462v-.891c-.396-.187-.793-.264-1.266-.264-.715,0-1.166,.297-1.166,.792,0,.506,.439,.825,1.133,.825Z"/>
    <path class="uuid-98f53299-cc5c-4f90-82de-7ad124eaaf7a" d="M402.923,96.502l.583-.825c.726,.451,1.21,.627,1.771,.627,.66,0,1.111-.308,1.111-.748,0-.341-.23-.517-.77-.627l-.969-.165c-1.078-.198-1.595-.693-1.595-1.518,0-1.034,.847-1.705,2.134-1.705,.771,0,1.464,.22,2.168,.66l-.583,.825c-.562-.363-1.101-.528-1.662-.528-.571,0-.945,.242-.945,.638,0,.352,.197,.506,.77,.605l.979,.187c1.1,.198,1.628,.704,1.628,1.529,0,1.012-.968,1.793-2.255,1.793-.946,0-1.782-.264-2.365-.748Z"/>
    <path class="uuid-98f53299-cc5c-4f90-82de-7ad124eaaf7a" d="M408.487,94.389c0-1.617,1.167-2.849,2.685-2.849,1.508,0,2.607,1.199,2.607,2.849v.297h-4.07c.121,.891,.792,1.54,1.65,1.54,.517,0,1.001-.198,1.309-.517l.814,.737c-.671,.561-1.342,.803-2.179,.803-1.584,0-2.816-1.243-2.816-2.86Zm4.115-.473c-.132-.803-.704-1.364-1.441-1.364-.748,0-1.298,.539-1.441,1.364h2.883Z"/>
    <path class="uuid-98f53299-cc5c-4f90-82de-7ad124eaaf7a" d="M418.069,94.455c0,2.255-.936,4.071-2.674,5.138l-.649-.803c1.42-.913,2.201-2.442,2.201-4.335,0-1.903-.781-3.432-2.201-4.345l.649-.792c1.738,1.067,2.674,2.882,2.674,5.138Z"/>
  </g>
  <g>
    <path class="uuid-98f53299-cc5c-4f90-82de-7ad124eaaf7a" d="M338.484,64.569c0-1.595,1.166-2.86,2.64-2.86,.595,0,1.134,.242,1.519,.682v-2.805l1.782-.275v8.108h-1.76v-.737c-.374,.473-1.002,.771-1.673,.771-1.397,0-2.508-1.288-2.508-2.883Zm4.158,.958v-1.915c-.275-.286-.649-.44-1.056-.44-.781,0-1.354,.594-1.354,1.408,0,.803,.583,1.397,1.354,1.397,.429,0,.78-.154,1.056-.451Z"/>
    <path class="uuid-98f53299-cc5c-4f90-82de-7ad124eaaf7a" d="M345.557,64.591c0-1.661,1.231-2.937,2.86-2.937,1.639,0,2.794,1.243,2.794,3.003v.385h-3.905c.165,.638,.682,1.067,1.331,1.067,.473,0,.869-.165,1.122-.473l1.178,.979c-.737,.649-1.431,.913-2.388,.913-1.673,0-2.992-1.287-2.992-2.938Zm4.004-.561c-.153-.605-.583-.99-1.155-.99-.561,0-.957,.363-1.1,.99h2.255Z"/>
    <path class="uuid-98f53299-cc5c-4f90-82de-7ad124eaaf7a" d="M351.541,61.741h1.937l1.287,3.564,1.298-3.564h1.837l-2.321,5.677h-1.738l-2.299-5.677Z"/>
    <path class="uuid-98f53299-cc5c-4f90-82de-7ad124eaaf7a" d="M358.251,64.591c0-1.661,1.231-2.937,2.86-2.937,1.639,0,2.794,1.243,2.794,3.003v.385h-3.905c.165,.638,.682,1.067,1.331,1.067,.473,0,.869-.165,1.122-.473l1.178,.979c-.737,.649-1.431,.913-2.388,.913-1.673,0-2.992-1.287-2.992-2.938Zm4.004-.561c-.153-.605-.583-.99-1.155-.99-.561,0-.957,.363-1.1,.99h2.255Z"/>
    <path class="uuid-98f53299-cc5c-4f90-82de-7ad124eaaf7a" d="M365.015,59.585l1.782-.275v8.108h-1.782v-7.833Z"/>
    <path class="uuid-98f53299-cc5c-4f90-82de-7ad124eaaf7a" d="M367.93,64.591c0-1.672,1.275-2.937,2.959-2.937s2.96,1.265,2.96,2.937-1.276,2.938-2.96,2.938-2.959-1.265-2.959-2.938Zm4.181,0c0-.847-.507-1.452-1.222-1.452s-1.221,.605-1.221,1.452,.506,1.453,1.221,1.453,1.222-.605,1.222-1.453Z"/>
    <path class="uuid-98f53299-cc5c-4f90-82de-7ad124eaaf7a" d="M374.982,61.741h1.76v.792c.374-.506,1.001-.825,1.684-.825,1.397,0,2.508,1.287,2.508,2.882s-1.166,2.861-2.64,2.861c-.616,0-1.155-.231-1.529-.66v2.926h-1.782v-7.976Zm4.202,2.838c0-.803-.583-1.397-1.353-1.397-.44,0-.781,.154-1.067,.462v1.892c.274,.286,.648,.451,1.067,.451,.78,0,1.353-.594,1.353-1.408Z"/>
    <path class="uuid-98f53299-cc5c-4f90-82de-7ad124eaaf7a" d="M382.066,61.741h1.782v.902c.418-.649,.99-.99,1.683-.99,.737,0,1.32,.407,1.596,1.056,.44-.682,1.078-1.056,1.859-1.056,1.045,0,1.782,.825,1.782,1.991v3.773h-1.782v-3.421c0-.572-.341-.946-.848-.946-.33,0-.594,.132-.825,.429v3.938h-1.782v-3.421c0-.572-.341-.946-.847-.946-.33,0-.605,.143-.836,.44v3.928h-1.782v-5.677Z"/>
    <path class="uuid-98f53299-cc5c-4f90-82de-7ad124eaaf7a" d="M391.855,64.591c0-1.661,1.231-2.937,2.86-2.937,1.639,0,2.794,1.243,2.794,3.003v.385h-3.905c.165,.638,.682,1.067,1.331,1.067,.473,0,.869-.165,1.122-.473l1.178,.979c-.737,.649-1.431,.913-2.388,.913-1.672,0-2.992-1.287-2.992-2.938Zm4.004-.561c-.153-.605-.583-.99-1.155-.99-.561,0-.957,.363-1.1,.99h2.255Z"/>
    <path class="uuid-98f53299-cc5c-4f90-82de-7ad124eaaf7a" d="M398.621,61.741h1.782v.924c.439-.66,1.056-1.012,1.793-1.012,1.101,0,1.881,.803,1.881,1.936v3.829h-1.782v-3.312c0-.638-.374-1.056-.945-1.056-.386,0-.693,.154-.946,.473v3.895h-1.782v-5.677Z"/>
    <path class="uuid-98f53299-cc5c-4f90-82de-7ad124eaaf7a" d="M406.002,65.702v-2.585h-1.101v-1.375h1.101v-1.573l1.782-.363v1.937h1.518v1.375h-1.518v2.233c0,.506,.198,.682,.748,.682,.209,0,.374-.022,.726-.121v1.441c-.33,.099-.857,.176-1.221,.176-1.342,0-2.035-.616-2.035-1.826Z"/>
  </g>
  <rect class="uuid-804cbb74-ea4e-4ce8-8aec-d779cd21f42c" x="18.215" y="19.088" width="260.938" height="101.06"/>
  <g>
    <path class="uuid-98f53299-cc5c-4f90-82de-7ad124eaaf7a" d="M31.553,29.954l1.782-.275v3.158c.374-.462,.99-.759,1.661-.759,1.397,0,2.508,1.287,2.508,2.882s-1.166,2.861-2.64,2.861c-.616,0-1.166-.264-1.552-.726v.693h-1.76v-7.833Zm4.202,4.995c0-.803-.583-1.397-1.353-1.397-.44,0-.781,.154-1.067,.462v1.892c.274,.286,.648,.451,1.067,.451,.78,0,1.353-.594,1.353-1.408Z"/>
    <path class="uuid-98f53299-cc5c-4f90-82de-7ad124eaaf7a" d="M38.427,36.159c0-1.045,.814-1.65,2.212-1.65,.407,0,.813,.077,1.32,.264v-.462c0-.55-.363-.825-1.122-.825-.43,0-.936,.121-1.596,.396l-.616-1.243c.936-.418,1.771-.616,2.607-.616,1.573,0,2.486,.781,2.486,2.134v3.63h-1.76v-.495c-.495,.418-.969,.583-1.573,.583-1.155,0-1.959-.704-1.959-1.716Zm2.509,.539c.374,0,.715-.099,1.023-.286v-.726c-.33-.077-.649-.121-.979-.121-.583,0-.913,.198-.913,.561s.319,.572,.869,.572Z"/>
    <path class="uuid-98f53299-cc5c-4f90-82de-7ad124eaaf7a" d="M44.598,37.204l.78-1.188c.814,.429,1.276,.572,1.827,.572,.506,0,.813-.176,.813-.462,0-.22-.165-.341-.528-.407l-1.089-.198c-1.1-.209-1.672-.771-1.672-1.65,0-1.155,.891-1.848,2.376-1.848,.792,0,1.573,.22,2.311,.649l-.814,1.133c-.572-.33-1.1-.484-1.628-.484-.429,0-.683,.143-.683,.385,0,.231,.144,.33,.584,.407l1.066,.198c1.122,.209,1.706,.781,1.706,1.639,0,1.111-1.046,1.947-2.442,1.947-1.034,0-1.947-.242-2.607-.693Z"/>
    <path class="uuid-98f53299-cc5c-4f90-82de-7ad124eaaf7a" d="M50.483,34.96c0-1.661,1.231-2.937,2.86-2.937,1.639,0,2.794,1.243,2.794,3.003v.385h-3.905c.165,.638,.682,1.067,1.331,1.067,.473,0,.869-.165,1.122-.473l1.178,.979c-.737,.649-1.431,.913-2.388,.913-1.673,0-2.992-1.287-2.992-2.938Zm4.004-.561c-.153-.605-.583-.99-1.155-.99-.561,0-.957,.363-1.1,.99h2.255Z"/>
  </g>
  <rect class="uuid-0d26a9a5-5d53-480c-8827-f90e65402aa3" x="30.86" y="49.028" width="235.648" height="60.238"/>
  <g>
    <path class="uuid-98f53299-cc5c-4f90-82de-7ad124eaaf7a" d="M42.022,73.313h1.096v5.072h.044l2.647-2.647h1.232l-3.924,3.944v1.432h-1.096v-7.8Zm2.112,5.056l.648-.701,2.516,3.445h-1.205l-1.959-2.744Z"/>
    <path class="uuid-98f53299-cc5c-4f90-82de-7ad124eaaf7a" d="M48.354,79.072v-3.335h1.097v3.191c0,.929,.311,1.372,1.119,1.372,.561,0,.968-.249,1.505-.887v-3.677h1.096v5.375h-.905l-.087-.896h-.044c-.524,.608-1.138,1.028-1.952,1.028-1.259,0-1.828-.772-1.828-2.172Z"/>
    <path class="uuid-98f53299-cc5c-4f90-82de-7ad124eaaf7a" d="M54.881,80.409l.488-.71c.63,.434,1.362,.706,2.29,.706,.824,0,1.22-.329,1.22-.732,0-.38-.224-.622-1.577-.9-1.42-.294-2.087-.786-2.087-1.599,0-.899,.809-1.567,2.297-1.567,.855,0,1.671,.335,2.21,.698l-.515,.684c-.509-.339-1.13-.551-1.791-.551-.8,0-1.109,.316-1.109,.684,0,.421,.43,.586,1.484,.811,1.749,.383,2.188,.833,2.188,1.675,0,.9-.872,1.638-2.459,1.638-1.026,0-1.98-.383-2.64-.836Z"/>
    <path class="uuid-98f53299-cc5c-4f90-82de-7ad124eaaf7a" d="M62.927,78.987v-2.375h-1.481v-.817l1.524-.057,.145-1.704h.908v1.704h2.536v.875h-2.536v2.377c0,.924,.328,1.372,1.3,1.372,.473,0,.856-.095,1.226-.23l.223,.801c-.484,.167-1.016,.312-1.701,.312-1.607,0-2.143-.91-2.143-2.258Z"/>
    <path class="uuid-98f53299-cc5c-4f90-82de-7ad124eaaf7a" d="M67.973,78.434c0-1.799,1.261-2.829,2.678-2.829s2.677,1.029,2.677,2.829c0,1.781-1.261,2.811-2.677,2.811s-2.678-1.029-2.678-2.811Zm4.232,0c0-1.158-.604-1.928-1.555-1.928s-1.556,.77-1.556,1.928c0,1.149,.604,1.91,1.556,1.91s1.555-.76,1.555-1.91Z"/>
    <path class="uuid-98f53299-cc5c-4f90-82de-7ad124eaaf7a" d="M74.522,75.738h.854l.087,.696h.026c.257-.48,.591-.828,1.211-.828,.514,0,.848,.308,.996,.916,.279-.551,.623-.916,1.241-.916,.757,0,1.196,.605,1.196,1.679v3.829h-1.066v-3.75c0-.544-.151-.822-.5-.822-.331,0-.515,.248-.766,.749v3.823h-.947v-3.75c0-.544-.14-.822-.488-.822-.329,0-.544,.248-.777,.749v3.823h-1.066v-5.375Z"/>
    <path class="uuid-98f53299-cc5c-4f90-82de-7ad124eaaf7a" d="M83.911,76.612h-2.403v-.875h3.5v5.375h-1.097v-4.501Zm-.356-2.705c0-.463,.345-.782,.816-.782s.816,.319,.816,.782c0,.472-.345,.778-.816,.778s-.816-.306-.816-.778Z"/>
    <path class="uuid-98f53299-cc5c-4f90-82de-7ad124eaaf7a" d="M87.929,80.53l3.442-3.918h-3.054v-.875h4.607v.583l-3.447,3.909h3.54v.884h-5.089v-.583Z"/>
    <path class="uuid-98f53299-cc5c-4f90-82de-7ad124eaaf7a" d="M94.577,79.694c0-1.206,1.093-1.799,3.808-2.002-.04-.665-.396-1.198-1.352-1.198-.65,0-1.291,.297-1.817,.605l-.418-.731c.604-.373,1.497-.762,2.43-.762,1.482,0,2.253,.851,2.253,2.27v3.237h-.905l-.087-.697h-.035c-.575,.45-1.322,.829-2.059,.829-1.027,0-1.817-.604-1.817-1.551Zm3.808-.042v-1.259c-2.112,.151-2.737,.576-2.737,1.218,0,.54,.484,.763,1.06,.763s1.121-.27,1.678-.722Z"/>
    <path class="uuid-98f53299-cc5c-4f90-82de-7ad124eaaf7a" d="M102.526,78.987v-2.375h-1.481v-.817l1.524-.057,.145-1.704h.908v1.704h2.536v.875h-2.536v2.377c0,.924,.328,1.372,1.3,1.372,.473,0,.856-.095,1.226-.23l.223,.801c-.484,.167-1.016,.312-1.701,.312-1.607,0-2.143-.91-2.143-2.258Z"/>
    <path class="uuid-98f53299-cc5c-4f90-82de-7ad124eaaf7a" d="M110.31,76.612h-2.403v-.875h3.5v5.375h-1.097v-4.501Zm-.356-2.705c0-.463,.345-.782,.816-.782s.816,.319,.816,.782c0,.472-.345,.778-.816,.778s-.816-.306-.816-.778Z"/>
    <path class="uuid-98f53299-cc5c-4f90-82de-7ad124eaaf7a" d="M114.173,78.434c0-1.799,1.261-2.829,2.678-2.829s2.677,1.029,2.677,2.829c0,1.781-1.261,2.811-2.677,2.811s-2.678-1.029-2.678-2.811Zm4.232,0c0-1.158-.604-1.928-1.555-1.928s-1.556,.77-1.556,1.928c0,1.149,.604,1.91,1.556,1.91s1.555-.76,1.555-1.91Z"/>
    <path class="uuid-98f53299-cc5c-4f90-82de-7ad124eaaf7a" d="M121.114,75.738h.896l.088,.857h.044c.538-.552,1.15-.989,1.98-.989,1.257,0,1.829,.772,1.829,2.172v3.335h-1.096v-3.191c0-.938-.315-1.372-1.112-1.372-.585,0-.979,.288-1.533,.856v3.707h-1.096v-5.375Z"/>
    <path class="uuid-98f53299-cc5c-4f90-82de-7ad124eaaf7a" d="M129.058,80.217c0-.593,.429-1.028,.992-1.028s.991,.435,.991,1.028c0,.604-.429,1.027-.991,1.027s-.992-.423-.992-1.027Z"/>
    <path class="uuid-98f53299-cc5c-4f90-82de-7ad124eaaf7a" d="M134.087,83.259l.214-.857c.143,.044,.311,.075,.468,.075,.717,0,1.139-.426,1.381-1.024l.142-.367-2.454-5.348h1.102l1.199,2.792c.205,.483,.422,1.042,.629,1.574h.044c.177-.517,.38-1.078,.554-1.574l1.063-2.792h1.048l-2.31,5.717c-.431,1.136-1.08,1.915-2.343,1.915-.269,0-.537-.044-.736-.11Z"/>
    <path class="uuid-98f53299-cc5c-4f90-82de-7ad124eaaf7a" d="M140.776,79.694c0-1.206,1.093-1.799,3.808-2.002-.04-.665-.396-1.198-1.352-1.198-.65,0-1.291,.297-1.817,.605l-.418-.731c.604-.373,1.497-.762,2.43-.762,1.482,0,2.253,.851,2.253,2.27v3.237h-.905l-.087-.697h-.035c-.575,.45-1.322,.829-2.059,.829-1.027,0-1.817-.604-1.817-1.551Zm3.808-.042v-1.259c-2.112,.151-2.737,.576-2.737,1.218,0,.54,.484,.763,1.06,.763s1.121-.27,1.678-.722Z"/>
    <path class="uuid-98f53299-cc5c-4f90-82de-7ad124eaaf7a" d="M147.122,75.738h.854l.087,.696h.026c.257-.48,.591-.828,1.211-.828,.514,0,.848,.308,.996,.916,.279-.551,.623-.916,1.241-.916,.757,0,1.196,.605,1.196,1.679v3.829h-1.066v-3.75c0-.544-.151-.822-.5-.822-.331,0-.515,.248-.766,.749v3.823h-.947v-3.75c0-.544-.14-.822-.488-.822-.329,0-.544,.248-.777,.749v3.823h-1.066v-5.375Z"/>
    <path class="uuid-98f53299-cc5c-4f90-82de-7ad124eaaf7a" d="M155.741,79.232v-5.044h-1.848v-.875h2.943v5.985c0,.745,.422,1.046,1.013,1.046,.294,0,.607-.071,.962-.226l.265,.814c-.514,.203-.874,.312-1.482,.312-1.203,0-1.853-.717-1.853-2.013Z"/>
    <path class="uuid-98f53299-cc5c-4f90-82de-7ad124eaaf7a" d="M169.227,77.883h-1.986v-.801h1.986v-2.114h.845v2.114h1.986v.801h-1.986v2.115h-.845v-2.115Z"/>
    <path class="uuid-98f53299-cc5c-4f90-82de-7ad124eaaf7a" d="M180.553,73.908h2.331c1.478,0,2.593,.528,2.593,2.086,0,1.495-1.115,2.192-2.593,2.192h-1.217v2.926h-1.114v-7.205Zm2.199,3.391c1.053,0,1.628-.438,1.628-1.304,0-.884-.575-1.199-1.628-1.199h-1.085v2.503h1.085Zm.745-.039l2.223,3.853h-1.244l-1.808-3.225,.829-.628Z"/>
    <path class="uuid-98f53299-cc5c-4f90-82de-7ad124eaaf7a" d="M186.86,78.416c0-1.75,1.319-2.811,2.758-2.811,1.577,0,2.475,1.036,2.475,2.537,0,.231-.028,.454-.05,.595h-4.423v-.803h3.74l-.237,.267c0-1.165-.563-1.748-1.476-1.748-.94,0-1.712,.694-1.712,1.962,0,1.32,.828,1.971,1.983,1.971,.601,0,1.087-.182,1.57-.473l.384,.693c-.553,.364-1.268,.638-2.093,.638-1.631,0-2.92-1.038-2.92-2.829Z"/>
    <path class="uuid-98f53299-cc5c-4f90-82de-7ad124eaaf7a" d="M193.478,80.409l.488-.71c.63,.434,1.362,.706,2.29,.706,.824,0,1.22-.329,1.22-.732,0-.38-.224-.622-1.577-.9-1.42-.294-2.087-.786-2.087-1.599,0-.899,.809-1.567,2.297-1.567,.855,0,1.671,.335,2.21,.698l-.515,.684c-.509-.339-1.13-.551-1.791-.551-.8,0-1.109,.316-1.109,.684,0,.421,.43,.586,1.484,.811,1.749,.383,2.188,.833,2.188,1.675,0,.9-.872,1.638-2.459,1.638-1.026,0-1.98-.383-2.64-.836Z"/>
    <path class="uuid-98f53299-cc5c-4f90-82de-7ad124eaaf7a" d="M199.971,78.434c0-1.799,1.261-2.829,2.678-2.829s2.677,1.029,2.677,2.829c0,1.781-1.261,2.811-2.677,2.811s-2.678-1.029-2.678-2.811Zm4.232,0c0-1.158-.604-1.928-1.555-1.928s-1.556,.77-1.556,1.928c0,1.149,.604,1.91,1.556,1.91s1.555-.76,1.555-1.91Z"/>
    <path class="uuid-98f53299-cc5c-4f90-82de-7ad124eaaf7a" d="M206.752,79.072v-3.335h1.097v3.191c0,.929,.311,1.372,1.119,1.372,.561,0,.968-.249,1.505-.887v-3.677h1.096v5.375h-.905l-.087-.896h-.044c-.524,.608-1.138,1.028-1.952,1.028-1.259,0-1.828-.772-1.828-2.172Z"/>
    <path class="uuid-98f53299-cc5c-4f90-82de-7ad124eaaf7a" d="M214.059,75.738h.907l.099,1.247h.025c.556-.875,1.383-1.378,2.343-1.378,.416,0,.728,.061,1.054,.22l-.239,.931c-.366-.117-.57-.172-.984-.172-.771,0-1.513,.393-2.107,1.478v3.05h-1.097v-5.375Z"/>
    <path class="uuid-98f53299-cc5c-4f90-82de-7ad124eaaf7a" d="M219.991,78.434c0-1.799,1.394-2.829,3.027-2.829,.867,0,1.527,.339,1.972,.771l-.527,.692c-.434-.355-.875-.562-1.397-.562-1.156,0-1.952,.77-1.952,1.928,0,1.149,.785,1.91,1.922,1.91,.638,0,1.167-.285,1.595-.632l.471,.705c-.61,.534-1.374,.828-2.153,.828-1.686,0-2.956-1.029-2.956-2.811Z"/>
    <path class="uuid-98f53299-cc5c-4f90-82de-7ad124eaaf7a" d="M226.459,78.416c0-1.75,1.319-2.811,2.758-2.811,1.577,0,2.475,1.036,2.475,2.537,0,.231-.028,.454-.05,.595h-4.423v-.803h3.74l-.237,.267c0-1.165-.563-1.748-1.476-1.748-.94,0-1.712,.694-1.712,1.962,0,1.32,.828,1.971,1.983,1.971,.601,0,1.086-.182,1.57-.473l.384,.693c-.553,.364-1.268,.638-2.093,.638-1.631,0-2.92-1.038-2.92-2.829Z"/>
    <path class="uuid-98f53299-cc5c-4f90-82de-7ad124eaaf7a" d="M233.078,80.409l.488-.71c.63,.434,1.362,.706,2.29,.706,.824,0,1.22-.329,1.22-.732,0-.38-.224-.622-1.577-.9-1.42-.294-2.087-.786-2.087-1.599,0-.899,.809-1.567,2.297-1.567,.855,0,1.671,.335,2.21,.698l-.515,.684c-.509-.339-1.13-.551-1.791-.551-.8,0-1.109,.316-1.109,.684,0,.421,.43,.586,1.484,.811,1.749,.383,2.188,.833,2.188,1.675,0,.9-.872,1.638-2.459,1.638-1.026,0-1.98-.383-2.64-.836Z"/>
  </g>
  <rect class="uuid-0d26a9a5-5d53-480c-8827-f90e65402aa3" x="328.768" y="121.774" width="235.648" height="59.329"/>
  <g>
    <path class="uuid-98f53299-cc5c-4f90-82de-7ad124eaaf7a" d="M339.93,147.977h1.096v5.072h.044l2.647-2.647h1.232l-3.924,3.944v1.432h-1.096v-7.8Zm2.112,5.056l.648-.701,2.516,3.445h-1.205l-1.959-2.744Z"/>
    <path class="uuid-98f53299-cc5c-4f90-82de-7ad124eaaf7a" d="M346.262,153.737v-3.335h1.097v3.191c0,.929,.311,1.372,1.119,1.372,.561,0,.968-.249,1.505-.887v-3.677h1.096v5.375h-.905l-.087-.896h-.044c-.524,.608-1.138,1.028-1.952,1.028-1.259,0-1.828-.772-1.828-2.172Z"/>
    <path class="uuid-98f53299-cc5c-4f90-82de-7ad124eaaf7a" d="M352.789,155.073l.488-.71c.63,.434,1.362,.706,2.29,.706,.824,0,1.22-.329,1.22-.732,0-.38-.224-.622-1.577-.9-1.42-.294-2.087-.786-2.087-1.599,0-.899,.809-1.567,2.297-1.567,.855,0,1.671,.335,2.21,.698l-.515,.684c-.509-.339-1.13-.551-1.791-.551-.8,0-1.109,.316-1.109,.684,0,.421,.43,.586,1.484,.811,1.749,.383,2.188,.833,2.188,1.675,0,.9-.872,1.638-2.459,1.638-1.026,0-1.98-.383-2.64-.836Z"/>
    <path class="uuid-98f53299-cc5c-4f90-82de-7ad124eaaf7a" d="M360.835,153.651v-2.375h-1.481v-.817l1.524-.057,.145-1.704h.908v1.704h2.536v.875h-2.536v2.377c0,.924,.328,1.372,1.3,1.372,.473,0,.856-.095,1.226-.23l.223,.801c-.484,.167-1.016,.312-1.701,.312-1.607,0-2.143-.91-2.143-2.258Z"/>
    <path class="uuid-98f53299-cc5c-4f90-82de-7ad124eaaf7a" d="M365.882,153.098c0-1.799,1.261-2.829,2.678-2.829s2.677,1.029,2.677,2.829c0,1.781-1.261,2.811-2.677,2.811s-2.678-1.029-2.678-2.811Zm4.232,0c0-1.158-.604-1.928-1.555-1.928s-1.556,.77-1.556,1.928c0,1.149,.604,1.91,1.556,1.91s1.555-.76,1.555-1.91Z"/>
    <path class="uuid-98f53299-cc5c-4f90-82de-7ad124eaaf7a" d="M372.43,150.402h.854l.087,.696h.026c.257-.48,.591-.828,1.211-.828,.514,0,.848,.308,.996,.916,.279-.551,.623-.916,1.241-.916,.757,0,1.196,.605,1.196,1.679v3.829h-1.066v-3.75c0-.544-.151-.822-.5-.822-.331,0-.515,.248-.766,.749v3.823h-.947v-3.75c0-.544-.14-.822-.488-.822-.329,0-.544,.248-.777,.749v3.823h-1.066v-5.375Z"/>
    <path class="uuid-98f53299-cc5c-4f90-82de-7ad124eaaf7a" d="M381.819,151.276h-2.403v-.875h3.5v5.375h-1.097v-4.501Zm-.356-2.705c0-.463,.345-.782,.816-.782s.816,.319,.816,.782c0,.472-.345,.778-.816,.778s-.816-.306-.816-.778Z"/>
    <path class="uuid-98f53299-cc5c-4f90-82de-7ad124eaaf7a" d="M385.838,155.195l3.442-3.918h-3.054v-.875h4.607v.583l-3.447,3.909h3.54v.884h-5.089v-.583Z"/>
    <path class="uuid-98f53299-cc5c-4f90-82de-7ad124eaaf7a" d="M392.485,154.358c0-1.206,1.093-1.799,3.808-2.002-.04-.665-.396-1.198-1.352-1.198-.65,0-1.291,.297-1.817,.605l-.418-.731c.604-.373,1.497-.762,2.43-.762,1.482,0,2.253,.851,2.253,2.27v3.237h-.905l-.087-.697h-.035c-.575,.45-1.322,.829-2.059,.829-1.027,0-1.817-.604-1.817-1.551Zm3.808-.042v-1.259c-2.112,.151-2.737,.576-2.737,1.218,0,.54,.484,.763,1.06,.763s1.121-.27,1.678-.722Z"/>
    <path class="uuid-98f53299-cc5c-4f90-82de-7ad124eaaf7a" d="M400.434,153.651v-2.375h-1.481v-.817l1.524-.057,.145-1.704h.908v1.704h2.536v.875h-2.536v2.377c0,.924,.328,1.372,1.3,1.372,.473,0,.856-.095,1.226-.23l.223,.801c-.484,.167-1.016,.312-1.701,.312-1.607,0-2.143-.91-2.143-2.258Z"/>
    <path class="uuid-98f53299-cc5c-4f90-82de-7ad124eaaf7a" d="M408.219,151.276h-2.403v-.875h3.5v5.375h-1.097v-4.501Zm-.356-2.705c0-.463,.345-.782,.816-.782s.816,.319,.816,.782c0,.472-.345,.778-.816,.778s-.816-.306-.816-.778Z"/>
    <path class="uuid-98f53299-cc5c-4f90-82de-7ad124eaaf7a" d="M412.081,153.098c0-1.799,1.261-2.829,2.678-2.829s2.677,1.029,2.677,2.829c0,1.781-1.261,2.811-2.677,2.811s-2.678-1.029-2.678-2.811Zm4.232,0c0-1.158-.604-1.928-1.555-1.928s-1.556,.77-1.556,1.928c0,1.149,.604,1.91,1.556,1.91s1.555-.76,1.555-1.91Z"/>
    <path class="uuid-98f53299-cc5c-4f90-82de-7ad124eaaf7a" d="M419.022,150.402h.896l.088,.857h.044c.538-.552,1.15-.989,1.98-.989,1.257,0,1.829,.772,1.829,2.172v3.335h-1.096v-3.191c0-.938-.315-1.372-1.112-1.372-.585,0-.979,.288-1.533,.856v3.707h-1.096v-5.375Z"/>
    <path class="uuid-98f53299-cc5c-4f90-82de-7ad124eaaf7a" d="M426.967,154.882c0-.593,.429-1.028,.992-1.028s.991,.435,.991,1.028c0,.604-.429,1.027-.991,1.027s-.992-.423-.992-1.027Z"/>
    <path class="uuid-98f53299-cc5c-4f90-82de-7ad124eaaf7a" d="M431.995,157.923l.214-.857c.143,.044,.311,.075,.468,.075,.717,0,1.139-.426,1.381-1.024l.142-.367-2.454-5.348h1.102l1.199,2.792c.205,.483,.422,1.042,.629,1.574h.044c.177-.517,.38-1.078,.554-1.574l1.063-2.792h1.048l-2.31,5.717c-.431,1.136-1.08,1.915-2.343,1.915-.269,0-.537-.044-.736-.11Z"/>
    <path class="uuid-98f53299-cc5c-4f90-82de-7ad124eaaf7a" d="M438.684,154.358c0-1.206,1.093-1.799,3.808-2.002-.04-.665-.396-1.198-1.352-1.198-.65,0-1.291,.297-1.817,.605l-.418-.731c.604-.373,1.497-.762,2.43-.762,1.482,0,2.253,.851,2.253,2.27v3.237h-.905l-.087-.697h-.035c-.575,.45-1.322,.829-2.059,.829-1.027,0-1.817-.604-1.817-1.551Zm3.808-.042v-1.259c-2.112,.151-2.737,.576-2.737,1.218,0,.54,.484,.763,1.06,.763s1.121-.27,1.678-.722Z"/>
    <path class="uuid-98f53299-cc5c-4f90-82de-7ad124eaaf7a" d="M445.03,150.402h.854l.087,.696h.026c.257-.48,.591-.828,1.211-.828,.514,0,.848,.308,.996,.916,.279-.551,.623-.916,1.241-.916,.757,0,1.196,.605,1.196,1.679v3.829h-1.066v-3.75c0-.544-.151-.822-.5-.822-.331,0-.515,.248-.766,.749v3.823h-.947v-3.75c0-.544-.14-.822-.488-.822-.329,0-.544,.248-.777,.749v3.823h-1.066v-5.375Z"/>
    <path class="uuid-98f53299-cc5c-4f90-82de-7ad124eaaf7a" d="M453.649,153.896v-5.044h-1.848v-.875h2.943v5.985c0,.745,.422,1.046,1.013,1.046,.294,0,.607-.071,.962-.226l.265,.814c-.514,.203-.874,.312-1.482,.312-1.203,0-1.853-.717-1.853-2.013Z"/>
    <path class="uuid-98f53299-cc5c-4f90-82de-7ad124eaaf7a" d="M339.618,166.282c0-2.255,.936-4.071,2.674-5.138l.649,.803c-1.42,.913-2.201,2.442-2.201,4.334,0,1.903,.781,3.433,2.201,4.346l-.649,.792c-1.738-1.067-2.674-2.882-2.674-5.138Z"/>
    <path class="uuid-98f53299-cc5c-4f90-82de-7ad124eaaf7a" d="M344.183,163.466h1.243v1.188c.308-.836,.836-1.287,1.518-1.287,.209,.011,.353,.033,.539,.11v1.089c-.198-.077-.451-.132-.682-.132-.605,0-1.101,.341-1.375,.913v3.63h-1.243v-5.512Z"/>
    <path class="uuid-98f53299-cc5c-4f90-82de-7ad124eaaf7a" d="M348,166.227c0-1.617,1.167-2.849,2.685-2.849,1.508,0,2.607,1.199,2.607,2.849v.297h-4.07c.121,.891,.792,1.54,1.65,1.54,.517,0,1.001-.198,1.309-.517l.814,.737c-.671,.561-1.342,.803-2.179,.803-1.584,0-2.816-1.243-2.816-2.86Zm4.115-.473c-.132-.803-.704-1.364-1.441-1.364-.748,0-1.298,.54-1.441,1.364h2.883Z"/>
    <path class="uuid-98f53299-cc5c-4f90-82de-7ad124eaaf7a" d="M355.139,164.456h-1.188v-.99h1.188v-.946c0-1.199,.671-1.848,1.903-1.848,.308,0,.615,.033,.825,.099v1.056c-.275-.055-.44-.077-.66-.077-.572,0-.825,.253-.825,.792v.924h1.485v.99h-1.485v4.521h-1.243v-4.521Z"/>
    <path class="uuid-98f53299-cc5c-4f90-82de-7ad124eaaf7a" d="M358.438,166.227c0-1.617,1.167-2.849,2.685-2.849,1.508,0,2.607,1.199,2.607,2.849v.297h-4.07c.121,.891,.792,1.54,1.65,1.54,.517,0,1.001-.198,1.309-.517l.814,.737c-.671,.561-1.342,.803-2.179,.803-1.584,0-2.816-1.243-2.816-2.86Zm4.115-.473c-.132-.803-.704-1.364-1.441-1.364-.748,0-1.298,.54-1.441,1.364h2.883Z"/>
    <path class="uuid-98f53299-cc5c-4f90-82de-7ad124eaaf7a" d="M364.996,163.466h1.243v1.188c.308-.836,.836-1.287,1.518-1.287,.209,.011,.353,.033,.539,.11v1.089c-.198-.077-.451-.132-.682-.132-.605,0-1.101,.341-1.375,.913v3.63h-1.243v-5.512Z"/>
    <path class="uuid-98f53299-cc5c-4f90-82de-7ad124eaaf7a" d="M368.845,168.339l.583-.825c.726,.451,1.21,.627,1.771,.627,.66,0,1.111-.308,1.111-.749,0-.341-.23-.517-.77-.627l-.969-.165c-1.078-.198-1.595-.693-1.595-1.518,0-1.034,.847-1.705,2.134-1.705,.771,0,1.464,.22,2.168,.66l-.583,.825c-.562-.363-1.101-.528-1.661-.528-.572,0-.946,.242-.946,.638,0,.352,.197,.506,.77,.605l.979,.187c1.1,.198,1.628,.704,1.628,1.529,0,1.012-.968,1.793-2.255,1.793-.946,0-1.782-.264-2.365-.748Z"/>
    <path class="uuid-98f53299-cc5c-4f90-82de-7ad124eaaf7a" d="M377.765,167.547v-3.091h-1.1v-.99h1.1v-1.518l1.243-.264v1.782h1.529v.99h-1.529v2.816c0,.539,.209,.748,.771,.748,.242,0,.418-.033,.748-.132v1.045c-.319,.099-.737,.154-1.067,.154-1.111,0-1.694-.528-1.694-1.54Z"/>
    <path class="uuid-98f53299-cc5c-4f90-82de-7ad124eaaf7a" d="M381.296,166.227c0-1.628,1.188-2.849,2.772-2.849,1.573,0,2.762,1.221,2.762,2.849s-1.188,2.85-2.762,2.85c-1.584,0-2.772-1.221-2.772-2.85Zm4.313,0c0-1.023-.649-1.793-1.541-1.793-.901,0-1.551,.77-1.551,1.793,0,1.034,.649,1.793,1.551,1.793,.892,0,1.541-.759,1.541-1.793Z"/>
    <path class="uuid-98f53299-cc5c-4f90-82de-7ad124eaaf7a" d="M390.592,161.122l1.243-.209v3.289c.385-.484,1.001-.781,1.694-.781,1.396,0,2.486,1.243,2.486,2.805,0,1.573-1.123,2.806-2.563,2.806-.649,0-1.222-.264-1.64-.759v.704h-1.221v-7.855Zm4.202,5.104c0-1.001-.704-1.76-1.64-1.76-.55,0-1.001,.22-1.319,.616v2.299c.318,.385,.792,.616,1.319,.616,.946,0,1.64-.759,1.64-1.771Z"/>
    <path class="uuid-98f53299-cc5c-4f90-82de-7ad124eaaf7a" d="M397.082,167.393c0-.99,.813-1.617,2.112-1.617,.517,0,1.001,.11,1.485,.352v-.616c0-.726-.419-1.1-1.266-1.1-.462,0-.968,.132-1.606,.429l-.439-.902c.825-.374,1.551-.561,2.288-.561,1.441,0,2.255,.726,2.255,2.002v3.598h-1.231v-.572c-.474,.462-1.002,.671-1.64,.671-1.155,0-1.958-.693-1.958-1.684Zm2.299,.803c.495,0,.925-.143,1.299-.462v-.891c-.396-.187-.793-.264-1.266-.264-.715,0-1.166,.297-1.166,.792,0,.506,.439,.825,1.133,.825Z"/>
    <path class="uuid-98f53299-cc5c-4f90-82de-7ad124eaaf7a" d="M402.923,168.339l.583-.825c.726,.451,1.21,.627,1.771,.627,.66,0,1.111-.308,1.111-.749,0-.341-.23-.517-.77-.627l-.969-.165c-1.078-.198-1.595-.693-1.595-1.518,0-1.034,.847-1.705,2.134-1.705,.771,0,1.464,.22,2.168,.66l-.583,.825c-.562-.363-1.101-.528-1.662-.528-.571,0-.945,.242-.945,.638,0,.352,.197,.506,.77,.605l.979,.187c1.1,.198,1.628,.704,1.628,1.529,0,1.012-.968,1.793-2.255,1.793-.946,0-1.782-.264-2.365-.748Z"/>
    <path class="uuid-98f53299-cc5c-4f90-82de-7ad124eaaf7a" d="M408.487,166.227c0-1.617,1.167-2.849,2.685-2.849,1.508,0,2.607,1.199,2.607,2.849v.297h-4.07c.121,.891,.792,1.54,1.65,1.54,.517,0,1.001-.198,1.309-.517l.814,.737c-.671,.561-1.342,.803-2.179,.803-1.584,0-2.816-1.243-2.816-2.86Zm4.115-.473c-.132-.803-.704-1.364-1.441-1.364-.748,0-1.298,.54-1.441,1.364h2.883Z"/>
    <path class="uuid-98f53299-cc5c-4f90-82de-7ad124eaaf7a" d="M419.554,165.534h-1.815v-.958h1.815v-1.958h.99v1.958h1.814v.958h-1.814v1.958h-.99v-1.958Z"/>
    <path class="uuid-98f53299-cc5c-4f90-82de-7ad124eaaf7a" d="M426.594,163.466h1.221v.781c.396-.517,1.013-.825,1.717-.825,1.396,0,2.486,1.243,2.486,2.805,0,1.573-1.123,2.806-2.563,2.806-.649,0-1.222-.242-1.617-.704v2.948h-1.243v-7.811Zm4.202,2.761c0-1.001-.704-1.76-1.64-1.76-.55,0-1.001,.22-1.319,.616v2.299c.318,.385,.792,.616,1.319,.616,.946,0,1.64-.759,1.64-1.771Z"/>
    <path class="uuid-98f53299-cc5c-4f90-82de-7ad124eaaf7a" d="M433.084,167.393c0-.99,.813-1.617,2.112-1.617,.517,0,1.001,.11,1.485,.352v-.616c0-.726-.419-1.1-1.266-1.1-.462,0-.968,.132-1.606,.429l-.439-.902c.825-.374,1.551-.561,2.288-.561,1.441,0,2.255,.726,2.255,2.002v3.598h-1.231v-.572c-.474,.462-1.002,.671-1.64,.671-1.155,0-1.958-.693-1.958-1.684Zm2.299,.803c.495,0,.925-.143,1.299-.462v-.891c-.396-.187-.793-.264-1.266-.264-.715,0-1.166,.297-1.166,.792,0,.506,.439,.825,1.133,.825Z"/>
    <path class="uuid-98f53299-cc5c-4f90-82de-7ad124eaaf7a" d="M439.936,167.547v-3.091h-1.101v-.99h1.101v-1.518l1.243-.264v1.782h1.529v.99h-1.529v2.816c0,.539,.209,.748,.771,.748,.242,0,.418-.033,.748-.132v1.045c-.319,.099-.737,.154-1.067,.154-1.111,0-1.694-.528-1.694-1.54Z"/>
    <path class="uuid-98f53299-cc5c-4f90-82de-7ad124eaaf7a" d="M443.467,166.227c0-1.595,1.211-2.849,2.784-2.849,.857,0,1.65,.341,2.2,.935l-.771,.803c-.385-.429-.858-.649-1.386-.649-.892,0-1.584,.77-1.584,1.76,0,1.001,.692,1.76,1.584,1.76,.527,0,1.001-.22,1.386-.638l.771,.792c-.55,.594-1.343,.935-2.2,.935-1.573,0-2.784-1.243-2.784-2.85Z"/>
    <path class="uuid-98f53299-cc5c-4f90-82de-7ad124eaaf7a" d="M449.473,161.089l1.243-.22v3.499c.418-.649,1.022-.99,1.738-.99,1.133,0,1.925,.803,1.925,1.969v3.63h-1.254v-3.278c0-.803-.474-1.32-1.21-1.32-.507,0-.913,.231-1.199,.671v3.928h-1.243v-7.888Z"/>
    <path class="uuid-98f53299-cc5c-4f90-82de-7ad124eaaf7a" d="M455.621,166.227c0-1.617,1.167-2.849,2.685-2.849,1.508,0,2.607,1.199,2.607,2.849v.297h-4.07c.121,.891,.792,1.54,1.65,1.54,.517,0,1.001-.198,1.309-.517l.814,.737c-.671,.561-1.342,.803-2.179,.803-1.584,0-2.816-1.243-2.816-2.86Zm4.115-.473c-.132-.803-.704-1.364-1.441-1.364-.748,0-1.298,.54-1.441,1.364h2.883Z"/>
    <path class="uuid-98f53299-cc5c-4f90-82de-7ad124eaaf7a" d="M461.738,168.339l.583-.825c.726,.451,1.21,.627,1.771,.627,.66,0,1.111-.308,1.111-.749,0-.341-.23-.517-.77-.627l-.969-.165c-1.078-.198-1.595-.693-1.595-1.518,0-1.034,.847-1.705,2.134-1.705,.771,0,1.464,.22,2.168,.66l-.583,.825c-.562-.363-1.101-.528-1.661-.528-.572,0-.946,.242-.946,.638,0,.352,.197,.506,.77,.605l.979,.187c1.1,.198,1.628,.704,1.628,1.529,0,1.012-.968,1.793-2.255,1.793-.946,0-1.782-.264-2.365-.748Z"/>
    <path class="uuid-98f53299-cc5c-4f90-82de-7ad124eaaf7a" d="M470.527,166.293c0,2.255-.936,4.071-2.674,5.138l-.649-.803c1.42-.913,2.201-2.442,2.201-4.335,0-1.903-.781-3.432-2.201-4.345l.649-.792c1.738,1.067,2.674,2.882,2.674,5.138Z"/>
  </g>
  <g>
    <path class="uuid-98f53299-cc5c-4f90-82de-7ad124eaaf7a" d="M339.485,137.539v-2.585h-1.101v-1.375h1.101v-1.573l1.782-.363v1.937h1.518v1.375h-1.518v2.233c0,.506,.198,.682,.748,.682,.209,0,.374-.022,.726-.121v1.441c-.33,.099-.857,.176-1.221,.176-1.342,0-2.035-.616-2.035-1.826Z"/>
    <path class="uuid-98f53299-cc5c-4f90-82de-7ad124eaaf7a" d="M343.468,136.427c0-1.661,1.231-2.937,2.86-2.937,1.639,0,2.794,1.243,2.794,3.003v.385h-3.905c.165,.638,.682,1.067,1.331,1.067,.473,0,.869-.165,1.122-.473l1.178,.979c-.737,.649-1.431,.913-2.388,.913-1.673,0-2.992-1.287-2.992-2.938Zm4.004-.561c-.153-.605-.583-.99-1.155-.99-.561,0-.957,.363-1.1,.99h2.255Z"/>
    <path class="uuid-98f53299-cc5c-4f90-82de-7ad124eaaf7a" d="M349.825,138.672l.78-1.188c.814,.429,1.276,.572,1.827,.572,.506,0,.813-.176,.813-.462,0-.22-.165-.341-.528-.407l-1.089-.198c-1.1-.209-1.672-.771-1.672-1.65,0-1.155,.891-1.848,2.376-1.848,.792,0,1.573,.22,2.311,.649l-.814,1.133c-.572-.33-1.1-.484-1.628-.484-.429,0-.683,.143-.683,.385,0,.231,.144,.33,.584,.407l1.066,.198c1.122,.209,1.706,.781,1.706,1.639,0,1.111-1.046,1.947-2.442,1.947-1.034,0-1.947-.242-2.607-.693Z"/>
    <path class="uuid-98f53299-cc5c-4f90-82de-7ad124eaaf7a" d="M356.546,137.539v-2.585h-1.101v-1.375h1.101v-1.573l1.782-.363v1.937h1.518v1.375h-1.518v2.233c0,.506,.198,.682,.748,.682,.209,0,.374-.022,.726-.121v1.441c-.33,.099-.857,.176-1.221,.176-1.342,0-2.035-.616-2.035-1.826Z"/>
    <path class="uuid-98f53299-cc5c-4f90-82de-7ad124eaaf7a" d="M360.725,131.708c0-.55,.451-1.001,1.001-1.001s1.001,.451,1.001,1.001-.45,1.001-1.001,1.001-1.001-.451-1.001-1.001Zm.11,1.87h1.782v5.677h-1.782v-5.677Z"/>
    <path class="uuid-98f53299-cc5c-4f90-82de-7ad124eaaf7a" d="M364.004,133.578h1.782v.924c.439-.66,1.056-1.012,1.793-1.012,1.101,0,1.881,.803,1.881,1.936v3.829h-1.782v-3.312c0-.638-.374-1.056-.945-1.056-.386,0-.693,.154-.946,.473v3.895h-1.782v-5.677Z"/>
    <path class="uuid-98f53299-cc5c-4f90-82de-7ad124eaaf7a" d="M371.132,141.158l.55-1.287c.627,.297,1.188,.44,1.738,.44,.847,0,1.287-.352,1.287-1.045v-.771c-.374,.462-.99,.748-1.65,.748-1.397,0-2.508-1.276-2.508-2.86s1.166-2.838,2.64-2.838c.605,0,1.155,.253,1.541,.715v-.682h1.749v5.71c0,1.529-1.057,2.376-2.992,2.376-.858,0-1.673-.176-2.354-.506Zm3.575-3.817v-1.893c-.275-.286-.649-.44-1.056-.44-.781,0-1.354,.583-1.354,1.386s.583,1.397,1.354,1.397c.429,0,.78-.154,1.056-.451Z"/>
  </g>
  <rect class="uuid-0d26a9a5-5d53-480c-8827-f90e65402aa3" x="328.768" y="193.611" width="235.648" height="59.329"/>
  <g>
    <path class="uuid-98f53299-cc5c-4f90-82de-7ad124eaaf7a" d="M339.93,221.308h1.096v5.072h.044l2.647-2.647h1.232l-3.924,3.944v1.432h-1.096v-7.8Zm2.112,5.056l.648-.701,2.516,3.445h-1.205l-1.959-2.744Z"/>
    <path class="uuid-98f53299-cc5c-4f90-82de-7ad124eaaf7a" d="M346.262,227.068v-3.335h1.097v3.191c0,.929,.311,1.372,1.119,1.372,.561,0,.968-.249,1.505-.887v-3.677h1.096v5.375h-.905l-.087-.896h-.044c-.524,.608-1.138,1.028-1.952,1.028-1.259,0-1.828-.772-1.828-2.172Z"/>
    <path class="uuid-98f53299-cc5c-4f90-82de-7ad124eaaf7a" d="M352.789,228.404l.488-.71c.63,.434,1.362,.706,2.29,.706,.824,0,1.22-.329,1.22-.732,0-.38-.224-.622-1.577-.9-1.42-.294-2.087-.786-2.087-1.599,0-.899,.809-1.567,2.297-1.567,.855,0,1.671,.335,2.21,.698l-.515,.684c-.509-.339-1.13-.551-1.791-.551-.8,0-1.109,.316-1.109,.684,0,.421,.43,.586,1.484,.811,1.749,.383,2.188,.833,2.188,1.675,0,.9-.872,1.638-2.459,1.638-1.026,0-1.98-.383-2.64-.836Z"/>
    <path class="uuid-98f53299-cc5c-4f90-82de-7ad124eaaf7a" d="M360.835,226.982v-2.375h-1.481v-.817l1.524-.057,.145-1.704h.908v1.704h2.536v.875h-2.536v2.377c0,.924,.328,1.372,1.3,1.372,.473,0,.856-.095,1.226-.23l.223,.801c-.484,.167-1.016,.312-1.701,.312-1.607,0-2.143-.91-2.143-2.258Z"/>
    <path class="uuid-98f53299-cc5c-4f90-82de-7ad124eaaf7a" d="M365.882,226.429c0-1.799,1.261-2.829,2.678-2.829s2.677,1.029,2.677,2.829c0,1.781-1.261,2.811-2.677,2.811s-2.678-1.029-2.678-2.811Zm4.232,0c0-1.158-.604-1.928-1.555-1.928s-1.556,.77-1.556,1.928c0,1.149,.604,1.91,1.556,1.91s1.555-.76,1.555-1.91Z"/>
    <path class="uuid-98f53299-cc5c-4f90-82de-7ad124eaaf7a" d="M372.43,223.733h.854l.087,.696h.026c.257-.48,.591-.828,1.211-.828,.514,0,.848,.308,.996,.916,.279-.551,.623-.916,1.241-.916,.757,0,1.196,.605,1.196,1.679v3.829h-1.066v-3.75c0-.544-.151-.822-.5-.822-.331,0-.515,.248-.766,.749v3.823h-.947v-3.75c0-.544-.14-.822-.488-.822-.329,0-.544,.248-.777,.749v3.823h-1.066v-5.375Z"/>
    <path class="uuid-98f53299-cc5c-4f90-82de-7ad124eaaf7a" d="M381.819,224.607h-2.403v-.875h3.5v5.375h-1.097v-4.501Zm-.356-2.705c0-.463,.345-.782,.816-.782s.816,.319,.816,.782c0,.472-.345,.778-.816,.778s-.816-.306-.816-.778Z"/>
    <path class="uuid-98f53299-cc5c-4f90-82de-7ad124eaaf7a" d="M385.838,228.526l3.442-3.918h-3.054v-.875h4.607v.583l-3.447,3.909h3.54v.884h-5.089v-.583Z"/>
    <path class="uuid-98f53299-cc5c-4f90-82de-7ad124eaaf7a" d="M392.485,227.689c0-1.206,1.093-1.799,3.808-2.002-.04-.665-.396-1.198-1.352-1.198-.65,0-1.291,.297-1.817,.605l-.418-.731c.604-.373,1.497-.762,2.43-.762,1.482,0,2.253,.851,2.253,2.27v3.237h-.905l-.087-.697h-.035c-.575,.45-1.322,.829-2.059,.829-1.027,0-1.817-.604-1.817-1.551Zm3.808-.042v-1.259c-2.112,.151-2.737,.576-2.737,1.218,0,.54,.484,.763,1.06,.763s1.121-.27,1.678-.722Z"/>
    <path class="uuid-98f53299-cc5c-4f90-82de-7ad124eaaf7a" d="M400.434,226.982v-2.375h-1.481v-.817l1.524-.057,.145-1.704h.908v1.704h2.536v.875h-2.536v2.377c0,.924,.328,1.372,1.3,1.372,.473,0,.856-.095,1.226-.23l.223,.801c-.484,.167-1.016,.312-1.701,.312-1.607,0-2.143-.91-2.143-2.258Z"/>
    <path class="uuid-98f53299-cc5c-4f90-82de-7ad124eaaf7a" d="M408.219,224.607h-2.403v-.875h3.5v5.375h-1.097v-4.501Zm-.356-2.705c0-.463,.345-.782,.816-.782s.816,.319,.816,.782c0,.472-.345,.778-.816,.778s-.816-.306-.816-.778Z"/>
    <path class="uuid-98f53299-cc5c-4f90-82de-7ad124eaaf7a" d="M412.081,226.429c0-1.799,1.261-2.829,2.678-2.829s2.677,1.029,2.677,2.829c0,1.781-1.261,2.811-2.677,2.811s-2.678-1.029-2.678-2.811Zm4.232,0c0-1.158-.604-1.928-1.555-1.928s-1.556,.77-1.556,1.928c0,1.149,.604,1.91,1.556,1.91s1.555-.76,1.555-1.91Z"/>
    <path class="uuid-98f53299-cc5c-4f90-82de-7ad124eaaf7a" d="M419.022,223.733h.896l.088,.857h.044c.538-.552,1.15-.989,1.98-.989,1.257,0,1.829,.772,1.829,2.172v3.335h-1.096v-3.191c0-.938-.315-1.372-1.112-1.372-.585,0-.979,.288-1.533,.856v3.707h-1.096v-5.375Z"/>
    <path class="uuid-98f53299-cc5c-4f90-82de-7ad124eaaf7a" d="M426.967,228.213c0-.593,.429-1.028,.992-1.028s.991,.435,.991,1.028c0,.604-.429,1.027-.991,1.027s-.992-.423-.992-1.027Z"/>
    <path class="uuid-98f53299-cc5c-4f90-82de-7ad124eaaf7a" d="M431.995,231.254l.214-.857c.143,.044,.311,.075,.468,.075,.717,0,1.139-.426,1.381-1.024l.142-.367-2.454-5.348h1.102l1.199,2.792c.205,.483,.422,1.042,.629,1.574h.044c.177-.517,.38-1.078,.554-1.574l1.063-2.792h1.048l-2.31,5.717c-.431,1.136-1.08,1.915-2.343,1.915-.269,0-.537-.044-.736-.11Z"/>
    <path class="uuid-98f53299-cc5c-4f90-82de-7ad124eaaf7a" d="M438.684,227.689c0-1.206,1.093-1.799,3.808-2.002-.04-.665-.396-1.198-1.352-1.198-.65,0-1.291,.297-1.817,.605l-.418-.731c.604-.373,1.497-.762,2.43-.762,1.482,0,2.253,.851,2.253,2.27v3.237h-.905l-.087-.697h-.035c-.575,.45-1.322,.829-2.059,.829-1.027,0-1.817-.604-1.817-1.551Zm3.808-.042v-1.259c-2.112,.151-2.737,.576-2.737,1.218,0,.54,.484,.763,1.06,.763s1.121-.27,1.678-.722Z"/>
    <path class="uuid-98f53299-cc5c-4f90-82de-7ad124eaaf7a" d="M445.03,223.733h.854l.087,.696h.026c.257-.48,.591-.828,1.211-.828,.514,0,.848,.308,.996,.916,.279-.551,.623-.916,1.241-.916,.757,0,1.196,.605,1.196,1.679v3.829h-1.066v-3.75c0-.544-.151-.822-.5-.822-.331,0-.515,.248-.766,.749v3.823h-.947v-3.75c0-.544-.14-.822-.488-.822-.329,0-.544,.248-.777,.749v3.823h-1.066v-5.375Z"/>
    <path class="uuid-98f53299-cc5c-4f90-82de-7ad124eaaf7a" d="M453.649,227.227v-5.044h-1.848v-.875h2.943v5.985c0,.745,.422,1.046,1.013,1.046,.294,0,.607-.071,.962-.226l.265,.814c-.514,.203-.874,.312-1.482,.312-1.203,0-1.853-.717-1.853-2.013Z"/>
    <path class="uuid-98f53299-cc5c-4f90-82de-7ad124eaaf7a" d="M339.618,239.613c0-2.255,.936-4.071,2.674-5.138l.649,.803c-1.42,.913-2.201,2.442-2.201,4.334,0,1.903,.781,3.433,2.201,4.346l-.649,.792c-1.738-1.067-2.674-2.882-2.674-5.138Z"/>
    <path class="uuid-98f53299-cc5c-4f90-82de-7ad124eaaf7a" d="M344.183,236.797h1.243v1.188c.308-.836,.836-1.287,1.518-1.287,.209,.011,.353,.033,.539,.11v1.089c-.198-.077-.451-.132-.682-.132-.605,0-1.101,.341-1.375,.913v3.63h-1.243v-5.512Z"/>
    <path class="uuid-98f53299-cc5c-4f90-82de-7ad124eaaf7a" d="M348,239.558c0-1.617,1.167-2.849,2.685-2.849,1.508,0,2.607,1.199,2.607,2.849v.297h-4.07c.121,.891,.792,1.54,1.65,1.54,.517,0,1.001-.198,1.309-.517l.814,.737c-.671,.561-1.342,.803-2.179,.803-1.584,0-2.816-1.243-2.816-2.86Zm4.115-.473c-.132-.803-.704-1.364-1.441-1.364-.748,0-1.298,.54-1.441,1.364h2.883Z"/>
    <path class="uuid-98f53299-cc5c-4f90-82de-7ad124eaaf7a" d="M355.139,237.787h-1.188v-.99h1.188v-.946c0-1.199,.671-1.848,1.903-1.848,.308,0,.615,.033,.825,.099v1.056c-.275-.055-.44-.077-.66-.077-.572,0-.825,.253-.825,.792v.924h1.485v.99h-1.485v4.521h-1.243v-4.521Z"/>
    <path class="uuid-98f53299-cc5c-4f90-82de-7ad124eaaf7a" d="M358.438,239.558c0-1.617,1.167-2.849,2.685-2.849,1.508,0,2.607,1.199,2.607,2.849v.297h-4.07c.121,.891,.792,1.54,1.65,1.54,.517,0,1.001-.198,1.309-.517l.814,.737c-.671,.561-1.342,.803-2.179,.803-1.584,0-2.816-1.243-2.816-2.86Zm4.115-.473c-.132-.803-.704-1.364-1.441-1.364-.748,0-1.298,.54-1.441,1.364h2.883Z"/>
    <path class="uuid-98f53299-cc5c-4f90-82de-7ad124eaaf7a" d="M364.996,236.797h1.243v1.188c.308-.836,.836-1.287,1.518-1.287,.209,.011,.353,.033,.539,.11v1.089c-.198-.077-.451-.132-.682-.132-.605,0-1.101,.341-1.375,.913v3.63h-1.243v-5.512Z"/>
    <path class="uuid-98f53299-cc5c-4f90-82de-7ad124eaaf7a" d="M368.845,241.67l.583-.825c.726,.451,1.21,.627,1.771,.627,.66,0,1.111-.308,1.111-.749,0-.341-.23-.517-.77-.627l-.969-.165c-1.078-.198-1.595-.693-1.595-1.518,0-1.034,.847-1.705,2.134-1.705,.771,0,1.464,.22,2.168,.66l-.583,.825c-.562-.363-1.101-.528-1.661-.528-.572,0-.946,.242-.946,.638,0,.352,.197,.506,.77,.605l.979,.187c1.1,.198,1.628,.704,1.628,1.529,0,1.012-.968,1.793-2.255,1.793-.946,0-1.782-.264-2.365-.748Z"/>
    <path class="uuid-98f53299-cc5c-4f90-82de-7ad124eaaf7a" d="M377.765,240.878v-3.091h-1.1v-.99h1.1v-1.518l1.243-.264v1.782h1.529v.99h-1.529v2.816c0,.539,.209,.748,.771,.748,.242,0,.418-.033,.748-.132v1.045c-.319,.099-.737,.154-1.067,.154-1.111,0-1.694-.528-1.694-1.54Z"/>
    <path class="uuid-98f53299-cc5c-4f90-82de-7ad124eaaf7a" d="M381.296,239.558c0-1.628,1.188-2.849,2.772-2.849,1.573,0,2.762,1.221,2.762,2.849s-1.188,2.85-2.762,2.85c-1.584,0-2.772-1.221-2.772-2.85Zm4.313,0c0-1.023-.649-1.793-1.541-1.793-.901,0-1.551,.77-1.551,1.793,0,1.034,.649,1.793,1.551,1.793,.892,0,1.541-.759,1.541-1.793Z"/>
    <path class="uuid-98f53299-cc5c-4f90-82de-7ad124eaaf7a" d="M390.592,234.453l1.243-.209v3.289c.385-.484,1.001-.781,1.694-.781,1.396,0,2.486,1.243,2.486,2.805,0,1.573-1.123,2.806-2.563,2.806-.649,0-1.222-.264-1.64-.759v.704h-1.221v-7.855Zm4.202,5.104c0-1.001-.704-1.76-1.64-1.76-.55,0-1.001,.22-1.319,.616v2.299c.318,.385,.792,.616,1.319,.616,.946,0,1.64-.759,1.64-1.771Z"/>
    <path class="uuid-98f53299-cc5c-4f90-82de-7ad124eaaf7a" d="M397.082,240.724c0-.99,.813-1.617,2.112-1.617,.517,0,1.001,.11,1.485,.352v-.616c0-.726-.419-1.1-1.266-1.1-.462,0-.968,.132-1.606,.429l-.439-.902c.825-.374,1.551-.561,2.288-.561,1.441,0,2.255,.726,2.255,2.002v3.598h-1.231v-.572c-.474,.462-1.002,.671-1.64,.671-1.155,0-1.958-.693-1.958-1.684Zm2.299,.803c.495,0,.925-.143,1.299-.462v-.891c-.396-.187-.793-.264-1.266-.264-.715,0-1.166,.297-1.166,.792,0,.506,.439,.825,1.133,.825Z"/>
    <path class="uuid-98f53299-cc5c-4f90-82de-7ad124eaaf7a" d="M402.923,241.67l.583-.825c.726,.451,1.21,.627,1.771,.627,.66,0,1.111-.308,1.111-.749,0-.341-.23-.517-.77-.627l-.969-.165c-1.078-.198-1.595-.693-1.595-1.518,0-1.034,.847-1.705,2.134-1.705,.771,0,1.464,.22,2.168,.66l-.583,.825c-.562-.363-1.101-.528-1.662-.528-.571,0-.945,.242-.945,.638,0,.352,.197,.506,.77,.605l.979,.187c1.1,.198,1.628,.704,1.628,1.529,0,1.012-.968,1.793-2.255,1.793-.946,0-1.782-.264-2.365-.748Z"/>
    <path class="uuid-98f53299-cc5c-4f90-82de-7ad124eaaf7a" d="M408.487,239.558c0-1.617,1.167-2.849,2.685-2.849,1.508,0,2.607,1.199,2.607,2.849v.297h-4.07c.121,.891,.792,1.54,1.65,1.54,.517,0,1.001-.198,1.309-.517l.814,.737c-.671,.561-1.342,.803-2.179,.803-1.584,0-2.816-1.243-2.816-2.86Zm4.115-.473c-.132-.803-.704-1.364-1.441-1.364-.748,0-1.298,.54-1.441,1.364h2.883Z"/>
    <path class="uuid-98f53299-cc5c-4f90-82de-7ad124eaaf7a" d="M419.554,238.865h-1.815v-.958h1.815v-1.958h.99v1.958h1.814v.958h-1.814v1.958h-.99v-1.958Z"/>
    <path class="uuid-98f53299-cc5c-4f90-82de-7ad124eaaf7a" d="M426.594,236.797h1.221v.781c.396-.517,1.013-.825,1.717-.825,1.396,0,2.486,1.243,2.486,2.805,0,1.573-1.123,2.806-2.563,2.806-.649,0-1.222-.242-1.617-.704v2.948h-1.243v-7.811Zm4.202,2.761c0-1.001-.704-1.76-1.64-1.76-.55,0-1.001,.22-1.319,.616v2.299c.318,.385,.792,.616,1.319,.616,.946,0,1.64-.759,1.64-1.771Z"/>
    <path class="uuid-98f53299-cc5c-4f90-82de-7ad124eaaf7a" d="M433.084,240.724c0-.99,.813-1.617,2.112-1.617,.517,0,1.001,.11,1.485,.352v-.616c0-.726-.419-1.1-1.266-1.1-.462,0-.968,.132-1.606,.429l-.439-.902c.825-.374,1.551-.561,2.288-.561,1.441,0,2.255,.726,2.255,2.002v3.598h-1.231v-.572c-.474,.462-1.002,.671-1.64,.671-1.155,0-1.958-.693-1.958-1.684Zm2.299,.803c.495,0,.925-.143,1.299-.462v-.891c-.396-.187-.793-.264-1.266-.264-.715,0-1.166,.297-1.166,.792,0,.506,.439,.825,1.133,.825Z"/>
    <path class="uuid-98f53299-cc5c-4f90-82de-7ad124eaaf7a" d="M439.936,240.878v-3.091h-1.101v-.99h1.101v-1.518l1.243-.264v1.782h1.529v.99h-1.529v2.816c0,.539,.209,.748,.771,.748,.242,0,.418-.033,.748-.132v1.045c-.319,.099-.737,.154-1.067,.154-1.111,0-1.694-.528-1.694-1.54Z"/>
    <path class="uuid-98f53299-cc5c-4f90-82de-7ad124eaaf7a" d="M443.467,239.558c0-1.595,1.211-2.849,2.784-2.849,.857,0,1.65,.341,2.2,.935l-.771,.803c-.385-.429-.858-.649-1.386-.649-.892,0-1.584,.77-1.584,1.76,0,1.001,.692,1.76,1.584,1.76,.527,0,1.001-.22,1.386-.638l.771,.792c-.55,.594-1.343,.935-2.2,.935-1.573,0-2.784-1.243-2.784-2.85Z"/>
    <path class="uuid-98f53299-cc5c-4f90-82de-7ad124eaaf7a" d="M449.473,234.42l1.243-.22v3.499c.418-.649,1.022-.99,1.738-.99,1.133,0,1.925,.803,1.925,1.969v3.63h-1.254v-3.278c0-.803-.474-1.32-1.21-1.32-.507,0-.913,.231-1.199,.671v3.928h-1.243v-7.888Z"/>
    <path class="uuid-98f53299-cc5c-4f90-82de-7ad124eaaf7a" d="M455.71,241.615c0-.44,.341-.803,.77-.803s.771,.363,.771,.803-.341,.792-.771,.792-.77-.352-.77-.792Z"/>
    <path class="uuid-98f53299-cc5c-4f90-82de-7ad124eaaf7a" d="M457.722,244.641v-1.078c.144,.033,.319,.044,.484,.044,.44,0,.704-.198,.891-.627l.254-.616-2.08-5.567h1.376l1.408,4.082,1.529-4.082h1.363l-2.64,6.469c-.43,1.067-.936,1.452-1.97,1.452-.176,0-.396-.022-.616-.077Z"/>
    <path class="uuid-98f53299-cc5c-4f90-82de-7ad124eaaf7a" d="M463.399,240.724c0-.99,.813-1.617,2.112-1.617,.517,0,1.001,.11,1.485,.352v-.616c0-.726-.419-1.1-1.266-1.1-.462,0-.968,.132-1.606,.429l-.439-.902c.825-.374,1.551-.561,2.288-.561,1.441,0,2.255,.726,2.255,2.002v3.598h-1.231v-.572c-.474,.462-1.002,.671-1.64,.671-1.155,0-1.958-.693-1.958-1.684Zm2.299,.803c.495,0,.925-.143,1.299-.462v-.891c-.396-.187-.793-.264-1.266-.264-.715,0-1.166,.297-1.166,.792,0,.506,.439,.825,1.133,.825Z"/>
    <path class="uuid-98f53299-cc5c-4f90-82de-7ad124eaaf7a" d="M469.735,236.797h1.243v.869c.406-.627,.957-.957,1.628-.957,.759,0,1.342,.407,1.628,1.056,.43-.693,1.045-1.056,1.826-1.056,1.067,0,1.805,.825,1.805,1.991v3.608h-1.243v-3.333c0-.77-.429-1.265-1.111-1.265-.451,0-.825,.209-1.101,.66,.012,.11,.022,.22,.022,.33v3.608h-1.254v-3.333c0-.77-.43-1.265-1.111-1.265-.451,0-.814,.209-1.089,.638v3.96h-1.243v-5.512Z"/>
    <path class="uuid-98f53299-cc5c-4f90-82de-7ad124eaaf7a" d="M479.371,234.42l1.243-.22v8.108h-1.243v-7.888Z"/>
    <path class="uuid-98f53299-cc5c-4f90-82de-7ad124eaaf7a" d="M485.169,239.624c0,2.255-.936,4.071-2.674,5.138l-.649-.803c1.42-.913,2.201-2.442,2.201-4.335,0-1.903-.781-3.432-2.201-4.345l.649-.792c1.738,1.067,2.674,2.882,2.674,5.138Z"/>
  </g>
  <g>
    <path class="uuid-98f53299-cc5c-4f90-82de-7ad124eaaf7a" d="M338.737,205.416h1.76v.792c.374-.506,1.001-.825,1.684-.825,1.397,0,2.508,1.287,2.508,2.882s-1.166,2.861-2.64,2.861c-.616,0-1.155-.231-1.529-.66v2.926h-1.782v-7.976Zm4.202,2.838c0-.803-.583-1.397-1.353-1.397-.44,0-.781,.154-1.067,.462v1.892c.274,.286,.648,.451,1.067,.451,.78,0,1.353-.594,1.353-1.408Z"/>
    <path class="uuid-98f53299-cc5c-4f90-82de-7ad124eaaf7a" d="M345.821,205.416h1.782v1.287c.363-.946,.869-1.397,1.54-1.397,.253,.011,.374,.033,.594,.143v1.529c-.22-.11-.527-.176-.836-.176-.528,0-1.012,.275-1.298,.704v3.586h-1.782v-5.677Z"/>
    <path class="uuid-98f53299-cc5c-4f90-82de-7ad124eaaf7a" d="M350.265,208.265c0-1.672,1.275-2.937,2.959-2.937s2.96,1.265,2.96,2.937-1.276,2.938-2.96,2.938-2.959-1.265-2.959-2.938Zm4.181,0c0-.847-.507-1.452-1.222-1.452s-1.221,.605-1.221,1.452,.506,1.453,1.221,1.453,1.222-.605,1.222-1.453Z"/>
    <path class="uuid-98f53299-cc5c-4f90-82de-7ad124eaaf7a" d="M357.063,208.243c0-1.595,1.166-2.86,2.64-2.86,.595,0,1.134,.242,1.519,.682v-2.805l1.782-.275v8.108h-1.76v-.737c-.374,.473-1.002,.771-1.673,.771-1.397,0-2.508-1.288-2.508-2.883Zm4.158,.958v-1.915c-.275-.286-.649-.44-1.056-.44-.781,0-1.354,.594-1.354,1.408,0,.803,.583,1.397,1.354,1.397,.429,0,.78-.154,1.056-.451Z"/>
    <path class="uuid-98f53299-cc5c-4f90-82de-7ad124eaaf7a" d="M364.344,209.244v-3.829h1.782v3.312c0,.638,.374,1.056,.946,1.056,.385,0,.692-.154,.945-.473v-3.895h1.782v5.677h-1.782v-.924c-.439,.66-1.056,1.012-1.793,1.012-1.1,0-1.881-.803-1.881-1.936Z"/>
    <path class="uuid-98f53299-cc5c-4f90-82de-7ad124eaaf7a" d="M370.933,208.265c0-1.661,1.275-2.937,2.938-2.937,.935,0,1.793,.374,2.365,1.045l-1.09,1.089c-.362-.429-.726-.616-1.21-.616-.704,0-1.232,.605-1.232,1.419s.528,1.419,1.232,1.419c.484,0,.848-.187,1.21-.616l1.09,1.089c-.572,.671-1.431,1.045-2.365,1.045-1.662,0-2.938-1.276-2.938-2.938Z"/>
    <path class="uuid-98f53299-cc5c-4f90-82de-7ad124eaaf7a" d="M377.973,209.376v-2.585h-1.101v-1.375h1.101v-1.573l1.782-.363v1.937h1.518v1.375h-1.518v2.233c0,.506,.198,.682,.748,.682,.209,0,.374-.022,.726-.121v1.441c-.33,.099-.857,.176-1.221,.176-1.342,0-2.035-.616-2.035-1.826Z"/>
    <path class="uuid-98f53299-cc5c-4f90-82de-7ad124eaaf7a" d="M382.153,203.546c0-.55,.451-1.001,1.001-1.001s1.001,.451,1.001,1.001-.45,1.001-1.001,1.001-1.001-.451-1.001-1.001Zm.11,1.87h1.782v5.677h-1.782v-5.677Z"/>
    <path class="uuid-98f53299-cc5c-4f90-82de-7ad124eaaf7a" d="M385.178,208.265c0-1.672,1.275-2.937,2.959-2.937s2.96,1.265,2.96,2.937-1.276,2.938-2.96,2.938-2.959-1.265-2.959-2.938Zm4.181,0c0-.847-.507-1.452-1.222-1.452s-1.221,.605-1.221,1.452,.506,1.453,1.221,1.453,1.222-.605,1.222-1.453Z"/>
    <path class="uuid-98f53299-cc5c-4f90-82de-7ad124eaaf7a" d="M392.229,205.416h1.782v.924c.439-.66,1.056-1.012,1.793-1.012,1.101,0,1.881,.803,1.881,1.936v3.829h-1.782v-3.312c0-.638-.374-1.056-.945-1.056-.386,0-.693,.154-.946,.473v3.895h-1.782v-5.677Z"/>
  </g>
  <g>
    <line class="uuid-a9bcc58a-3318-488f-9f16-461e522140c7" x1="278.799" y1="67.198" x2="308.946" y2="67.198"/>
    <polygon class="uuid-98f53299-cc5c-4f90-82de-7ad124eaaf7a" points="307.487 72.184 316.123 67.198 307.487 62.212 307.487 72.184"/>
  </g>
</svg>