<?xml version="1.0" encoding="UTF-8"?>
<svg id="uuid-93ccc8fc-63d3-4350-85d9-dbd3d559b1b5" data-name="Layer 1" xmlns="http://www.w3.org/2000/svg" width="210mm" height="111.551mm" viewBox="0 0 595.276 316.208">
  <defs>
    <style>
      .uuid-703f7890-12d8-411c-8283-916e959b80ff, .uuid-294ce89a-8b0c-4a75-a86d-01f0757c51c9, .uuid-4c1b8edd-3bd0-4978-8c44-f78c509e15a6, .uuid-b897198b-72e6-4d24-800e-6b69ee3b732b, .uuid-d9eb6fac-a812-4fad-8c3e-668c23cc910d, .uuid-ec41d1ed-4d4b-4609-b191-daab4bf9076b, .uuid-e12957e1-09e3-4ddb-a5c8-d8e86cce0237, .uuid-3c1c8ddc-3787-4e14-b1d0-aab5a6aa2713, .uuid-b2ac20cf-f6b9-498b-bd31-842430276404, .uuid-d592e4cd-646d-4061-908d-6d486c9c68e4, .uuid-6a6f1732-ceda-45f1-aa26-f42c6e2e4bf1, .uuid-006c7bec-e62b-4827-a4df-f2a11c79929e, .uuid-d47378b2-0569-449c-9aad-c02cdcf6c37e, .uuid-cf5b4cf8-b770-46cd-9d03-068ce4623669, .uuid-1fd8be60-92e1-4783-aac4-b858147cd097, .uuid-bcc983cf-a541-4279-93bb-787687e3aaa5 {
        stroke-linecap: round;
        stroke-linejoin: round;
      }

      .uuid-703f7890-12d8-411c-8283-916e959b80ff, .uuid-294ce89a-8b0c-4a75-a86d-01f0757c51c9, .uuid-4c1b8edd-3bd0-4978-8c44-f78c509e15a6, .uuid-b897198b-72e6-4d24-800e-6b69ee3b732b, .uuid-d18bb235-1eec-4916-944f-4e1a6f448c30 {
        fill: #fff;
      }

      .uuid-703f7890-12d8-411c-8283-916e959b80ff, .uuid-6a6f1732-ceda-45f1-aa26-f42c6e2e4bf1 {
        stroke: #787878;
      }

      .uuid-294ce89a-8b0c-4a75-a86d-01f0757c51c9, .uuid-b2ac20cf-f6b9-498b-bd31-842430276404 {
        stroke: #8c77d1;
      }

      .uuid-4c1b8edd-3bd0-4978-8c44-f78c509e15a6, .uuid-3c1c8ddc-3787-4e14-b1d0-aab5a6aa2713 {
        stroke: #06c;
      }

      .uuid-b897198b-72e6-4d24-800e-6b69ee3b732b, .uuid-ec41d1ed-4d4b-4609-b191-daab4bf9076b, .uuid-e12957e1-09e3-4ddb-a5c8-d8e86cce0237, .uuid-006c7bec-e62b-4827-a4df-f2a11c79929e, .uuid-d462ac62-034f-4ffe-85b8-3f099cfb33dd, .uuid-cf5b4cf8-b770-46cd-9d03-068ce4623669, .uuid-1fd8be60-92e1-4783-aac4-b858147cd097, .uuid-bcc983cf-a541-4279-93bb-787687e3aaa5 {
        stroke: #000;
      }

      .uuid-d9eb6fac-a812-4fad-8c3e-668c23cc910d, .uuid-ec41d1ed-4d4b-4609-b191-daab4bf9076b, .uuid-e12957e1-09e3-4ddb-a5c8-d8e86cce0237, .uuid-3c1c8ddc-3787-4e14-b1d0-aab5a6aa2713, .uuid-b2ac20cf-f6b9-498b-bd31-842430276404, .uuid-d592e4cd-646d-4061-908d-6d486c9c68e4, .uuid-6a6f1732-ceda-45f1-aa26-f42c6e2e4bf1, .uuid-006c7bec-e62b-4827-a4df-f2a11c79929e, .uuid-d462ac62-034f-4ffe-85b8-3f099cfb33dd, .uuid-cf5b4cf8-b770-46cd-9d03-068ce4623669, .uuid-1fd8be60-92e1-4783-aac4-b858147cd097, .uuid-bcc983cf-a541-4279-93bb-787687e3aaa5 {
        fill: none;
      }

      .uuid-d9eb6fac-a812-4fad-8c3e-668c23cc910d, .uuid-d592e4cd-646d-4061-908d-6d486c9c68e4 {
        stroke: #f7823c;
      }

      .uuid-e1b1b5a2-72ea-411e-8daf-7f6e96789ba8 {
        fill: #06c;
      }

      .uuid-dadab195-8800-49f0-bb8a-638c3b5a2c25 {
        fill: #f7823c;
      }

      .uuid-dbee4b17-4288-46b4-9c84-bcf47768f258 {
        fill: #98c3eb;
      }

      .uuid-0074573c-50de-4480-86e1-204c1e2b3beb {
        fill: #151515;
      }

      .uuid-4d0f2b80-3054-4308-9270-3aa75246f9f8 {
        fill: #5e40be;
      }

      .uuid-390b9846-0493-4647-baa9-f45d88ea7982 {
        fill: #787878;
      }

      .uuid-ec41d1ed-4d4b-4609-b191-daab4bf9076b {
        stroke-dasharray: 0 0 0 3.98;
      }

      .uuid-ec41d1ed-4d4b-4609-b191-daab4bf9076b, .uuid-e12957e1-09e3-4ddb-a5c8-d8e86cce0237, .uuid-3c1c8ddc-3787-4e14-b1d0-aab5a6aa2713, .uuid-b2ac20cf-f6b9-498b-bd31-842430276404, .uuid-d592e4cd-646d-4061-908d-6d486c9c68e4, .uuid-6a6f1732-ceda-45f1-aa26-f42c6e2e4bf1, .uuid-006c7bec-e62b-4827-a4df-f2a11c79929e, .uuid-cf5b4cf8-b770-46cd-9d03-068ce4623669, .uuid-1fd8be60-92e1-4783-aac4-b858147cd097 {
        stroke-width: 2px;
      }

      .uuid-d6b2545a-3f96-4422-ac61-65de7a1d0bcc {
        stroke-width: .25px;
      }

      .uuid-d6b2545a-3f96-4422-ac61-65de7a1d0bcc, .uuid-6477c525-3eee-4f71-ac13-f37fe829816e {
        stroke: #fff;
      }

      .uuid-d6b2545a-3f96-4422-ac61-65de7a1d0bcc, .uuid-6477c525-3eee-4f71-ac13-f37fe829816e, .uuid-d462ac62-034f-4ffe-85b8-3f099cfb33dd {
        stroke-miterlimit: 10;
      }

      .uuid-006c7bec-e62b-4827-a4df-f2a11c79929e {
        stroke-dasharray: 0 0 0 5.609;
      }

      .uuid-6477c525-3eee-4f71-ac13-f37fe829816e {
        stroke-width: .5px;
      }

      .uuid-d47378b2-0569-449c-9aad-c02cdcf6c37e {
        fill: #f2f7e6;
        stroke: #c0d682;
        stroke-dasharray: 0 3;
      }

      .uuid-cf5b4cf8-b770-46cd-9d03-068ce4623669 {
        stroke-dasharray: 0 0 0 4.207;
      }

      .uuid-1fd8be60-92e1-4783-aac4-b858147cd097 {
        stroke-dasharray: 0 0 0 4.865;
      }

      .uuid-bcc983cf-a541-4279-93bb-787687e3aaa5 {
        stroke-width: 1.5px;
      }
    </style>
  </defs>
  <line class="uuid-d592e4cd-646d-4061-908d-6d486c9c68e4" x1="32.125" y1="167.651" x2="199.492" y2="167.651"/>
  <line class="uuid-d9eb6fac-a812-4fad-8c3e-668c23cc910d" x1="108.756" y1="131.91" x2="108.756" y2="167.541"/>
  <rect class="uuid-d47378b2-0569-449c-9aad-c02cdcf6c37e" x="366.973" y="30.462" width="164.884" height="114.749"/>
  <g>
    <path class="uuid-0074573c-50de-4480-86e1-204c1e2b3beb" d="m30.326,42.182h.863l.704,2.823.832-2.823h.76l.823,2.823.704-2.823h.84l-1.08,4.006h-.863l-.816-2.822-.808,2.822h-.879l-1.079-4.006Z"/>
    <path class="uuid-0074573c-50de-4480-86e1-204c1e2b3beb" d="m36.406,44.189c0-1.183.863-2.071,2.015-2.071,1.144,0,2.007.888,2.007,2.071s-.863,2.071-2.007,2.071c-1.151,0-2.015-.887-2.015-2.071Zm3.134,0c0-.744-.472-1.303-1.12-1.303-.656,0-1.127.56-1.127,1.303,0,.751.472,1.303,1.127,1.303.647,0,1.12-.552,1.12-1.303Z"/>
    <path class="uuid-0074573c-50de-4480-86e1-204c1e2b3beb" d="m41.366,42.182h.904v.864c.224-.608.607-.936,1.103-.936.152.008.256.024.392.08v.792c-.144-.056-.328-.096-.496-.096-.44,0-.8.248-1,.664v2.639h-.904v-4.006Z"/>
    <path class="uuid-0074573c-50de-4480-86e1-204c1e2b3beb" d="m44.509,40.439l.904-.152v3.598l1.663-1.703h1.039l-1.847,1.855,1.943,2.151h-1.151l-1.647-1.847v1.847h-.904v-5.749Z"/>
    <path class="uuid-0074573c-50de-4480-86e1-204c1e2b3beb" d="m48.477,45.724l.424-.6c.528.328.879.456,1.288.456.479,0,.808-.224.808-.543,0-.248-.168-.376-.56-.456l-.704-.12c-.783-.144-1.159-.504-1.159-1.104,0-.751.616-1.239,1.551-1.239.56,0,1.063.16,1.575.48l-.423.6c-.408-.264-.8-.384-1.208-.384-.416,0-.688.176-.688.463,0,.256.144.368.56.44l.711.136c.8.144,1.184.512,1.184,1.111,0,.735-.704,1.303-1.639,1.303-.688,0-1.295-.192-1.719-.544Z"/>
    <path class="uuid-0074573c-50de-4480-86e1-204c1e2b3beb" d="m53.165,45.148v-2.247h-.8v-.72h.8v-1.104l.903-.192v1.295h1.111v.72h-1.111v2.047c0,.392.152.543.56.543.176,0,.304-.024.544-.096v.76c-.232.072-.536.112-.776.112-.808,0-1.231-.384-1.231-1.12Z"/>
    <path class="uuid-0074573c-50de-4480-86e1-204c1e2b3beb" d="m55.773,45.036c0-.72.592-1.175,1.535-1.175.376,0,.728.08,1.08.256v-.448c0-.528-.304-.8-.919-.8-.336,0-.704.096-1.167.312l-.32-.656c.6-.272,1.127-.408,1.663-.408,1.047,0,1.639.528,1.639,1.455v2.615h-.896v-.416c-.344.335-.728.487-1.191.487-.839,0-1.423-.503-1.423-1.223Zm1.671.583c.36,0,.671-.104.943-.335v-.648c-.288-.136-.576-.192-.919-.192-.52,0-.848.216-.848.576,0,.368.32.6.824.6Z"/>
    <path class="uuid-0074573c-50de-4480-86e1-204c1e2b3beb" d="m60.876,45.148v-2.247h-.799v-.72h.799v-1.104l.904-.192v1.295h1.111v.72h-1.111v2.047c0,.392.152.543.56.543.176,0,.304-.024.544-.096v.76c-.232.072-.536.112-.776.112-.808,0-1.231-.384-1.231-1.12Z"/>
    <path class="uuid-0074573c-50de-4480-86e1-204c1e2b3beb" d="m63.581,40.815c0-.304.248-.56.56-.56.304,0,.56.256.56.56s-.256.552-.56.552c-.312,0-.56-.248-.56-.552Zm.104,1.367h.903v4.006h-.903v-4.006Z"/>
    <path class="uuid-0074573c-50de-4480-86e1-204c1e2b3beb" d="m65.525,44.189c0-1.183.863-2.071,2.015-2.071,1.144,0,2.007.888,2.007,2.071s-.863,2.071-2.007,2.071c-1.151,0-2.015-.887-2.015-2.071Zm3.134,0c0-.744-.472-1.303-1.12-1.303-.656,0-1.127.56-1.127,1.303,0,.751.472,1.303,1.127,1.303.648,0,1.12-.552,1.12-1.303Z"/>
    <path class="uuid-0074573c-50de-4480-86e1-204c1e2b3beb" d="m70.485,42.182h.904v.656c.304-.472.744-.72,1.263-.72.823,0,1.399.584,1.399,1.431v2.639h-.912v-2.383c0-.583-.344-.959-.879-.959-.368,0-.664.168-.872.488v2.854h-.904v-4.006Z"/>
  </g>
  <path class="uuid-d6b2545a-3f96-4422-ac61-65de7a1d0bcc" d="m67.542,37.251h-30.359c-.419,0-.759.34-.759.759s.34.759.759.759h30.359c.419,0,.759-.34.759-.759s-.34-.759-.759-.759Z"/>
  <path class="uuid-d6b2545a-3f96-4422-ac61-65de7a1d0bcc" d="m40.218,35.713h24.288c.417-.005.754-.342.759-.759v-16.192c-.005-.417-.342-.754-.759-.759h-9.108c-.419,0-.759.34-.759.759s.34.759.759.759h8.349v14.674h-22.77v-14.674h8.349c.419,0,.759-.34.759-.759s-.34-.759-.759-.759h-9.108c-.419,0-.759.34-.759.759v16.192c0,.419.34.759.759.759Z"/>
  <path class="uuid-6477c525-3eee-4f71-ac13-f37fe829816e" d="m51.826,19.298c.142.142.335.222.536.223.201-.002.393-.082.536-.223.296-.296.296-.776,0-1.073-.301-.285-.772-.285-1.073,0-.072.067-.127.15-.162.243-.081.187-.081.4,0,.587.034.092.09.176.162.243Z"/>
  <line class="uuid-4c1b8edd-3bd0-4978-8c44-f78c509e15a6" x1="108.756" y1="66.328" x2="108.756" y2="102.504"/>
  <line class="uuid-4c1b8edd-3bd0-4978-8c44-f78c509e15a6" x1="52.362" y1="49.013" x2="52.362" y2="66.073"/>
  <line class="uuid-4c1b8edd-3bd0-4978-8c44-f78c509e15a6" x1="333.346" y1="66.328" x2="333.346" y2="102.504"/>
  <line class="uuid-703f7890-12d8-411c-8283-916e959b80ff" x1="333.346" y1="135.453" x2="333.346" y2="167.452"/>
  <line class="uuid-d9eb6fac-a812-4fad-8c3e-668c23cc910d" x1="158.537" y1="167.452" x2="158.537" y2="199.834"/>
  <line class="uuid-3c1c8ddc-3787-4e14-b1d0-aab5a6aa2713" x1="32.125" y1="66.201" x2="353.139" y2="66.201"/>
  <line class="uuid-6a6f1732-ceda-45f1-aa26-f42c6e2e4bf1" x1="246.478" y1="167.651" x2="567.368" y2="167.651"/>
  <g>
    <g>
      <path class="uuid-0074573c-50de-4480-86e1-204c1e2b3beb" d="m95.375,124.402l.904-.152v2.391c.28-.352.728-.567,1.231-.567,1.016,0,1.807.903,1.807,2.039,0,1.144-.815,2.039-1.863,2.039-.472,0-.888-.192-1.191-.552v.512h-.888v-5.709Zm3.055,3.71c0-.728-.512-1.279-1.191-1.279-.4,0-.728.16-.959.448v1.671c.232.28.576.448.959.448.688,0,1.191-.552,1.191-1.288Z"/>
      <path class="uuid-0074573c-50de-4480-86e1-204c1e2b3beb" d="m100.055,128.96c0-.72.592-1.175,1.535-1.175.376,0,.728.08,1.08.256v-.448c0-.528-.304-.8-.919-.8-.336,0-.704.096-1.167.312l-.32-.656c.6-.271,1.127-.408,1.663-.408,1.047,0,1.639.528,1.639,1.455v2.615h-.896v-.416c-.344.336-.728.488-1.191.488-.839,0-1.423-.503-1.423-1.223Zm1.671.583c.36,0,.671-.104.943-.335v-.648c-.288-.136-.576-.192-.919-.192-.52,0-.848.216-.848.576,0,.368.32.6.824.6Z"/>
      <path class="uuid-0074573c-50de-4480-86e1-204c1e2b3beb" d="m104.304,129.647l.424-.6c.528.328.879.456,1.288.456.479,0,.808-.224.808-.544,0-.248-.168-.376-.56-.456l-.704-.12c-.783-.144-1.159-.504-1.159-1.104,0-.751.616-1.239,1.551-1.239.56,0,1.063.16,1.575.48l-.423.6c-.408-.264-.8-.384-1.208-.384-.416,0-.688.176-.688.464,0,.256.144.368.56.439l.711.136c.8.144,1.184.512,1.184,1.112,0,.735-.704,1.303-1.639,1.303-.688,0-1.295-.192-1.719-.544Z"/>
      <path class="uuid-0074573c-50de-4480-86e1-204c1e2b3beb" d="m108.991,129.072v-2.247h-.799v-.72h.799v-1.104l.904-.192v1.295h1.111v.72h-1.111v2.047c0,.392.152.543.56.543.176,0,.304-.024.544-.096v.759c-.232.072-.536.112-.776.112-.808,0-1.231-.384-1.231-1.12Z"/>
      <path class="uuid-0074573c-50de-4480-86e1-204c1e2b3beb" d="m111.695,124.738c0-.304.248-.56.56-.56.304,0,.56.256.56.56s-.256.552-.56.552c-.312,0-.56-.248-.56-.552Zm.104,1.367h.903v4.006h-.903v-4.006Z"/>
      <path class="uuid-0074573c-50de-4480-86e1-204c1e2b3beb" d="m113.64,128.112c0-1.183.863-2.071,2.015-2.071,1.144,0,2.007.888,2.007,2.071s-.863,2.071-2.007,2.071c-1.151,0-2.015-.887-2.015-2.071Zm3.134,0c0-.744-.472-1.303-1.12-1.303-.656,0-1.127.56-1.127,1.303,0,.752.472,1.303,1.127,1.303.648,0,1.12-.551,1.12-1.303Z"/>
      <path class="uuid-0074573c-50de-4480-86e1-204c1e2b3beb" d="m118.599,126.105h.904v.656c.304-.472.744-.72,1.263-.72.823,0,1.399.583,1.399,1.431v2.639h-.912v-2.383c0-.583-.344-.959-.879-.959-.368,0-.664.168-.872.488v2.854h-.904v-4.006Z"/>
    </g>
    <g>
      <line class="uuid-e12957e1-09e3-4ddb-a5c8-d8e86cce0237" x1="130.646" y1="121.751" x2="130.646" y2="121.751"/>
      <line class="uuid-ec41d1ed-4d4b-4609-b191-daab4bf9076b" x1="126.666" y1="121.751" x2="88.855" y2="121.751"/>
      <line class="uuid-e12957e1-09e3-4ddb-a5c8-d8e86cce0237" x1="86.865" y1="121.751" x2="86.865" y2="121.751"/>
      <line class="uuid-cf5b4cf8-b770-46cd-9d03-068ce4623669" x1="86.865" y1="117.545" x2="86.865" y2="107.029"/>
      <line class="uuid-e12957e1-09e3-4ddb-a5c8-d8e86cce0237" x1="86.865" y1="104.925" x2="86.865" y2="104.925"/>
      <line class="uuid-ec41d1ed-4d4b-4609-b191-daab4bf9076b" x1="90.845" y1="104.925" x2="128.656" y2="104.925"/>
      <line class="uuid-e12957e1-09e3-4ddb-a5c8-d8e86cce0237" x1="130.646" y1="104.925" x2="130.646" y2="104.925"/>
      <line class="uuid-cf5b4cf8-b770-46cd-9d03-068ce4623669" x1="130.646" y1="109.132" x2="130.646" y2="119.648"/>
    </g>
    <g>
      <rect class="uuid-b897198b-72e6-4d24-800e-6b69ee3b732b" x="90.742" y="108.832" width="35.939" height="8.985"/>
      <line class="uuid-e12957e1-09e3-4ddb-a5c8-d8e86cce0237" x1="122.839" y1="112.685" x2="122.839" y2="112.685"/>
      <line class="uuid-bcc983cf-a541-4279-93bb-787687e3aaa5" x1="95.143" y1="113.966" x2="100.534" y2="113.966"/>
    </g>
  </g>
  <line class="uuid-703f7890-12d8-411c-8283-916e959b80ff" x1="414.082" y1="167.541" x2="414.082" y2="200.283"/>
  <line class="uuid-703f7890-12d8-411c-8283-916e959b80ff" x1="531.091" y1="167.541" x2="531.091" y2="200.283"/>
  <line class="uuid-703f7890-12d8-411c-8283-916e959b80ff" x1="493.827" y1="135.379" x2="493.827" y2="168.12"/>
  <g>
    <g>
      <path class="uuid-0074573c-50de-4480-86e1-204c1e2b3beb" d="m323.062,129.744v-2.639h.911v2.375c0,.591.344.967.88.967.359,0,.663-.16.871-.48v-2.862h.903v4.006h-.903v-.647c-.304.472-.735.711-1.271.711-.815,0-1.391-.592-1.391-1.431Z"/>
      <path class="uuid-0074573c-50de-4480-86e1-204c1e2b3beb" d="m328.245,130.072v-2.247h-.799v-.72h.799v-1.104l.904-.192v1.295h1.111v.72h-1.111v2.047c0,.392.151.543.56.543.176,0,.304-.024.544-.096v.759c-.232.072-.536.112-.776.112-.808,0-1.231-.384-1.231-1.12Z"/>
      <path class="uuid-0074573c-50de-4480-86e1-204c1e2b3beb" d="m330.95,125.738c0-.304.248-.56.56-.56.304,0,.56.256.56.56s-.256.552-.56.552c-.312,0-.56-.248-.56-.552Zm.104,1.367h.903v4.006h-.903v-4.006Z"/>
      <path class="uuid-0074573c-50de-4480-86e1-204c1e2b3beb" d="m333.078,125.378l.903-.16v5.893h-.903v-5.733Z"/>
      <path class="uuid-0074573c-50de-4480-86e1-204c1e2b3beb" d="m334.982,125.738c0-.304.248-.56.56-.56.304,0,.56.256.56.56s-.256.552-.56.552c-.312,0-.56-.248-.56-.552Zm.104,1.367h.903v4.006h-.903v-4.006Z"/>
      <path class="uuid-0074573c-50de-4480-86e1-204c1e2b3beb" d="m337.605,130.072v-2.247h-.8v-.72h.8v-1.104l.903-.192v1.295h1.111v.72h-1.111v2.047c0,.392.152.543.56.543.176,0,.304-.024.544-.096v.759c-.231.072-.536.112-.775.112-.808,0-1.231-.384-1.231-1.12Z"/>
      <path class="uuid-0074573c-50de-4480-86e1-204c1e2b3beb" d="m340.261,132.806v-.784c.104.024.232.032.352.032.32,0,.512-.144.648-.456l.184-.448-1.512-4.046h1l1.023,2.966,1.111-2.966h.991l-1.919,4.702c-.312.775-.68,1.055-1.431,1.055-.128,0-.288-.016-.448-.056Z"/>
    </g>
    <g>
      <line class="uuid-e12957e1-09e3-4ddb-a5c8-d8e86cce0237" x1="355.236" y1="121.751" x2="355.236" y2="121.751"/>
      <line class="uuid-ec41d1ed-4d4b-4609-b191-daab4bf9076b" x1="351.256" y1="121.751" x2="313.445" y2="121.751"/>
      <line class="uuid-e12957e1-09e3-4ddb-a5c8-d8e86cce0237" x1="311.455" y1="121.751" x2="311.455" y2="121.751"/>
      <line class="uuid-cf5b4cf8-b770-46cd-9d03-068ce4623669" x1="311.455" y1="117.545" x2="311.455" y2="107.029"/>
      <line class="uuid-e12957e1-09e3-4ddb-a5c8-d8e86cce0237" x1="311.455" y1="104.925" x2="311.455" y2="104.925"/>
      <line class="uuid-ec41d1ed-4d4b-4609-b191-daab4bf9076b" x1="315.435" y1="104.925" x2="353.246" y2="104.925"/>
      <line class="uuid-e12957e1-09e3-4ddb-a5c8-d8e86cce0237" x1="355.236" y1="104.925" x2="355.236" y2="104.925"/>
      <line class="uuid-cf5b4cf8-b770-46cd-9d03-068ce4623669" x1="355.236" y1="109.132" x2="355.236" y2="119.648"/>
    </g>
    <g>
      <rect class="uuid-b897198b-72e6-4d24-800e-6b69ee3b732b" x="315.332" y="108.832" width="35.939" height="8.985"/>
      <line class="uuid-e12957e1-09e3-4ddb-a5c8-d8e86cce0237" x1="347.429" y1="112.685" x2="347.429" y2="112.685"/>
      <line class="uuid-bcc983cf-a541-4279-93bb-787687e3aaa5" x1="319.733" y1="113.966" x2="325.124" y2="113.966"/>
    </g>
  </g>
  <g>
    <g>
      <path class="uuid-0074573c-50de-4480-86e1-204c1e2b3beb" d="m399.591,227.452h.903v.863c.224-.607.607-.936,1.104-.936.152.008.256.024.392.08v.792c-.144-.057-.328-.097-.495-.097-.44,0-.8.248-1,.664v2.639h-.903v-4.006Z"/>
      <path class="uuid-0074573c-50de-4480-86e1-204c1e2b3beb" d="m402.551,229.459c0-1.176.848-2.071,1.951-2.071,1.096,0,1.895.872,1.895,2.071v.216h-2.958c.088.647.575,1.119,1.199,1.119.376,0,.728-.144.951-.376l.592.536c-.487.408-.976.584-1.583.584-1.151,0-2.047-.904-2.047-2.079Zm2.99-.344c-.096-.584-.512-.991-1.047-.991-.544,0-.943.392-1.048.991h2.095Z"/>
      <path class="uuid-0074573c-50de-4480-86e1-204c1e2b3beb" d="m407.583,232.817l.312-.664c.472.232.855.336,1.255.336.672,0,1.023-.304,1.023-.888v-.68c-.287.352-.728.56-1.231.56-1.015,0-1.807-.903-1.807-2.038s.823-2.023,1.871-2.023c.464,0,.88.184,1.176.536v-.504h.896v4.149c0,1.031-.672,1.607-1.888,1.607-.575,0-1.135-.145-1.606-.392Zm2.59-2.527v-1.679c-.231-.271-.575-.432-.951-.432-.688,0-1.199.535-1.199,1.271,0,.728.512,1.279,1.199,1.279.392,0,.72-.16.951-.44Z"/>
      <path class="uuid-0074573c-50de-4480-86e1-204c1e2b3beb" d="m412.078,226.085c0-.304.248-.56.56-.56.305,0,.561.256.561.56s-.256.552-.561.552c-.312,0-.56-.248-.56-.552Zm.104,1.367h.903v4.006h-.903v-4.006Z"/>
      <path class="uuid-0074573c-50de-4480-86e1-204c1e2b3beb" d="m413.847,230.994l.424-.6c.527.328.88.456,1.287.456.479,0,.808-.225.808-.544,0-.248-.168-.376-.56-.456l-.704-.12c-.783-.144-1.159-.504-1.159-1.104,0-.751.616-1.239,1.552-1.239.56,0,1.063.16,1.575.48l-.424.6c-.408-.265-.8-.384-1.208-.384-.415,0-.688.176-.688.464,0,.256.145.367.56.439l.712.136c.8.144,1.184.512,1.184,1.111,0,.735-.704,1.304-1.64,1.304-.688,0-1.295-.192-1.719-.544Z"/>
      <path class="uuid-0074573c-50de-4480-86e1-204c1e2b3beb" d="m418.535,230.418v-2.246h-.8v-.72h.8v-1.104l.903-.192v1.296h1.111v.72h-1.111v2.047c0,.392.152.543.56.543.176,0,.304-.023.544-.096v.76c-.231.072-.535.112-.775.112-.808,0-1.231-.384-1.231-1.12Z"/>
      <path class="uuid-0074573c-50de-4480-86e1-204c1e2b3beb" d="m421.351,227.452h.903v.863c.224-.607.607-.936,1.104-.936.152.008.256.024.392.08v.792c-.144-.057-.328-.097-.495-.097-.44,0-.8.248-1,.664v2.639h-.903v-4.006Z"/>
      <path class="uuid-0074573c-50de-4480-86e1-204c1e2b3beb" d="m424.334,233.153v-.784c.104.024.232.032.352.032.32,0,.512-.144.648-.456l.184-.447-1.512-4.046h1l1.023,2.966,1.111-2.966h.991l-1.919,4.701c-.312.775-.68,1.056-1.431,1.056-.128,0-.288-.017-.448-.056Z"/>
    </g>
    <g>
      <line class="uuid-e12957e1-09e3-4ddb-a5c8-d8e86cce0237" x1="435.521" y1="221.098" x2="435.521" y2="221.098"/>
      <line class="uuid-ec41d1ed-4d4b-4609-b191-daab4bf9076b" x1="431.541" y1="221.098" x2="393.731" y2="221.098"/>
      <line class="uuid-e12957e1-09e3-4ddb-a5c8-d8e86cce0237" x1="391.741" y1="221.098" x2="391.741" y2="221.098"/>
      <line class="uuid-cf5b4cf8-b770-46cd-9d03-068ce4623669" x1="391.741" y1="216.891" x2="391.741" y2="206.375"/>
      <line class="uuid-e12957e1-09e3-4ddb-a5c8-d8e86cce0237" x1="391.741" y1="204.272" x2="391.741" y2="204.272"/>
      <line class="uuid-ec41d1ed-4d4b-4609-b191-daab4bf9076b" x1="395.721" y1="204.272" x2="433.531" y2="204.272"/>
      <line class="uuid-e12957e1-09e3-4ddb-a5c8-d8e86cce0237" x1="435.521" y1="204.272" x2="435.521" y2="204.272"/>
      <line class="uuid-cf5b4cf8-b770-46cd-9d03-068ce4623669" x1="435.521" y1="208.478" x2="435.521" y2="218.995"/>
    </g>
    <g>
      <rect class="uuid-b897198b-72e6-4d24-800e-6b69ee3b732b" x="395.617" y="208.178" width="35.939" height="8.985"/>
      <line class="uuid-e12957e1-09e3-4ddb-a5c8-d8e86cce0237" x1="427.715" y1="212.032" x2="427.715" y2="212.032"/>
      <line class="uuid-bcc983cf-a541-4279-93bb-787687e3aaa5" x1="400.018" y1="213.313" x2="405.409" y2="213.313"/>
    </g>
  </g>
  <g>
    <g>
      <path class="uuid-0074573c-50de-4480-86e1-204c1e2b3beb" d="m524.586,226.085c0-.304.248-.56.56-.56.304,0,.56.256.56.56s-.256.552-.56.552c-.312,0-.56-.248-.56-.552Zm.104,1.367h.904v4.006h-.904v-4.006Z"/>
      <path class="uuid-0074573c-50de-4480-86e1-204c1e2b3beb" d="m526.531,229.459c0-1.144.823-2.039,1.87-2.039.457,0,.872.184,1.168.52v-2.215l.904-.159v5.893h-.896v-.528c-.287.36-.735.568-1.239.568-1.015,0-1.807-.903-1.807-2.039Zm3.038.84v-1.688c-.232-.271-.576-.432-.951-.432-.688,0-1.199.544-1.199,1.279,0,.728.512,1.279,1.199,1.279.392,0,.719-.152.951-.439Z"/>
      <path class="uuid-0074573c-50de-4480-86e1-204c1e2b3beb" d="m531.594,227.452h.904v.632c.295-.456.695-.696,1.183-.696.552,0,.976.296,1.184.768.312-.503.759-.768,1.327-.768.775,0,1.311.6,1.311,1.447v2.623h-.902v-2.423c0-.56-.312-.92-.809-.92-.327,0-.6.152-.799.48.008.08.016.159.016.239v2.623h-.911v-2.423c0-.56-.312-.92-.808-.92-.328,0-.592.152-.791.464v2.879h-.904v-4.006Z"/>
    </g>
    <g>
      <line class="uuid-e12957e1-09e3-4ddb-a5c8-d8e86cce0237" x1="552.981" y1="221.098" x2="552.981" y2="221.098"/>
      <line class="uuid-ec41d1ed-4d4b-4609-b191-daab4bf9076b" x1="549.001" y1="221.098" x2="511.191" y2="221.098"/>
      <line class="uuid-e12957e1-09e3-4ddb-a5c8-d8e86cce0237" x1="509.2" y1="221.098" x2="509.2" y2="221.098"/>
      <line class="uuid-cf5b4cf8-b770-46cd-9d03-068ce4623669" x1="509.2" y1="216.891" x2="509.2" y2="206.375"/>
      <line class="uuid-e12957e1-09e3-4ddb-a5c8-d8e86cce0237" x1="509.2" y1="204.272" x2="509.2" y2="204.272"/>
      <line class="uuid-ec41d1ed-4d4b-4609-b191-daab4bf9076b" x1="513.181" y1="204.272" x2="550.991" y2="204.272"/>
      <line class="uuid-e12957e1-09e3-4ddb-a5c8-d8e86cce0237" x1="552.981" y1="204.272" x2="552.981" y2="204.272"/>
      <line class="uuid-cf5b4cf8-b770-46cd-9d03-068ce4623669" x1="552.981" y1="208.478" x2="552.981" y2="218.995"/>
    </g>
    <g>
      <rect class="uuid-b897198b-72e6-4d24-800e-6b69ee3b732b" x="513.077" y="208.178" width="35.939" height="8.985"/>
      <line class="uuid-e12957e1-09e3-4ddb-a5c8-d8e86cce0237" x1="545.174" y1="212.032" x2="545.174" y2="212.032"/>
      <line class="uuid-bcc983cf-a541-4279-93bb-787687e3aaa5" x1="517.478" y1="213.313" x2="522.869" y2="213.313"/>
    </g>
  </g>
  <g>
    <g>
      <path class="uuid-0074573c-50de-4480-86e1-204c1e2b3beb" d="m469.686,126.931h.904v.632c.296-.456.695-.696,1.183-.696.552,0,.976.296,1.184.768.312-.503.76-.768,1.327-.768.775,0,1.312.6,1.312,1.447v2.623h-.903v-2.423c0-.56-.312-.919-.808-.919-.328,0-.6.152-.8.48.008.08.016.16.016.24v2.623h-.911v-2.423c0-.56-.312-.919-.808-.919-.328,0-.592.152-.791.464v2.878h-.904v-4.006Z"/>
      <path class="uuid-0074573c-50de-4480-86e1-204c1e2b3beb" d="m476.487,129.786c0-.72.591-1.175,1.535-1.175.375,0,.728.08,1.079.256v-.448c0-.528-.304-.8-.92-.8-.336,0-.703.096-1.167.312l-.32-.656c.6-.271,1.128-.408,1.663-.408,1.048,0,1.64.528,1.64,1.455v2.615h-.896v-.416c-.344.336-.728.488-1.191.488-.84,0-1.423-.503-1.423-1.223Zm1.671.583c.359,0,.671-.104.943-.335v-.648c-.288-.136-.576-.192-.92-.192-.52,0-.848.216-.848.576,0,.368.32.6.824.6Z"/>
      <path class="uuid-0074573c-50de-4480-86e1-204c1e2b3beb" d="m480.734,130.473l.424-.6c.528.328.88.456,1.288.456.479,0,.808-.224.808-.544,0-.248-.168-.376-.561-.456l-.703-.12c-.783-.144-1.159-.504-1.159-1.104,0-.751.615-1.239,1.551-1.239.56,0,1.063.16,1.575.48l-.424.6c-.407-.264-.8-.384-1.207-.384-.416,0-.688.176-.688.464,0,.256.144.368.56.439l.711.136c.8.144,1.184.512,1.184,1.112,0,.735-.703,1.303-1.639,1.303-.688,0-1.296-.192-1.72-.544Z"/>
      <path class="uuid-0074573c-50de-4480-86e1-204c1e2b3beb" d="m485.422,129.898v-2.247h-.8v-.72h.8v-1.104l.903-.192v1.295h1.111v.72h-1.111v2.047c0,.392.151.543.56.543.176,0,.304-.024.544-.096v.759c-.232.072-.536.112-.776.112-.808,0-1.23-.384-1.23-1.12Z"/>
      <path class="uuid-0074573c-50de-4480-86e1-204c1e2b3beb" d="m488.054,128.938c0-1.175.848-2.071,1.951-2.071,1.096,0,1.895.872,1.895,2.071v.216h-2.958c.088.648.575,1.12,1.199,1.12.376,0,.728-.144.951-.376l.592.536c-.487.408-.976.584-1.583.584-1.151,0-2.047-.904-2.047-2.079Zm2.99-.344c-.096-.583-.512-.991-1.047-.991-.544,0-.943.392-1.048.991h2.095Z"/>
      <path class="uuid-0074573c-50de-4480-86e1-204c1e2b3beb" d="m492.822,126.931h.904v.864c.224-.608.607-.936,1.103-.936.152.008.256.024.393.08v.792c-.145-.056-.328-.096-.496-.096-.439,0-.8.248-.999.664v2.639h-.904v-4.006Z"/>
      <path class="uuid-0074573c-50de-4480-86e1-204c1e2b3beb" d="m495.806,128.139c0-1.719.936-2.887,2.295-2.887s2.287,1.167,2.287,2.887-.928,2.878-2.287,2.878-2.295-1.167-2.295-2.878Zm3.71,0c0-1.288-.552-2.111-1.415-2.111s-1.423.823-1.423,2.111c0,1.279.56,2.103,1.423,2.103s1.415-.823,1.415-2.103Z"/>
      <path class="uuid-0074573c-50de-4480-86e1-204c1e2b3beb" d="m502.085,126.26l-.991.423v-.775l1.311-.567h.552v5.597h-.871v-4.677Z"/>
    </g>
    <g>
      <line class="uuid-e12957e1-09e3-4ddb-a5c8-d8e86cce0237" x1="508.221" y1="120.577" x2="508.221" y2="120.577"/>
      <line class="uuid-ec41d1ed-4d4b-4609-b191-daab4bf9076b" x1="504.241" y1="120.577" x2="466.43" y2="120.577"/>
      <line class="uuid-e12957e1-09e3-4ddb-a5c8-d8e86cce0237" x1="464.44" y1="120.577" x2="464.44" y2="120.577"/>
      <line class="uuid-cf5b4cf8-b770-46cd-9d03-068ce4623669" x1="464.44" y1="116.371" x2="464.44" y2="105.855"/>
      <line class="uuid-e12957e1-09e3-4ddb-a5c8-d8e86cce0237" x1="464.44" y1="103.751" x2="464.44" y2="103.751"/>
      <line class="uuid-ec41d1ed-4d4b-4609-b191-daab4bf9076b" x1="468.42" y1="103.751" x2="506.231" y2="103.751"/>
      <line class="uuid-e12957e1-09e3-4ddb-a5c8-d8e86cce0237" x1="508.221" y1="103.751" x2="508.221" y2="103.751"/>
      <line class="uuid-cf5b4cf8-b770-46cd-9d03-068ce4623669" x1="508.221" y1="107.958" x2="508.221" y2="118.474"/>
    </g>
    <g>
      <rect class="uuid-b897198b-72e6-4d24-800e-6b69ee3b732b" x="468.316" y="107.658" width="35.939" height="8.985"/>
      <line class="uuid-e12957e1-09e3-4ddb-a5c8-d8e86cce0237" x1="500.414" y1="111.511" x2="500.414" y2="111.511"/>
      <line class="uuid-bcc983cf-a541-4279-93bb-787687e3aaa5" x1="472.718" y1="112.792" x2="478.108" y2="112.792"/>
    </g>
  </g>
  <g>
    <g>
      <path class="uuid-0074573c-50de-4480-86e1-204c1e2b3beb" d="m139.974,225.398c0-1.159.879-2.07,2.022-2.07.624,0,1.2.247,1.6.679l-.56.584c-.28-.312-.624-.472-1.007-.472-.647,0-1.151.56-1.151,1.279,0,.728.504,1.279,1.151,1.279.384,0,.728-.16,1.007-.464l.56.576c-.4.432-.976.68-1.6.68-1.143,0-2.022-.904-2.022-2.071Z"/>
      <path class="uuid-0074573c-50de-4480-86e1-204c1e2b3beb" d="m144.342,221.665l.904-.16v5.893h-.904v-5.732Z"/>
      <path class="uuid-0074573c-50de-4480-86e1-204c1e2b3beb" d="m146.15,226.246c0-.72.592-1.176,1.535-1.176.376,0,.728.08,1.08.256v-.447c0-.527-.304-.8-.919-.8-.336,0-.704.096-1.167.312l-.32-.656c.6-.271,1.127-.407,1.663-.407,1.047,0,1.639.527,1.639,1.455v2.614h-.896v-.416c-.344.336-.728.488-1.191.488-.839,0-1.423-.504-1.423-1.224Zm1.671.584c.36,0,.671-.104.943-.336v-.647c-.288-.137-.576-.192-.919-.192-.52,0-.848.216-.848.576,0,.367.32.6.824.6Z"/>
      <path class="uuid-0074573c-50de-4480-86e1-204c1e2b3beb" d="m150.397,226.933l.424-.6c.528.328.879.456,1.288.456.479,0,.808-.225.808-.544,0-.248-.168-.376-.56-.456l-.704-.119c-.783-.145-1.159-.504-1.159-1.104,0-.752.616-1.239,1.551-1.239.56,0,1.063.159,1.575.479l-.423.6c-.408-.264-.8-.384-1.208-.384-.416,0-.688.176-.688.464,0,.256.144.367.56.439l.711.136c.8.145,1.184.512,1.184,1.111,0,.736-.704,1.304-1.639,1.304-.688,0-1.295-.192-1.719-.544Z"/>
      <path class="uuid-0074573c-50de-4480-86e1-204c1e2b3beb" d="m154.229,226.933l.424-.6c.528.328.879.456,1.288.456.479,0,.808-.225.808-.544,0-.248-.168-.376-.56-.456l-.704-.119c-.783-.145-1.159-.504-1.159-1.104,0-.752.616-1.239,1.551-1.239.56,0,1.063.159,1.575.479l-.423.6c-.408-.264-.8-.384-1.208-.384-.416,0-.688.176-.688.464,0,.256.144.367.56.439l.711.136c.8.145,1.184.512,1.184,1.111,0,.736-.704,1.304-1.639,1.304-.688,0-1.295-.192-1.719-.544Z"/>
      <path class="uuid-0074573c-50de-4480-86e1-204c1e2b3beb" d="m158.421,223.391h.904v.863c.224-.607.607-.936,1.103-.936.152.009.256.024.392.08v.792c-.144-.056-.328-.096-.496-.096-.44,0-.8.247-1,.663v2.639h-.904v-4.006Z"/>
      <path class="uuid-0074573c-50de-4480-86e1-204c1e2b3beb" d="m161.382,225.398c0-1.184.863-2.07,2.015-2.07,1.144,0,2.007.887,2.007,2.07s-.863,2.071-2.007,2.071c-1.151,0-2.015-.888-2.015-2.071Zm3.134,0c0-.743-.472-1.303-1.12-1.303-.656,0-1.127.56-1.127,1.303,0,.752.472,1.304,1.127,1.304.648,0,1.12-.552,1.12-1.304Z"/>
      <path class="uuid-0074573c-50de-4480-86e1-204c1e2b3beb" d="m166.158,225.398c0-1.184.863-2.07,2.015-2.07,1.144,0,2.007.887,2.007,2.07s-.863,2.071-2.007,2.071c-1.151,0-2.015-.888-2.015-2.071Zm3.134,0c0-.743-.472-1.303-1.12-1.303-.656,0-1.127.56-1.127,1.303,0,.752.472,1.304,1.127,1.304.647,0,1.12-.552,1.12-1.304Z"/>
      <path class="uuid-0074573c-50de-4480-86e1-204c1e2b3beb" d="m171.117,223.391h.904v.632c.296-.456.695-.695,1.183-.695.552,0,.976.296,1.184.768.312-.504.759-.768,1.327-.768.775,0,1.311.6,1.311,1.446v2.623h-.903v-2.423c0-.56-.312-.919-.808-.919-.328,0-.6.151-.799.479.008.08.016.16.016.239v2.623h-.911v-2.423c0-.56-.312-.919-.808-.919-.328,0-.592.151-.792.463v2.879h-.904v-4.006Z"/>
    </g>
    <g>
      <line class="uuid-e12957e1-09e3-4ddb-a5c8-d8e86cce0237" x1="180.472" y1="219.038" x2="180.472" y2="219.038"/>
      <line class="uuid-1fd8be60-92e1-4783-aac4-b858147cd097" x1="175.607" y1="219.038" x2="139.123" y2="219.038"/>
      <line class="uuid-e12957e1-09e3-4ddb-a5c8-d8e86cce0237" x1="136.691" y1="219.038" x2="136.691" y2="219.038"/>
      <line class="uuid-006c7bec-e62b-4827-a4df-f2a11c79929e" x1="136.691" y1="213.429" x2="136.691" y2="205.016"/>
      <line class="uuid-e12957e1-09e3-4ddb-a5c8-d8e86cce0237" x1="136.691" y1="202.212" x2="136.691" y2="202.212"/>
      <line class="uuid-1fd8be60-92e1-4783-aac4-b858147cd097" x1="141.556" y1="202.212" x2="178.04" y2="202.212"/>
      <line class="uuid-e12957e1-09e3-4ddb-a5c8-d8e86cce0237" x1="180.472" y1="202.212" x2="180.472" y2="202.212"/>
      <line class="uuid-006c7bec-e62b-4827-a4df-f2a11c79929e" x1="180.472" y1="207.82" x2="180.472" y2="216.233"/>
    </g>
    <g>
      <rect class="uuid-b897198b-72e6-4d24-800e-6b69ee3b732b" x="140.567" y="206.118" width="35.939" height="8.985"/>
      <line class="uuid-e12957e1-09e3-4ddb-a5c8-d8e86cce0237" x1="172.665" y1="209.972" x2="172.665" y2="209.972"/>
      <line class="uuid-bcc983cf-a541-4279-93bb-787687e3aaa5" x1="144.969" y1="211.253" x2="150.36" y2="211.253"/>
    </g>
  </g>
  <g>
    <line class="uuid-d18bb235-1eec-4916-944f-4e1a6f448c30" x1="272.964" y1="113.175" x2="309.455" y2="112.685"/>
    <g>
      <line class="uuid-d462ac62-034f-4ffe-85b8-3f099cfb33dd" x1="277.628" y1="113.112" x2="304.792" y2="112.748"/>
      <polygon points="278.62 116.34 272.964 113.175 278.533 109.859 278.62 116.34"/>
      <polygon points="303.887 116.001 309.455 112.686 303.8 109.52 303.887 116.001"/>
    </g>
  </g>
  <g>
    <g>
      <path class="uuid-0074573c-50de-4480-86e1-204c1e2b3beb" d="m235.721,126.013h.935l2.918,4.069-.016-4.069h.903v5.597h-.855l-2.999-4.182.016,4.182h-.903v-5.597Z"/>
      <path class="uuid-0074573c-50de-4480-86e1-204c1e2b3beb" d="m241.808,126.013h4.021v.815h-3.062v1.599h2.111v.799h-2.111v2.383h-.959v-5.597Z"/>
      <path class="uuid-0074573c-50de-4480-86e1-204c1e2b3beb" d="m246.4,130.794l.52-.704c.72.591,1.239.815,1.887.815.735,0,1.247-.376,1.247-.896,0-.456-.271-.671-1.015-.799l-1.032-.176c-.967-.176-1.439-.656-1.439-1.423,0-1.015.808-1.687,2.063-1.687.839,0,1.607.248,2.247.72l-.488.72c-.56-.424-1.159-.648-1.791-.648-.671,0-1.119.344-1.119.8,0,.408.256.616.863.711l1,.168c1.127.2,1.655.696,1.655,1.543,0,1.031-.912,1.759-2.247,1.759-.879,0-1.639-.304-2.351-.903Z"/>
      <path class="uuid-0074573c-50de-4480-86e1-204c1e2b3beb" d="m253.304,131.145l.424-.6c.528.328.879.456,1.288.456.479,0,.808-.224.808-.544,0-.248-.168-.376-.56-.456l-.704-.12c-.783-.144-1.159-.504-1.159-1.104,0-.751.616-1.239,1.551-1.239.56,0,1.063.16,1.575.48l-.423.6c-.408-.264-.8-.384-1.208-.384-.416,0-.688.176-.688.464,0,.256.144.368.56.439l.711.136c.8.144,1.184.512,1.184,1.112,0,.735-.704,1.303-1.639,1.303-.688,0-1.295-.192-1.719-.544Z"/>
      <path class="uuid-0074573c-50de-4480-86e1-204c1e2b3beb" d="m257.992,130.57v-2.247h-.8v-.72h.8v-1.104l.903-.192v1.295h1.111v.72h-1.111v2.047c0,.392.152.543.56.543.176,0,.304-.024.544-.096v.759c-.232.072-.536.112-.776.112-.808,0-1.231-.384-1.231-1.12Z"/>
      <path class="uuid-0074573c-50de-4480-86e1-204c1e2b3beb" d="m260.624,129.61c0-1.183.863-2.071,2.015-2.071,1.144,0,2.007.888,2.007,2.071s-.863,2.071-2.007,2.071c-1.151,0-2.015-.887-2.015-2.071Zm3.134,0c0-.744-.472-1.303-1.12-1.303-.656,0-1.127.56-1.127,1.303,0,.752.472,1.303,1.127,1.303.647,0,1.12-.551,1.12-1.303Z"/>
      <path class="uuid-0074573c-50de-4480-86e1-204c1e2b3beb" d="m265.584,127.603h.904v.864c.224-.608.607-.936,1.103-.936.152.008.256.024.392.08v.792c-.144-.056-.328-.096-.496-.096-.44,0-.8.248-1,.664v2.639h-.904v-4.006Z"/>
      <path class="uuid-0074573c-50de-4480-86e1-204c1e2b3beb" d="m268.519,130.458c0-.72.592-1.175,1.535-1.175.376,0,.728.08,1.08.256v-.448c0-.528-.304-.8-.919-.8-.336,0-.704.096-1.167.312l-.32-.656c.6-.271,1.127-.408,1.663-.408,1.047,0,1.639.528,1.639,1.455v2.615h-.896v-.416c-.344.336-.728.488-1.191.488-.839,0-1.423-.503-1.423-1.223Zm1.671.583c.36,0,.671-.104.943-.335v-.648c-.288-.136-.576-.192-.919-.192-.52,0-.848.216-.848.576,0,.368.32.6.824.6Z"/>
      <path class="uuid-0074573c-50de-4480-86e1-204c1e2b3beb" d="m273.391,132.969l.312-.664c.472.232.855.335,1.255.335.672,0,1.023-.304,1.023-.887v-.68c-.288.352-.728.56-1.231.56-1.015,0-1.807-.903-1.807-2.039s.823-2.023,1.871-2.023c.464,0,.88.184,1.176.536v-.504h.896v4.15c0,1.031-.672,1.607-1.887,1.607-.576,0-1.135-.144-1.607-.392Zm2.59-2.527v-1.679c-.232-.271-.576-.432-.952-.432-.688,0-1.199.536-1.199,1.271,0,.728.512,1.279,1.199,1.279.392,0,.72-.16.952-.44Z"/>
      <path class="uuid-0074573c-50de-4480-86e1-204c1e2b3beb" d="m277.816,129.61c0-1.175.847-2.071,1.951-2.071,1.096,0,1.895.872,1.895,2.071v.216h-2.958c.088.648.576,1.12,1.199,1.12.376,0,.728-.144.952-.376l.592.536c-.488.408-.976.584-1.583.584-1.151,0-2.047-.904-2.047-2.079Zm2.99-.344c-.096-.583-.512-.991-1.047-.991-.544,0-.943.392-1.047.991h2.095Z"/>
    </g>
    <g>
      <path class="uuid-b897198b-72e6-4d24-800e-6b69ee3b732b" d="m246.48,110.684v6.66c0,3.678,5.397,6.66,12.055,6.66s12.055-2.982,12.055-6.66v-6.66"/>
      <ellipse class="uuid-b897198b-72e6-4d24-800e-6b69ee3b732b" cx="258.536" cy="110.684" rx="12.055" ry="6.66"/>
    </g>
  </g>
  <g>
    <line class="uuid-d462ac62-034f-4ffe-85b8-3f099cfb33dd" x1="428.717" y1="113.25" x2="456.382" y2="113.25"/>
    <polygon points="429.666 116.491 424.053 113.25 429.666 110.009 429.666 116.491"/>
    <polygon points="455.434 116.491 461.046 113.25 455.434 110.009 455.434 116.491"/>
  </g>
  <g>
    <g>
      <path class="uuid-0074573c-50de-4480-86e1-204c1e2b3beb" d="m384.907,123.645h.959v4.765h2.982v.832h-3.941v-5.597Z"/>
      <path class="uuid-0074573c-50de-4480-86e1-204c1e2b3beb" d="m389.62,127.243c0-1.183.863-2.071,2.014-2.071,1.145,0,2.008.888,2.008,2.071s-.863,2.071-2.008,2.071c-1.15,0-2.014-.887-2.014-2.071Zm3.134,0c0-.744-.472-1.303-1.12-1.303-.655,0-1.127.56-1.127,1.303,0,.752.472,1.303,1.127,1.303.648,0,1.12-.551,1.12-1.303Z"/>
      <path class="uuid-0074573c-50de-4480-86e1-204c1e2b3beb" d="m394.395,127.243c0-1.159.879-2.071,2.023-2.071.623,0,1.199.248,1.598.68l-.559.583c-.28-.312-.624-.472-1.008-.472-.647,0-1.151.56-1.151,1.279,0,.728.504,1.279,1.151,1.279.384,0,.728-.16,1.008-.464l.559.576c-.398.432-.975.679-1.598.679-1.145,0-2.023-.903-2.023-2.071Z"/>
      <path class="uuid-0074573c-50de-4480-86e1-204c1e2b3beb" d="m398.555,128.091c0-.72.592-1.175,1.535-1.175.375,0,.728.08,1.079.256v-.448c0-.528-.304-.8-.919-.8-.336,0-.704.096-1.168.312l-.32-.656c.6-.271,1.128-.408,1.664-.408,1.047,0,1.639.528,1.639,1.455v2.615h-.896v-.416c-.344.336-.728.488-1.191.488-.839,0-1.423-.503-1.423-1.223Zm1.671.583c.36,0,.671-.104.943-.335v-.648c-.288-.136-.575-.192-.919-.192-.52,0-.848.216-.848.576,0,.368.319.6.823.6Z"/>
      <path class="uuid-0074573c-50de-4480-86e1-204c1e2b3beb" d="m403.162,123.509l.904-.16v5.893h-.904v-5.733Z"/>
      <path class="uuid-0074573c-50de-4480-86e1-204c1e2b3beb" d="m406.619,128.778l.424-.6c.528.328.88.456,1.288.456.479,0,.807-.224.807-.544,0-.248-.168-.376-.56-.456l-.704-.12c-.783-.144-1.158-.504-1.158-1.104,0-.751.615-1.239,1.551-1.239.56,0,1.062.16,1.574.48l-.423.6c-.407-.264-.8-.384-1.208-.384-.416,0-.688.176-.688.464,0,.256.145.368.561.439l.711.136c.8.144,1.184.512,1.184,1.112,0,.735-.703,1.303-1.639,1.303-.688,0-1.296-.192-1.72-.544Z"/>
      <path class="uuid-0074573c-50de-4480-86e1-204c1e2b3beb" d="m411.307,128.202v-2.247h-.801v-.72h.801v-1.104l.902-.192v1.295h1.111v.72h-1.111v2.047c0,.392.152.543.561.543.176,0,.303-.024.543-.096v.759c-.231.072-.535.112-.775.112-.808,0-1.23-.384-1.23-1.12Z"/>
      <path class="uuid-0074573c-50de-4480-86e1-204c1e2b3beb" d="m413.938,127.243c0-1.183.863-2.071,2.016-2.071,1.143,0,2.006.888,2.006,2.071s-.863,2.071-2.006,2.071c-1.152,0-2.016-.887-2.016-2.071Zm3.135,0c0-.744-.473-1.303-1.119-1.303-.656,0-1.128.56-1.128,1.303,0,.752.472,1.303,1.128,1.303.646,0,1.119-.551,1.119-1.303Z"/>
      <path class="uuid-0074573c-50de-4480-86e1-204c1e2b3beb" d="m418.899,125.236h.903v.864c.224-.608.607-.936,1.103-.936.152.008.256.024.393.08v.792c-.145-.056-.328-.096-.496-.096-.439,0-.799.248-.999.664v2.639h-.903v-4.006Z"/>
      <path class="uuid-0074573c-50de-4480-86e1-204c1e2b3beb" d="m421.834,128.091c0-.72.592-1.175,1.535-1.175.375,0,.728.08,1.079.256v-.448c0-.528-.304-.8-.919-.8-.336,0-.704.096-1.168.312l-.32-.656c.6-.271,1.128-.408,1.664-.408,1.047,0,1.639.528,1.639,1.455v2.615h-.896v-.416c-.344.336-.728.488-1.191.488-.839,0-1.423-.503-1.423-1.223Zm1.671.583c.36,0,.671-.104.943-.335v-.648c-.288-.136-.575-.192-.919-.192-.52,0-.848.216-.848.576,0,.368.319.6.823.6Z"/>
      <path class="uuid-0074573c-50de-4480-86e1-204c1e2b3beb" d="m426.705,130.601l.312-.664c.471.232.855.335,1.255.335.672,0,1.023-.304,1.023-.887v-.68c-.288.352-.728.56-1.231.56-1.016,0-1.807-.903-1.807-2.039s.823-2.023,1.871-2.023c.463,0,.879.184,1.176.536v-.504h.895v4.15c0,1.031-.672,1.607-1.887,1.607-.576,0-1.135-.144-1.607-.392Zm2.591-2.527v-1.679c-.231-.271-.575-.432-.952-.432-.688,0-1.199.536-1.199,1.271,0,.728.512,1.279,1.199,1.279.393,0,.721-.16.952-.44Z"/>
      <path class="uuid-0074573c-50de-4480-86e1-204c1e2b3beb" d="m431.13,127.243c0-1.175.847-2.071,1.95-2.071,1.096,0,1.896.872,1.896,2.071v.216h-2.958c.088.648.575,1.12,1.199,1.12.375,0,.728-.144.951-.376l.592.536c-.488.408-.976.584-1.583.584-1.151,0-2.047-.904-2.047-2.079Zm2.99-.344c-.097-.583-.512-.991-1.048-.991-.543,0-.943.392-1.047.991h2.095Z"/>
    </g>
    <g>
      <path class="uuid-b897198b-72e6-4d24-800e-6b69ee3b732b" d="m397.73,108.317v6.66c0,3.678,5.397,6.66,12.055,6.66s12.055-2.982,12.055-6.66v-6.66"/>
      <ellipse class="uuid-b897198b-72e6-4d24-800e-6b69ee3b732b" cx="409.786" cy="108.317" rx="12.055" ry="6.66"/>
    </g>
  </g>
  <g>
    <path d="m376.982,43.254c0-1.615,1.271-2.887,2.895-2.887s2.895,1.271,2.895,2.887-1.271,2.886-2.895,2.886-2.895-1.271-2.895-2.886Zm4.374,0c0-.952-.64-1.663-1.479-1.663s-1.479.711-1.479,1.663.64,1.663,1.479,1.663,1.479-.712,1.479-1.663Z"/>
    <path d="m383.638,41.927h1.279v.575c.271-.368.728-.6,1.223-.6,1.016,0,1.823.936,1.823,2.095s-.848,2.079-1.919,2.079c-.447,0-.84-.168-1.111-.479v2.126h-1.295v-5.796Zm3.054,2.062c0-.583-.424-1.015-.983-1.015-.319,0-.567.112-.775.335v1.375c.2.208.472.328.775.328.567,0,.983-.432.983-1.023Z"/>
    <path d="m388.606,43.997c0-1.208.896-2.135,2.079-2.135,1.191,0,2.031.904,2.031,2.183v.28h-2.839c.12.464.496.775.968.775.344,0,.632-.12.815-.344l.855.712c-.536.472-1.039.664-1.735.664-1.215,0-2.175-.936-2.175-2.135Zm2.911-.408c-.112-.44-.424-.72-.84-.72-.408,0-.695.264-.8.72h1.64Z"/>
    <path d="m393.526,41.927h1.295v.671c.32-.48.768-.736,1.304-.736.8,0,1.367.584,1.367,1.407v2.783h-1.295v-2.407c0-.464-.272-.768-.688-.768-.28,0-.504.112-.688.344v2.831h-1.295v-4.125Z"/>
    <path d="m398.118,45.292l.704-1.015c.775.543,1.263.744,1.814.744.592,0,.952-.24.952-.592,0-.328-.192-.488-.736-.583l-1.19-.208c-.888-.152-1.376-.712-1.376-1.503,0-1.087.832-1.767,2.223-1.767.864,0,1.72.28,2.295.736l-.695,1c-.544-.416-1.079-.616-1.671-.616-.544,0-.855.224-.855.528,0,.288.184.432.631.512l1.12.192c1.047.176,1.599.728,1.599,1.583,0,1.095-.928,1.839-2.391,1.839-.888,0-1.679-.296-2.423-.848Z"/>
    <path d="m403.71,40.359l1.295-.2v2.438c.319-.48.768-.736,1.304-.736.799,0,1.367.584,1.367,1.407v2.783h-1.296v-2.407c0-.464-.271-.768-.688-.768-.279,0-.504.112-.688.344v2.831h-1.295v-5.693Z"/>
    <path d="m408.574,40.567c0-.4.328-.728.728-.728s.728.328.728.728-.327.728-.728.728-.728-.328-.728-.728Zm.08,1.359h1.295v4.125h-1.295v-4.125Z"/>
    <path d="m411.566,42.926h-.855v-.999h.855v-.544c0-.983.584-1.519,1.646-1.519.225,0,.521.032.688.08v1.063c-.232-.04-.353-.048-.496-.048-.368,0-.544.144-.544.448v.52h1.04v.999h-1.04v3.126h-1.295v-3.126Z"/>
    <path d="m415.181,44.805v-1.879h-.799v-.999h.799v-1.144l1.296-.264v1.407h1.104v.999h-1.104v1.623c0,.368.144.496.543.496.152,0,.272-.016.528-.088v1.047c-.24.072-.624.128-.888.128-.976,0-1.479-.448-1.479-1.328Z"/>
    <path d="m419.837,43.997c0-1.208.928-2.135,2.135-2.135.68,0,1.304.272,1.72.76l-.792.792c-.264-.312-.527-.448-.88-.448-.512,0-.896.44-.896,1.032s.384,1.031.896,1.031c.353,0,.616-.136.88-.448l.792.792c-.416.488-1.04.76-1.72.76-1.207,0-2.135-.928-2.135-2.135Z"/>
    <path d="m424.333,40.359l1.295-.2v5.893h-1.295v-5.693Z"/>
    <path d="m426.606,44.709v-2.782h1.295v2.406c0,.464.272.768.688.768.28,0,.504-.112.688-.344v-2.83h1.296v4.125h-1.296v-.671c-.319.479-.768.735-1.303.735-.8,0-1.367-.583-1.367-1.407Z"/>
    <path d="m431.245,45.628l.568-.863c.591.312.927.416,1.327.416.367,0,.592-.128.592-.336,0-.16-.12-.248-.384-.296l-.792-.144c-.8-.152-1.216-.56-1.216-1.199,0-.84.648-1.344,1.728-1.344.575,0,1.144.16,1.679.472l-.592.823c-.415-.24-.799-.352-1.183-.352-.312,0-.496.104-.496.28,0,.168.104.24.424.296l.775.144c.815.152,1.239.568,1.239,1.191,0,.808-.76,1.416-1.774,1.416-.752,0-1.416-.176-1.896-.504Z"/>
    <path d="m436.133,44.805v-1.879h-.8v-.999h.8v-1.144l1.295-.264v1.407h1.104v.999h-1.104v1.623c0,.368.145.496.544.496.152,0,.271-.016.527-.088v1.047c-.239.072-.623.128-.887.128-.976,0-1.479-.448-1.479-1.328Z"/>
    <path d="m439.03,43.997c0-1.208.896-2.135,2.079-2.135,1.19,0,2.03.904,2.03,2.183v.28h-2.838c.119.464.495.775.967.775.344,0,.632-.12.815-.344l.855.712c-.535.472-1.039.664-1.734.664-1.216,0-2.175-.936-2.175-2.135Zm2.91-.408c-.112-.44-.424-.72-.84-.72-.407,0-.695.264-.799.72h1.639Z"/>
    <path d="m443.95,41.927h1.295v.935c.264-.688.632-1.015,1.119-1.015.185.008.272.024.432.104v1.111c-.159-.08-.384-.128-.607-.128-.384,0-.735.2-.943.512v2.606h-1.295v-4.125Z"/>
  </g>
  <g>
    <line class="uuid-d462ac62-034f-4ffe-85b8-3f099cfb33dd" x1="95.115" y1="211.389" x2="128.033" y2="211.389"/>
    <polygon points="96.063 214.63 90.451 211.39 96.063 208.149 96.063 214.63"/>
    <polygon points="127.085 214.63 132.698 211.39 127.085 208.149 127.085 214.63"/>
  </g>
  <g>
    <g>
      <path class="uuid-0074573c-50de-4480-86e1-204c1e2b3beb" d="m51.101,222.107c0-.304.248-.56.56-.56.304,0,.56.256.56.56s-.256.552-.56.552c-.312,0-.56-.248-.56-.552Zm.104,1.367h.903v4.006h-.903v-4.006Z"/>
      <path class="uuid-0074573c-50de-4480-86e1-204c1e2b3beb" d="m53.229,223.474h.904v.655c.304-.472.744-.719,1.263-.719.823,0,1.399.583,1.399,1.431v2.639h-.912v-2.383c0-.584-.344-.959-.879-.959-.368,0-.664.168-.872.487v2.854h-.904v-4.006Z"/>
      <path class="uuid-0074573c-50de-4480-86e1-204c1e2b3beb" d="m58.38,226.441v-2.247h-.799v-.72h.799v-1.104l.904-.191v1.295h1.111v.72h-1.111v2.047c0,.392.152.544.56.544.176,0,.304-.024.544-.097v.76c-.232.072-.536.112-.776.112-.808,0-1.231-.384-1.231-1.119Z"/>
      <path class="uuid-0074573c-50de-4480-86e1-204c1e2b3beb" d="m61.013,225.481c0-1.175.847-2.07,1.951-2.07,1.095,0,1.895.871,1.895,2.07v.216h-2.958c.088.647.576,1.119,1.2,1.119.375,0,.728-.144.951-.375l.592.535c-.488.408-.976.584-1.583.584-1.151,0-2.047-.903-2.047-2.079Zm2.99-.344c-.096-.584-.512-.991-1.047-.991-.544,0-.944.392-1.047.991h2.095Z"/>
      <path class="uuid-0074573c-50de-4480-86e1-204c1e2b3beb" d="m65.781,223.474h.904v.863c.224-.607.607-.936,1.103-.936.152.009.256.024.392.08v.792c-.144-.057-.328-.096-.496-.096-.44,0-.8.247-1,.663v2.639h-.904v-4.006Z"/>
      <path class="uuid-0074573c-50de-4480-86e1-204c1e2b3beb" d="m68.924,223.474h.904v.655c.304-.472.744-.719,1.263-.719.823,0,1.399.583,1.399,1.431v2.639h-.912v-2.383c0-.584-.344-.959-.879-.959-.368,0-.664.168-.872.487v2.854h-.904v-4.006Z"/>
      <path class="uuid-0074573c-50de-4480-86e1-204c1e2b3beb" d="m73.397,225.481c0-1.175.847-2.07,1.951-2.07,1.095,0,1.895.871,1.895,2.07v.216h-2.958c.088.647.576,1.119,1.2,1.119.375,0,.728-.144.951-.375l.592.535c-.488.408-.976.584-1.583.584-1.151,0-2.047-.903-2.047-2.079Zm2.99-.344c-.096-.584-.512-.991-1.047-.991-.544,0-.944.392-1.047.991h2.095Z"/>
      <path class="uuid-0074573c-50de-4480-86e1-204c1e2b3beb" d="m78.661,226.441v-2.247h-.8v-.72h.8v-1.104l.903-.191v1.295h1.111v.72h-1.111v2.047c0,.392.152.544.56.544.176,0,.304-.024.544-.097v.76c-.232.072-.536.112-.776.112-.808,0-1.231-.384-1.231-1.119Z"/>
    </g>
    <path class="uuid-b897198b-72e6-4d24-800e-6b69ee3b732b" d="m79.259,205.894c0-6.611-5.359-11.971-11.971-11.971-4.477,0-8.373,2.462-10.426,6.101-.503-.087-1.017-.142-1.544-.142-4.965,0-8.991,4.025-8.991,8.991s4.026,8.991,8.991,8.991h23.941c3.306,0,5.985-2.68,5.985-5.985s-2.68-5.985-5.985-5.985Z"/>
  </g>
  <g>
    <path class="uuid-390b9846-0493-4647-baa9-f45d88ea7982" d="m246.838,174.242c0-1.631,1.287-2.887,2.95-2.887.896,0,1.783.424,2.271,1.087l-.928.88c-.368-.496-.815-.744-1.343-.744-.872,0-1.527.711-1.527,1.663s.655,1.663,1.527,1.663c.528,0,.976-.248,1.343-.744l.928.879c-.488.664-1.375,1.087-2.271,1.087-1.663,0-2.95-1.255-2.95-2.886Z"/>
    <path class="uuid-390b9846-0493-4647-baa9-f45d88ea7982" d="m252.742,171.347l1.295-.2v5.893h-1.295v-5.693Z"/>
    <path class="uuid-390b9846-0493-4647-baa9-f45d88ea7982" d="m255.014,175.697v-2.783h1.295v2.407c0,.464.272.768.688.768.28,0,.504-.112.688-.344v-2.831h1.295v4.126h-1.295v-.672c-.32.48-.768.736-1.303.736-.799,0-1.367-.583-1.367-1.407Z"/>
    <path class="uuid-390b9846-0493-4647-baa9-f45d88ea7982" d="m259.654,176.616l.567-.863c.592.312.928.416,1.328.416.368,0,.591-.128.591-.336,0-.16-.12-.248-.384-.295l-.792-.144c-.799-.152-1.215-.56-1.215-1.2,0-.839.648-1.343,1.727-1.343.576,0,1.144.16,1.679.472l-.592.823c-.416-.24-.799-.352-1.183-.352-.312,0-.496.104-.496.28,0,.168.104.24.424.296l.775.144c.815.152,1.239.567,1.239,1.191,0,.808-.76,1.416-1.775,1.416-.751,0-1.416-.176-1.895-.504Z"/>
    <path class="uuid-390b9846-0493-4647-baa9-f45d88ea7982" d="m264.541,175.793v-1.879h-.799v-1h.799v-1.143l1.295-.264v1.407h1.104v1h-1.104v1.624c0,.368.144.496.543.496.152,0,.272-.016.528-.088v1.047c-.24.072-.624.128-.888.128-.975,0-1.479-.448-1.479-1.327Z"/>
    <path class="uuid-390b9846-0493-4647-baa9-f45d88ea7982" d="m267.437,174.985c0-1.208.896-2.135,2.079-2.135,1.191,0,2.031.903,2.031,2.183v.28h-2.838c.12.464.496.775.967.775.344,0,.632-.12.815-.344l.855.712c-.536.472-1.039.664-1.735.664-1.215,0-2.175-.936-2.175-2.135Zm2.911-.408c-.112-.439-.424-.719-.84-.719-.408,0-.695.264-.799.719h1.639Z"/>
    <path class="uuid-390b9846-0493-4647-baa9-f45d88ea7982" d="m272.358,172.914h1.295v.936c.264-.688.632-1.015,1.12-1.015.184.008.272.024.432.104v1.111c-.16-.08-.384-.128-.607-.128-.384,0-.736.2-.944.512v2.606h-1.295v-4.126Z"/>
    <path class="uuid-390b9846-0493-4647-baa9-f45d88ea7982" d="m277.614,172.914h1.295v.672c.32-.479.768-.735,1.304-.735.799,0,1.367.583,1.367,1.407v2.782h-1.295v-2.407c0-.464-.272-.768-.688-.768-.28,0-.504.112-.688.344v2.831h-1.295v-4.126Z"/>
    <path class="uuid-390b9846-0493-4647-baa9-f45d88ea7982" d="m282.373,174.985c0-1.208.896-2.135,2.079-2.135,1.191,0,2.031.903,2.031,2.183v.28h-2.838c.12.464.496.775.967.775.344,0,.632-.12.815-.344l.855.712c-.536.472-1.039.664-1.735.664-1.215,0-2.175-.936-2.175-2.135Zm2.91-.408c-.112-.439-.423-.719-.839-.719-.408,0-.696.264-.799.719h1.639Z"/>
    <path class="uuid-390b9846-0493-4647-baa9-f45d88ea7982" d="m287.717,175.793v-1.879h-.799v-1h.799v-1.143l1.295-.264v1.407h1.104v1h-1.104v1.624c0,.368.144.496.543.496.152,0,.272-.016.528-.088v1.047c-.24.072-.624.128-.888.128-.975,0-1.479-.448-1.479-1.327Z"/>
    <path class="uuid-390b9846-0493-4647-baa9-f45d88ea7982" d="m290.541,172.914h1.223l.576,2.463.696-2.463h1.063l.688,2.455.568-2.455h1.191l-1.096,4.126h-1.231l-.671-2.431-.656,2.431h-1.247l-1.104-4.126Z"/>
    <path class="uuid-390b9846-0493-4647-baa9-f45d88ea7982" d="m296.917,174.985c0-1.215.927-2.135,2.151-2.135s2.151.919,2.151,2.135-.928,2.135-2.151,2.135-2.151-.919-2.151-2.135Zm3.039,0c0-.616-.368-1.056-.888-1.056s-.888.44-.888,1.056.368,1.055.888,1.055.888-.44.888-1.055Z"/>
    <path class="uuid-390b9846-0493-4647-baa9-f45d88ea7982" d="m302.045,172.914h1.295v.936c.264-.688.632-1.015,1.12-1.015.184.008.272.024.432.104v1.111c-.16-.08-.384-.128-.607-.128-.384,0-.736.2-.944.512v2.606h-1.295v-4.126Z"/>
    <path class="uuid-390b9846-0493-4647-baa9-f45d88ea7982" d="m305.581,171.323l1.295-.2v3.43l1.439-1.639h1.431l-1.679,1.847,1.799,2.279h-1.615l-1.375-1.823v1.823h-1.295v-5.717Z"/>
  </g>
  <g>
    <path class="uuid-e1b1b5a2-72ea-411e-8daf-7f6e96789ba8" d="m30.939,75.099l.704-1.015c.775.543,1.263.744,1.815.744.592,0,.952-.24.952-.592,0-.328-.192-.488-.736-.583l-1.191-.208c-.888-.152-1.375-.712-1.375-1.503,0-1.087.832-1.767,2.223-1.767.864,0,1.719.28,2.295.736l-.696,1c-.543-.416-1.079-.616-1.671-.616-.544,0-.855.224-.855.528,0,.288.184.432.631.512l1.12.192c1.047.176,1.599.728,1.599,1.583,0,1.095-.928,1.839-2.391,1.839-.888,0-1.679-.296-2.423-.848Z"/>
    <path class="uuid-e1b1b5a2-72ea-411e-8daf-7f6e96789ba8" d="m36.955,74.611v-1.879h-.799v-.999h.799v-1.144l1.295-.264v1.407h1.104v.999h-1.104v1.623c0,.368.144.496.543.496.152,0,.272-.016.528-.088v1.047c-.24.072-.624.128-.888.128-.975,0-1.479-.448-1.479-1.328Z"/>
    <path class="uuid-e1b1b5a2-72ea-411e-8daf-7f6e96789ba8" d="m40.043,74.515v-2.782h1.295v2.406c0,.464.272.768.688.768.28,0,.504-.112.688-.344v-2.83h1.295v4.125h-1.295v-.671c-.32.479-.768.735-1.303.735-.799,0-1.367-.583-1.367-1.407Z"/>
    <path class="uuid-e1b1b5a2-72ea-411e-8daf-7f6e96789ba8" d="m44.835,73.788c0-1.159.848-2.079,1.919-2.079.432,0,.824.176,1.104.496v-2.039l1.295-.2v5.893h-1.279v-.536c-.271.344-.728.56-1.215.56-1.016,0-1.823-.936-1.823-2.095Zm3.022.695v-1.391c-.2-.208-.472-.32-.768-.32-.568,0-.983.432-.983,1.023,0,.584.424,1.016.983,1.016.312,0,.567-.112.768-.328Z"/>
    <path class="uuid-e1b1b5a2-72ea-411e-8daf-7f6e96789ba8" d="m49.979,73.804c0-1.208.896-2.135,2.079-2.135,1.191,0,2.031.904,2.031,2.183v.28h-2.838c.12.464.496.775.967.775.344,0,.632-.12.815-.344l.855.712c-.536.472-1.039.664-1.735.664-1.215,0-2.175-.936-2.175-2.135Zm2.911-.408c-.112-.44-.424-.72-.84-.72-.408,0-.695.264-.799.72h1.639Z"/>
    <path class="uuid-e1b1b5a2-72ea-411e-8daf-7f6e96789ba8" d="m54.899,71.733h1.295v.671c.32-.48.768-.736,1.303-.736.8,0,1.368.584,1.368,1.407v2.783h-1.295v-2.407c0-.464-.272-.768-.688-.768-.28,0-.504.112-.688.344v2.831h-1.295v-4.125Z"/>
    <path class="uuid-e1b1b5a2-72ea-411e-8daf-7f6e96789ba8" d="m60.266,74.611v-1.879h-.799v-.999h.799v-1.144l1.295-.264v1.407h1.104v.999h-1.104v1.623c0,.368.144.496.543.496.152,0,.272-.016.528-.088v1.047c-.24.072-.624.128-.888.128-.975,0-1.479-.448-1.479-1.328Z"/>
    <path class="uuid-e1b1b5a2-72ea-411e-8daf-7f6e96789ba8" d="m65.107,71.733h1.295v.671c.32-.48.768-.736,1.304-.736.799,0,1.367.584,1.367,1.407v2.783h-1.295v-2.407c0-.464-.272-.768-.688-.768-.28,0-.504.112-.688.344v2.831h-1.295v-4.125Z"/>
    <path class="uuid-e1b1b5a2-72ea-411e-8daf-7f6e96789ba8" d="m69.867,73.804c0-1.208.896-2.135,2.079-2.135,1.191,0,2.031.904,2.031,2.183v.28h-2.838c.12.464.496.775.967.775.344,0,.632-.12.815-.344l.855.712c-.536.472-1.039.664-1.735.664-1.215,0-2.175-.936-2.175-2.135Zm2.911-.408c-.112-.44-.424-.72-.84-.72-.408,0-.695.264-.799.72h1.639Z"/>
    <path class="uuid-e1b1b5a2-72ea-411e-8daf-7f6e96789ba8" d="m75.21,74.611v-1.879h-.799v-.999h.799v-1.144l1.295-.264v1.407h1.104v.999h-1.104v1.623c0,.368.144.496.543.496.152,0,.272-.016.528-.088v1.047c-.24.072-.624.128-.887.128-.976,0-1.479-.448-1.479-1.328Z"/>
    <path class="uuid-e1b1b5a2-72ea-411e-8daf-7f6e96789ba8" d="m78.035,71.733h1.223l.576,2.462.696-2.462h1.063l.688,2.455.568-2.455h1.191l-1.096,4.125h-1.231l-.672-2.431-.656,2.431h-1.247l-1.104-4.125Z"/>
    <path class="uuid-e1b1b5a2-72ea-411e-8daf-7f6e96789ba8" d="m84.411,73.804c0-1.215.927-2.135,2.151-2.135s2.151.92,2.151,2.135-.928,2.135-2.151,2.135-2.151-.919-2.151-2.135Zm3.039,0c0-.616-.368-1.056-.888-1.056s-.888.44-.888,1.056.368,1.055.888,1.055.888-.439.888-1.055Z"/>
    <path class="uuid-e1b1b5a2-72ea-411e-8daf-7f6e96789ba8" d="m89.539,71.733h1.295v.935c.264-.688.632-1.015,1.12-1.015.184.008.272.024.432.104v1.111c-.16-.08-.384-.128-.607-.128-.384,0-.736.2-.944.512v2.606h-1.295v-4.125Z"/>
    <path class="uuid-e1b1b5a2-72ea-411e-8daf-7f6e96789ba8" d="m93.075,70.142l1.295-.2v3.43l1.439-1.639h1.431l-1.679,1.847,1.799,2.279h-1.615l-1.375-1.823v1.823h-1.295v-5.717Z"/>
  </g>
  <g>
    <path class="uuid-dadab195-8800-49f0-bb8a-638c3b5a2c25" d="m31.147,175.162c0-1.631,1.287-2.886,2.95-2.886.896,0,1.783.424,2.271,1.087l-.928.88c-.368-.496-.815-.744-1.343-.744-.872,0-1.527.712-1.527,1.663s.655,1.663,1.527,1.663c.528,0,.976-.247,1.343-.743l.928.88c-.488.663-1.375,1.087-2.271,1.087-1.663,0-2.95-1.255-2.95-2.887Z"/>
    <path class="uuid-dadab195-8800-49f0-bb8a-638c3b5a2c25" d="m37.051,172.269l1.295-.2v5.893h-1.295v-5.692Z"/>
    <path class="uuid-dadab195-8800-49f0-bb8a-638c3b5a2c25" d="m39.163,176.778c0-.76.591-1.199,1.607-1.199.296,0,.592.056.959.192v-.336c0-.4-.264-.6-.815-.6-.312,0-.68.088-1.16.287l-.448-.903c.68-.304,1.288-.447,1.895-.447,1.144,0,1.807.567,1.807,1.551v2.639h-1.279v-.359c-.36.304-.704.423-1.144.423-.839,0-1.423-.512-1.423-1.247Zm1.823.392c.272,0,.52-.071.744-.207v-.528c-.24-.056-.472-.088-.711-.088-.424,0-.664.144-.664.408s.232.415.632.415Z"/>
    <path class="uuid-dadab195-8800-49f0-bb8a-638c3b5a2c25" d="m43.651,177.537l.567-.863c.592.312.928.416,1.328.416.368,0,.591-.128.591-.336,0-.16-.12-.248-.384-.296l-.792-.145c-.799-.151-1.215-.56-1.215-1.199,0-.839.648-1.343,1.727-1.343.576,0,1.144.159,1.679.472l-.592.823c-.416-.239-.799-.352-1.183-.352-.312,0-.496.104-.496.279,0,.168.104.24.424.296l.775.145c.815.151,1.239.567,1.239,1.191,0,.808-.76,1.415-1.775,1.415-.751,0-1.416-.176-1.895-.504Z"/>
    <path class="uuid-dadab195-8800-49f0-bb8a-638c3b5a2c25" d="m47.739,177.537l.567-.863c.592.312.928.416,1.328.416.368,0,.591-.128.591-.336,0-.16-.12-.248-.384-.296l-.792-.145c-.799-.151-1.215-.56-1.215-1.199,0-.839.648-1.343,1.727-1.343.576,0,1.144.159,1.679.472l-.592.823c-.416-.239-.799-.352-1.183-.352-.312,0-.496.104-.496.279,0,.168.104.24.424.296l.775.145c.815.151,1.239.567,1.239,1.191,0,.808-.76,1.415-1.775,1.415-.751,0-1.416-.176-1.895-.504Z"/>
    <path class="uuid-dadab195-8800-49f0-bb8a-638c3b5a2c25" d="m52.162,173.835h1.295v.936c.264-.688.632-1.016,1.12-1.016.184.009.272.024.432.104v1.111c-.16-.08-.384-.128-.607-.128-.384,0-.736.2-.944.512v2.606h-1.295v-4.126Z"/>
    <path class="uuid-dadab195-8800-49f0-bb8a-638c3b5a2c25" d="m55.394,175.907c0-1.216.927-2.135,2.151-2.135s2.151.919,2.151,2.135-.928,2.135-2.151,2.135-2.151-.92-2.151-2.135Zm3.039,0c0-.616-.368-1.056-.888-1.056s-.888.439-.888,1.056.368,1.056.888,1.056.888-.44.888-1.056Z"/>
    <path class="uuid-dadab195-8800-49f0-bb8a-638c3b5a2c25" d="m60.338,175.907c0-1.216.928-2.135,2.151-2.135s2.151.919,2.151,2.135-.928,2.135-2.151,2.135-2.151-.92-2.151-2.135Zm3.038,0c0-.616-.368-1.056-.887-1.056s-.888.439-.888,1.056.368,1.056.888,1.056.887-.44.887-1.056Z"/>
    <path class="uuid-dadab195-8800-49f0-bb8a-638c3b5a2c25" d="m65.466,173.835h1.295v.656c.304-.472.72-.72,1.224-.72.536,0,.959.296,1.159.768.32-.496.784-.768,1.352-.768.759,0,1.295.6,1.295,1.447v2.742h-1.295v-2.486c0-.416-.248-.688-.616-.688-.24,0-.432.096-.6.312v2.862h-1.295v-2.486c0-.416-.248-.688-.616-.688-.24,0-.44.104-.608.319v2.854h-1.295v-4.126Z"/>
    <path class="uuid-dadab195-8800-49f0-bb8a-638c3b5a2c25" d="m74.49,173.835h1.295v.672c.32-.479.768-.735,1.303-.735.8,0,1.368.583,1.368,1.407v2.782h-1.295v-2.406c0-.464-.272-.768-.688-.768-.28,0-.504.111-.688.344v2.83h-1.295v-4.126Z"/>
    <path class="uuid-dadab195-8800-49f0-bb8a-638c3b5a2c25" d="m79.25,175.907c0-1.208.896-2.135,2.079-2.135,1.191,0,2.031.903,2.031,2.183v.279h-2.838c.12.464.496.776.967.776.344,0,.632-.12.815-.344l.855.711c-.536.472-1.039.664-1.735.664-1.215,0-2.175-.936-2.175-2.135Zm2.911-.408c-.112-.439-.424-.72-.84-.72-.408,0-.695.265-.799.72h1.639Z"/>
    <path class="uuid-dadab195-8800-49f0-bb8a-638c3b5a2c25" d="m84.594,176.714v-1.879h-.799v-1h.799v-1.144l1.295-.264v1.407h1.104v1h-1.104v1.623c0,.367.144.495.543.495.152,0,.272-.016.528-.088v1.048c-.24.072-.624.128-.888.128-.975,0-1.479-.448-1.479-1.327Z"/>
    <path class="uuid-dadab195-8800-49f0-bb8a-638c3b5a2c25" d="m87.418,173.835h1.223l.576,2.463.696-2.463h1.063l.688,2.455.568-2.455h1.191l-1.096,4.126h-1.231l-.671-2.431-.656,2.431h-1.247l-1.104-4.126Z"/>
    <path class="uuid-dadab195-8800-49f0-bb8a-638c3b5a2c25" d="m93.794,175.907c0-1.216.927-2.135,2.151-2.135s2.151.919,2.151,2.135-.928,2.135-2.151,2.135-2.151-.92-2.151-2.135Zm3.039,0c0-.616-.368-1.056-.888-1.056s-.888.439-.888,1.056.368,1.056.888,1.056.888-.44.888-1.056Z"/>
    <path class="uuid-dadab195-8800-49f0-bb8a-638c3b5a2c25" d="m98.922,173.835h1.295v.936c.264-.688.632-1.016,1.12-1.016.184.009.272.024.432.104v1.111c-.16-.08-.384-.128-.607-.128-.384,0-.736.2-.944.512v2.606h-1.295v-4.126Z"/>
    <path class="uuid-dadab195-8800-49f0-bb8a-638c3b5a2c25" d="m102.458,172.244l1.295-.2v3.431l1.439-1.64h1.431l-1.679,1.848,1.799,2.278h-1.615l-1.375-1.823v1.823h-1.295v-5.717Z"/>
  </g>
  <line class="uuid-b2ac20cf-f6b9-498b-bd31-842430276404" x1="32.125" y1="264.261" x2="567.368" y2="264.261"/>
  <g>
    <path class="uuid-4d0f2b80-3054-4308-9270-3aa75246f9f8" d="m31.33,268.974h1.375v5.597h-1.375v-5.597Z"/>
    <path class="uuid-4d0f2b80-3054-4308-9270-3aa75246f9f8" d="m33.419,274.147l.568-.863c.591.312.927.416,1.327.416.368,0,.592-.128.592-.336,0-.16-.12-.248-.384-.296l-.792-.145c-.799-.151-1.215-.56-1.215-1.199,0-.839.648-1.343,1.727-1.343.576,0,1.144.159,1.679.472l-.592.823c-.416-.239-.799-.352-1.183-.352-.312,0-.496.104-.496.279,0,.168.104.24.423.296l.776.145c.815.151,1.239.567,1.239,1.191,0,.808-.76,1.415-1.775,1.415-.752,0-1.416-.176-1.895-.504Z"/>
    <path class="uuid-4d0f2b80-3054-4308-9270-3aa75246f9f8" d="m37.699,272.516c0-1.216.928-2.135,2.151-2.135s2.151.919,2.151,2.135-.928,2.135-2.151,2.135-2.151-.92-2.151-2.135Zm3.038,0c0-.616-.368-1.056-.887-1.056s-.888.439-.888,1.056.368,1.056.888,1.056.887-.44.887-1.056Z"/>
    <path class="uuid-4d0f2b80-3054-4308-9270-3aa75246f9f8" d="m42.827,268.879l1.295-.2v5.893h-1.295v-5.692Z"/>
    <path class="uuid-4d0f2b80-3054-4308-9270-3aa75246f9f8" d="m44.939,273.388c0-.76.591-1.199,1.607-1.199.296,0,.592.056.959.192v-.336c0-.4-.264-.6-.815-.6-.312,0-.68.088-1.16.287l-.448-.903c.68-.304,1.288-.447,1.895-.447,1.144,0,1.807.567,1.807,1.551v2.639h-1.279v-.359c-.36.304-.704.423-1.144.423-.839,0-1.423-.512-1.423-1.247Zm1.823.392c.272,0,.52-.071.744-.207v-.528c-.24-.056-.472-.088-.711-.088-.424,0-.664.144-.664.408s.231.415.631.415Z"/>
    <path class="uuid-4d0f2b80-3054-4308-9270-3aa75246f9f8" d="m50.186,273.324v-1.879h-.799v-1h.799v-1.144l1.295-.264v1.407h1.104v1h-1.104v1.623c0,.367.144.495.543.495.152,0,.272-.016.528-.088v1.048c-.24.072-.624.128-.887.128-.976,0-1.479-.448-1.479-1.327Z"/>
    <path class="uuid-4d0f2b80-3054-4308-9270-3aa75246f9f8" d="m53.082,272.516c0-1.208.896-2.135,2.079-2.135,1.191,0,2.031.903,2.031,2.183v.279h-2.838c.12.464.496.776.967.776.344,0,.632-.12.815-.344l.855.711c-.536.472-1.039.664-1.735.664-1.215,0-2.175-.936-2.175-2.135Zm2.91-.408c-.112-.439-.423-.72-.839-.72-.408,0-.696.265-.799.72h1.639Z"/>
    <path class="uuid-4d0f2b80-3054-4308-9270-3aa75246f9f8" d="m57.858,272.5c0-1.159.848-2.078,1.919-2.078.432,0,.824.176,1.104.495v-2.038l1.295-.2v5.893h-1.279v-.536c-.272.344-.728.561-1.216.561-1.015,0-1.823-.936-1.823-2.096Zm3.022.696v-1.392c-.2-.208-.472-.319-.768-.319-.568,0-.983.432-.983,1.023,0,.583.423,1.015.983,1.015.312,0,.567-.111.768-.327Z"/>
    <path class="uuid-4d0f2b80-3054-4308-9270-3aa75246f9f8" d="m64.907,270.445h1.295v.672c.32-.479.768-.735,1.304-.735.799,0,1.367.583,1.367,1.407v2.782h-1.295v-2.406c0-.464-.272-.768-.688-.768-.28,0-.504.111-.688.344v2.83h-1.295v-4.126Z"/>
    <path class="uuid-4d0f2b80-3054-4308-9270-3aa75246f9f8" d="m69.666,272.516c0-1.208.896-2.135,2.079-2.135,1.191,0,2.031.903,2.031,2.183v.279h-2.838c.12.464.496.776.967.776.344,0,.632-.12.815-.344l.855.711c-.536.472-1.039.664-1.735.664-1.215,0-2.175-.936-2.175-2.135Zm2.91-.408c-.112-.439-.423-.72-.839-.72-.408,0-.696.265-.799.72h1.639Z"/>
    <path class="uuid-4d0f2b80-3054-4308-9270-3aa75246f9f8" d="m75.01,273.324v-1.879h-.799v-1h.799v-1.144l1.295-.264v1.407h1.104v1h-1.104v1.623c0,.367.144.495.543.495.152,0,.272-.016.528-.088v1.048c-.24.072-.624.128-.888.128-.975,0-1.479-.448-1.479-1.327Z"/>
    <path class="uuid-4d0f2b80-3054-4308-9270-3aa75246f9f8" d="m77.834,270.445h1.223l.576,2.463.696-2.463h1.063l.688,2.455.568-2.455h1.191l-1.096,4.126h-1.231l-.671-2.431-.656,2.431h-1.247l-1.104-4.126Z"/>
    <path class="uuid-4d0f2b80-3054-4308-9270-3aa75246f9f8" d="m84.21,272.516c0-1.216.927-2.135,2.151-2.135s2.151.919,2.151,2.135-.928,2.135-2.151,2.135-2.151-.92-2.151-2.135Zm3.039,0c0-.616-.368-1.056-.888-1.056s-.888.439-.888,1.056.368,1.056.888,1.056.888-.44.888-1.056Z"/>
    <path class="uuid-4d0f2b80-3054-4308-9270-3aa75246f9f8" d="m89.338,270.445h1.295v.936c.264-.688.632-1.016,1.12-1.016.184.009.272.024.432.104v1.111c-.16-.08-.384-.128-.607-.128-.384,0-.736.2-.944.512v2.606h-1.295v-4.126Z"/>
    <path class="uuid-4d0f2b80-3054-4308-9270-3aa75246f9f8" d="m92.874,268.854l1.295-.2v3.431l1.439-1.64h1.431l-1.679,1.848,1.799,2.278h-1.615l-1.375-1.823v1.823h-1.295v-5.717Z"/>
  </g>
  <rect class="uuid-dbee4b17-4288-46b4-9c84-bcf47768f258" x="376.982" y="62.59" width="144.988" height="32.281"/>
  <g>
    <path d="m385.093,78.08c0-1.631,1.287-2.887,2.95-2.887.896,0,1.783.424,2.271,1.087l-.928.88c-.368-.496-.815-.744-1.344-.744-.871,0-1.526.711-1.526,1.663s.655,1.663,1.526,1.663c.528,0,.976-.248,1.344-.744l.928.879c-.488.664-1.376,1.087-2.271,1.087-1.663,0-2.95-1.255-2.95-2.886Z"/>
    <path d="m390.693,78.824c0-1.215.928-2.135,2.151-2.135s2.15.92,2.15,2.135-.928,2.135-2.15,2.135-2.151-.919-2.151-2.135Zm3.039,0c0-.616-.368-1.056-.888-1.056s-.888.44-.888,1.056.368,1.055.888,1.055.888-.439.888-1.055Z"/>
    <path d="m395.822,76.753h1.295v.671c.319-.48.768-.736,1.304-.736.799,0,1.367.584,1.367,1.407v2.783h-1.296v-2.407c0-.464-.271-.768-.688-.768-.279,0-.504.112-.688.344v2.831h-1.295v-4.125Z"/>
    <path d="m401.189,79.631v-1.879h-.8v-.999h.8v-1.144l1.295-.264v1.407h1.104v.999h-1.104v1.623c0,.368.145.496.544.496.152,0,.271-.016.527-.088v1.047c-.239.072-.623.128-.887.128-.976,0-1.479-.448-1.479-1.328Z"/>
    <path d="m404.309,76.753h1.295v.935c.265-.688.632-1.015,1.12-1.015.184.008.271.024.432.104v1.111c-.16-.08-.384-.128-.607-.128-.384,0-.736.2-.944.512v2.606h-1.295v-4.125Z"/>
    <path d="m407.541,78.824c0-1.215.928-2.135,2.15-2.135s2.151.92,2.151,2.135-.928,2.135-2.151,2.135-2.15-.919-2.15-2.135Zm3.038,0c0-.616-.368-1.056-.888-1.056s-.888.44-.888,1.056.368,1.055.888,1.055.888-.439.888-1.055Z"/>
    <path d="m412.669,75.186l1.295-.2v5.893h-1.295v-5.693Z"/>
    <path d="m416.693,76.753h1.279v.575c.271-.368.728-.6,1.224-.6,1.016,0,1.823.936,1.823,2.095s-.848,2.079-1.919,2.079c-.448,0-.84-.168-1.112-.479v2.126h-1.295v-5.796Zm3.055,2.062c0-.583-.424-1.015-.983-1.015-.32,0-.568.112-.776.335v1.375c.2.208.473.328.776.328.567,0,.983-.432.983-1.023Z"/>
    <path d="m421.845,75.186l1.295-.2v5.893h-1.295v-5.693Z"/>
    <path d="m423.957,79.696c0-.76.591-1.2,1.606-1.2.296,0,.592.056.96.192v-.336c0-.399-.264-.6-.815-.6-.312,0-.68.088-1.16.288l-.447-.903c.68-.304,1.287-.448,1.895-.448,1.144,0,1.808.568,1.808,1.551v2.639h-1.279v-.36c-.36.304-.704.424-1.144.424-.84,0-1.423-.512-1.423-1.247Zm1.822.392c.272,0,.521-.072.744-.208v-.528c-.24-.056-.472-.088-.712-.088-.424,0-.663.144-.663.408s.231.416.631.416Z"/>
    <path d="m428.781,76.753h1.295v.671c.32-.48.768-.736,1.304-.736.8,0,1.367.584,1.367,1.407v2.783h-1.295v-2.407c0-.464-.272-.768-.688-.768-.28,0-.504.112-.688.344v2.831h-1.295v-4.125Z"/>
    <path d="m433.54,78.824c0-1.208.896-2.135,2.079-2.135,1.191,0,2.031.904,2.031,2.183v.28h-2.839c.12.464.496.775.968.775.344,0,.632-.12.815-.344l.855.712c-.536.472-1.039.664-1.735.664-1.215,0-2.175-.936-2.175-2.135Zm2.911-.408c-.112-.44-.424-.72-.84-.72-.408,0-.695.264-.8.72h1.64Z"/>
    <path d="m439.989,79.696c0-.76.592-1.2,1.607-1.2.296,0,.592.056.959.192v-.336c0-.399-.264-.6-.815-.6-.312,0-.68.088-1.159.288l-.448-.903c.68-.304,1.288-.448,1.896-.448,1.144,0,1.807.568,1.807,1.551v2.639h-1.279v-.36c-.359.304-.703.424-1.144.424-.839,0-1.423-.512-1.423-1.247Zm1.823.392c.271,0,.52-.072.743-.208v-.528c-.239-.056-.472-.088-.711-.088-.424,0-.664.144-.664.408s.231.416.632.416Z"/>
    <path d="m444.813,76.753h1.295v.671c.319-.48.768-.736,1.304-.736.799,0,1.367.584,1.367,1.407v2.783h-1.296v-2.407c0-.464-.271-.768-.688-.768-.279,0-.504.112-.688.344v2.831h-1.295v-4.125Z"/>
    <path d="m449.573,78.808c0-1.159.848-2.079,1.919-2.079.432,0,.824.176,1.104.496v-2.039l1.296-.2v5.893h-1.279v-.536c-.272.344-.729.56-1.216.56-1.016,0-1.823-.936-1.823-2.095Zm3.022.695v-1.391c-.2-.208-.472-.32-.768-.32-.567,0-.983.432-.983,1.023,0,.584.424,1.016.983,1.016.312,0,.567-.112.768-.328Z"/>
    <path d="m456.437,78.824c0-1.208.928-2.135,2.135-2.135.68,0,1.303.272,1.719.76l-.791.792c-.265-.312-.528-.448-.88-.448-.512,0-.896.44-.896,1.032s.384,1.031.896,1.031c.352,0,.615-.136.88-.448l.791.792c-.416.488-1.039.76-1.719.76-1.207,0-2.135-.928-2.135-2.135Z"/>
    <path d="m460.628,78.824c0-1.215.928-2.135,2.151-2.135s2.15.92,2.15,2.135-.928,2.135-2.15,2.135-2.151-.919-2.151-2.135Zm3.039,0c0-.616-.368-1.056-.888-1.056s-.888.44-.888,1.056.368,1.055.888,1.055.888-.439.888-1.055Z"/>
    <path d="m465.756,76.753h1.295v.655c.305-.472.72-.72,1.224-.72.536,0,.96.296,1.159.768.32-.496.784-.768,1.352-.768.76,0,1.295.6,1.295,1.447v2.743h-1.295v-2.487c0-.416-.248-.688-.615-.688-.24,0-.433.096-.6.312v2.862h-1.296v-2.487c0-.416-.248-.688-.615-.688-.24,0-.44.104-.608.32v2.854h-1.295v-4.125Z"/>
    <path d="m473.061,76.753h1.279v.575c.271-.368.728-.6,1.223-.6,1.016,0,1.823.936,1.823,2.095s-.848,2.079-1.919,2.079c-.447,0-.84-.168-1.111-.479v2.126h-1.295v-5.796Zm3.054,2.062c0-.583-.424-1.015-.983-1.015-.319,0-.567.112-.775.335v1.375c.2.208.472.328.775.328.567,0,.983-.432.983-1.023Z"/>
    <path d="m478.18,79.535v-2.782h1.296v2.406c0,.464.271.768.688.768.279,0,.504-.112.688-.344v-2.83h1.295v4.125h-1.295v-.671c-.32.479-.768.735-1.304.735-.799,0-1.367-.583-1.367-1.407Z"/>
    <path d="m483.7,79.631v-1.879h-.799v-.999h.799v-1.144l1.296-.264v1.407h1.104v.999h-1.104v1.623c0,.368.144.496.543.496.152,0,.272-.016.528-.088v1.047c-.24.072-.624.128-.888.128-.976,0-1.479-.448-1.479-1.328Z"/>
    <path d="m486.596,78.824c0-1.208.896-2.135,2.079-2.135,1.191,0,2.031.904,2.031,2.183v.28h-2.839c.12.464.496.775.968.775.344,0,.632-.12.815-.344l.855.712c-.536.472-1.039.664-1.735.664-1.215,0-2.175-.936-2.175-2.135Zm2.911-.408c-.112-.44-.424-.72-.84-.72-.408,0-.695.264-.8.72h1.64Z"/>
    <path d="m493.237,76.753h1.295v.671c.319-.48.768-.736,1.304-.736.799,0,1.367.584,1.367,1.407v2.783h-1.296v-2.407c0-.464-.271-.768-.688-.768-.279,0-.504.112-.688.344v2.831h-1.295v-4.125Z"/>
    <path d="m497.996,78.824c0-1.215.928-2.135,2.15-2.135s2.151.92,2.151,2.135-.928,2.135-2.151,2.135-2.15-.919-2.15-2.135Zm3.038,0c0-.616-.368-1.056-.888-1.056s-.888.44-.888,1.056.368,1.055.888,1.055.888-.439.888-1.055Z"/>
    <path d="m502.94,78.808c0-1.159.848-2.079,1.919-2.079.432,0,.824.176,1.104.496v-2.039l1.296-.2v5.893h-1.279v-.536c-.272.344-.729.56-1.216.56-1.016,0-1.823-.936-1.823-2.095Zm3.022.695v-1.391c-.2-.208-.472-.32-.768-.32-.567,0-.983.432-.983,1.023,0,.584.424,1.016.983,1.016.312,0,.567-.112.768-.328Z"/>
    <path d="m508.084,78.824c0-1.208.896-2.135,2.079-2.135,1.19,0,2.03.904,2.03,2.183v.28h-2.838c.119.464.495.775.967.775.344,0,.632-.12.815-.344l.855.712c-.535.472-1.039.664-1.734.664-1.216,0-2.175-.936-2.175-2.135Zm2.91-.408c-.112-.44-.424-.72-.84-.72-.407,0-.695.264-.799.72h1.639Z"/>
  </g>
  <rect class="uuid-d18bb235-1eec-4916-944f-4e1a6f448c30" x="339.356" y="164.956" width="3.152" height="5.122"/>
  <rect class="uuid-d18bb235-1eec-4916-944f-4e1a6f448c30" x="484.754" y="164.956" width="3.152" height="5.122"/>
  <line class="uuid-294ce89a-8b0c-4a75-a86d-01f0757c51c9" x1="340.932" y1="135.453" x2="340.932" y2="263.593"/>
  <line class="uuid-294ce89a-8b0c-4a75-a86d-01f0757c51c9" x1="486.33" y1="135.379" x2="486.33" y2="264.261"/>
</svg>