<?xml version="1.0" encoding="UTF-8" standalone="no"?>
<svg
   xmlns:dc="http://purl.org/dc/elements/1.1/"
   xmlns:cc="http://creativecommons.org/ns#"
   xmlns:rdf="http://www.w3.org/1999/02/22-rdf-syntax-ns#"
   xmlns:svg="http://www.w3.org/2000/svg"
   xmlns="http://www.w3.org/2000/svg"
   xmlns:sodipodi="http://sodipodi.sourceforge.net/DTD/sodipodi-0.dtd"
   xmlns:inkscape="http://www.inkscape.org/namespaces/inkscape"
   inkscape:version="1.0 (4035a4f, 2020-05-01)"
   sodipodi:docname="appsec-api-role-binding.svg"
   version="1.1"
   viewBox="0 0 595.276 397.158"
   height="397.158"
   width="595.276"
   data-name="Layer 1"
   id="uuid-e5625697-687d-452b-a551-4d398dbae66e">
  <metadata
     id="metadata433">
    <rdf:RDF>
      <cc:Work
         rdf:about="">
        <dc:format>image/svg+xml</dc:format>
        <dc:type
           rdf:resource="http://purl.org/dc/dcmitype/StillImage" />
        <dc:title></dc:title>
        <dc:subject>
          <rdf:Bag>
            <rdf:li>rbac</rdf:li>
            <rdf:li>ocp</rdf:li>
            <rdf:li>openshift</rdf:li>
          </rdf:Bag>
        </dc:subject>
      </cc:Work>
    </rdf:RDF>
  </metadata>
  <sodipodi:namedview
     inkscape:current-layer="uuid-e5625697-687d-452b-a551-4d398dbae66e"
     inkscape:window-maximized="0"
     inkscape:window-y="25"
     inkscape:window-x="0"
     inkscape:cy="198.57899"
     inkscape:cx="297.638"
     inkscape:zoom="1.7689274"
     showgrid="false"
     id="namedview431"
     inkscape:window-height="480"
     inkscape:window-width="709"
     inkscape:pageshadow="2"
     inkscape:pageopacity="0"
     guidetolerance="10"
     gridtolerance="10"
     objecttolerance="10"
     borderopacity="1"
     bordercolor="#666666"
     pagecolor="#ffffff" />
  <defs
     id="defs12">
    <style
       id="style10">
      .uuid-721a425c-756d-452b-b94b-cf9d2855bffd {
        fill: #06c;
      }

      .uuid-a4720795-4665-4456-a47e-dd9ea1e3471b {
        fill: #f0f0f0;
      }

      .uuid-8e3bc227-c5bd-43c4-94b7-a85d637fd365, .uuid-7d338cac-bb1d-4fc4-a34f-b636b17fc5a3 {
        fill: #fff;
      }

      .uuid-fe78a1aa-cd14-46fb-9e29-813eb3125aa4 {
        fill: #dbe8f5;
      }

      .uuid-8fce134a-effc-4e39-9095-e5678c846000 {
        fill: #dcdcdc;
      }

      .uuid-7d338cac-bb1d-4fc4-a34f-b636b17fc5a3 {
        stroke: #a1c2e7;
      }

      .uuid-7d338cac-bb1d-4fc4-a34f-b636b17fc5a3, .uuid-9d3afeb5-46d7-4bce-beef-308f944a0a19, .uuid-936030fd-a30d-4d67-b921-3b3e6a16fab4 {
        stroke-miterlimit: 10;
      }

      .uuid-9d3afeb5-46d7-4bce-beef-308f944a0a19 {
        stroke: #06c;
      }

      .uuid-9d3afeb5-46d7-4bce-beef-308f944a0a19, .uuid-936030fd-a30d-4d67-b921-3b3e6a16fab4 {
        fill: none;
      }

      .uuid-936030fd-a30d-4d67-b921-3b3e6a16fab4 {
        stroke: #000;
      }
    </style>
  </defs>
  <rect
     id="rect14"
     height="358.111"
     width="551.952"
     y="17.213"
     x="21.662"
     class="uuid-a4720795-4665-4456-a47e-dd9ea1e3471b" />
  <rect
     id="rect16"
     height="222.2"
     width="230.687"
     y="62.234"
     x="38.327"
     class="uuid-8fce134a-effc-4e39-9095-e5678c846000" />
  <rect
     id="rect18"
     height="222.2"
     width="230.687"
     y="62.234"
     x="326.261"
     class="uuid-8fce134a-effc-4e39-9095-e5678c846000" />
  <rect
     id="rect20"
     height="67.06"
     width="202.928"
     y="95.459"
     x="52.056"
     class="uuid-7d338cac-bb1d-4fc4-a34f-b636b17fc5a3" />
  <rect
     id="rect22"
     height="67.06"
     width="202.928"
     y="95.459"
     x="340.141"
     class="uuid-7d338cac-bb1d-4fc4-a34f-b636b17fc5a3" />
  <rect
     id="rect24"
     height="24.258"
     width="180.83"
     y="123.937"
     x="63.13"
     class="uuid-fe78a1aa-cd14-46fb-9e29-813eb3125aa4" />
  <g
     id="g42">
    <path
       id="path26"
       d="m52.054,73.289h3.763c1.639,0,2.717,1.067,2.717,2.542,0,1.397-1.078,2.475-2.717,2.475h-1.87v2.685h-1.893v-7.701Zm3.422,3.51c.77,0,1.144-.418,1.144-.979,0-.55-.374-.968-1.133-.968h-1.54v1.947h1.529Z" />
    <path
       id="path28"
       d="m59.699,75.313h1.783v1.287c.363-.946.869-1.397,1.54-1.397.253.011.374.033.594.143v1.529c-.22-.11-.528-.176-.836-.176-.528,0-1.012.275-1.298.704v3.586h-1.783v-5.677Z" />
    <path
       id="path30"
       d="m64.143,78.163c0-1.672,1.276-2.937,2.959-2.937s2.959,1.265,2.959,2.937-1.276,2.938-2.959,2.938-2.959-1.265-2.959-2.938Zm4.181,0c0-.847-.506-1.452-1.221-1.452s-1.221.605-1.221,1.452.506,1.453,1.221,1.453,1.221-.605,1.221-1.453Z" />
    <path
       id="path32"
       d="m70.126,83.289v-1.353c.154.033.297.044.495.044.396,0,.572-.154.572-.484v-6.183h1.783v6.26c0,1.155-.715,1.826-1.97,1.826-.308,0-.693-.044-.88-.11Zm.957-9.846c0-.55.451-1.001,1.001-1.001s1.001.451,1.001,1.001-.451,1.001-1.001,1.001-1.001-.451-1.001-1.001Z" />
    <path
       id="path34"
       d="m74.108,78.163c0-1.661,1.232-2.937,2.86-2.937,1.64,0,2.794,1.243,2.794,3.003v.385h-3.905c.165.638.682,1.067,1.331,1.067.473,0,.869-.165,1.122-.473l1.177.979c-.737.649-1.43.913-2.387.913-1.672,0-2.993-1.287-2.993-2.938Zm4.005-.561c-.154-.605-.583-.99-1.155-.99-.561,0-.957.363-1.1.99h2.255Z" />
    <path
       id="path36"
       d="m80.675,78.163c0-1.661,1.276-2.937,2.938-2.937.935,0,1.793.374,2.365,1.045l-1.089,1.089c-.363-.429-.726-.616-1.21-.616-.704,0-1.232.605-1.232,1.419s.528,1.419,1.232,1.419c.484,0,.847-.187,1.21-.616l1.089,1.089c-.572.671-1.43,1.045-2.365,1.045-1.661,0-2.938-1.276-2.938-2.938Z" />
    <path
       id="path38"
       d="m87.715,79.274v-2.585h-1.101v-1.375h1.101v-1.573l1.782-.363v1.937h1.518v1.375h-1.518v2.233c0,.506.198.682.748.682.209,0,.374-.022.726-.121v1.441c-.33.099-.858.176-1.221.176-1.342,0-2.035-.616-2.035-1.826Z" />
    <path
       id="path40"
       d="m95.547,75.049l-1.518.627v-1.496l2.146-.891h1.067v7.701h-1.694v-5.941Z" />
  </g>
  <g
     id="g58">
    <path
       id="path44"
       d="m38.822,38.764c0-2.244,1.771-3.972,4.06-3.972,1.232,0,2.453.583,3.125,1.497l-1.276,1.21c-.506-.682-1.122-1.023-1.848-1.023-1.199,0-2.102.979-2.102,2.288s.902,2.289,2.102,2.289c.726,0,1.342-.341,1.848-1.023l1.276,1.21c-.671.913-1.893,1.496-3.125,1.496-2.289,0-4.06-1.728-4.06-3.972Z" />
    <path
       id="path46"
       d="m46.94,34.781l1.783-.275v8.108h-1.783v-7.833Z" />
    <path
       id="path48"
       d="m50.064,40.766v-3.829h1.782v3.312c0,.638.374,1.056.946,1.056.385,0,.693-.154.946-.473v-3.895h1.782v5.677h-1.782v-.924c-.44.66-1.056,1.012-1.793,1.012-1.1,0-1.881-.803-1.881-1.936Z" />
    <path
       id="path50"
       d="m56.444,42.031l.781-1.188c.814.429,1.276.572,1.826.572.506,0,.814-.176.814-.462,0-.22-.165-.341-.528-.407l-1.089-.198c-1.1-.209-1.672-.771-1.672-1.65,0-1.155.891-1.848,2.376-1.848.792,0,1.573.22,2.311.649l-.814,1.133c-.572-.33-1.101-.484-1.628-.484-.429,0-.682.143-.682.385,0,.231.143.33.583.407l1.067.198c1.122.209,1.705.781,1.705,1.639,0,1.111-1.045,1.947-2.442,1.947-1.034,0-1.947-.242-2.607-.693Z" />
    <path
       id="path52"
       d="m63.165,40.898v-2.585h-1.101v-1.375h1.101v-1.573l1.782-.363v1.937h1.518v1.375h-1.518v2.233c0,.506.198.682.748.682.209,0,.374-.022.726-.121v1.441c-.33.099-.858.176-1.221.176-1.342,0-2.035-.616-2.035-1.826Z" />
    <path
       id="path54"
       d="m67.147,39.787c0-1.661,1.232-2.937,2.86-2.937,1.64,0,2.794,1.243,2.794,3.003v.385h-3.905c.165.638.682,1.067,1.331,1.067.473,0,.869-.165,1.122-.473l1.177.979c-.737.649-1.43.913-2.387.913-1.672,0-2.993-1.287-2.993-2.938Zm4.005-.561c-.154-.605-.583-.99-1.155-.99-.561,0-.957.363-1.1.99h2.255Z" />
    <path
       id="path56"
       d="m73.912,36.937h1.783v1.287c.363-.946.869-1.397,1.54-1.397.253.011.374.033.594.143v1.529c-.22-.11-.528-.176-.836-.176-.528,0-1.012.275-1.298.704v3.586h-1.783v-5.677Z" />
  </g>
  <g
     id="g66">
    <path
       id="path60"
       d="m62.519,106.725h3.418c1.489,0,2.469.969,2.469,2.309,0,1.27-.979,2.249-2.469,2.249h-1.699v2.438h-1.719v-6.996Zm3.108,3.188c.7,0,1.04-.379,1.04-.889,0-.5-.34-.88-1.029-.88h-1.399v1.769h1.389Z" />
    <path
       id="path62"
       d="m68.839,111.152c0-1.52,1.159-2.669,2.688-2.669s2.688,1.149,2.688,2.669-1.159,2.668-2.688,2.668-2.688-1.149-2.688-2.668Zm3.798,0c0-.77-.46-1.319-1.109-1.319s-1.109.549-1.109,1.319.459,1.319,1.109,1.319,1.109-.549,1.109-1.319Z" />
    <path
       id="path64"
       d="m75.019,111.132c0-1.449,1.059-2.599,2.398-2.599.54,0,1.03.22,1.379.62v-2.549l1.619-.25v7.366h-1.599v-.669c-.34.43-.91.699-1.519.699-1.27,0-2.279-1.169-2.279-2.618Zm3.778.869v-1.739c-.25-.26-.59-.4-.959-.4-.709,0-1.229.54-1.229,1.279,0,.729.53,1.27,1.229,1.27.39,0,.709-.14.959-.41Z" />
  </g>
  <g
     id="g80">
    <path
       id="path68"
       d="m139.19,137.822c0-.81.667-1.323,1.729-1.323.423,0,.819.09,1.215.288v-.504c0-.594-.342-.9-1.035-.9-.378,0-.792.108-1.314.352l-.36-.738c.675-.306,1.269-.459,1.873-.459,1.179,0,1.845.594,1.845,1.639v2.944h-1.008v-.468c-.387.378-.819.549-1.341.549-.945,0-1.603-.567-1.603-1.377Zm1.882.657c.405,0,.756-.117,1.062-.378v-.729c-.324-.153-.648-.216-1.035-.216-.585,0-.954.243-.954.648,0,.414.36.675.927.675Z" />
    <path
       id="path70"
       d="m144.375,134.608h.999v.639c.324-.423.828-.675,1.404-.675,1.144,0,2.035,1.017,2.035,2.296,0,1.287-.918,2.295-2.098,2.295-.531,0-.999-.198-1.323-.576v2.413h-1.017v-6.392Zm3.439,2.26c0-.819-.576-1.44-1.341-1.44-.45,0-.819.18-1.081.504v1.882c.261.315.648.504,1.081.504.774,0,1.341-.621,1.341-1.449Z" />
    <path
       id="path72"
       d="m149.874,134.608h.999v.639c.324-.423.828-.675,1.404-.675,1.144,0,2.035,1.017,2.035,2.296,0,1.287-.918,2.295-2.098,2.295-.531,0-.999-.198-1.323-.576v2.413h-1.017v-6.392Zm3.439,2.26c0-.819-.576-1.44-1.341-1.44-.45,0-.819.18-1.081.504v1.882c.261.315.648.504,1.081.504.774,0,1.341-.621,1.341-1.449Z" />
    <path
       id="path74"
       d="m155.336,136.129h3.142v.864h-3.142v-.864Z" />
    <path
       id="path76"
       d="m159.215,138.596l.477-.675c.594.369.99.513,1.45.513.54,0,.909-.252.909-.612,0-.279-.189-.423-.63-.513l-.792-.135c-.882-.162-1.306-.567-1.306-1.243,0-.846.693-1.396,1.747-1.396.63,0,1.197.18,1.773.541l-.477.675c-.459-.297-.9-.432-1.359-.432-.468,0-.774.198-.774.522,0,.288.162.414.63.495l.801.153c.9.162,1.333.576,1.333,1.251,0,.828-.792,1.467-1.846,1.467-.774,0-1.458-.216-1.936-.612Z" />
    <path
       id="path78"
       d="m163.742,137.822c0-.81.667-1.323,1.729-1.323.423,0,.819.09,1.215.288v-.504c0-.594-.342-.9-1.035-.9-.378,0-.792.108-1.314.352l-.36-.738c.675-.306,1.269-.459,1.873-.459,1.179,0,1.845.594,1.845,1.639v2.944h-1.008v-.468c-.387.378-.819.549-1.341.549-.945,0-1.603-.567-1.603-1.377Zm1.882.657c.405,0,.756-.117,1.062-.378v-.729c-.324-.153-.648-.216-1.035-.216-.585,0-.954.243-.954.648,0,.414.36.675.927.675Z" />
  </g>
  <g
     id="g86">
    <rect
       id="rect82"
       height="66.06"
       width="201.928"
       y="175.447"
       x="52.556"
       class="uuid-8e3bc227-c5bd-43c4-94b7-a85d637fd365" />
    <path
       id="path84"
       d="m253.983,175.947v65.06H53.056v-65.06h200.928m1-1H52.056v67.06h202.928v-67.06h0Z"
       class="uuid-721a425c-756d-452b-b94b-cf9d2855bffd" />
  </g>
  <rect
     id="rect88"
     height="24.258"
     width="180.83"
     y="203.425"
     x="63.13"
     class="uuid-fe78a1aa-cd14-46fb-9e29-813eb3125aa4" />
  <g
     id="g118">
    <path
       id="path90"
       d="m61.929,192.26l.879-1.269c.97.68,1.579.93,2.269.93.739,0,1.189-.3,1.189-.74,0-.41-.24-.61-.919-.729l-1.489-.26c-1.109-.189-1.719-.889-1.719-1.879,0-1.359,1.04-2.208,2.778-2.208,1.08,0,2.149.35,2.869.919l-.87,1.249c-.68-.52-1.349-.77-2.089-.77-.68,0-1.069.28-1.069.66,0,.36.229.54.79.64l1.399.24c1.31.22,1.999.909,1.999,1.979,0,1.37-1.159,2.299-2.988,2.299-1.109,0-2.099-.37-3.028-1.06Z" />
    <path
       id="path92"
       d="m68.789,190.641c0-1.509,1.119-2.669,2.599-2.669,1.489,0,2.539,1.129,2.539,2.729v.35h-3.548c.15.58.62.969,1.209.969.43,0,.79-.15,1.02-.43l1.069.89c-.669.589-1.299.83-2.169.83-1.519,0-2.718-1.169-2.718-2.668Zm3.638-.51c-.14-.55-.529-.9-1.049-.9-.51,0-.87.33-1,.9h2.049Z" />
    <path
       id="path94"
       d="m74.938,188.052h1.619v1.169c.33-.859.79-1.27,1.399-1.27.23.01.34.03.54.13v1.389c-.2-.1-.479-.16-.759-.16-.48,0-.919.25-1.18.64v3.258h-1.619v-5.157Z" />
    <path
       id="path96"
       d="m78.948,188.052h1.759l1.169,3.238,1.179-3.238h1.669l-2.109,5.157h-1.579l-2.089-5.157Z" />
    <path
       id="path98"
       d="m85.328,186.353c0-.5.41-.909.91-.909s.909.41.909.909-.41.91-.909.91-.91-.41-.91-.91Zm.1,1.699h1.619v5.157h-1.619v-5.157Z" />
    <path
       id="path100"
       d="m88.078,190.641c0-1.509,1.159-2.669,2.668-2.669.85,0,1.629.34,2.149.95l-.99.989c-.33-.39-.66-.56-1.099-.56-.64,0-1.12.55-1.12,1.29s.48,1.289,1.12,1.289c.439,0,.77-.17,1.099-.56l.99.989c-.52.61-1.299.95-2.149.95-1.509,0-2.668-1.16-2.668-2.668Z" />
    <path
       id="path102"
       d="m93.318,190.641c0-1.509,1.119-2.669,2.599-2.669,1.489,0,2.539,1.129,2.539,2.729v.35h-3.548c.15.58.62.969,1.209.969.43,0,.79-.15,1.02-.43l1.069.89c-.669.589-1.299.83-2.169.83-1.519,0-2.718-1.169-2.718-2.668Zm3.638-.51c-.14-.55-.529-.9-1.049-.9-.51,0-.87.33-1,.9h2.049Z" />
    <path
       id="path104"
       d="m101.587,186.213h1.959l2.688,6.996h-1.859l-.58-1.669h-2.559l-.589,1.669h-1.789l2.729-6.996Zm1.749,3.998l-.81-2.318-.819,2.318h1.629Z" />
    <path
       id="path106"
       d="m106.408,190.641c0-1.509,1.159-2.669,2.668-2.669.85,0,1.629.34,2.149.95l-.99.989c-.33-.39-.66-.56-1.099-.56-.64,0-1.12.55-1.12,1.29s.48,1.289,1.12,1.289c.439,0,.77-.17,1.099-.56l.99.989c-.52.61-1.299.95-2.149.95-1.509,0-2.668-1.16-2.668-2.668Z" />
    <path
       id="path108"
       d="m111.648,190.641c0-1.509,1.159-2.669,2.668-2.669.85,0,1.629.34,2.149.95l-.99.989c-.33-.39-.66-.56-1.099-.56-.64,0-1.12.55-1.12,1.29s.48,1.289,1.12,1.289c.439,0,.77-.17,1.099-.56l.99.989c-.52.61-1.299.95-2.149.95-1.509,0-2.668-1.16-2.668-2.668Z" />
    <path
       id="path110"
       d="m116.888,190.641c0-1.52,1.159-2.669,2.688-2.669s2.688,1.149,2.688,2.669-1.159,2.668-2.688,2.668-2.688-1.149-2.688-2.668Zm3.798,0c0-.77-.46-1.319-1.109-1.319s-1.109.549-1.109,1.319.459,1.319,1.109,1.319,1.109-.549,1.109-1.319Z" />
    <path
       id="path112"
       d="m123.258,191.53v-3.478h1.619v3.008c0,.58.34.959.859.959.35,0,.629-.14.859-.43v-3.538h1.619v5.157h-1.619v-.839c-.4.6-.959.919-1.629.919-1,0-1.709-.729-1.709-1.759Z" />
    <path
       id="path114"
       d="m129.478,188.052h1.619v.839c.4-.6.959-.919,1.629-.919,1,0,1.709.73,1.709,1.759v3.478h-1.619v-3.008c0-.58-.34-.959-.859-.959-.35,0-.63.14-.86.43v3.538h-1.619v-5.157Z" />
    <path
       id="path116"
       d="m136.187,191.65v-2.349h-.999v-1.25h.999v-1.429l1.619-.33v1.759h1.379v1.25h-1.379v2.029c0,.459.18.62.68.62.19,0,.34-.02.66-.11v1.309c-.3.09-.779.16-1.109.16-1.219,0-1.849-.56-1.849-1.659Z" />
  </g>
  <g
     id="g142">
    <path
       id="path120"
       d="m125.039,212.305h1.053l3.286,4.582-.018-4.582h1.017v6.302h-.963l-3.376-4.708.018,4.708h-1.017v-6.302Z" />
    <path
       id="path122"
       d="m131.437,217.31c0-.81.667-1.323,1.729-1.323.423,0,.819.09,1.215.288v-.504c0-.594-.342-.9-1.035-.9-.378,0-.792.108-1.314.351l-.36-.738c.675-.306,1.269-.459,1.873-.459,1.179,0,1.845.594,1.845,1.639v2.944h-1.008v-.468c-.387.378-.819.549-1.341.549-.945,0-1.603-.567-1.603-1.377Zm1.882.657c.405,0,.756-.117,1.062-.378v-.729c-.324-.153-.648-.216-1.035-.216-.585,0-.954.243-.954.648,0,.414.36.675.927.675Z" />
    <path
       id="path124"
       d="m136.622,214.097h1.017v.711c.333-.513.783-.783,1.333-.783.621,0,1.098.333,1.333.864.351-.567.855-.864,1.494-.864.874,0,1.477.675,1.477,1.63v2.953h-1.017v-2.728c0-.63-.352-1.035-.91-1.035-.369,0-.675.171-.9.54.009.09.018.18.018.271v2.953h-1.026v-2.728c0-.63-.351-1.035-.91-1.035-.369,0-.666.171-.891.522v3.241h-1.017v-4.51Z" />
    <path
       id="path126"
       d="m144.298,216.356c0-1.324.954-2.332,2.196-2.332,1.233,0,2.134.981,2.134,2.332v.243h-3.331c.099.729.648,1.261,1.351,1.261.423,0,.819-.162,1.071-.423l.666.603c-.549.459-1.098.657-1.782.657-1.296,0-2.305-1.017-2.305-2.34Zm3.367-.387c-.108-.657-.576-1.116-1.179-1.116-.612,0-1.062.441-1.179,1.116h2.358Z" />
    <path
       id="path128"
       d="m149.527,214.663c0-.36.279-.657.63-.657s.63.297.63.657-.279.648-.63.648-.63-.288-.63-.648Zm0,3.376c0-.36.279-.657.63-.657s.63.297.63.657-.279.648-.63.648-.63-.288-.63-.648Z" />
    <path
       id="path130"
       d="m153.703,217.31c0-.81.667-1.323,1.729-1.323.423,0,.819.09,1.215.288v-.504c0-.594-.342-.9-1.035-.9-.378,0-.792.108-1.314.351l-.36-.738c.675-.306,1.269-.459,1.873-.459,1.179,0,1.845.594,1.845,1.639v2.944h-1.008v-.468c-.387.378-.819.549-1.341.549-.945,0-1.603-.567-1.603-1.377Zm1.882.657c.405,0,.756-.117,1.062-.378v-.729c-.324-.153-.648-.216-1.035-.216-.585,0-.954.243-.954.648,0,.414.36.675.927.675Z" />
    <path
       id="path132"
       d="m158.887,214.097h.999v.639c.324-.423.828-.675,1.404-.675,1.144,0,2.035,1.018,2.035,2.296,0,1.287-.918,2.295-2.098,2.295-.531,0-.999-.198-1.323-.576v2.413h-1.017v-6.392Zm3.439,2.26c0-.819-.576-1.44-1.341-1.44-.45,0-.819.18-1.081.504v1.882c.261.315.648.504,1.081.504.774,0,1.341-.621,1.341-1.449Z" />
    <path
       id="path134"
       d="m164.386,214.097h.999v.639c.324-.423.828-.675,1.404-.675,1.144,0,2.035,1.018,2.035,2.296,0,1.287-.918,2.295-2.098,2.295-.531,0-.999-.198-1.323-.576v2.413h-1.017v-6.392Zm3.439,2.26c0-.819-.576-1.44-1.341-1.44-.45,0-.819.18-1.081.504v1.882c.261.315.648.504,1.081.504.774,0,1.341-.621,1.341-1.449Z" />
    <path
       id="path136"
       d="m169.849,215.618h3.142v.864h-3.142v-.864Z" />
    <path
       id="path138"
       d="m173.728,218.085l.477-.675c.594.369.99.513,1.45.513.54,0,.909-.252.909-.612,0-.279-.189-.423-.63-.513l-.792-.135c-.882-.162-1.306-.567-1.306-1.242,0-.846.693-1.396,1.747-1.396.63,0,1.197.18,1.773.541l-.477.675c-.459-.297-.9-.432-1.359-.432-.468,0-.774.198-.774.522,0,.288.162.414.63.495l.801.153c.9.162,1.333.576,1.333,1.251,0,.828-.792,1.467-1.846,1.467-.774,0-1.458-.216-1.936-.612Z" />
    <path
       id="path140"
       d="m178.254,217.31c0-.81.667-1.323,1.729-1.323.423,0,.819.09,1.215.288v-.504c0-.594-.342-.9-1.035-.9-.378,0-.792.108-1.314.351l-.36-.738c.675-.306,1.269-.459,1.873-.459,1.179,0,1.845.594,1.845,1.639v2.944h-1.008v-.468c-.387.378-.819.549-1.341.549-.945,0-1.603-.567-1.603-1.377Zm1.882.657c.405,0,.756-.117,1.062-.378v-.729c-.324-.153-.648-.216-1.035-.216-.585,0-.954.243-.954.648,0,.414.36.675.927.675Z" />
  </g>
  <g
     id="g148">
    <rect
       id="rect144"
       height="95.128"
       width="201.928"
       y="175.447"
       x="340.641"
       class="uuid-8e3bc227-c5bd-43c4-94b7-a85d637fd365" />
    <path
       id="path146"
       d="m542.069,175.947v94.128h-200.928v-94.128h200.928m1-1h-202.928v96.128h202.928v-96.128h0Z"
       class="uuid-721a425c-756d-452b-b94b-cf9d2855bffd" />
  </g>
  <rect
     id="rect150"
     height="24.258"
     width="183.256"
     y="203.425"
     x="349.977"
     class="uuid-fe78a1aa-cd14-46fb-9e29-813eb3125aa4" />
  <g
     id="g174">
    <path
       id="path152"
       d="m349.896,186.213h3.398c1.439,0,2.469.929,2.469,2.229,0,.89-.51,1.609-1.3,1.959l1.47,2.809h-1.919l-1.27-2.568h-1.129v2.568h-1.72v-6.996Zm3.238,3.078c.53,0,.89-.33.89-.83s-.359-.83-.89-.83h-1.519v1.659h1.519Z" />
    <path
       id="path154"
       d="m356.296,190.641c0-1.52,1.16-2.669,2.688-2.669s2.688,1.149,2.688,2.669-1.159,2.668-2.688,2.668-2.688-1.149-2.688-2.668Zm3.798,0c0-.77-.459-1.319-1.109-1.319s-1.109.549-1.109,1.319.46,1.319,1.109,1.319,1.109-.549,1.109-1.319Z" />
    <path
       id="path156"
       d="m362.707,186.093l1.619-.25v7.366h-1.619v-7.116Z" />
    <path
       id="path158"
       d="m365.356,190.641c0-1.509,1.12-2.669,2.599-2.669,1.489,0,2.539,1.129,2.539,2.729v.35h-3.548c.149.58.619.969,1.209.969.43,0,.79-.15,1.02-.43l1.069.89c-.67.589-1.299.83-2.169.83-1.519,0-2.719-1.169-2.719-2.668Zm3.639-.51c-.141-.55-.53-.9-1.05-.9-.51,0-.869.33-.999.9h2.049Z" />
    <path
       id="path160"
       d="m371.656,186.213h3.458c1.359,0,2.329.799,2.329,1.909,0,.65-.41,1.2-1.02,1.52.729.29,1.22.889,1.22,1.609,0,1.149-.979,1.959-2.369,1.959h-3.618v-6.996Zm3.259,2.809c.479,0,.799-.29.799-.72,0-.44-.31-.72-.799-.72h-1.539v1.439h1.539Zm.14,2.818c.52,0,.85-.3.85-.77s-.33-.77-.85-.77h-1.679v1.539h1.679Z" />
    <path
       id="path162"
       d="m378.696,186.352c0-.5.41-.909.91-.909s.909.41.909.909-.41.91-.909.91-.91-.41-.91-.91Zm.101,1.699h1.619v5.157h-1.619v-5.157Z" />
    <path
       id="path164"
       d="m381.676,188.052h1.619v.84c.399-.6.959-.92,1.629-.92.999,0,1.709.73,1.709,1.759v3.478h-1.619v-3.008c0-.58-.34-.959-.859-.959-.35,0-.63.14-.859.43v3.538h-1.619v-5.157Z" />
    <path
       id="path166"
       d="m387.625,190.621c0-1.449,1.06-2.599,2.399-2.599.539,0,1.029.22,1.379.62v-2.549l1.619-.25v7.366h-1.6v-.669c-.34.43-.909.699-1.519.699-1.27,0-2.279-1.169-2.279-2.618Zm3.778.869v-1.739c-.25-.26-.59-.4-.96-.4-.709,0-1.229.54-1.229,1.279,0,.729.529,1.27,1.229,1.27.391,0,.71-.14.96-.41Z" />
    <path
       id="path168"
       d="m394.185,186.352c0-.5.41-.909.91-.909s.909.41.909.909-.41.91-.909.91-.91-.41-.91-.91Zm.101,1.699h1.619v5.157h-1.619v-5.157Z" />
    <path
       id="path170"
       d="m397.167,188.052h1.619v.84c.399-.6.959-.92,1.629-.92.999,0,1.709.73,1.709,1.759v3.478h-1.619v-3.008c0-.58-.34-.959-.859-.959-.35,0-.63.14-.859.43v3.538h-1.619v-5.157Z" />
    <path
       id="path172"
       d="m403.646,194.938l.5-1.169c.569.27,1.079.4,1.579.4.77,0,1.169-.32,1.169-.95v-.699c-.34.419-.899.68-1.499.68-1.27,0-2.279-1.16-2.279-2.599s1.06-2.579,2.399-2.579c.55,0,1.049.23,1.398.649v-.62h1.59v5.187c0,1.39-.96,2.159-2.719,2.159-.779,0-1.52-.16-2.139-.46Zm3.248-3.468v-1.719c-.25-.26-.59-.4-.96-.4-.709,0-1.229.53-1.229,1.259s.529,1.27,1.229,1.27c.391,0,.71-.14.96-.41Z" />
  </g>
  <g
     id="g250">
    <path
       id="path176"
       d="m360.3,218.084l.478-.675c.595.369.99.513,1.449.513.54,0,.909-.252.909-.612,0-.279-.188-.423-.63-.513l-.792-.135c-.883-.162-1.306-.567-1.306-1.243,0-.846.693-1.396,1.747-1.396.63,0,1.197.18,1.773.541l-.478.675c-.459-.297-.9-.432-1.359-.432-.468,0-.774.198-.774.522,0,.288.162.414.631.495l.801.153c.9.162,1.332.576,1.332,1.251,0,.828-.792,1.467-1.846,1.467-.773,0-1.458-.216-1.936-.612Z" />
    <path
       id="path178"
       d="m364.747,220.515v-.882c.117.027.261.036.396.036.359,0,.576-.162.729-.513l.207-.504-1.701-4.555h1.125l1.152,3.34,1.252-3.34h1.116l-2.161,5.293c-.351.873-.765,1.188-1.611,1.188-.144,0-.324-.018-.504-.063Z" />
    <path
       id="path180"
       d="m369.354,218.084l.478-.675c.594.369.99.513,1.449.513.54,0,.909-.252.909-.612,0-.279-.188-.423-.63-.513l-.792-.135c-.883-.162-1.306-.567-1.306-1.243,0-.846.693-1.396,1.747-1.396.63,0,1.197.18,1.773.541l-.478.675c-.459-.297-.9-.432-1.359-.432-.468,0-.774.198-.774.522,0,.288.162.414.63.495l.802.153c.9.162,1.332.576,1.332,1.251,0,.828-.792,1.467-1.845,1.467-.774,0-1.459-.216-1.937-.612Z" />
    <path
       id="path182"
       d="m374.539,217.436v-2.53h-.9v-.81h.9v-1.243l1.018-.216v1.458h1.251v.81h-1.251v2.305c0,.441.171.612.63.612.198,0,.342-.027.612-.108v.855c-.262.081-.604.126-.873.126-.91,0-1.387-.432-1.387-1.26Z" />
    <path
       id="path184"
       d="m377.427,216.356c0-1.324.954-2.332,2.197-2.332,1.233,0,2.133.981,2.133,2.332v.243h-3.33c.099.729.647,1.261,1.35,1.261.424,0,.819-.162,1.071-.423l.667.603c-.55.459-1.099.657-1.783.657-1.296,0-2.305-1.017-2.305-2.34Zm3.367-.387c-.108-.657-.576-1.116-1.18-1.116-.611,0-1.062.441-1.179,1.116h2.358Z" />
    <path
       id="path186"
       d="m382.792,214.096h1.018v.711c.333-.513.783-.783,1.332-.783.622,0,1.099.333,1.333.864.351-.567.855-.864,1.494-.864.873,0,1.477.675,1.477,1.629v2.953h-1.018v-2.728c0-.63-.351-1.035-.909-1.035-.369,0-.675.171-.9.54.009.09.019.18.019.27v2.953h-1.026v-2.728c0-.63-.352-1.035-.909-1.035-.369,0-.666.171-.892.522v3.241h-1.018v-4.51Z" />
    <path
       id="path188"
       d="m390.541,214.663c0-.36.279-.657.63-.657s.631.297.631.657-.279.648-.631.648-.63-.288-.63-.648Zm0,3.376c0-.36.279-.657.63-.657s.631.297.631.657-.279.648-.631.648-.63-.288-.63-.648Z" />
    <path
       id="path190"
       d="m392.52,218.084l.478-.675c.594.369.99.513,1.449.513.54,0,.909-.252.909-.612,0-.279-.188-.423-.63-.513l-.792-.135c-.883-.162-1.306-.567-1.306-1.243,0-.846.693-1.396,1.747-1.396.63,0,1.197.18,1.773.541l-.478.675c-.459-.297-.9-.432-1.359-.432-.468,0-.774.198-.774.522,0,.288.162.414.63.495l.802.153c.9.162,1.332.576,1.332,1.251,0,.828-.792,1.467-1.845,1.467-.774,0-1.459-.216-1.937-.612Z" />
    <path
       id="path192"
       d="m397.074,216.356c0-1.324.954-2.332,2.197-2.332,1.233,0,2.133.981,2.133,2.332v.243h-3.33c.099.729.647,1.261,1.35,1.261.424,0,.819-.162,1.071-.423l.667.603c-.55.459-1.099.657-1.783.657-1.296,0-2.305-1.017-2.305-2.34Zm3.367-.387c-.108-.657-.576-1.116-1.18-1.116-.611,0-1.062.441-1.179,1.116h2.358Z" />
    <path
       id="path194"
       d="m402.438,214.096h1.018v.972c.252-.684.685-1.053,1.242-1.053.171.009.288.027.441.09v.892c-.162-.063-.369-.108-.559-.108-.495,0-.899.279-1.125.748v2.971h-1.018v-4.51Z" />
    <path
       id="path196"
       d="m405.579,214.096h1.107l1.261,3.277,1.251-3.277h1.062l-1.854,4.51h-.99l-1.837-4.51Z" />
    <path
       id="path198"
       d="m410.862,212.557c0-.342.279-.63.631-.63.342,0,.63.288.63.63s-.288.621-.63.621c-.352,0-.631-.279-.631-.621Zm.117,1.54h1.018v4.51h-1.018v-4.51Z" />
    <path
       id="path200"
       d="m413.048,216.356c0-1.306.99-2.332,2.278-2.332.702,0,1.35.279,1.8.765l-.63.657c-.315-.351-.702-.531-1.134-.531-.729,0-1.297.63-1.297,1.44,0,.819.567,1.44,1.297,1.44.432,0,.818-.18,1.134-.522l.63.648c-.45.486-1.098.765-1.8.765-1.288,0-2.278-1.018-2.278-2.332Z" />
    <path
       id="path202"
       d="m417.621,216.356c0-1.324.954-2.332,2.197-2.332,1.233,0,2.133.981,2.133,2.332v.243h-3.33c.099.729.647,1.261,1.35,1.261.424,0,.819-.162,1.071-.423l.667.603c-.55.459-1.099.657-1.783.657-1.296,0-2.305-1.017-2.305-2.34Zm3.367-.387c-.108-.657-.576-1.116-1.18-1.116-.611,0-1.062.441-1.179,1.116h2.358Z" />
    <path
       id="path204"
       d="m422.707,217.31c0-.81.666-1.323,1.729-1.323.423,0,.819.09,1.215.288v-.504c0-.594-.342-.9-1.035-.9-.378,0-.792.108-1.314.352l-.36-.738c.676-.306,1.27-.459,1.873-.459,1.179,0,1.846.594,1.846,1.639v2.944h-1.009v-.468c-.387.378-.819.549-1.341.549-.945,0-1.603-.567-1.603-1.377Zm1.881.657c.405,0,.757-.117,1.062-.378v-.729c-.324-.153-.648-.216-1.035-.216-.585,0-.954.243-.954.648,0,.414.36.675.927.675Z" />
    <path
       id="path206"
       d="m427.683,216.356c0-1.306.99-2.332,2.278-2.332.702,0,1.35.279,1.8.765l-.63.657c-.315-.351-.702-.531-1.134-.531-.729,0-1.297.63-1.297,1.44,0,.819.567,1.44,1.297,1.44.432,0,.818-.18,1.134-.522l.63.648c-.45.486-1.098.765-1.8.765-1.288,0-2.278-1.018-2.278-2.332Z" />
    <path
       id="path208"
       d="m432.254,216.356c0-1.306.99-2.332,2.278-2.332.702,0,1.35.279,1.8.765l-.63.657c-.315-.351-.702-.531-1.135-.531-.729,0-1.296.63-1.296,1.44,0,.819.567,1.44,1.296,1.44.433,0,.819-.18,1.135-.522l.63.648c-.45.486-1.098.765-1.8.765-1.288,0-2.278-1.018-2.278-2.332Z" />
    <path
       id="path210"
       d="m436.827,216.356c0-1.333.973-2.332,2.269-2.332,1.288,0,2.26,1,2.26,2.332s-.972,2.332-2.26,2.332c-1.296,0-2.269-1-2.269-2.332Zm3.529,0c0-.837-.531-1.468-1.261-1.468-.738,0-1.269.63-1.269,1.468,0,.846.53,1.467,1.269,1.467.729,0,1.261-.621,1.261-1.467Z" />
    <path
       id="path212"
       d="m442.371,217.067v-2.971h1.026v2.674c0,.666.388,1.089.99,1.089.405,0,.748-.18.981-.541v-3.223h1.018v4.51h-1.018v-.729c-.342.531-.828.801-1.432.801-.918,0-1.566-.667-1.566-1.612Z" />
    <path
       id="path214"
       d="m447.644,214.096h1.018v.738c.342-.531.837-.811,1.423-.811.927,0,1.575.657,1.575,1.612v2.971h-1.026v-2.683c0-.657-.387-1.081-.99-1.081-.414,0-.747.189-.981.549v3.214h-1.018v-4.51Z" />
    <path
       id="path216"
       d="m453.306,217.436v-2.53h-.9v-.81h.9v-1.243l1.018-.216v1.458h1.251v.81h-1.251v2.305c0,.441.171.612.63.612.198,0,.342-.027.612-.108v.855c-.262.081-.604.126-.873.126-.91,0-1.387-.432-1.387-1.26Z" />
    <path
       id="path218"
       d="m456.383,214.663c0-.36.279-.657.63-.657s.631.297.631.657-.279.648-.631.648-.63-.288-.63-.648Zm0,3.376c0-.36.279-.657.63-.657s.631.297.631.657-.279.648-.631.648-.63-.288-.63-.648Z" />
    <path
       id="path220"
       d="m458.768,214.096h1v.639c.323-.423.828-.675,1.404-.675,1.144,0,2.034,1.017,2.034,2.296,0,1.287-.918,2.295-2.098,2.295-.531,0-.999-.198-1.323-.576v2.413h-1.018v-6.392Zm3.439,2.26c0-.819-.576-1.44-1.342-1.44-.45,0-.819.18-1.08.504v1.882c.261.315.648.504,1.08.504.774,0,1.342-.621,1.342-1.449Z" />
    <path
       id="path222"
       d="m464.267,214.096h1.018v.972c.252-.684.685-1.053,1.242-1.053.171.009.288.027.441.09v.892c-.162-.063-.369-.108-.559-.108-.495,0-.9.279-1.125.748v2.971h-1.018v-4.51Z" />
    <path
       id="path224"
       d="m467.39,216.356c0-1.333.973-2.332,2.269-2.332,1.288,0,2.26,1,2.26,2.332s-.972,2.332-2.26,2.332c-1.296,0-2.269-1-2.269-2.332Zm3.529,0c0-.837-.531-1.468-1.261-1.468-.738,0-1.269.63-1.269,1.468,0,.846.53,1.467,1.269,1.467.729,0,1.261-.621,1.261-1.467Z" />
    <path
       id="path226"
       d="m472.106,220.506v-.81c.117.027.217.036.36.036.352,0,.504-.153.504-.495v-5.141h1.018v5.186c0,.819-.478,1.296-1.332,1.296-.198,0-.424-.027-.55-.072Zm.738-7.949c0-.342.288-.63.631-.63.351,0,.639.288.639.63s-.288.621-.639.621c-.343,0-.631-.279-.631-.621Z" />
    <path
       id="path228"
       d="m475.031,216.356c0-1.324.954-2.332,2.197-2.332,1.233,0,2.133.981,2.133,2.332v.243h-3.33c.099.729.647,1.261,1.35,1.261.424,0,.819-.162,1.071-.423l.667.603c-.55.459-1.099.657-1.783.657-1.296,0-2.305-1.017-2.305-2.34Zm3.367-.387c-.108-.657-.576-1.116-1.18-1.116-.611,0-1.062.441-1.179,1.116h2.358Z" />
    <path
       id="path230"
       d="m480.206,216.356c0-1.306.99-2.332,2.278-2.332.702,0,1.35.279,1.8.765l-.63.657c-.315-.351-.702-.531-1.135-.531-.729,0-1.296.63-1.296,1.44,0,.819.567,1.44,1.296,1.44.433,0,.819-.18,1.135-.522l.63.648c-.45.486-1.098.765-1.8.765-1.288,0-2.278-1.018-2.278-2.332Z" />
    <path
       id="path232"
       d="m485.768,217.436v-2.53h-.9v-.81h.9v-1.243l1.018-.216v1.458h1.251v.81h-1.251v2.305c0,.441.171.612.63.612.198,0,.342-.027.612-.108v.855c-.262.081-.604.126-.873.126-.91,0-1.387-.432-1.387-1.26Z" />
    <path
       id="path234"
       d="m489.754,213.34l-1.116.477v-.873l1.477-.639h.621v6.302h-.981v-5.267Z" />
    <path
       id="path236"
       d="m491.878,214.663c0-.36.279-.657.63-.657s.631.297.631.657-.279.648-.631.648-.63-.288-.63-.648Zm0,3.376c0-.36.279-.657.63-.657s.631.297.631.657-.279.648-.631.648-.63-.288-.63-.648Z" />
    <path
       id="path238"
       d="m494.03,217.31c0-.81.666-1.323,1.729-1.323.423,0,.819.09,1.215.288v-.504c0-.594-.342-.9-1.035-.9-.378,0-.792.108-1.314.352l-.36-.738c.676-.306,1.27-.459,1.873-.459,1.179,0,1.846.594,1.846,1.639v2.944h-1.009v-.468c-.387.378-.819.549-1.341.549-.945,0-1.603-.567-1.603-1.377Zm1.881.657c.405,0,.757-.117,1.062-.378v-.729c-.324-.153-.648-.216-1.035-.216-.585,0-.954.243-.954.648,0,.414.36.675.927.675Z" />
    <path
       id="path240"
       d="m499.213,214.096h1v.639c.323-.423.828-.675,1.404-.675,1.144,0,2.034,1.017,2.034,2.296,0,1.287-.918,2.295-2.098,2.295-.531,0-.999-.198-1.323-.576v2.413h-1.018v-6.392Zm3.439,2.26c0-.819-.576-1.44-1.342-1.44-.45,0-.819.18-1.08.504v1.882c.261.315.648.504,1.08.504.774,0,1.342-.621,1.342-1.449Z" />
    <path
       id="path242"
       d="m504.712,214.096h1v.639c.323-.423.828-.675,1.404-.675,1.143,0,2.034,1.017,2.034,2.296,0,1.287-.918,2.295-2.098,2.295-.531,0-.999-.198-1.323-.576v2.413h-1.018v-6.392Zm3.439,2.26c0-.819-.576-1.44-1.342-1.44-.45,0-.819.18-1.08.504v1.882c.261.315.648.504,1.08.504.774,0,1.342-.621,1.342-1.449Z" />
    <path
       id="path244"
       d="m510.175,215.618h3.143v.864h-3.143v-.864Z" />
    <path
       id="path246"
       d="m514.054,218.084l.478-.675c.595.369.99.513,1.449.513.54,0,.909-.252.909-.612,0-.279-.188-.423-.63-.513l-.792-.135c-.883-.162-1.306-.567-1.306-1.243,0-.846.693-1.396,1.747-1.396.63,0,1.197.18,1.773.541l-.478.675c-.459-.297-.9-.432-1.359-.432-.468,0-.774.198-.774.522,0,.288.162.414.631.495l.801.153c.9.162,1.332.576,1.332,1.251,0,.828-.792,1.467-1.846,1.467-.773,0-1.458-.216-1.936-.612Z" />
    <path
       id="path248"
       d="m518.582,217.31c0-.81.666-1.323,1.729-1.323.423,0,.819.09,1.215.288v-.504c0-.594-.342-.9-1.035-.9-.378,0-.792.108-1.314.352l-.36-.738c.676-.306,1.27-.459,1.873-.459,1.179,0,1.846.594,1.846,1.639v2.944h-1.009v-.468c-.387.378-.819.549-1.341.549-.945,0-1.603-.567-1.603-1.377Zm1.881.657c.405,0,.757-.117,1.062-.378v-.729c-.324-.153-.648-.216-1.035-.216-.585,0-.954.243-.954.648,0,.414.36.675.927.675Z" />
  </g>
  <g
     id="g256">
    <rect
       id="rect252"
       height="61.574"
       width="201.928"
       y="295.598"
       x="340.641"
       class="uuid-8e3bc227-c5bd-43c4-94b7-a85d637fd365" />
    <path
       id="path254"
       d="m542.069,296.098v60.574h-200.928v-60.574h200.928m1-1h-202.928v62.574h202.928v-62.574h0Z"
       class="uuid-721a425c-756d-452b-b94b-cf9d2855bffd" />
  </g>
  <rect
     id="rect258"
     height="24.258"
     width="183.256"
     y="323.575"
     x="349.977"
     class="uuid-fe78a1aa-cd14-46fb-9e29-813eb3125aa4" />
  <g
     id="g282">
    <path
       id="path260"
       d="m349.567,309.862c0-2.039,1.608-3.608,3.688-3.608,1.119,0,2.229.53,2.839,1.359l-1.16,1.1c-.459-.62-1.02-.93-1.679-.93-1.09,0-1.909.89-1.909,2.079s.819,2.079,1.909,2.079c.659,0,1.22-.31,1.679-.929l1.16,1.099c-.61.83-1.72,1.359-2.839,1.359-2.079,0-3.688-1.569-3.688-3.608Z" />
    <path
       id="path262"
       d="m356.947,306.244l1.619-.25v7.366h-1.619v-7.116Z" />
    <path
       id="path264"
       d="m359.787,311.681v-3.478h1.619v3.008c0,.58.34.959.859.959.35,0,.63-.14.859-.43v-3.538h1.619v5.157h-1.619v-.839c-.399.6-.959.919-1.629.919-1,0-1.709-.729-1.709-1.759Z" />
    <path
       id="path266"
       d="m365.586,312.83l.71-1.079c.739.39,1.159.52,1.658.52.46,0,.74-.16.74-.42,0-.2-.15-.31-.479-.37l-.99-.18c-.999-.189-1.519-.699-1.519-1.499,0-1.049.81-1.679,2.158-1.679.72,0,1.43.2,2.1.59l-.74,1.029c-.52-.3-.999-.439-1.479-.439-.391,0-.62.13-.62.35,0,.21.13.3.529.37l.97.18c1.02.19,1.549.709,1.549,1.489,0,1.009-.949,1.769-2.219,1.769-.939,0-1.769-.22-2.368-.63Z" />
    <path
       id="path268"
       d="m371.696,311.801v-2.349h-1v-1.25h1v-1.429l1.619-.33v1.759h1.379v1.25h-1.379v2.029c0,.459.18.62.68.62.189,0,.34-.02.659-.11v1.309c-.3.09-.779.16-1.109.16-1.22,0-1.849-.56-1.849-1.659Z" />
    <path
       id="path270"
       d="m375.316,310.791c0-1.509,1.12-2.669,2.599-2.669,1.489,0,2.539,1.129,2.539,2.729v.35h-3.548c.149.58.619.969,1.209.969.43,0,.79-.15,1.02-.43l1.069.89c-.67.589-1.299.83-2.169.83-1.52,0-2.719-1.169-2.719-2.668Zm3.639-.51c-.141-.55-.53-.9-1.05-.9-.51,0-.869.33-.999.9h2.049Z" />
    <path
       id="path272"
       d="m381.466,308.203h1.619v1.169c.329-.859.789-1.27,1.399-1.27.229.01.34.03.539.13v1.389c-.199-.1-.479-.16-.76-.16-.479,0-.919.25-1.179.64v3.258h-1.619v-5.157Z" />
    <path
       id="path274"
       d="m386.036,306.364h3.398c1.439,0,2.469.929,2.469,2.229,0,.89-.51,1.609-1.3,1.959l1.47,2.809h-1.919l-1.27-2.568h-1.129v2.568h-1.72v-6.996Zm3.238,3.078c.53,0,.89-.33.89-.83s-.359-.83-.89-.83h-1.519v1.659h1.519Z" />
    <path
       id="path276"
       d="m392.436,310.791c0-1.52,1.16-2.669,2.688-2.669s2.688,1.149,2.688,2.669-1.159,2.668-2.688,2.668-2.688-1.149-2.688-2.668Zm3.798,0c0-.77-.459-1.319-1.109-1.319s-1.109.549-1.109,1.319.46,1.319,1.109,1.319,1.109-.549,1.109-1.319Z" />
    <path
       id="path278"
       d="m398.846,306.244l1.619-.25v7.366h-1.619v-7.116Z" />
    <path
       id="path280"
       d="m401.496,310.791c0-1.509,1.12-2.669,2.599-2.669,1.489,0,2.539,1.129,2.539,2.729v.35h-3.548c.149.58.619.969,1.209.969.43,0,.79-.15,1.02-.43l1.069.89c-.67.589-1.299.83-2.169.83-1.52,0-2.719-1.169-2.719-2.668Zm3.639-.51c-.141-.55-.53-.9-1.05-.9-.51,0-.869.33-.999.9h2.049Z" />
  </g>
  <g
     id="g320">
    <path
       id="path284"
       d="m398.846,332.456h1.054l3.286,4.582-.019-4.582h1.018v6.302h-.963l-3.376-4.709.018,4.709h-1.018v-6.302Z" />
    <path
       id="path286"
       d="m405.246,337.461c0-.81.666-1.323,1.729-1.323.423,0,.819.09,1.215.288v-.504c0-.595-.342-.9-1.035-.9-.378,0-.792.108-1.314.351l-.36-.737c.676-.307,1.27-.46,1.873-.46,1.179,0,1.846.595,1.846,1.639v2.944h-1.009v-.469c-.387.379-.819.55-1.341.55-.945,0-1.603-.567-1.603-1.378Zm1.881.657c.405,0,.757-.117,1.062-.378v-.729c-.324-.152-.648-.216-1.035-.216-.585,0-.954.243-.954.648,0,.414.36.675.927.675Z" />
    <path
       id="path288"
       d="m410.429,334.247h1.018v.711c.333-.513.783-.783,1.332-.783.621,0,1.099.333,1.333.864.351-.566.855-.864,1.494-.864.873,0,1.477.676,1.477,1.63v2.953h-1.018v-2.729c0-.63-.351-1.035-.909-1.035-.369,0-.675.171-.9.54.01.091.019.181.019.271v2.953h-1.026v-2.729c0-.63-.352-1.035-.909-1.035-.369,0-.667.171-.892.522v3.241h-1.018v-4.511Z" />
    <path
       id="path290"
       d="m418.106,336.507c0-1.323.954-2.332,2.197-2.332,1.233,0,2.134.981,2.134,2.332v.243h-3.331c.099.729.647,1.261,1.35,1.261.424,0,.819-.162,1.071-.424l.667.604c-.55.459-1.099.657-1.783.657-1.296,0-2.305-1.018-2.305-2.341Zm3.367-.387c-.108-.657-.576-1.116-1.18-1.116-.611,0-1.062.44-1.179,1.116h2.358Z" />
    <path
       id="path292"
       d="m423.335,334.814c0-.36.279-.657.63-.657s.631.297.631.657-.279.648-.631.648-.63-.288-.63-.648Zm0,3.376c0-.36.279-.657.63-.657s.631.297.631.657-.279.648-.631.648-.63-.288-.63-.648Z" />
    <path
       id="path294"
       d="m427.339,338.235l.478-.675c.595.369.99.513,1.449.513.54,0,.909-.252.909-.612,0-.279-.188-.423-.63-.513l-.792-.136c-.883-.161-1.306-.566-1.306-1.242,0-.846.693-1.396,1.747-1.396.63,0,1.197.181,1.773.541l-.478.675c-.459-.297-.9-.433-1.359-.433-.468,0-.774.198-.774.522,0,.288.162.414.631.495l.801.153c.9.162,1.332.576,1.332,1.251,0,.828-.792,1.468-1.846,1.468-.773,0-1.458-.216-1.936-.612Z" />
    <path
       id="path296"
       d="m431.894,336.507c0-1.323.954-2.332,2.197-2.332,1.233,0,2.133.981,2.133,2.332v.243h-3.33c.099.729.647,1.261,1.35,1.261.424,0,.819-.162,1.071-.424l.667.604c-.55.459-1.099.657-1.783.657-1.296,0-2.305-1.018-2.305-2.341Zm3.367-.387c-.108-.657-.576-1.116-1.18-1.116-.611,0-1.062.44-1.179,1.116h2.358Z" />
    <path
       id="path298"
       d="m437.069,336.507c0-1.306.99-2.332,2.278-2.332.702,0,1.35.279,1.8.766l-.63.657c-.315-.352-.702-.531-1.135-.531-.729,0-1.296.63-1.296,1.44,0,.819.567,1.44,1.296,1.44.433,0,.819-.18,1.135-.522l.63.648c-.45.486-1.098.766-1.8.766-1.288,0-2.278-1.018-2.278-2.332Z" />
    <path
       id="path300"
       d="m441.983,334.247h1.018v.973c.252-.685.685-1.054,1.242-1.054.171.009.288.027.441.09v.892c-.162-.063-.369-.108-.559-.108-.495,0-.899.279-1.125.748v2.971h-1.018v-4.511Z" />
    <path
       id="path302"
       d="m445.106,336.507c0-1.323.954-2.332,2.197-2.332,1.233,0,2.134.981,2.134,2.332v.243h-3.331c.099.729.647,1.261,1.35,1.261.424,0,.819-.162,1.071-.424l.667.604c-.55.459-1.099.657-1.783.657-1.296,0-2.305-1.018-2.305-2.341Zm3.367-.387c-.108-.657-.576-1.116-1.18-1.116-.611,0-1.062.44-1.179,1.116h2.358Z" />
    <path
       id="path304"
       d="m450.893,337.587v-2.529h-.9v-.811h.9v-1.242l1.018-.216v1.458h1.251v.811h-1.251v2.305c0,.441.171.612.63.612.198,0,.342-.027.612-.108v.855c-.262.081-.604.126-.873.126-.91,0-1.387-.433-1.387-1.261Z" />
    <path
       id="path306"
       d="m453.889,335.768h3.143v.864h-3.143v-.864Z" />
    <path
       id="path308"
       d="m458.173,334.247h1.018v.973c.252-.685.685-1.054,1.242-1.054.171.009.288.027.441.09v.892c-.162-.063-.369-.108-.559-.108-.495,0-.9.279-1.125.748v2.971h-1.018v-4.511Z" />
    <path
       id="path310"
       d="m461.296,336.507c0-1.323.954-2.332,2.197-2.332,1.233,0,2.133.981,2.133,2.332v.243h-3.33c.099.729.647,1.261,1.35,1.261.424,0,.819-.162,1.071-.424l.667.604c-.55.459-1.099.657-1.783.657-1.296,0-2.305-1.018-2.305-2.341Zm3.367-.387c-.108-.657-.576-1.116-1.18-1.116-.611,0-1.062.44-1.179,1.116h2.358Z" />
    <path
       id="path312"
       d="m466.382,337.461c0-.81.666-1.323,1.729-1.323.423,0,.819.09,1.215.288v-.504c0-.595-.342-.9-1.035-.9-.378,0-.792.108-1.314.351l-.36-.737c.676-.307,1.27-.46,1.873-.46,1.179,0,1.846.595,1.846,1.639v2.944h-1.009v-.469c-.387.379-.819.55-1.341.55-.945,0-1.603-.567-1.603-1.378Zm1.881.657c.405,0,.757-.117,1.062-.378v-.729c-.324-.152-.648-.216-1.035-.216-.585,0-.954.243-.954.648,0,.414.36.675.927.675Z" />
    <path
       id="path314"
       d="m471.358,336.507c0-1.287.928-2.296,2.106-2.296.514,0,.981.207,1.314.585v-2.493l1.018-.18v6.635h-1.008v-.595c-.324.405-.828.64-1.396.64-1.144,0-2.035-1.018-2.035-2.296Zm3.421.945v-1.899c-.261-.307-.647-.486-1.071-.486-.773,0-1.35.612-1.35,1.44,0,.819.576,1.44,1.35,1.44.441,0,.811-.171,1.071-.495Z" />
    <path
       id="path316"
       d="m476.848,336.507c0-1.323.954-2.332,2.197-2.332,1.233,0,2.134.981,2.134,2.332v.243h-3.331c.099.729.647,1.261,1.35,1.261.424,0,.819-.162,1.071-.424l.667.604c-.55.459-1.099.657-1.783.657-1.296,0-2.305-1.018-2.305-2.341Zm3.367-.387c-.108-.657-.576-1.116-1.18-1.116-.611,0-1.062.44-1.179,1.116h2.358Z" />
    <path
       id="path318"
       d="m482.212,334.247h1.018v.973c.252-.685.685-1.054,1.242-1.054.171.009.288.027.441.09v.892c-.162-.063-.369-.108-.559-.108-.495,0-.9.279-1.125.748v2.971h-1.018v-4.511Z" />
  </g>
  <rect
     id="rect322"
     height="24.258"
     width="183.256"
     y="236.585"
     x="349.977"
     class="uuid-fe78a1aa-cd14-46fb-9e29-813eb3125aa4" />
  <g
     id="g350">
    <path
       id="path324"
       d="m412.828,251.245l.478-.675c.595.369.99.513,1.449.513.54,0,.909-.252.909-.612,0-.279-.188-.423-.63-.513l-.792-.135c-.883-.162-1.306-.567-1.306-1.242,0-.846.693-1.396,1.747-1.396.63,0,1.197.18,1.773.541l-.478.675c-.459-.297-.9-.432-1.359-.432-.468,0-.774.198-.774.522,0,.288.162.414.631.495l.801.153c.9.162,1.332.576,1.332,1.251,0,.828-.792,1.467-1.846,1.467-.773,0-1.458-.216-1.936-.612Z" />
    <path
       id="path326"
       d="m417.381,249.517c0-1.324.954-2.332,2.197-2.332,1.233,0,2.134.981,2.134,2.332v.243h-3.331c.099.729.647,1.261,1.35,1.261.424,0,.819-.162,1.071-.423l.667.603c-.55.459-1.099.657-1.783.657-1.296,0-2.305-1.017-2.305-2.34Zm3.367-.387c-.108-.657-.576-1.116-1.18-1.116-.611,0-1.062.441-1.179,1.116h2.358Z" />
    <path
       id="path328"
       d="m422.557,249.517c0-1.306.99-2.332,2.278-2.332.702,0,1.35.279,1.8.766l-.63.657c-.315-.351-.702-.531-1.135-.531-.729,0-1.296.63-1.296,1.44,0,.819.567,1.44,1.296,1.44.433,0,.819-.18,1.135-.522l.63.648c-.45.486-1.098.765-1.8.765-1.288,0-2.278-1.017-2.278-2.332Z" />
    <path
       id="path330"
       d="m427.47,247.257h1.018v.972c.252-.684.685-1.053,1.242-1.053.171.009.288.027.441.09v.892c-.162-.063-.369-.108-.559-.108-.495,0-.9.279-1.125.748v2.971h-1.018v-4.51Z" />
    <path
       id="path332"
       d="m430.593,249.517c0-1.324.954-2.332,2.197-2.332,1.233,0,2.133.981,2.133,2.332v.243h-3.33c.099.729.647,1.261,1.35,1.261.424,0,.819-.162,1.071-.423l.667.603c-.55.459-1.099.657-1.783.657-1.296,0-2.305-1.017-2.305-2.34Zm3.367-.387c-.108-.657-.576-1.116-1.18-1.116-.611,0-1.062.441-1.179,1.116h2.358Z" />
    <path
       id="path334"
       d="m436.381,250.597v-2.53h-.9v-.81h.9v-1.243l1.018-.216v1.458h1.251v.81h-1.251v2.305c0,.441.171.612.63.612.198,0,.342-.027.612-.108v.855c-.262.081-.604.126-.873.126-.91,0-1.387-.432-1.387-1.26Z" />
    <path
       id="path336"
       d="m439.377,248.778h3.143v.864h-3.143v-.864Z" />
    <path
       id="path338"
       d="m443.662,247.257h1.018v.972c.252-.684.685-1.053,1.242-1.053.171.009.288.027.441.09v.892c-.162-.063-.369-.108-.559-.108-.495,0-.9.279-1.125.748v2.971h-1.018v-4.51Z" />
    <path
       id="path340"
       d="m446.785,249.517c0-1.324.954-2.332,2.197-2.332,1.233,0,2.133.981,2.133,2.332v.243h-3.33c.099.729.647,1.261,1.35,1.261.424,0,.819-.162,1.071-.423l.667.603c-.55.459-1.099.657-1.783.657-1.296,0-2.305-1.017-2.305-2.34Zm3.367-.387c-.108-.657-.576-1.116-1.18-1.116-.611,0-1.062.441-1.179,1.116h2.358Z" />
    <path
       id="path342"
       d="m451.87,250.471c0-.81.666-1.323,1.729-1.323.423,0,.819.09,1.215.288v-.504c0-.594-.342-.9-1.035-.9-.378,0-.792.108-1.314.351l-.36-.738c.676-.306,1.27-.459,1.873-.459,1.179,0,1.846.594,1.846,1.639v2.944h-1.009v-.468c-.387.378-.819.549-1.341.549-.945,0-1.603-.567-1.603-1.377Zm1.881.657c.405,0,.757-.117,1.062-.378v-.729c-.324-.153-.648-.216-1.035-.216-.585,0-.954.243-.954.648,0,.414.36.675.927.675Z" />
    <path
       id="path344"
       d="m456.846,249.517c0-1.288.928-2.296,2.106-2.296.514,0,.981.207,1.314.585v-2.494l1.018-.18v6.635h-1.008v-.594c-.324.405-.828.639-1.396.639-1.144,0-2.035-1.017-2.035-2.295Zm3.421.945v-1.9c-.261-.306-.647-.486-1.071-.486-.773,0-1.35.612-1.35,1.44,0,.819.576,1.44,1.35,1.44.441,0,.811-.171,1.071-.495Z" />
    <path
       id="path346"
       d="m462.336,249.517c0-1.324.954-2.332,2.197-2.332,1.233,0,2.134.981,2.134,2.332v.243h-3.331c.099.729.647,1.261,1.35,1.261.424,0,.819-.162,1.071-.423l.667.603c-.55.459-1.099.657-1.783.657-1.296,0-2.305-1.017-2.305-2.34Zm3.367-.387c-.108-.657-.576-1.116-1.18-1.116-.611,0-1.062.441-1.179,1.116h2.358Z" />
    <path
       id="path348"
       d="m467.701,247.257h1.018v.972c.252-.684.685-1.053,1.242-1.053.171.009.288.027.441.09v.892c-.162-.063-.369-.108-.559-.108-.495,0-.9.279-1.125.748v2.971h-1.018v-4.51Z" />
  </g>
  <g
     id="g364">
    <path
       id="path352"
       d="m348.87,112.771l.88-1.269c.97.68,1.579.93,2.269.93.74,0,1.189-.3,1.189-.74,0-.41-.239-.61-.919-.729l-1.489-.26c-1.109-.189-1.72-.889-1.72-1.879,0-1.359,1.04-2.208,2.779-2.208,1.079,0,2.148.35,2.868.919l-.87,1.249c-.68-.52-1.349-.77-2.089-.77-.68,0-1.069.28-1.069.66,0,.36.23.54.79.64l1.399.24c1.309.22,1.999.909,1.999,1.979,0,1.37-1.16,2.299-2.989,2.299-1.109,0-2.099-.37-3.028-1.06Z" />
    <path
       id="path354"
       d="m355.73,111.152c0-1.509,1.12-2.669,2.599-2.669,1.489,0,2.539,1.129,2.539,2.729v.35h-3.548c.149.58.619.969,1.209.969.43,0,.79-.15,1.02-.43l1.069.89c-.67.589-1.299.83-2.169.83-1.52,0-2.719-1.169-2.719-2.668Zm3.639-.51c-.141-.55-.53-.9-1.05-.9-.51,0-.869.33-.999.9h2.049Z" />
    <path
       id="path356"
       d="m361.7,111.152c0-1.509,1.16-2.669,2.669-2.669.85,0,1.629.34,2.148.95l-.989.989c-.33-.39-.659-.56-1.1-.56-.64,0-1.119.55-1.119,1.29s.479,1.289,1.119,1.289c.44,0,.77-.17,1.1-.56l.989.989c-.52.61-1.299.95-2.148.95-1.509,0-2.669-1.16-2.669-2.668Z" />
    <path
       id="path358"
       d="m367.32,108.563h1.619v1.169c.329-.859.789-1.27,1.399-1.27.229.01.34.03.539.13v1.389c-.199-.1-.479-.16-.76-.16-.479,0-.919.25-1.179.64v3.258h-1.619v-5.157Z" />
    <path
       id="path360"
       d="m371.359,111.152c0-1.509,1.12-2.669,2.599-2.669,1.489,0,2.539,1.129,2.539,2.729v.35h-3.548c.149.58.619.969,1.209.969.43,0,.79-.15,1.02-.43l1.069.89c-.67.589-1.299.83-2.169.83-1.52,0-2.719-1.169-2.719-2.668Zm3.639-.51c-.141-.55-.53-.9-1.05-.9-.51,0-.869.33-.999.9h2.049Z" />
    <path
       id="path362"
       d="m378.04,112.162v-2.349h-1v-1.25h1v-1.429l1.619-.33v1.759h1.379v1.25h-1.379v2.029c0,.459.18.62.68.62.189,0,.34-.02.659-.11v1.309c-.3.09-.779.16-1.109.16-1.22,0-1.849-.56-1.849-1.659Z" />
  </g>
  <g
     id="g382">
    <path
       id="path366"
       d="m341,73.289h3.763c1.639,0,2.717,1.067,2.717,2.542,0,1.397-1.078,2.475-2.717,2.475h-1.871v2.685h-1.892v-7.701Zm3.421,3.51c.771,0,1.145-.418,1.145-.979,0-.55-.374-.968-1.133-.968h-1.541v1.947h1.529Z" />
    <path
       id="path368"
       d="m348.644,75.313h1.782v1.287c.363-.946.869-1.397,1.54-1.397.253.011.374.033.594.143v1.529c-.22-.11-.527-.176-.836-.176-.528,0-1.012.275-1.298.704v3.586h-1.782v-5.677Z" />
    <path
       id="path370"
       d="m353.088,78.163c0-1.672,1.275-2.937,2.959-2.937s2.96,1.265,2.96,2.937-1.276,2.938-2.96,2.938-2.959-1.265-2.959-2.938Zm4.181,0c0-.847-.507-1.452-1.222-1.452s-1.221.605-1.221,1.452.506,1.453,1.221,1.453,1.222-.605,1.222-1.453Z" />
    <path
       id="path372"
       d="m359.072,83.289v-1.353c.154.033.297.044.495.044.396,0,.572-.154.572-.484v-6.183h1.782v6.26c0,1.155-.715,1.826-1.97,1.826-.308,0-.693-.044-.88-.11Zm.957-9.846c0-.55.451-1.001,1.001-1.001s1.001.451,1.001,1.001-.45,1.001-1.001,1.001-1.001-.451-1.001-1.001Z" />
    <path
       id="path374"
       d="m363.054,78.163c0-1.661,1.231-2.937,2.86-2.937,1.639,0,2.794,1.243,2.794,3.003v.385h-3.905c.165.638.682,1.067,1.331,1.067.473,0,.869-.165,1.122-.473l1.178.979c-.737.649-1.431.913-2.388.913-1.672,0-2.992-1.287-2.992-2.938Zm4.004-.561c-.153-.605-.583-.99-1.155-.99-.561,0-.957.363-1.1.99h2.255Z" />
    <path
       id="path376"
       d="m369.621,78.163c0-1.661,1.275-2.937,2.938-2.937.935,0,1.793.374,2.365,1.045l-1.09,1.089c-.362-.429-.726-.616-1.21-.616-.704,0-1.232.605-1.232,1.419s.528,1.419,1.232,1.419c.484,0,.848-.187,1.21-.616l1.09,1.089c-.572.671-1.431,1.045-2.365,1.045-1.662,0-2.938-1.276-2.938-2.938Z" />
    <path
       id="path378"
       d="m376.661,79.274v-2.585h-1.101v-1.375h1.101v-1.573l1.782-.363v1.937h1.518v1.375h-1.518v2.233c0,.506.198.682.748.682.209,0,.374-.022.726-.121v1.441c-.33.099-.857.176-1.221.176-1.342,0-2.035-.616-2.035-1.826Z" />
    <path
       id="path380"
       d="m383.184,79.78l3.256-3.224c.363-.352.518-.682.518-1.045,0-.495-.484-.869-1.134-.869-.692,0-1.243.264-1.947.946l-.946-1.155c.881-.836,1.882-1.265,2.949-1.265,1.639,0,2.728.891,2.728,2.233,0,.726-.308,1.342-1.001,2.013l-2.222,2.146,3.333-.011v1.441h-5.533v-1.21Z" />
  </g>
  <g
     id="g388">
    <line
       id="line384"
       y2="128.989"
       x2="334.759"
       y1="128.989"
       x1="254.983"
       class="uuid-9d3afeb5-46d7-4bce-beef-308f944a0a19" />
    <polygon
       id="polygon386"
       points="333.664 132.729 340.141 128.989 333.664 125.249 333.664 132.729"
       class="uuid-721a425c-756d-452b-b94b-cf9d2855bffd" />
  </g>
  <g
     id="g394">
    <line
       id="line390"
       y2="215.554"
       x2="349.977"
       y1="215.554"
       x1="260.366"
       class="uuid-936030fd-a30d-4d67-b921-3b3e6a16fab4" />
    <polygon
       id="polygon392"
       points="261.46 219.294 254.983 215.554 261.46 211.814 261.46 219.294" />
  </g>
  <g
     id="g400">
    <line
       id="line396"
       y2="260.843"
       x2="445.675"
       y1="289.716"
       x1="445.675"
       class="uuid-936030fd-a30d-4d67-b921-3b3e6a16fab4" />
    <polygon
       id="polygon398"
       points="449.415 288.621 445.675 295.098 441.936 288.621 449.415 288.621" />
  </g>
  <g
     id="g406">
    <line
       id="line402"
       y2="148.194"
       x2="153.545"
       y1="169.565"
       x1="153.545"
       class="uuid-936030fd-a30d-4d67-b921-3b3e6a16fab4" />
    <polygon
       id="polygon404"
       points="157.285 168.471 153.545 174.947 149.805 168.471 157.285 168.471" />
  </g>
  <g
     id="g428">
    <path
       id="path408"
       d="m274.096,119.334h1.029l-.202.909c.386-.652.845-.983,1.369-.983.184,0,.377.046.515.11l-.202.91c-.11-.083-.386-.138-.606-.138-.45,0-.891.248-1.203.689l-.68,3.105h-1.02l1.001-4.602Z" />
    <path
       id="path410"
       d="m276.871,121.879c0-1.433,1.093-2.618,2.425-2.618,1.13,0,1.92.845,1.92,2.049,0,.211-.009.395-.037.579h-3.316c.009.735.542,1.286,1.259,1.286.395,0,.781-.129,1.056-.368l.551.67c-.561.386-1.084.551-1.69.551-1.277,0-2.167-.882-2.167-2.149Zm3.426-.634c-.028-.652-.459-1.13-1.066-1.13s-1.102.459-1.295,1.13h2.361Z" />
    <path
       id="path412"
       d="m281.84,122.724c0-.9.707-1.479,1.81-1.479.496,0,.974.119,1.35.331l.092-.395c.156-.707-.174-1.065-.983-1.065-.34,0-.726.092-1.249.294l-.248-.753c.661-.257,1.222-.386,1.745-.386,1.341,0,2.012.708,1.754,1.874l-.615,2.792h-1.01l.092-.414c-.441.322-.827.469-1.259.469-.9,0-1.479-.496-1.479-1.268Zm2.856.211l.175-.771c-.294-.174-.662-.257-1.103-.257-.597,0-.983.294-.983.717,0,.413.331.652.9.652.367,0,.689-.101,1.01-.34Z" />
    <path
       id="path414"
       d="m287.003,121.888c0-1.424,1.057-2.59,2.361-2.59.588,0,1.075.257,1.378.707l.561-2.655,1.047-.184-1.415,6.77h-1.01l.092-.432c-.331.303-.753.478-1.231.478-1.01,0-1.782-.909-1.782-2.094Zm3.169.845l.413-2.012c-.22-.331-.625-.542-1.075-.542-.845,0-1.497.707-1.497,1.626,0,.771.496,1.313,1.194,1.313.368,0,.68-.129.965-.386Z" />
    <path
       id="path416"
       d="m294.361,122.724c0-.9.708-1.479,1.81-1.479.496,0,.974.119,1.35.331l.092-.395c.156-.707-.174-1.065-.983-1.065-.34,0-.726.092-1.249.294l-.248-.753c.661-.257,1.222-.386,1.745-.386,1.341,0,2.012.708,1.754,1.874l-.615,2.792h-1.011l.092-.414c-.441.322-.827.469-1.259.469-.9,0-1.479-.496-1.479-1.268Zm2.857.211l.175-.771c-.294-.174-.662-.257-1.103-.257-.597,0-.983.294-.983.717,0,.413.331.652.9.652.367,0,.689-.101,1.01-.34Z" />
    <path
       id="path418"
       d="m299.514,121.943c0-1.479,1.13-2.673,2.508-2.673.753,0,1.442.34,1.819.918l-.744.606c-.248-.413-.625-.615-1.103-.615-.799,0-1.47.762-1.47,1.681,0,.744.505,1.268,1.194,1.268.395,0,.763-.156,1.065-.422l.496.652c-.478.441-1.094.67-1.728.67-1.176,0-2.039-.882-2.039-2.085Z" />
    <path
       id="path420"
       d="m304.117,121.943c0-1.479,1.13-2.673,2.508-2.673.754,0,1.442.34,1.819.918l-.744.606c-.248-.413-.625-.615-1.103-.615-.799,0-1.47.762-1.47,1.681,0,.744.505,1.268,1.194,1.268.395,0,.762-.156,1.065-.422l.496.652c-.478.441-1.093.67-1.728.67-1.176,0-2.039-.882-2.039-2.085Z" />
    <path
       id="path422"
       d="m308.718,121.879c0-1.433,1.094-2.618,2.426-2.618,1.129,0,1.919.845,1.919,2.049,0,.211-.009.395-.036.579h-3.316c.01.735.542,1.286,1.259,1.286.395,0,.78-.129,1.057-.368l.551.67c-.561.386-1.084.551-1.69.551-1.276,0-2.168-.882-2.168-2.149Zm3.427-.634c-.027-.652-.46-1.13-1.065-1.13s-1.103.459-1.296,1.13h2.361Z" />
    <path
       id="path424"
       d="m313.477,123.266l.569-.662c.579.469.974.634,1.479.634.486,0,.854-.275.854-.625,0-.248-.156-.395-.542-.496l-.781-.202c-.717-.202-1.074-.606-1.074-1.203,0-.891.67-1.46,1.727-1.46.688,0,1.322.239,1.874.689l-.569.652c-.45-.358-.938-.551-1.36-.551-.478,0-.762.211-.762.542,0,.257.138.395.532.505l.781.211c.763.211,1.13.588,1.13,1.157,0,.9-.781,1.571-1.837,1.571-.79,0-1.525-.275-2.021-.762Z" />
    <path
       id="path426"
       d="m317.804,123.266l.569-.662c.579.469.974.634,1.479.634.486,0,.854-.275.854-.625,0-.248-.156-.395-.542-.496l-.781-.202c-.717-.202-1.074-.606-1.074-1.203,0-.891.67-1.46,1.727-1.46.688,0,1.322.239,1.874.689l-.569.652c-.45-.358-.938-.551-1.36-.551-.478,0-.762.211-.762.542,0,.257.138.395.532.505l.781.211c.763.211,1.13.588,1.13,1.157,0,.9-.781,1.571-1.837,1.571-.79,0-1.525-.275-2.021-.762Z" />
  </g>
</svg>
