<?xml version="1.0" encoding="UTF-8"?>
<svg id="uuid-c75cbf5b-0cc6-4626-83d8-b856ac0adde2" data-name="Layer 1" xmlns="http://www.w3.org/2000/svg" width="595.276" height="397.158" viewBox="0 0 595.276 397.158">
  <defs>
    <style>
      .uuid-f40a256b-39c9-4c65-9a01-e4c8d243045d {
        fill: #06c;
      }

      .uuid-f40a256b-39c9-4c65-9a01-e4c8d243045d, .uuid-21f250d5-3e95-4619-9f32-9eb9558c3d4b, .uuid-52fef95a-0302-40f6-bb78-6e40c0852c7c, .uuid-02dc4ae4-1435-43da-9b9e-3f1802f9771d, .uuid-07ef4488-b1f7-48e8-8ea1-cb054169b852, .uuid-db1cbacc-18f6-4163-98f0-8b3e3aa9c3d5, .uuid-c316d7e3-22fa-4f8f-bf85-107170bccc85 {
        stroke-width: 0px;
      }

      .uuid-2fe683b4-5892-4db0-ae3f-3f53258fc0f3 {
        stroke: #a1c2e7;
      }

      .uuid-2fe683b4-5892-4db0-ae3f-3f53258fc0f3, .uuid-76e2b87c-2f87-4870-83b8-96f6b84900e1, .uuid-10d0a0e5-2f19-4880-9bcd-ab9ef47f9cf4 {
        stroke-miterlimit: 10;
      }

      .uuid-2fe683b4-5892-4db0-ae3f-3f53258fc0f3, .uuid-c316d7e3-22fa-4f8f-bf85-107170bccc85 {
        fill: #fff;
      }

      .uuid-76e2b87c-2f87-4870-83b8-96f6b84900e1 {
        stroke: #06c;
      }

      .uuid-76e2b87c-2f87-4870-83b8-96f6b84900e1, .uuid-10d0a0e5-2f19-4880-9bcd-ab9ef47f9cf4 {
        fill: none;
      }

      .uuid-21f250d5-3e95-4619-9f32-9eb9558c3d4b {
        fill: #dcdcdc;
      }

      .uuid-52fef95a-0302-40f6-bb78-6e40c0852c7c {
        fill: #000;
      }

      .uuid-02dc4ae4-1435-43da-9b9e-3f1802f9771d {
        fill: #f0f0f0;
      }

      .uuid-07ef4488-b1f7-48e8-8ea1-cb054169b852 {
        fill: #dbe8f5;
      }

      .uuid-10d0a0e5-2f19-4880-9bcd-ab9ef47f9cf4 {
        stroke: #000;
      }

      .uuid-db1cbacc-18f6-4163-98f0-8b3e3aa9c3d5 {
        fill: #06c;
      }
    </style>
  </defs>
  <rect class="uuid-02dc4ae4-1435-43da-9b9e-3f1802f9771d" x="5.758" y="9.069" width="583.759" height="379.02"/>
  <rect class="uuid-21f250d5-3e95-4619-9f32-9eb9558c3d4b" x="17.686" y="39.092" width="251.029" height="213.03"/>
  <rect class="uuid-21f250d5-3e95-4619-9f32-9eb9558c3d4b" x="325.75" y="39.092" width="252.019" height="258.438"/>
  <rect class="uuid-2fe683b4-5892-4db0-ae3f-3f53258fc0f3" x="32.189" y="72.317" width="221.693" height="72.88"/>
  <rect class="uuid-2fe683b4-5892-4db0-ae3f-3f53258fc0f3" x="340.914" y="72.317" width="221.693" height="33.53"/>
  <rect class="uuid-07ef4488-b1f7-48e8-8ea1-cb054169b852" x="427.167" y="76.438" width="130.821" height="25.287"/>
  <rect class="uuid-2fe683b4-5892-4db0-ae3f-3f53258fc0f3" x="340.914" y="117.061" width="221.693" height="33.53"/>
  <rect class="uuid-07ef4488-b1f7-48e8-8ea1-cb054169b852" x="44.287" y="99.34" width="197.551" height="33.53"/>
  <g>
    <path class="uuid-52fef95a-0302-40f6-bb78-6e40c0852c7c" d="M32.629,55.02c0-1.661,1.276-2.937,2.938-2.937.935,0,1.793.374,2.365,1.045l-1.089,1.089c-.363-.429-.726-.616-1.21-.616-.704,0-1.232.605-1.232,1.419s.528,1.419,1.232,1.419c.484,0,.847-.187,1.21-.616l1.089,1.089c-.572.671-1.43,1.045-2.365,1.045-1.661,0-2.938-1.276-2.938-2.938Z"/>
    <path class="uuid-52fef95a-0302-40f6-bb78-6e40c0852c7c" d="M38.393,55.02c0-1.672,1.276-2.937,2.959-2.937s2.959,1.265,2.959,2.937-1.276,2.938-2.959,2.938-2.959-1.265-2.959-2.938ZM42.573,55.02c0-.847-.506-1.452-1.221-1.452s-1.221.605-1.221,1.452.506,1.453,1.221,1.453,1.221-.605,1.221-1.453Z"/>
    <path class="uuid-52fef95a-0302-40f6-bb78-6e40c0852c7c" d="M45.444,52.171h1.783v.924c.44-.66,1.056-1.012,1.793-1.012,1.1,0,1.881.803,1.881,1.936v3.829h-1.782v-3.312c0-.638-.374-1.056-.946-1.056-.385,0-.693.154-.946.473v3.895h-1.783v-5.677Z"/>
    <path class="uuid-52fef95a-0302-40f6-bb78-6e40c0852c7c" d="M52.913,53.546h-1.177v-1.375h1.177v-.748c0-1.354.803-2.09,2.266-2.09.308,0,.715.044.946.11v1.463c-.319-.055-.484-.066-.682-.066-.506,0-.748.198-.748.616v.715h1.43v1.375h-1.43v4.302h-1.782v-4.302Z"/>
    <path class="uuid-52fef95a-0302-40f6-bb78-6e40c0852c7c" d="M57.027,50.301c0-.55.451-1.001,1.001-1.001s1.001.451,1.001,1.001-.451,1.001-1.001,1.001-1.001-.451-1.001-1.001ZM57.137,52.171h1.783v5.677h-1.783v-5.677Z"/>
    <path class="uuid-52fef95a-0302-40f6-bb78-6e40c0852c7c" d="M60.635,59.751l.55-1.287c.627.297,1.188.44,1.738.44.847,0,1.287-.352,1.287-1.045v-.771c-.374.462-.99.748-1.65.748-1.397,0-2.508-1.276-2.508-2.86s1.167-2.838,2.641-2.838c.605,0,1.155.253,1.54.715v-.682h1.75v5.71c0,1.529-1.056,2.376-2.993,2.376-.858,0-1.672-.176-2.354-.506ZM64.21,55.934v-1.893c-.275-.286-.649-.44-1.056-.44-.781,0-1.353.583-1.353,1.386s.583,1.397,1.353,1.397c.429,0,.781-.154,1.056-.451Z"/>
    <path class="uuid-52fef95a-0302-40f6-bb78-6e40c0852c7c" d="M67.366,52.171h1.783v.902c.418-.649.99-.99,1.683-.99.737,0,1.32.407,1.595,1.056.44-.682,1.078-1.056,1.859-1.056,1.045,0,1.782.825,1.782,1.991v3.773h-1.782v-3.421c0-.572-.341-.946-.847-.946-.33,0-.594.132-.825.429v3.938h-1.782v-3.421c0-.572-.341-.946-.847-.946-.33,0-.605.143-.836.44v3.928h-1.783v-5.677Z"/>
    <path class="uuid-52fef95a-0302-40f6-bb78-6e40c0852c7c" d="M77.146,56.22c0-1.045.814-1.65,2.211-1.65.407,0,.814.077,1.32.264v-.462c0-.55-.363-.825-1.122-.825-.429,0-.935.121-1.595.396l-.616-1.243c.935-.418,1.771-.616,2.607-.616,1.573,0,2.486.781,2.486,2.134v3.63h-1.76v-.495c-.495.418-.968.583-1.573.583-1.155,0-1.958-.704-1.958-1.716ZM79.654,56.759c.374,0,.715-.099,1.023-.286v-.726c-.33-.077-.649-.121-.979-.121-.583,0-.913.198-.913.561s.319.572.869.572Z"/>
    <path class="uuid-52fef95a-0302-40f6-bb78-6e40c0852c7c" d="M83.778,52.171h1.76v.792c.375-.506,1.001-.825,1.684-.825,1.397,0,2.508,1.287,2.508,2.882s-1.166,2.861-2.641,2.861c-.616,0-1.155-.231-1.529-.66v2.926h-1.783v-7.976ZM87.981,55.01c0-.803-.583-1.397-1.353-1.397-.44,0-.781.154-1.067.462v1.892c.275.286.649.451,1.067.451.781,0,1.353-.594,1.353-1.408Z"/>
    <path class="uuid-52fef95a-0302-40f6-bb78-6e40c0852c7c" d="M90.84,53.954h4.049v1.485h-4.049v-1.485Z"/>
    <path class="uuid-52fef95a-0302-40f6-bb78-6e40c0852c7c" d="M96.142,52.171h1.783v1.287c.363-.946.869-1.397,1.54-1.397.253.011.374.033.594.143v1.529c-.22-.11-.528-.176-.836-.176-.528,0-1.012.275-1.298.704v3.586h-1.783v-5.677Z"/>
    <path class="uuid-52fef95a-0302-40f6-bb78-6e40c0852c7c" d="M100.586,55.02c0-1.661,1.232-2.937,2.86-2.937,1.64,0,2.794,1.243,2.794,3.003v.385h-3.905c.165.638.682,1.067,1.331,1.067.473,0,.869-.165,1.122-.473l1.177.979c-.737.649-1.43.913-2.387.913-1.672,0-2.993-1.287-2.993-2.938ZM104.591,54.459c-.154-.605-.583-.99-1.155-.99-.561,0-.957.363-1.1.99h2.255Z"/>
    <path class="uuid-52fef95a-0302-40f6-bb78-6e40c0852c7c" d="M107.351,50.015l1.783-.275v8.108h-1.783v-7.833Z"/>
    <path class="uuid-52fef95a-0302-40f6-bb78-6e40c0852c7c" d="M110.266,55.02c0-1.672,1.276-2.937,2.959-2.937s2.959,1.265,2.959,2.937-1.276,2.938-2.959,2.938-2.959-1.265-2.959-2.938ZM114.447,55.02c0-.847-.506-1.452-1.221-1.452s-1.221.605-1.221,1.452.506,1.453,1.221,1.453,1.221-.605,1.221-1.453Z"/>
    <path class="uuid-52fef95a-0302-40f6-bb78-6e40c0852c7c" d="M117.108,56.22c0-1.045.814-1.65,2.211-1.65.407,0,.814.077,1.32.264v-.462c0-.55-.363-.825-1.122-.825-.429,0-.935.121-1.595.396l-.616-1.243c.935-.418,1.771-.616,2.607-.616,1.573,0,2.486.781,2.486,2.134v3.63h-1.76v-.495c-.495.418-.968.583-1.573.583-1.155,0-1.958-.704-1.958-1.716ZM119.616,56.759c.374,0,.715-.099,1.023-.286v-.726c-.33-.077-.649-.121-.979-.121-.583,0-.913.198-.913.561s.319.572.869.572Z"/>
    <path class="uuid-52fef95a-0302-40f6-bb78-6e40c0852c7c" d="M123.488,54.998c0-1.595,1.167-2.86,2.641-2.86.594,0,1.133.242,1.518.682v-2.805l1.782-.275v8.108h-1.76v-.737c-.374.473-1.001.771-1.672.771-1.397,0-2.508-1.288-2.508-2.883ZM127.646,55.956v-1.915c-.275-.286-.649-.44-1.056-.44-.781,0-1.353.594-1.353,1.408,0,.803.583,1.397,1.353,1.397.429,0,.781-.154,1.056-.451Z"/>
    <path class="uuid-52fef95a-0302-40f6-bb78-6e40c0852c7c" d="M130.561,55.02c0-1.661,1.232-2.937,2.86-2.937,1.64,0,2.794,1.243,2.794,3.003v.385h-3.905c.165.638.682,1.067,1.331,1.067.473,0,.869-.165,1.122-.473l1.177.979c-.737.649-1.43.913-2.387.913-1.672,0-2.993-1.287-2.993-2.938ZM134.565,54.459c-.154-.605-.583-.99-1.155-.99-.561,0-.957.363-1.1.99h2.255Z"/>
    <path class="uuid-52fef95a-0302-40f6-bb78-6e40c0852c7c" d="M137.325,52.171h1.783v1.287c.363-.946.869-1.397,1.54-1.397.253.011.374.033.594.143v1.529c-.22-.11-.528-.176-.836-.176-.528,0-1.012.275-1.298.704v3.586h-1.783v-5.677Z"/>
  </g>
  <g>
    <path class="uuid-52fef95a-0302-40f6-bb78-6e40c0852c7c" d="M17.686,23.622c0-2.244,1.771-3.972,4.06-3.972,1.232,0,2.453.583,3.125,1.497l-1.276,1.21c-.506-.682-1.122-1.023-1.848-1.023-1.199,0-2.102.979-2.102,2.288s.902,2.289,2.102,2.289c.726,0,1.342-.341,1.848-1.023l1.276,1.21c-.671.913-1.893,1.496-3.125,1.496-2.289,0-4.06-1.728-4.06-3.972Z"/>
    <path class="uuid-52fef95a-0302-40f6-bb78-6e40c0852c7c" d="M25.804,19.639l1.783-.275v8.108h-1.783v-7.833Z"/>
    <path class="uuid-52fef95a-0302-40f6-bb78-6e40c0852c7c" d="M28.928,25.624v-3.829h1.782v3.312c0,.638.374,1.056.946,1.056.385,0,.693-.154.946-.473v-3.895h1.782v5.677h-1.782v-.924c-.44.66-1.056,1.012-1.793,1.012-1.1,0-1.881-.803-1.881-1.936Z"/>
    <path class="uuid-52fef95a-0302-40f6-bb78-6e40c0852c7c" d="M35.308,26.889l.781-1.188c.814.429,1.276.572,1.826.572.506,0,.814-.176.814-.462,0-.22-.165-.341-.528-.407l-1.089-.198c-1.1-.209-1.672-.771-1.672-1.65,0-1.155.891-1.848,2.376-1.848.792,0,1.573.22,2.311.649l-.814,1.133c-.572-.33-1.101-.484-1.628-.484-.429,0-.682.143-.682.385,0,.231.143.33.583.407l1.067.198c1.122.209,1.705.781,1.705,1.639,0,1.111-1.045,1.947-2.442,1.947-1.034,0-1.947-.242-2.607-.693Z"/>
    <path class="uuid-52fef95a-0302-40f6-bb78-6e40c0852c7c" d="M42.029,25.756v-2.585h-1.101v-1.375h1.101v-1.573l1.782-.363v1.937h1.518v1.375h-1.518v2.233c0,.506.198.682.748.682.209,0,.374-.022.726-.121v1.441c-.33.099-.858.176-1.221.176-1.342,0-2.035-.616-2.035-1.826Z"/>
    <path class="uuid-52fef95a-0302-40f6-bb78-6e40c0852c7c" d="M46.011,24.644c0-1.661,1.232-2.937,2.86-2.937,1.64,0,2.794,1.243,2.794,3.003v.385h-3.905c.165.638.682,1.067,1.331,1.067.473,0,.869-.165,1.122-.473l1.177.979c-.737.649-1.43.913-2.387.913-1.672,0-2.993-1.287-2.993-2.938ZM50.016,24.083c-.154-.605-.583-.99-1.155-.99-.561,0-.957.363-1.1.99h2.255Z"/>
    <path class="uuid-52fef95a-0302-40f6-bb78-6e40c0852c7c" d="M52.775,21.795h1.783v1.287c.363-.946.869-1.397,1.54-1.397.253.011.374.033.594.143v1.529c-.22-.11-.528-.176-.836-.176-.528,0-1.012.275-1.298.704v3.586h-1.783v-5.677Z"/>
  </g>
  <g>
    <path class="uuid-52fef95a-0302-40f6-bb78-6e40c0852c7c" d="M45.067,83.582h3.418c1.489,0,2.469.969,2.469,2.309,0,1.27-.979,2.249-2.469,2.249h-1.699v2.438h-1.719v-6.996ZM48.175,86.77c.7,0,1.04-.379,1.04-.889,0-.5-.34-.88-1.029-.88h-1.399v1.769h1.389Z"/>
    <path class="uuid-52fef95a-0302-40f6-bb78-6e40c0852c7c" d="M51.388,88.01c0-1.52,1.159-2.669,2.688-2.669s2.688,1.149,2.688,2.669-1.159,2.668-2.688,2.668-2.688-1.149-2.688-2.668ZM55.186,88.01c0-.77-.46-1.319-1.109-1.319s-1.109.549-1.109,1.319.459,1.319,1.109,1.319,1.109-.549,1.109-1.319Z"/>
    <path class="uuid-52fef95a-0302-40f6-bb78-6e40c0852c7c" d="M57.567,87.99c0-1.449,1.059-2.599,2.398-2.599.54,0,1.03.22,1.379.62v-2.549l1.619-.25v7.366h-1.599v-.669c-.34.43-.91.699-1.519.699-1.27,0-2.279-1.169-2.279-2.618ZM61.345,88.859v-1.739c-.25-.26-.59-.4-.959-.4-.709,0-1.229.54-1.229,1.279,0,.729.53,1.27,1.229,1.27.39,0,.709-.14.959-.41Z"/>
  </g>
  <g>
    <path class="uuid-52fef95a-0302-40f6-bb78-6e40c0852c7c" d="M101.295,116.348c0-1.306.99-2.332,2.277-2.332.702,0,1.351.279,1.801.765l-.63.657c-.315-.351-.702-.531-1.134-.531-.729,0-1.296.63-1.296,1.44,0,.819.567,1.44,1.296,1.44.432,0,.819-.18,1.134-.522l.63.648c-.45.486-1.099.765-1.801.765-1.287,0-2.277-1.018-2.277-2.332Z"/>
    <path class="uuid-52fef95a-0302-40f6-bb78-6e40c0852c7c" d="M105.867,116.348c0-1.333.972-2.332,2.269-2.332,1.287,0,2.26,1,2.26,2.332s-.973,2.332-2.26,2.332c-1.296,0-2.269-1-2.269-2.332ZM109.396,116.348c0-.837-.531-1.468-1.26-1.468-.738,0-1.27.63-1.27,1.468,0,.846.531,1.467,1.27,1.467.729,0,1.26-.621,1.26-1.467Z"/>
    <path class="uuid-52fef95a-0302-40f6-bb78-6e40c0852c7c" d="M111.447,114.088h1.017v.738c.342-.531.837-.811,1.422-.811.927,0,1.576.657,1.576,1.612v2.971h-1.026v-2.683c0-.657-.387-1.081-.99-1.081-.414,0-.748.189-.981.549v3.214h-1.017v-4.51Z"/>
    <path class="uuid-52fef95a-0302-40f6-bb78-6e40c0852c7c" d="M117.162,114.898h-.972v-.81h.972v-.774c0-.981.549-1.512,1.558-1.512.252,0,.504.027.675.081v.864c-.225-.045-.36-.063-.54-.063-.468,0-.675.207-.675.648v.756h1.215v.81h-1.215v3.7h-1.018v-3.7Z"/>
    <path class="uuid-52fef95a-0302-40f6-bb78-6e40c0852c7c" d="M120.123,112.548c0-.342.279-.63.63-.63.342,0,.63.288.63.63s-.288.621-.63.621c-.351,0-.63-.279-.63-.621ZM120.24,114.088h1.018v4.51h-1.018v-4.51Z"/>
    <path class="uuid-52fef95a-0302-40f6-bb78-6e40c0852c7c" d="M122.814,120.128l.351-.747c.531.261.963.378,1.414.378.756,0,1.152-.342,1.152-.999v-.765c-.324.396-.819.63-1.387.63-1.143,0-2.034-1.017-2.034-2.295s.927-2.278,2.106-2.278c.522,0,.99.207,1.323.603v-.567h1.008v4.672c0,1.161-.756,1.81-2.125,1.81-.648,0-1.278-.162-1.81-.441ZM125.731,117.284v-1.891c-.261-.306-.648-.486-1.071-.486-.774,0-1.351.603-1.351,1.431,0,.819.576,1.44,1.351,1.44.441,0,.81-.18,1.071-.495Z"/>
    <path class="uuid-52fef95a-0302-40f6-bb78-6e40c0852c7c" d="M127.998,114.088h1.017v.711c.333-.513.783-.783,1.333-.783.621,0,1.098.333,1.333.864.351-.567.855-.864,1.494-.864.874,0,1.477.675,1.477,1.629v2.953h-1.018v-2.728c0-.63-.351-1.035-.909-1.035-.369,0-.675.171-.9.54.009.09.018.18.018.27v2.953h-1.026v-2.728c0-.63-.352-1.035-.91-1.035-.369,0-.666.171-.891.522v3.241h-1.017v-4.51Z"/>
    <path class="uuid-52fef95a-0302-40f6-bb78-6e40c0852c7c" d="M135.647,117.302c0-.81.667-1.323,1.729-1.323.423,0,.819.09,1.215.288v-.504c0-.594-.342-.9-1.035-.9-.378,0-.792.108-1.314.352l-.36-.738c.675-.306,1.269-.459,1.873-.459,1.179,0,1.845.594,1.845,1.639v2.944h-1.008v-.468c-.387.378-.819.549-1.341.549-.945,0-1.603-.567-1.603-1.377ZM137.529,117.959c.405,0,.756-.117,1.062-.378v-.729c-.324-.153-.648-.216-1.035-.216-.585,0-.954.243-.954.648,0,.414.36.675.927.675Z"/>
    <path class="uuid-52fef95a-0302-40f6-bb78-6e40c0852c7c" d="M140.832,114.088h.999v.639c.324-.423.828-.675,1.404-.675,1.144,0,2.035,1.017,2.035,2.296,0,1.287-.918,2.295-2.098,2.295-.531,0-.999-.198-1.323-.576v2.413h-1.017v-6.392ZM144.271,116.348c0-.819-.576-1.44-1.341-1.44-.45,0-.819.18-1.081.504v1.882c.261.315.648.504,1.081.504.774,0,1.341-.621,1.341-1.449Z"/>
    <path class="uuid-52fef95a-0302-40f6-bb78-6e40c0852c7c" d="M146.294,115.609h3.142v.864h-3.142v-.864Z"/>
    <path class="uuid-52fef95a-0302-40f6-bb78-6e40c0852c7c" d="M150.579,114.088h1.017v.972c.252-.684.684-1.053,1.242-1.053.171.009.288.027.441.09v.892c-.162-.063-.369-.108-.558-.108-.495,0-.9.279-1.125.748v2.971h-1.017v-4.51Z"/>
    <path class="uuid-52fef95a-0302-40f6-bb78-6e40c0852c7c" d="M153.702,116.348c0-1.324.954-2.332,2.196-2.332,1.233,0,2.134.981,2.134,2.332v.243h-3.331c.099.729.648,1.261,1.351,1.261.423,0,.819-.162,1.071-.423l.666.603c-.549.459-1.098.657-1.782.657-1.296,0-2.305-1.017-2.305-2.34ZM157.068,115.96c-.108-.657-.576-1.116-1.179-1.116-.612,0-1.062.441-1.179,1.116h2.358Z"/>
    <path class="uuid-52fef95a-0302-40f6-bb78-6e40c0852c7c" d="M159.065,112.143l1.017-.18v6.635h-1.017v-6.455Z"/>
    <path class="uuid-52fef95a-0302-40f6-bb78-6e40c0852c7c" d="M161.126,116.348c0-1.333.972-2.332,2.269-2.332,1.287,0,2.26,1,2.26,2.332s-.973,2.332-2.26,2.332c-1.296,0-2.269-1-2.269-2.332ZM164.655,116.348c0-.837-.531-1.468-1.26-1.468-.738,0-1.27.63-1.27,1.468,0,.846.531,1.467,1.27,1.467.729,0,1.26-.621,1.26-1.467Z"/>
    <path class="uuid-52fef95a-0302-40f6-bb78-6e40c0852c7c" d="M166.517,117.302c0-.81.667-1.323,1.729-1.323.423,0,.819.09,1.215.288v-.504c0-.594-.342-.9-1.035-.9-.378,0-.792.108-1.314.352l-.36-.738c.675-.306,1.269-.459,1.873-.459,1.179,0,1.845.594,1.845,1.639v2.944h-1.008v-.468c-.387.378-.819.549-1.341.549-.945,0-1.603-.567-1.603-1.377ZM168.399,117.959c.405,0,.756-.117,1.062-.378v-.729c-.324-.153-.648-.216-1.035-.216-.585,0-.954.243-.954.648,0,.414.36.675.927.675Z"/>
    <path class="uuid-52fef95a-0302-40f6-bb78-6e40c0852c7c" d="M171.494,116.348c0-1.288.927-2.296,2.106-2.296.513,0,.981.207,1.314.585v-2.494l1.017-.18v6.635h-1.008v-.594c-.324.405-.828.639-1.396.639-1.143,0-2.034-1.017-2.034-2.295ZM174.915,117.293v-1.9c-.261-.306-.648-.486-1.071-.486-.774,0-1.351.612-1.351,1.44,0,.819.576,1.44,1.351,1.44.441,0,.81-.171,1.071-.495Z"/>
    <path class="uuid-52fef95a-0302-40f6-bb78-6e40c0852c7c" d="M176.984,116.348c0-1.324.954-2.332,2.196-2.332,1.233,0,2.134.981,2.134,2.332v.243h-3.331c.099.729.648,1.261,1.351,1.261.423,0,.819-.162,1.071-.423l.666.603c-.549.459-1.098.657-1.782.657-1.296,0-2.305-1.017-2.305-2.34ZM180.351,115.96c-.108-.657-.576-1.116-1.179-1.116-.612,0-1.062.441-1.179,1.116h2.358Z"/>
    <path class="uuid-52fef95a-0302-40f6-bb78-6e40c0852c7c" d="M182.348,114.088h1.017v.972c.252-.684.684-1.053,1.242-1.053.171.009.288.027.441.09v.892c-.162-.063-.369-.108-.558-.108-.495,0-.9.279-1.125.748v2.971h-1.017v-4.51Z"/>
  </g>
  <g>
    <rect class="uuid-c316d7e3-22fa-4f8f-bf85-107170bccc85" x="32.689" y="162.387" width="220.692" height="72.925"/>
    <path class="uuid-f40a256b-39c9-4c65-9a01-e4c8d243045d" d="M252.882,162.887v71.925H33.189v-71.925h219.693M253.882,161.887H32.189v73.925h221.693v-73.925h0Z"/>
  </g>
  <g>
    <path class="uuid-52fef95a-0302-40f6-bb78-6e40c0852c7c" d="M44.478,179.117l.879-1.269c.97.68,1.579.93,2.269.93.739,0,1.189-.3,1.189-.74,0-.41-.24-.61-.919-.729l-1.489-.26c-1.109-.189-1.719-.889-1.719-1.879,0-1.359,1.04-2.208,2.778-2.208,1.08,0,2.149.35,2.869.919l-.87,1.249c-.68-.52-1.349-.77-2.089-.77-.68,0-1.069.28-1.069.66,0,.36.229.54.79.64l1.399.24c1.31.22,1.999.909,1.999,1.979,0,1.37-1.159,2.299-2.988,2.299-1.109,0-2.099-.37-3.028-1.06Z"/>
    <path class="uuid-52fef95a-0302-40f6-bb78-6e40c0852c7c" d="M51.337,177.498c0-1.509,1.119-2.669,2.599-2.669,1.489,0,2.539,1.129,2.539,2.729v.35h-3.548c.15.58.62.969,1.209.969.43,0,.79-.15,1.02-.43l1.069.89c-.669.589-1.299.83-2.169.83-1.519,0-2.718-1.169-2.718-2.668ZM54.975,176.989c-.14-.55-.529-.9-1.049-.9-.51,0-.87.33-1,.9h2.049Z"/>
    <path class="uuid-52fef95a-0302-40f6-bb78-6e40c0852c7c" d="M57.487,174.91h1.619v1.169c.33-.859.79-1.27,1.399-1.27.23.01.34.03.54.13v1.389c-.2-.1-.479-.16-.759-.16-.48,0-.919.25-1.18.64v3.258h-1.619v-5.157Z"/>
    <path class="uuid-52fef95a-0302-40f6-bb78-6e40c0852c7c" d="M61.497,174.91h1.759l1.169,3.238,1.179-3.238h1.669l-2.109,5.157h-1.579l-2.089-5.157Z"/>
    <path class="uuid-52fef95a-0302-40f6-bb78-6e40c0852c7c" d="M67.877,173.21c0-.5.41-.909.91-.909s.909.41.909.909-.41.91-.909.91-.91-.41-.91-.91ZM67.977,174.91h1.619v5.157h-1.619v-5.157Z"/>
    <path class="uuid-52fef95a-0302-40f6-bb78-6e40c0852c7c" d="M70.627,177.498c0-1.509,1.159-2.669,2.668-2.669.85,0,1.629.34,2.149.95l-.99.989c-.33-.39-.66-.56-1.099-.56-.64,0-1.12.55-1.12,1.29s.48,1.289,1.12,1.289c.439,0,.77-.17,1.099-.56l.99.989c-.52.61-1.299.95-2.149.95-1.509,0-2.668-1.16-2.668-2.668Z"/>
    <path class="uuid-52fef95a-0302-40f6-bb78-6e40c0852c7c" d="M75.867,177.498c0-1.509,1.119-2.669,2.599-2.669,1.489,0,2.539,1.129,2.539,2.729v.35h-3.548c.15.58.62.969,1.209.969.43,0,.79-.15,1.02-.43l1.069.89c-.669.589-1.299.83-2.169.83-1.519,0-2.718-1.169-2.718-2.668ZM79.505,176.989c-.14-.55-.529-.9-1.049-.9-.51,0-.87.33-1,.9h2.049Z"/>
    <path class="uuid-52fef95a-0302-40f6-bb78-6e40c0852c7c" d="M84.136,173.071h1.959l2.688,6.996h-1.859l-.58-1.669h-2.559l-.589,1.669h-1.789l2.729-6.996ZM85.885,177.068l-.81-2.318-.819,2.318h1.629Z"/>
    <path class="uuid-52fef95a-0302-40f6-bb78-6e40c0852c7c" d="M88.957,177.498c0-1.509,1.159-2.669,2.668-2.669.85,0,1.629.34,2.149.95l-.99.989c-.33-.39-.66-.56-1.099-.56-.64,0-1.12.55-1.12,1.29s.48,1.289,1.12,1.289c.439,0,.77-.17,1.099-.56l.99.989c-.52.61-1.299.95-2.149.95-1.509,0-2.668-1.16-2.668-2.668Z"/>
    <path class="uuid-52fef95a-0302-40f6-bb78-6e40c0852c7c" d="M94.197,177.498c0-1.509,1.159-2.669,2.668-2.669.85,0,1.629.34,2.149.95l-.99.989c-.33-.39-.66-.56-1.099-.56-.64,0-1.12.55-1.12,1.29s.48,1.289,1.12,1.289c.439,0,.77-.17,1.099-.56l.99.989c-.52.61-1.299.95-2.149.95-1.509,0-2.668-1.16-2.668-2.668Z"/>
    <path class="uuid-52fef95a-0302-40f6-bb78-6e40c0852c7c" d="M99.437,177.498c0-1.52,1.159-2.669,2.688-2.669s2.688,1.149,2.688,2.669-1.159,2.668-2.688,2.668-2.688-1.149-2.688-2.668ZM103.234,177.498c0-.77-.46-1.319-1.109-1.319s-1.109.549-1.109,1.319.459,1.319,1.109,1.319,1.109-.549,1.109-1.319Z"/>
    <path class="uuid-52fef95a-0302-40f6-bb78-6e40c0852c7c" d="M105.807,178.388v-3.478h1.619v3.008c0,.58.34.959.859.959.35,0,.629-.14.859-.43v-3.538h1.619v5.157h-1.619v-.839c-.4.6-.959.919-1.629.919-1,0-1.709-.729-1.709-1.759Z"/>
    <path class="uuid-52fef95a-0302-40f6-bb78-6e40c0852c7c" d="M112.026,174.91h1.619v.839c.4-.6.959-.919,1.629-.919,1,0,1.709.73,1.709,1.759v3.478h-1.619v-3.008c0-.58-.34-.959-.859-.959-.35,0-.63.14-.86.43v3.538h-1.619v-5.157Z"/>
    <path class="uuid-52fef95a-0302-40f6-bb78-6e40c0852c7c" d="M118.736,178.508v-2.349h-.999v-1.25h.999v-1.429l1.619-.33v1.759h1.379v1.25h-1.379v2.029c0,.459.18.62.68.62.19,0,.34-.02.66-.11v1.309c-.3.09-.779.16-1.109.16-1.219,0-1.849-.56-1.849-1.659Z"/>
  </g>
  <rect class="uuid-07ef4488-b1f7-48e8-8ea1-cb054169b852" x="44.287" y="189.646" width="197.551" height="33.53"/>
  <g>
    <path class="uuid-52fef95a-0302-40f6-bb78-6e40c0852c7c" d="M94.631,207.214c0-1.306.99-2.332,2.277-2.332.702,0,1.351.279,1.801.766l-.63.657c-.315-.351-.702-.531-1.134-.531-.729,0-1.296.63-1.296,1.44,0,.819.567,1.44,1.296,1.44.432,0,.819-.18,1.134-.522l.63.648c-.45.486-1.099.765-1.801.765-1.287,0-2.277-1.017-2.277-2.332Z"/>
    <path class="uuid-52fef95a-0302-40f6-bb78-6e40c0852c7c" d="M99.203,207.214c0-1.333.972-2.332,2.269-2.332,1.287,0,2.26,1,2.26,2.332s-.973,2.332-2.26,2.332c-1.296,0-2.269-1-2.269-2.332ZM102.731,207.214c0-.837-.531-1.468-1.26-1.468-.738,0-1.27.63-1.27,1.468,0,.846.531,1.467,1.27,1.467.729,0,1.26-.621,1.26-1.467Z"/>
    <path class="uuid-52fef95a-0302-40f6-bb78-6e40c0852c7c" d="M104.783,204.955h1.017v.738c.342-.531.837-.811,1.422-.811.927,0,1.576.657,1.576,1.612v2.971h-1.026v-2.683c0-.657-.387-1.081-.99-1.081-.414,0-.748.189-.981.549v3.214h-1.017v-4.51Z"/>
    <path class="uuid-52fef95a-0302-40f6-bb78-6e40c0852c7c" d="M110.498,205.765h-.972v-.81h.972v-.774c0-.981.549-1.512,1.558-1.512.252,0,.504.027.675.081v.864c-.225-.045-.36-.063-.54-.063-.468,0-.675.207-.675.648v.756h1.215v.81h-1.215v3.7h-1.018v-3.7Z"/>
    <path class="uuid-52fef95a-0302-40f6-bb78-6e40c0852c7c" d="M113.458,203.415c0-.342.279-.63.63-.63.342,0,.63.288.63.63s-.288.621-.63.621c-.351,0-.63-.279-.63-.621ZM113.575,204.955h1.018v4.51h-1.018v-4.51Z"/>
    <path class="uuid-52fef95a-0302-40f6-bb78-6e40c0852c7c" d="M116.149,210.995l.351-.747c.531.261.963.378,1.414.378.756,0,1.152-.342,1.152-.999v-.765c-.324.396-.819.63-1.387.63-1.143,0-2.034-1.017-2.034-2.295s.927-2.278,2.106-2.278c.522,0,.99.207,1.323.603v-.567h1.008v4.672c0,1.161-.756,1.81-2.125,1.81-.648,0-1.278-.162-1.81-.441ZM119.066,208.15v-1.891c-.261-.306-.648-.486-1.071-.486-.774,0-1.351.603-1.351,1.431,0,.819.576,1.44,1.351,1.44.441,0,.81-.18,1.071-.495Z"/>
    <path class="uuid-52fef95a-0302-40f6-bb78-6e40c0852c7c" d="M121.333,204.955h1.017v.711c.333-.513.783-.783,1.333-.783.621,0,1.098.333,1.333.864.351-.567.855-.864,1.494-.864.874,0,1.477.675,1.477,1.63v2.953h-1.017v-2.728c0-.63-.352-1.035-.91-1.035-.369,0-.675.171-.9.54.009.09.018.18.018.271v2.953h-1.026v-2.728c0-.63-.351-1.035-.91-1.035-.369,0-.666.171-.891.522v3.241h-1.017v-4.51Z"/>
    <path class="uuid-52fef95a-0302-40f6-bb78-6e40c0852c7c" d="M128.983,208.168c0-.81.667-1.323,1.729-1.323.423,0,.819.09,1.215.288v-.504c0-.594-.342-.9-1.035-.9-.378,0-.792.108-1.314.351l-.36-.738c.675-.306,1.269-.459,1.873-.459,1.179,0,1.845.594,1.845,1.639v2.944h-1.008v-.468c-.387.378-.819.549-1.341.549-.945,0-1.603-.567-1.603-1.377ZM130.865,208.826c.405,0,.756-.117,1.062-.378v-.729c-.324-.153-.648-.216-1.035-.216-.585,0-.954.243-.954.648,0,.414.36.675.927.675Z"/>
    <path class="uuid-52fef95a-0302-40f6-bb78-6e40c0852c7c" d="M134.167,204.955h.999v.639c.324-.423.828-.675,1.404-.675,1.144,0,2.035,1.018,2.035,2.296,0,1.287-.918,2.295-2.098,2.295-.531,0-.999-.198-1.323-.576v2.413h-1.017v-6.392ZM137.606,207.214c0-.819-.576-1.44-1.341-1.44-.45,0-.819.18-1.081.504v1.882c.261.315.648.504,1.081.504.774,0,1.341-.621,1.341-1.449Z"/>
    <path class="uuid-52fef95a-0302-40f6-bb78-6e40c0852c7c" d="M139.63,206.476h3.142v.864h-3.142v-.864Z"/>
    <path class="uuid-52fef95a-0302-40f6-bb78-6e40c0852c7c" d="M143.914,204.955h1.017v.972c.252-.684.684-1.053,1.242-1.053.171.009.288.027.441.09v.892c-.162-.063-.369-.108-.558-.108-.495,0-.9.279-1.125.748v2.971h-1.017v-4.51Z"/>
    <path class="uuid-52fef95a-0302-40f6-bb78-6e40c0852c7c" d="M147.037,207.214c0-1.324.954-2.332,2.196-2.332,1.233,0,2.134.981,2.134,2.332v.243h-3.331c.099.729.648,1.261,1.351,1.261.423,0,.819-.162,1.071-.423l.666.603c-.549.459-1.098.657-1.782.657-1.296,0-2.305-1.017-2.305-2.34ZM150.404,206.827c-.108-.657-.576-1.116-1.179-1.116-.612,0-1.062.441-1.179,1.116h2.358Z"/>
    <path class="uuid-52fef95a-0302-40f6-bb78-6e40c0852c7c" d="M152.401,203.01l1.017-.18v6.635h-1.017v-6.455Z"/>
    <path class="uuid-52fef95a-0302-40f6-bb78-6e40c0852c7c" d="M154.462,207.214c0-1.333.972-2.332,2.269-2.332,1.287,0,2.26,1,2.26,2.332s-.973,2.332-2.26,2.332c-1.296,0-2.269-1-2.269-2.332ZM157.991,207.214c0-.837-.531-1.468-1.26-1.468-.738,0-1.27.63-1.27,1.468,0,.846.531,1.467,1.27,1.467.729,0,1.26-.621,1.26-1.467Z"/>
    <path class="uuid-52fef95a-0302-40f6-bb78-6e40c0852c7c" d="M159.853,208.168c0-.81.667-1.323,1.729-1.323.423,0,.819.09,1.215.288v-.504c0-.594-.342-.9-1.035-.9-.378,0-.792.108-1.314.351l-.36-.738c.675-.306,1.269-.459,1.873-.459,1.179,0,1.845.594,1.845,1.639v2.944h-1.008v-.468c-.387.378-.819.549-1.341.549-.945,0-1.603-.567-1.603-1.377ZM161.734,208.826c.405,0,.756-.117,1.062-.378v-.729c-.324-.153-.648-.216-1.035-.216-.585,0-.954.243-.954.648,0,.414.36.675.927.675Z"/>
    <path class="uuid-52fef95a-0302-40f6-bb78-6e40c0852c7c" d="M164.83,207.214c0-1.288.927-2.296,2.106-2.296.513,0,.981.207,1.314.585v-2.494l1.017-.18v6.635h-1.008v-.594c-.324.405-.828.639-1.396.639-1.143,0-2.034-1.017-2.034-2.295ZM168.25,208.16v-1.9c-.261-.306-.648-.486-1.071-.486-.774,0-1.351.612-1.351,1.44,0,.819.576,1.44,1.351,1.44.441,0,.81-.171,1.071-.495Z"/>
    <path class="uuid-52fef95a-0302-40f6-bb78-6e40c0852c7c" d="M170.319,207.214c0-1.324.954-2.332,2.196-2.332,1.233,0,2.134.981,2.134,2.332v.243h-3.331c.099.729.648,1.261,1.351,1.261.423,0,.819-.162,1.071-.423l.666.603c-.549.459-1.098.657-1.782.657-1.296,0-2.305-1.017-2.305-2.34ZM173.686,206.827c-.108-.657-.576-1.116-1.179-1.116-.612,0-1.062.441-1.179,1.116h2.358Z"/>
    <path class="uuid-52fef95a-0302-40f6-bb78-6e40c0852c7c" d="M175.684,204.955h1.017v.972c.252-.684.684-1.053,1.242-1.053.171.009.288.027.441.09v.892c-.162-.063-.369-.108-.558-.108-.495,0-.9.279-1.125.748v2.971h-1.017v-4.51Z"/>
    <path class="uuid-52fef95a-0302-40f6-bb78-6e40c0852c7c" d="M178.959,206.476h3.142v.864h-3.142v-.864Z"/>
    <path class="uuid-52fef95a-0302-40f6-bb78-6e40c0852c7c" d="M182.838,208.943l.477-.675c.594.369.99.513,1.45.513.54,0,.909-.252.909-.612,0-.279-.189-.423-.63-.513l-.792-.135c-.882-.162-1.306-.567-1.306-1.242,0-.846.693-1.396,1.747-1.396.63,0,1.197.18,1.773.541l-.477.675c-.459-.297-.9-.432-1.359-.432-.468,0-.774.198-.774.522,0,.288.162.414.63.495l.801.153c.9.162,1.333.576,1.333,1.251,0,.828-.792,1.467-1.846,1.467-.774,0-1.458-.216-1.936-.612Z"/>
    <path class="uuid-52fef95a-0302-40f6-bb78-6e40c0852c7c" d="M187.365,208.168c0-.81.667-1.323,1.729-1.323.423,0,.819.09,1.215.288v-.504c0-.594-.342-.9-1.035-.9-.378,0-.792.108-1.314.351l-.36-.738c.675-.306,1.269-.459,1.873-.459,1.179,0,1.845.594,1.845,1.639v2.944h-1.008v-.468c-.387.378-.819.549-1.341.549-.945,0-1.603-.567-1.603-1.377ZM189.247,208.826c.405,0,.756-.117,1.062-.378v-.729c-.324-.153-.648-.216-1.035-.216-.585,0-.954.243-.954.648,0,.414.36.675.927.675Z"/>
  </g>
  <g>
    <rect class="uuid-c316d7e3-22fa-4f8f-bf85-107170bccc85" x="341.414" y="162.305" width="220.692" height="119.121"/>
    <path class="uuid-f40a256b-39c9-4c65-9a01-e4c8d243045d" d="M561.606,162.805v118.121h-219.693v-118.121h219.693M562.606,161.805h-221.693v120.121h221.693v-120.121h0Z"/>
  </g>
  <rect class="uuid-07ef4488-b1f7-48e8-8ea1-cb054169b852" x="351.659" y="190.282" width="200.202" height="36.159"/>
  <g>
    <path class="uuid-52fef95a-0302-40f6-bb78-6e40c0852c7c" d="M352.438,173.071h3.398c1.439,0,2.469.929,2.469,2.229,0,.89-.51,1.609-1.3,1.959l1.47,2.809h-1.919l-1.27-2.568h-1.129v2.568h-1.72v-6.996ZM355.676,176.149c.53,0,.89-.33.89-.83s-.359-.83-.89-.83h-1.519v1.659h1.519Z"/>
    <path class="uuid-52fef95a-0302-40f6-bb78-6e40c0852c7c" d="M358.838,177.498c0-1.52,1.16-2.669,2.688-2.669s2.688,1.149,2.688,2.669-1.159,2.668-2.688,2.668-2.688-1.149-2.688-2.668ZM362.636,177.498c0-.77-.459-1.319-1.109-1.319s-1.109.549-1.109,1.319.46,1.319,1.109,1.319,1.109-.549,1.109-1.319Z"/>
    <path class="uuid-52fef95a-0302-40f6-bb78-6e40c0852c7c" d="M365.249,172.951l1.619-.25v7.366h-1.619v-7.116Z"/>
    <path class="uuid-52fef95a-0302-40f6-bb78-6e40c0852c7c" d="M367.898,177.498c0-1.509,1.12-2.669,2.599-2.669,1.489,0,2.539,1.129,2.539,2.729v.35h-3.548c.149.58.619.969,1.209.969.43,0,.79-.15,1.02-.43l1.069.89c-.67.589-1.299.83-2.169.83-1.519,0-2.719-1.169-2.719-2.668ZM371.537,176.989c-.141-.55-.53-.9-1.05-.9-.51,0-.869.33-.999.9h2.049Z"/>
    <path class="uuid-52fef95a-0302-40f6-bb78-6e40c0852c7c" d="M374.198,173.071h3.458c1.359,0,2.329.799,2.329,1.909,0,.65-.41,1.2-1.02,1.52.729.29,1.22.889,1.22,1.609,0,1.149-.979,1.959-2.369,1.959h-3.618v-6.996ZM377.457,175.879c.479,0,.799-.29.799-.72,0-.44-.31-.72-.799-.72h-1.539v1.439h1.539ZM377.596,178.698c.52,0,.85-.3.85-.77s-.33-.77-.85-.77h-1.679v1.539h1.679Z"/>
    <path class="uuid-52fef95a-0302-40f6-bb78-6e40c0852c7c" d="M381.238,173.21c0-.5.41-.909.91-.909s.909.41.909.909-.41.91-.909.91-.91-.41-.91-.91ZM381.338,174.91h1.619v5.157h-1.619v-5.157Z"/>
    <path class="uuid-52fef95a-0302-40f6-bb78-6e40c0852c7c" d="M384.218,174.91h1.619v.84c.399-.6.959-.92,1.629-.92.999,0,1.709.73,1.709,1.759v3.478h-1.619v-3.008c0-.58-.34-.959-.859-.959-.35,0-.63.14-.859.43v3.538h-1.619v-5.157Z"/>
    <path class="uuid-52fef95a-0302-40f6-bb78-6e40c0852c7c" d="M390.167,177.478c0-1.449,1.06-2.599,2.399-2.599.539,0,1.029.22,1.379.62v-2.549l1.619-.25v7.366h-1.6v-.669c-.34.43-.909.699-1.519.699-1.27,0-2.279-1.169-2.279-2.618ZM393.946,178.348v-1.739c-.25-.26-.59-.4-.96-.4-.709,0-1.229.54-1.229,1.279,0,.729.529,1.27,1.229,1.27.391,0,.71-.14.96-.41Z"/>
    <path class="uuid-52fef95a-0302-40f6-bb78-6e40c0852c7c" d="M396.727,173.21c0-.5.41-.909.91-.909s.909.41.909.909-.41.91-.909.91-.91-.41-.91-.91ZM396.828,174.91h1.619v5.157h-1.619v-5.157Z"/>
    <path class="uuid-52fef95a-0302-40f6-bb78-6e40c0852c7c" d="M399.708,174.91h1.619v.84c.399-.6.959-.92,1.629-.92.999,0,1.709.73,1.709,1.759v3.478h-1.619v-3.008c0-.58-.34-.959-.859-.959-.35,0-.63.14-.859.43v3.538h-1.619v-5.157Z"/>
    <path class="uuid-52fef95a-0302-40f6-bb78-6e40c0852c7c" d="M406.188,181.796l.5-1.169c.569.27,1.079.4,1.579.4.77,0,1.169-.32,1.169-.95v-.699c-.34.419-.899.68-1.499.68-1.27,0-2.279-1.16-2.279-2.599s1.06-2.579,2.399-2.579c.55,0,1.049.23,1.398.649v-.62h1.59v5.187c0,1.39-.96,2.159-2.719,2.159-.779,0-1.52-.16-2.139-.46ZM409.436,178.328v-1.719c-.25-.26-.59-.4-.96-.4-.709,0-1.229.53-1.229,1.259s.529,1.27,1.229,1.27c.391,0,.71-.14.96-.41Z"/>
  </g>
  <g>
    <path class="uuid-52fef95a-0302-40f6-bb78-6e40c0852c7c" d="M402.953,204.942l.478-.675c.595.369.99.513,1.449.513.54,0,.909-.252.909-.612,0-.279-.188-.423-.63-.513l-.792-.135c-.883-.162-1.306-.567-1.306-1.243,0-.846.693-1.396,1.747-1.396.63,0,1.197.18,1.773.541l-.478.675c-.459-.297-.9-.432-1.359-.432-.468,0-.774.198-.774.522,0,.288.162.414.631.495l.801.153c.9.162,1.332.576,1.332,1.251,0,.828-.792,1.467-1.846,1.467-.773,0-1.458-.216-1.936-.612Z"/>
    <path class="uuid-52fef95a-0302-40f6-bb78-6e40c0852c7c" d="M407.399,207.373v-.882c.117.027.261.036.396.036.359,0,.576-.162.729-.513l.207-.504-1.701-4.555h1.125l1.152,3.34,1.252-3.34h1.116l-2.161,5.293c-.351.873-.765,1.188-1.611,1.188-.144,0-.324-.018-.504-.063Z"/>
    <path class="uuid-52fef95a-0302-40f6-bb78-6e40c0852c7c" d="M412.006,204.942l.478-.675c.594.369.99.513,1.449.513.54,0,.909-.252.909-.612,0-.279-.188-.423-.63-.513l-.792-.135c-.883-.162-1.306-.567-1.306-1.243,0-.846.693-1.396,1.747-1.396.63,0,1.197.18,1.773.541l-.478.675c-.459-.297-.9-.432-1.359-.432-.468,0-.774.198-.774.522,0,.288.162.414.63.495l.802.153c.9.162,1.332.576,1.332,1.251,0,.828-.792,1.467-1.845,1.467-.774,0-1.459-.216-1.937-.612Z"/>
    <path class="uuid-52fef95a-0302-40f6-bb78-6e40c0852c7c" d="M417.191,204.294v-2.53h-.9v-.81h.9v-1.243l1.018-.216v1.458h1.251v.81h-1.251v2.305c0,.441.171.612.63.612.198,0,.342-.027.612-.108v.855c-.262.081-.604.126-.873.126-.91,0-1.387-.432-1.387-1.26Z"/>
    <path class="uuid-52fef95a-0302-40f6-bb78-6e40c0852c7c" d="M420.08,203.214c0-1.324.954-2.332,2.197-2.332,1.233,0,2.133.981,2.133,2.332v.243h-3.33c.099.729.647,1.261,1.35,1.261.424,0,.819-.162,1.071-.423l.667.603c-.55.459-1.099.657-1.783.657-1.296,0-2.305-1.017-2.305-2.34ZM423.447,202.827c-.108-.657-.576-1.116-1.18-1.116-.611,0-1.062.441-1.179,1.116h2.358Z"/>
    <path class="uuid-52fef95a-0302-40f6-bb78-6e40c0852c7c" d="M425.444,200.954h1.018v.711c.333-.513.783-.783,1.332-.783.622,0,1.099.333,1.333.864.351-.567.855-.864,1.494-.864.873,0,1.477.675,1.477,1.629v2.953h-1.018v-2.728c0-.63-.351-1.035-.909-1.035-.369,0-.675.171-.9.54.009.09.019.18.019.27v2.953h-1.026v-2.728c0-.63-.352-1.035-.909-1.035-.369,0-.666.171-.892.522v3.241h-1.018v-4.51Z"/>
    <path class="uuid-52fef95a-0302-40f6-bb78-6e40c0852c7c" d="M433.193,201.521c0-.36.279-.657.63-.657s.631.297.631.657-.279.648-.631.648-.63-.288-.63-.648ZM433.193,204.897c0-.36.279-.657.63-.657s.631.297.631.657-.279.648-.631.648-.63-.288-.63-.648Z"/>
    <path class="uuid-52fef95a-0302-40f6-bb78-6e40c0852c7c" d="M435.172,204.942l.478-.675c.594.369.99.513,1.449.513.54,0,.909-.252.909-.612,0-.279-.188-.423-.63-.513l-.792-.135c-.883-.162-1.306-.567-1.306-1.243,0-.846.693-1.396,1.747-1.396.63,0,1.197.18,1.773.541l-.478.675c-.459-.297-.9-.432-1.359-.432-.468,0-.774.198-.774.522,0,.288.162.414.63.495l.802.153c.9.162,1.332.576,1.332,1.251,0,.828-.792,1.467-1.845,1.467-.774,0-1.459-.216-1.937-.612Z"/>
    <path class="uuid-52fef95a-0302-40f6-bb78-6e40c0852c7c" d="M439.726,203.214c0-1.324.954-2.332,2.197-2.332,1.233,0,2.133.981,2.133,2.332v.243h-3.33c.099.729.647,1.261,1.35,1.261.424,0,.819-.162,1.071-.423l.667.603c-.55.459-1.099.657-1.783.657-1.296,0-2.305-1.017-2.305-2.34ZM443.093,202.827c-.108-.657-.576-1.116-1.18-1.116-.611,0-1.062.441-1.179,1.116h2.358Z"/>
    <path class="uuid-52fef95a-0302-40f6-bb78-6e40c0852c7c" d="M445.09,200.954h1.018v.972c.252-.684.685-1.053,1.242-1.053.171.009.288.027.441.09v.892c-.162-.063-.369-.108-.559-.108-.495,0-.899.279-1.125.748v2.971h-1.018v-4.51Z"/>
    <path class="uuid-52fef95a-0302-40f6-bb78-6e40c0852c7c" d="M448.231,200.954h1.107l1.261,3.277,1.251-3.277h1.062l-1.854,4.51h-.99l-1.837-4.51Z"/>
    <path class="uuid-52fef95a-0302-40f6-bb78-6e40c0852c7c" d="M453.514,199.414c0-.342.279-.63.631-.63.342,0,.63.288.63.63s-.288.621-.63.621c-.352,0-.631-.279-.631-.621ZM453.631,200.954h1.018v4.51h-1.018v-4.51Z"/>
    <path class="uuid-52fef95a-0302-40f6-bb78-6e40c0852c7c" d="M455.701,203.214c0-1.306.99-2.332,2.278-2.332.702,0,1.35.279,1.8.765l-.63.657c-.315-.351-.702-.531-1.134-.531-.729,0-1.297.63-1.297,1.44,0,.819.567,1.44,1.297,1.44.432,0,.818-.18,1.134-.522l.63.648c-.45.486-1.098.765-1.8.765-1.288,0-2.278-1.018-2.278-2.332Z"/>
    <path class="uuid-52fef95a-0302-40f6-bb78-6e40c0852c7c" d="M460.273,203.214c0-1.324.954-2.332,2.197-2.332,1.233,0,2.133.981,2.133,2.332v.243h-3.33c.099.729.647,1.261,1.35,1.261.424,0,.819-.162,1.071-.423l.667.603c-.55.459-1.099.657-1.783.657-1.296,0-2.305-1.017-2.305-2.34ZM463.64,202.827c-.108-.657-.576-1.116-1.18-1.116-.611,0-1.062.441-1.179,1.116h2.358Z"/>
    <path class="uuid-52fef95a-0302-40f6-bb78-6e40c0852c7c" d="M465.359,204.168c0-.81.666-1.323,1.729-1.323.423,0,.819.09,1.215.288v-.504c0-.594-.342-.9-1.035-.9-.378,0-.792.108-1.314.352l-.36-.738c.676-.306,1.27-.459,1.873-.459,1.179,0,1.846.594,1.846,1.639v2.944h-1.009v-.468c-.387.378-.819.549-1.341.549-.945,0-1.603-.567-1.603-1.377ZM467.24,204.825c.405,0,.757-.117,1.062-.378v-.729c-.324-.153-.648-.216-1.035-.216-.585,0-.954.243-.954.648,0,.414.36.675.927.675Z"/>
    <path class="uuid-52fef95a-0302-40f6-bb78-6e40c0852c7c" d="M470.335,203.214c0-1.306.99-2.332,2.278-2.332.702,0,1.35.279,1.8.765l-.63.657c-.315-.351-.702-.531-1.134-.531-.729,0-1.297.63-1.297,1.44,0,.819.567,1.44,1.297,1.44.432,0,.818-.18,1.134-.522l.63.648c-.45.486-1.098.765-1.8.765-1.288,0-2.278-1.018-2.278-2.332Z"/>
    <path class="uuid-52fef95a-0302-40f6-bb78-6e40c0852c7c" d="M474.907,203.214c0-1.306.99-2.332,2.278-2.332.702,0,1.35.279,1.8.765l-.63.657c-.315-.351-.702-.531-1.135-.531-.729,0-1.296.63-1.296,1.44,0,.819.567,1.44,1.296,1.44.433,0,.819-.18,1.135-.522l.63.648c-.45.486-1.098.765-1.8.765-1.288,0-2.278-1.018-2.278-2.332Z"/>
    <path class="uuid-52fef95a-0302-40f6-bb78-6e40c0852c7c" d="M479.479,203.214c0-1.333.973-2.332,2.269-2.332,1.288,0,2.26,1,2.26,2.332s-.972,2.332-2.26,2.332c-1.296,0-2.269-1-2.269-2.332ZM483.008,203.214c0-.837-.531-1.468-1.261-1.468-.738,0-1.269.63-1.269,1.468,0,.846.53,1.467,1.269,1.467.729,0,1.261-.621,1.261-1.467Z"/>
    <path class="uuid-52fef95a-0302-40f6-bb78-6e40c0852c7c" d="M485.023,203.925v-2.971h1.026v2.674c0,.666.388,1.089.99,1.089.405,0,.748-.18.981-.541v-3.223h1.018v4.51h-1.018v-.729c-.342.531-.828.801-1.432.801-.918,0-1.566-.667-1.566-1.612Z"/>
    <path class="uuid-52fef95a-0302-40f6-bb78-6e40c0852c7c" d="M490.296,200.954h1.018v.738c.342-.531.837-.811,1.423-.811.927,0,1.575.657,1.575,1.612v2.971h-1.026v-2.683c0-.657-.387-1.081-.99-1.081-.414,0-.747.189-.981.549v3.214h-1.018v-4.51Z"/>
    <path class="uuid-52fef95a-0302-40f6-bb78-6e40c0852c7c" d="M495.958,204.294v-2.53h-.9v-.81h.9v-1.243l1.018-.216v1.458h1.251v.81h-1.251v2.305c0,.441.171.612.63.612.198,0,.342-.027.612-.108v.855c-.262.081-.604.126-.873.126-.91,0-1.387-.432-1.387-1.26Z"/>
    <path class="uuid-52fef95a-0302-40f6-bb78-6e40c0852c7c" d="M499.036,201.521c0-.36.279-.657.63-.657s.631.297.631.657-.279.648-.631.648-.63-.288-.63-.648ZM499.036,204.897c0-.36.279-.657.63-.657s.631.297.631.657-.279.648-.631.648-.63-.288-.63-.648Z"/>
    <path class="uuid-52fef95a-0302-40f6-bb78-6e40c0852c7c" d="M360.01,214.014c0-1.306.99-2.332,2.278-2.332.702,0,1.35.279,1.8.765l-.63.657c-.315-.351-.702-.531-1.135-.531-.729,0-1.296.63-1.296,1.44,0,.819.567,1.44,1.296,1.44.433,0,.819-.18,1.135-.522l.63.648c-.45.486-1.098.765-1.8.765-1.288,0-2.278-1.018-2.278-2.332Z"/>
    <path class="uuid-52fef95a-0302-40f6-bb78-6e40c0852c7c" d="M364.583,214.014c0-1.333.973-2.332,2.269-2.332,1.288,0,2.26,1,2.26,2.332s-.972,2.332-2.26,2.332c-1.296,0-2.269-1-2.269-2.332ZM368.112,214.014c0-.837-.531-1.468-1.261-1.468-.738,0-1.269.63-1.269,1.468,0,.846.53,1.467,1.269,1.467.729,0,1.261-.621,1.261-1.467Z"/>
    <path class="uuid-52fef95a-0302-40f6-bb78-6e40c0852c7c" d="M370.163,211.754h1.018v.738c.342-.531.837-.811,1.423-.811.927,0,1.575.657,1.575,1.612v2.971h-1.026v-2.683c0-.657-.387-1.081-.99-1.081-.414,0-.747.189-.981.549v3.214h-1.018v-4.51Z"/>
    <path class="uuid-52fef95a-0302-40f6-bb78-6e40c0852c7c" d="M375.877,212.564h-.972v-.81h.972v-.774c0-.981.55-1.512,1.558-1.512.252,0,.504.027.675.081v.864c-.225-.045-.359-.063-.54-.063-.468,0-.675.207-.675.648v.756h1.215v.81h-1.215v3.7h-1.018v-3.7Z"/>
    <path class="uuid-52fef95a-0302-40f6-bb78-6e40c0852c7c" d="M378.838,210.214c0-.342.279-.63.631-.63.342,0,.63.288.63.63s-.288.621-.63.621c-.352,0-.631-.279-.631-.621ZM378.956,211.754h1.018v4.51h-1.018v-4.51Z"/>
    <path class="uuid-52fef95a-0302-40f6-bb78-6e40c0852c7c" d="M381.53,217.794l.351-.747c.531.261.963.378,1.413.378.757,0,1.152-.342,1.152-.999v-.765c-.323.396-.819.63-1.386.63-1.144,0-2.035-1.017-2.035-2.295s.928-2.278,2.106-2.278c.522,0,.991.207,1.324.603v-.567h1.008v4.672c0,1.161-.756,1.81-2.124,1.81-.648,0-1.279-.162-1.81-.441ZM384.446,214.95v-1.891c-.261-.306-.647-.486-1.071-.486-.773,0-1.35.603-1.35,1.431,0,.819.576,1.44,1.35,1.44.441,0,.811-.18,1.071-.495Z"/>
    <path class="uuid-52fef95a-0302-40f6-bb78-6e40c0852c7c" d="M386.712,211.754h1.018v.711c.333-.513.783-.783,1.332-.783.621,0,1.099.333,1.333.864.351-.567.855-.864,1.494-.864.873,0,1.477.675,1.477,1.629v2.953h-1.018v-2.728c0-.63-.351-1.035-.909-1.035-.369,0-.675.171-.9.54.01.09.019.18.019.27v2.953h-1.026v-2.728c0-.63-.352-1.035-.909-1.035-.369,0-.667.171-.892.522v3.241h-1.018v-4.51Z"/>
    <path class="uuid-52fef95a-0302-40f6-bb78-6e40c0852c7c" d="M394.364,214.968c0-.81.666-1.323,1.729-1.323.423,0,.819.09,1.215.288v-.504c0-.594-.342-.9-1.035-.9-.378,0-.792.108-1.314.352l-.36-.738c.676-.306,1.27-.459,1.873-.459,1.179,0,1.846.594,1.846,1.639v2.944h-1.009v-.468c-.387.378-.819.549-1.341.549-.945,0-1.603-.567-1.603-1.377ZM396.245,215.625c.405,0,.757-.117,1.062-.378v-.729c-.324-.153-.648-.216-1.035-.216-.585,0-.954.243-.954.648,0,.414.36.675.927.675Z"/>
    <path class="uuid-52fef95a-0302-40f6-bb78-6e40c0852c7c" d="M399.546,211.754h1v.639c.323-.423.828-.675,1.404-.675,1.143,0,2.034,1.017,2.034,2.296,0,1.287-.918,2.295-2.098,2.295-.531,0-.999-.198-1.323-.576v2.413h-1.018v-6.392ZM402.986,214.014c0-.819-.576-1.44-1.342-1.44-.45,0-.819.18-1.08.504v1.882c.261.315.648.504,1.08.504.774,0,1.342-.621,1.342-1.449Z"/>
    <path class="uuid-52fef95a-0302-40f6-bb78-6e40c0852c7c" d="M405.009,213.275h3.143v.864h-3.143v-.864Z"/>
    <path class="uuid-52fef95a-0302-40f6-bb78-6e40c0852c7c" d="M409.293,211.754h1.018v.972c.252-.684.685-1.053,1.242-1.053.171.009.288.027.441.09v.892c-.162-.063-.369-.108-.559-.108-.495,0-.899.279-1.125.748v2.971h-1.018v-4.51Z"/>
    <path class="uuid-52fef95a-0302-40f6-bb78-6e40c0852c7c" d="M412.417,214.014c0-1.324.954-2.332,2.197-2.332,1.233,0,2.134.981,2.134,2.332v.243h-3.331c.099.729.647,1.261,1.35,1.261.424,0,.819-.162,1.071-.423l.667.603c-.55.459-1.099.657-1.783.657-1.296,0-2.305-1.017-2.305-2.34ZM415.784,213.626c-.108-.657-.576-1.116-1.18-1.116-.611,0-1.062.441-1.179,1.116h2.358Z"/>
    <path class="uuid-52fef95a-0302-40f6-bb78-6e40c0852c7c" d="M417.781,209.809l1.018-.18v6.635h-1.018v-6.455Z"/>
    <path class="uuid-52fef95a-0302-40f6-bb78-6e40c0852c7c" d="M419.841,214.014c0-1.333.973-2.332,2.269-2.332,1.288,0,2.26,1,2.26,2.332s-.972,2.332-2.26,2.332c-1.296,0-2.269-1-2.269-2.332ZM423.371,214.014c0-.837-.531-1.468-1.261-1.468-.738,0-1.269.63-1.269,1.468,0,.846.53,1.467,1.269,1.467.729,0,1.261-.621,1.261-1.467Z"/>
    <path class="uuid-52fef95a-0302-40f6-bb78-6e40c0852c7c" d="M425.233,214.968c0-.81.666-1.323,1.729-1.323.423,0,.819.09,1.215.288v-.504c0-.594-.342-.9-1.035-.9-.378,0-.792.108-1.314.352l-.36-.738c.676-.306,1.27-.459,1.873-.459,1.179,0,1.846.594,1.846,1.639v2.944h-1.009v-.468c-.387.378-.819.549-1.341.549-.945,0-1.603-.567-1.603-1.377ZM427.114,215.625c.405,0,.757-.117,1.062-.378v-.729c-.324-.153-.648-.216-1.035-.216-.585,0-.954.243-.954.648,0,.414.36.675.927.675Z"/>
    <path class="uuid-52fef95a-0302-40f6-bb78-6e40c0852c7c" d="M430.209,214.014c0-1.288.928-2.296,2.106-2.296.514,0,.981.207,1.314.585v-2.494l1.018-.18v6.635h-1.008v-.594c-.324.405-.828.639-1.396.639-1.144,0-2.035-1.017-2.035-2.295ZM433.63,214.959v-1.9c-.261-.306-.647-.486-1.071-.486-.773,0-1.35.612-1.35,1.44,0,.819.576,1.44,1.35,1.44.441,0,.811-.171,1.071-.495Z"/>
    <path class="uuid-52fef95a-0302-40f6-bb78-6e40c0852c7c" d="M435.699,214.014c0-1.324.954-2.332,2.197-2.332,1.233,0,2.133.981,2.133,2.332v.243h-3.33c.099.729.647,1.261,1.35,1.261.424,0,.819-.162,1.071-.423l.667.603c-.55.459-1.099.657-1.783.657-1.296,0-2.305-1.017-2.305-2.34ZM439.066,213.626c-.108-.657-.576-1.116-1.18-1.116-.611,0-1.062.441-1.179,1.116h2.358Z"/>
    <path class="uuid-52fef95a-0302-40f6-bb78-6e40c0852c7c" d="M441.063,211.754h1.018v.972c.252-.684.685-1.053,1.242-1.053.171.009.288.027.441.09v.892c-.162-.063-.369-.108-.559-.108-.495,0-.899.279-1.125.748v2.971h-1.018v-4.51Z"/>
    <path class="uuid-52fef95a-0302-40f6-bb78-6e40c0852c7c" d="M444.51,212.321c0-.36.279-.657.63-.657s.631.297.631.657-.279.648-.631.648-.63-.288-.63-.648ZM444.51,215.697c0-.36.279-.657.63-.657s.631.297.631.657-.279.648-.631.648-.63-.288-.63-.648Z"/>
    <path class="uuid-52fef95a-0302-40f6-bb78-6e40c0852c7c" d="M446.643,214.014c0-1.306.99-2.332,2.278-2.332.702,0,1.35.279,1.8.765l-.63.657c-.315-.351-.702-.531-1.135-.531-.729,0-1.296.63-1.296,1.44,0,.819.567,1.44,1.296,1.44.433,0,.819-.18,1.135-.522l.63.648c-.45.486-1.098.765-1.8.765-1.288,0-2.278-1.018-2.278-2.332Z"/>
    <path class="uuid-52fef95a-0302-40f6-bb78-6e40c0852c7c" d="M451.214,214.014c0-1.333.973-2.332,2.269-2.332,1.288,0,2.26,1,2.26,2.332s-.972,2.332-2.26,2.332c-1.296,0-2.269-1-2.269-2.332ZM454.744,214.014c0-.837-.531-1.468-1.261-1.468-.738,0-1.269.63-1.269,1.468,0,.846.53,1.467,1.269,1.467.729,0,1.261-.621,1.261-1.467Z"/>
    <path class="uuid-52fef95a-0302-40f6-bb78-6e40c0852c7c" d="M456.794,211.754h1.018v.738c.342-.531.837-.811,1.423-.811.927,0,1.575.657,1.575,1.612v2.971h-1.026v-2.683c0-.657-.387-1.081-.99-1.081-.414,0-.747.189-.981.549v3.214h-1.018v-4.51Z"/>
    <path class="uuid-52fef95a-0302-40f6-bb78-6e40c0852c7c" d="M462.51,212.564h-.972v-.81h.972v-.774c0-.981.55-1.512,1.558-1.512.252,0,.504.027.675.081v.864c-.225-.045-.359-.063-.54-.063-.468,0-.675.207-.675.648v.756h1.215v.81h-1.215v3.7h-1.018v-3.7Z"/>
    <path class="uuid-52fef95a-0302-40f6-bb78-6e40c0852c7c" d="M465.47,210.214c0-.342.279-.63.631-.63.342,0,.63.288.63.63s-.288.621-.63.621c-.352,0-.631-.279-.631-.621ZM465.587,211.754h1.018v4.51h-1.018v-4.51Z"/>
    <path class="uuid-52fef95a-0302-40f6-bb78-6e40c0852c7c" d="M468.163,217.794l.351-.747c.531.261.963.378,1.413.378.757,0,1.152-.342,1.152-.999v-.765c-.323.396-.819.63-1.386.63-1.144,0-2.035-1.017-2.035-2.295s.928-2.278,2.106-2.278c.522,0,.991.207,1.324.603v-.567h1.008v4.672c0,1.161-.756,1.81-2.124,1.81-.648,0-1.279-.162-1.81-.441ZM471.079,214.95v-1.891c-.261-.306-.647-.486-1.071-.486-.773,0-1.35.603-1.35,1.431,0,.819.576,1.44,1.35,1.44.441,0,.811-.18,1.071-.495Z"/>
    <path class="uuid-52fef95a-0302-40f6-bb78-6e40c0852c7c" d="M473.345,211.754h1.018v.711c.333-.513.783-.783,1.332-.783.621,0,1.099.333,1.333.864.351-.567.855-.864,1.494-.864.873,0,1.477.675,1.477,1.629v2.953h-1.018v-2.728c0-.63-.351-1.035-.909-1.035-.369,0-.675.171-.9.54.01.09.019.18.019.27v2.953h-1.026v-2.728c0-.63-.352-1.035-.909-1.035-.369,0-.667.171-.892.522v3.241h-1.018v-4.51Z"/>
    <path class="uuid-52fef95a-0302-40f6-bb78-6e40c0852c7c" d="M480.996,214.968c0-.81.666-1.323,1.729-1.323.423,0,.819.09,1.215.288v-.504c0-.594-.342-.9-1.035-.9-.378,0-.792.108-1.314.352l-.36-.738c.676-.306,1.27-.459,1.873-.459,1.179,0,1.846.594,1.846,1.639v2.944h-1.009v-.468c-.387.378-.819.549-1.341.549-.945,0-1.603-.567-1.603-1.377ZM482.876,215.625c.405,0,.757-.117,1.062-.378v-.729c-.324-.153-.648-.216-1.035-.216-.585,0-.954.243-.954.648,0,.414.36.675.927.675Z"/>
    <path class="uuid-52fef95a-0302-40f6-bb78-6e40c0852c7c" d="M486.179,211.754h1v.639c.323-.423.828-.675,1.404-.675,1.143,0,2.034,1.017,2.034,2.296,0,1.287-.918,2.295-2.098,2.295-.531,0-.999-.198-1.323-.576v2.413h-1.018v-6.392ZM489.619,214.014c0-.819-.576-1.44-1.342-1.44-.45,0-.819.18-1.08.504v1.882c.261.315.648.504,1.08.504.774,0,1.342-.621,1.342-1.449Z"/>
    <path class="uuid-52fef95a-0302-40f6-bb78-6e40c0852c7c" d="M491.642,213.275h3.143v.864h-3.143v-.864Z"/>
    <path class="uuid-52fef95a-0302-40f6-bb78-6e40c0852c7c" d="M495.926,211.754h1.018v.972c.252-.684.685-1.053,1.242-1.053.171.009.288.027.441.09v.892c-.162-.063-.369-.108-.559-.108-.495,0-.899.279-1.125.748v2.971h-1.018v-4.51Z"/>
    <path class="uuid-52fef95a-0302-40f6-bb78-6e40c0852c7c" d="M499.049,214.014c0-1.324.954-2.332,2.197-2.332,1.233,0,2.134.981,2.134,2.332v.243h-3.331c.099.729.647,1.261,1.35,1.261.424,0,.819-.162,1.071-.423l.667.603c-.55.459-1.099.657-1.783.657-1.296,0-2.305-1.017-2.305-2.34ZM502.417,213.626c-.108-.657-.576-1.116-1.18-1.116-.611,0-1.062.441-1.179,1.116h2.358Z"/>
    <path class="uuid-52fef95a-0302-40f6-bb78-6e40c0852c7c" d="M504.413,209.809l1.018-.18v6.635h-1.018v-6.455Z"/>
    <path class="uuid-52fef95a-0302-40f6-bb78-6e40c0852c7c" d="M506.474,214.014c0-1.333.973-2.332,2.269-2.332,1.288,0,2.26,1,2.26,2.332s-.972,2.332-2.26,2.332c-1.296,0-2.269-1-2.269-2.332ZM510.003,214.014c0-.837-.531-1.468-1.261-1.468-.738,0-1.269.63-1.269,1.468,0,.846.53,1.467,1.269,1.467.729,0,1.261-.621,1.261-1.467Z"/>
    <path class="uuid-52fef95a-0302-40f6-bb78-6e40c0852c7c" d="M511.866,214.968c0-.81.666-1.323,1.729-1.323.423,0,.819.09,1.215.288v-.504c0-.594-.342-.9-1.035-.9-.378,0-.792.108-1.314.352l-.36-.738c.676-.306,1.27-.459,1.873-.459,1.179,0,1.846.594,1.846,1.639v2.944h-1.009v-.468c-.387.378-.819.549-1.341.549-.945,0-1.603-.567-1.603-1.377ZM513.747,215.625c.405,0,.757-.117,1.062-.378v-.729c-.324-.153-.648-.216-1.035-.216-.585,0-.954.243-.954.648,0,.414.36.675.927.675Z"/>
    <path class="uuid-52fef95a-0302-40f6-bb78-6e40c0852c7c" d="M516.841,214.014c0-1.288.928-2.296,2.106-2.296.514,0,.981.207,1.314.585v-2.494l1.018-.18v6.635h-1.008v-.594c-.324.405-.829.639-1.396.639-1.144,0-2.035-1.017-2.035-2.295ZM520.262,214.959v-1.9c-.261-.306-.647-.486-1.071-.486-.773,0-1.35.612-1.35,1.44,0,.819.576,1.44,1.35,1.44.441,0,.811-.171,1.071-.495Z"/>
    <path class="uuid-52fef95a-0302-40f6-bb78-6e40c0852c7c" d="M522.332,214.014c0-1.324.954-2.332,2.197-2.332,1.233,0,2.133.981,2.133,2.332v.243h-3.33c.099.729.647,1.261,1.35,1.261.424,0,.819-.162,1.071-.423l.667.603c-.55.459-1.099.657-1.783.657-1.296,0-2.305-1.017-2.305-2.34ZM525.699,213.626c-.108-.657-.576-1.116-1.18-1.116-.611,0-1.062.441-1.179,1.116h2.358Z"/>
    <path class="uuid-52fef95a-0302-40f6-bb78-6e40c0852c7c" d="M527.696,211.754h1.018v.972c.252-.684.685-1.053,1.242-1.053.171.009.288.027.441.09v.892c-.162-.063-.369-.108-.559-.108-.495,0-.899.279-1.125.748v2.971h-1.018v-4.51Z"/>
    <path class="uuid-52fef95a-0302-40f6-bb78-6e40c0852c7c" d="M530.971,213.275h3.143v.864h-3.143v-.864Z"/>
    <path class="uuid-52fef95a-0302-40f6-bb78-6e40c0852c7c" d="M534.85,215.742l.478-.675c.594.369.99.513,1.449.513.54,0,.909-.252.909-.612,0-.279-.188-.423-.63-.513l-.792-.135c-.883-.162-1.306-.567-1.306-1.243,0-.846.693-1.396,1.747-1.396.63,0,1.197.18,1.773.541l-.478.675c-.459-.297-.9-.432-1.359-.432-.468,0-.774.198-.774.522,0,.288.162.414.63.495l.802.153c.9.162,1.332.576,1.332,1.251,0,.828-.792,1.467-1.845,1.467-.774,0-1.459-.216-1.937-.612Z"/>
    <path class="uuid-52fef95a-0302-40f6-bb78-6e40c0852c7c" d="M539.377,214.968c0-.81.666-1.323,1.729-1.323.423,0,.819.09,1.215.288v-.504c0-.594-.342-.9-1.035-.9-.378,0-.792.108-1.314.352l-.36-.738c.676-.306,1.27-.459,1.873-.459,1.179,0,1.846.594,1.846,1.639v2.944h-1.009v-.468c-.387.378-.819.549-1.341.549-.945,0-1.603-.567-1.603-1.377ZM541.258,215.625c.405,0,.757-.117,1.062-.378v-.729c-.324-.153-.648-.216-1.035-.216-.585,0-.954.243-.954.648,0,.414.36.675.927.675Z"/>
  </g>
  <g>
    <rect class="uuid-c316d7e3-22fa-4f8f-bf85-107170bccc85" x="341.414" y="305.607" width="220.692" height="70.011"/>
    <path class="uuid-f40a256b-39c9-4c65-9a01-e4c8d243045d" d="M561.606,306.108v69.01h-219.693v-69.01h219.693M562.606,305.108h-221.693v71.01h221.693v-71.01h0Z"/>
  </g>
  <rect class="uuid-07ef4488-b1f7-48e8-8ea1-cb054169b852" x="351.659" y="331.797" width="200.202" height="33.53"/>
  <g>
    <path class="uuid-52fef95a-0302-40f6-bb78-6e40c0852c7c" d="M352.109,318.418c0-2.039,1.608-3.608,3.688-3.608,1.119,0,2.229.53,2.839,1.359l-1.16,1.1c-.459-.619-1.02-.93-1.679-.93-1.09,0-1.909.89-1.909,2.079s.819,2.079,1.909,2.079c.659,0,1.22-.31,1.679-.93l1.16,1.1c-.61.829-1.72,1.359-2.839,1.359-2.079,0-3.688-1.569-3.688-3.608Z"/>
    <path class="uuid-52fef95a-0302-40f6-bb78-6e40c0852c7c" d="M359.489,314.8l1.619-.25v7.366h-1.619v-7.116Z"/>
    <path class="uuid-52fef95a-0302-40f6-bb78-6e40c0852c7c" d="M362.329,320.237v-3.479h1.619v3.009c0,.579.34.959.859.959.35,0,.63-.14.859-.43v-3.538h1.619v5.157h-1.619v-.839c-.399.6-.959.919-1.629.919-1,0-1.709-.729-1.709-1.759Z"/>
    <path class="uuid-52fef95a-0302-40f6-bb78-6e40c0852c7c" d="M368.128,321.387l.71-1.079c.739.39,1.159.52,1.658.52.46,0,.74-.16.74-.42,0-.2-.15-.31-.479-.37l-.99-.18c-.999-.189-1.519-.699-1.519-1.499,0-1.05.81-1.68,2.158-1.68.72,0,1.43.2,2.1.59l-.74,1.029c-.52-.3-.999-.439-1.479-.439-.391,0-.62.13-.62.35,0,.21.13.3.529.37l.97.18c1.02.19,1.549.71,1.549,1.489,0,1.01-.949,1.77-2.219,1.77-.939,0-1.769-.221-2.368-.63Z"/>
    <path class="uuid-52fef95a-0302-40f6-bb78-6e40c0852c7c" d="M374.238,320.357v-2.349h-1v-1.25h1v-1.429l1.619-.33v1.759h1.379v1.25h-1.379v2.028c0,.46.18.62.68.62.189,0,.34-.021.659-.11v1.31c-.3.09-.779.16-1.109.16-1.22,0-1.849-.561-1.849-1.659Z"/>
    <path class="uuid-52fef95a-0302-40f6-bb78-6e40c0852c7c" d="M377.858,319.348c0-1.509,1.12-2.669,2.599-2.669,1.489,0,2.539,1.13,2.539,2.729v.351h-3.548c.149.579.619.969,1.209.969.43,0,.79-.149,1.02-.43l1.069.89c-.67.59-1.299.83-2.169.83-1.52,0-2.719-1.17-2.719-2.669ZM381.497,318.838c-.141-.55-.53-.899-1.05-.899-.51,0-.869.33-.999.899h2.049Z"/>
    <path class="uuid-52fef95a-0302-40f6-bb78-6e40c0852c7c" d="M384.008,316.759h1.619v1.17c.329-.859.789-1.27,1.399-1.27.229.01.34.03.539.13v1.39c-.199-.101-.479-.16-.76-.16-.479,0-.919.25-1.179.64v3.258h-1.619v-5.157Z"/>
    <path class="uuid-52fef95a-0302-40f6-bb78-6e40c0852c7c" d="M388.578,314.92h3.398c1.439,0,2.469.93,2.469,2.229,0,.89-.51,1.609-1.3,1.959l1.47,2.809h-1.919l-1.27-2.568h-1.129v2.568h-1.72v-6.996ZM391.816,317.998c.53,0,.89-.329.89-.829s-.359-.83-.89-.83h-1.519v1.659h1.519Z"/>
    <path class="uuid-52fef95a-0302-40f6-bb78-6e40c0852c7c" d="M394.978,319.348c0-1.52,1.16-2.669,2.688-2.669s2.688,1.149,2.688,2.669-1.159,2.669-2.688,2.669-2.688-1.149-2.688-2.669ZM398.776,319.348c0-.77-.459-1.319-1.109-1.319s-1.109.55-1.109,1.319.46,1.319,1.109,1.319,1.109-.55,1.109-1.319Z"/>
    <path class="uuid-52fef95a-0302-40f6-bb78-6e40c0852c7c" d="M401.388,314.8l1.619-.25v7.366h-1.619v-7.116Z"/>
    <path class="uuid-52fef95a-0302-40f6-bb78-6e40c0852c7c" d="M404.038,319.348c0-1.509,1.12-2.669,2.599-2.669,1.489,0,2.539,1.13,2.539,2.729v.351h-3.548c.149.579.619.969,1.209.969.43,0,.79-.149,1.02-.43l1.069.89c-.67.59-1.299.83-2.169.83-1.52,0-2.719-1.17-2.719-2.669ZM407.676,318.838c-.141-.55-.53-.899-1.05-.899-.51,0-.869.33-.999.899h2.049Z"/>
  </g>
  <g>
    <path class="uuid-52fef95a-0302-40f6-bb78-6e40c0852c7c" d="M443.854,349.364c0-1.323.954-2.332,2.197-2.332,1.233,0,2.133.981,2.133,2.332v.243h-3.33c.099.729.647,1.261,1.35,1.261.424,0,.819-.162,1.071-.424l.667.604c-.55.459-1.099.657-1.783.657-1.296,0-2.305-1.018-2.305-2.341ZM447.221,348.977c-.108-.657-.576-1.116-1.18-1.116-.611,0-1.062.44-1.179,1.116h2.358Z"/>
    <path class="uuid-52fef95a-0302-40f6-bb78-6e40c0852c7c" d="M449.029,349.364c0-1.287.928-2.296,2.106-2.296.514,0,.981.207,1.314.585v-2.493l1.018-.18v6.635h-1.008v-.595c-.324.405-.828.64-1.396.64-1.144,0-2.035-1.018-2.035-2.296ZM452.45,350.309v-1.899c-.261-.307-.647-.486-1.071-.486-.773,0-1.35.612-1.35,1.44,0,.819.576,1.44,1.35,1.44.441,0,.811-.171,1.071-.495Z"/>
    <path class="uuid-52fef95a-0302-40f6-bb78-6e40c0852c7c" d="M454.6,345.565c0-.343.279-.631.631-.631.342,0,.63.288.63.631s-.288.621-.63.621c-.352,0-.631-.279-.631-.621ZM454.717,347.104h1.018v4.511h-1.018v-4.511Z"/>
    <path class="uuid-52fef95a-0302-40f6-bb78-6e40c0852c7c" d="M457.552,350.444v-2.529h-.9v-.811h.9v-1.242l1.018-.216v1.458h1.251v.811h-1.251v2.305c0,.441.171.612.63.612.198,0,.342-.027.612-.108v.855c-.262.081-.604.126-.873.126-.91,0-1.387-.433-1.387-1.261Z"/>
  </g>
  <rect class="uuid-07ef4488-b1f7-48e8-8ea1-cb054169b852" x="351.659" y="236.807" width="200.202" height="33.53"/>
  <g>
    <path class="uuid-52fef95a-0302-40f6-bb78-6e40c0852c7c" d="M424.35,252.115h1.018v.972c.252-.684.685-1.053,1.242-1.053.171.009.288.027.441.09v.892c-.162-.063-.369-.108-.559-.108-.495,0-.899.279-1.125.748v2.971h-1.018v-4.51Z"/>
    <path class="uuid-52fef95a-0302-40f6-bb78-6e40c0852c7c" d="M427.473,254.374c0-1.324.954-2.332,2.197-2.332,1.233,0,2.134.981,2.134,2.332v.243h-3.331c.099.729.647,1.261,1.35,1.261.424,0,.819-.162,1.071-.423l.667.603c-.55.459-1.099.657-1.783.657-1.296,0-2.305-1.017-2.305-2.34ZM430.84,253.987c-.108-.657-.576-1.116-1.18-1.116-.611,0-1.062.441-1.179,1.116h2.358Z"/>
    <path class="uuid-52fef95a-0302-40f6-bb78-6e40c0852c7c" d="M432.837,250.17l1.018-.18v6.635h-1.018v-6.455Z"/>
    <path class="uuid-52fef95a-0302-40f6-bb78-6e40c0852c7c" d="M434.898,254.374c0-1.333.973-2.332,2.269-2.332,1.288,0,2.26,1,2.26,2.332s-.972,2.332-2.26,2.332c-1.296,0-2.269-1-2.269-2.332ZM438.427,254.374c0-.837-.531-1.468-1.261-1.468-.738,0-1.269.63-1.269,1.468,0,.846.53,1.467,1.269,1.467.729,0,1.261-.621,1.261-1.467Z"/>
    <path class="uuid-52fef95a-0302-40f6-bb78-6e40c0852c7c" d="M440.29,255.329c0-.81.666-1.323,1.729-1.323.423,0,.819.09,1.215.288v-.504c0-.594-.342-.9-1.035-.9-.378,0-.792.108-1.314.351l-.36-.738c.676-.306,1.27-.459,1.873-.459,1.179,0,1.846.594,1.846,1.639v2.944h-1.009v-.468c-.387.378-.819.549-1.341.549-.945,0-1.603-.567-1.603-1.377ZM442.17,255.986c.405,0,.757-.117,1.062-.378v-.729c-.324-.153-.648-.216-1.035-.216-.585,0-.954.243-.954.648,0,.414.36.675.927.675Z"/>
    <path class="uuid-52fef95a-0302-40f6-bb78-6e40c0852c7c" d="M445.266,254.374c0-1.288.928-2.296,2.106-2.296.514,0,.981.207,1.314.585v-2.494l1.018-.18v6.635h-1.008v-.594c-.324.405-.828.639-1.396.639-1.144,0-2.035-1.017-2.035-2.295ZM448.687,255.32v-1.9c-.261-.306-.647-.486-1.071-.486-.773,0-1.35.612-1.35,1.44,0,.819.576,1.44,1.35,1.44.441,0,.811-.171,1.071-.495Z"/>
    <path class="uuid-52fef95a-0302-40f6-bb78-6e40c0852c7c" d="M450.755,254.374c0-1.324.954-2.332,2.197-2.332,1.233,0,2.133.981,2.133,2.332v.243h-3.33c.099.729.647,1.261,1.35,1.261.424,0,.819-.162,1.071-.423l.667.603c-.55.459-1.099.657-1.783.657-1.296,0-2.305-1.017-2.305-2.34ZM454.123,253.987c-.108-.657-.576-1.116-1.18-1.116-.611,0-1.062.441-1.179,1.116h2.358Z"/>
    <path class="uuid-52fef95a-0302-40f6-bb78-6e40c0852c7c" d="M456.12,252.115h1.018v.972c.252-.684.685-1.053,1.242-1.053.171.009.288.027.441.09v.892c-.162-.063-.369-.108-.559-.108-.495,0-.899.279-1.125.748v2.971h-1.018v-4.51Z"/>
    <path class="uuid-52fef95a-0302-40f6-bb78-6e40c0852c7c" d="M459.395,253.636h3.143v.864h-3.143v-.864Z"/>
    <path class="uuid-52fef95a-0302-40f6-bb78-6e40c0852c7c" d="M463.562,254.374c0-1.324.954-2.332,2.197-2.332,1.233,0,2.133.981,2.133,2.332v.243h-3.33c.099.729.647,1.261,1.35,1.261.424,0,.819-.162,1.071-.423l.667.603c-.55.459-1.099.657-1.783.657-1.296,0-2.305-1.017-2.305-2.34ZM466.929,253.987c-.108-.657-.576-1.116-1.18-1.116-.611,0-1.062.441-1.179,1.116h2.358Z"/>
    <path class="uuid-52fef95a-0302-40f6-bb78-6e40c0852c7c" d="M468.737,254.374c0-1.288.928-2.296,2.106-2.296.514,0,.981.207,1.314.585v-2.494l1.018-.18v6.635h-1.008v-.594c-.324.405-.828.639-1.396.639-1.144,0-2.035-1.017-2.035-2.295ZM472.158,255.32v-1.9c-.261-.306-.647-.486-1.071-.486-.773,0-1.35.612-1.35,1.44,0,.819.576,1.44,1.35,1.44.441,0,.811-.171,1.071-.495Z"/>
    <path class="uuid-52fef95a-0302-40f6-bb78-6e40c0852c7c" d="M474.308,250.575c0-.342.279-.63.631-.63.342,0,.63.288.63.63s-.288.621-.63.621c-.352,0-.631-.279-.631-.621ZM474.425,252.115h1.018v4.51h-1.018v-4.51Z"/>
    <path class="uuid-52fef95a-0302-40f6-bb78-6e40c0852c7c" d="M477.26,255.455v-2.53h-.9v-.81h.9v-1.243l1.018-.216v1.458h1.251v.81h-1.251v2.305c0,.441.171.612.63.612.198,0,.342-.027.612-.108v.855c-.262.081-.604.126-.873.126-.91,0-1.387-.432-1.387-1.26Z"/>
  </g>
  <g>
    <path class="uuid-52fef95a-0302-40f6-bb78-6e40c0852c7c" d="M352.109,87.08c0-2.039,1.608-3.608,3.688-3.608,1.119,0,2.229.53,2.839,1.359l-1.16,1.1c-.459-.62-1.019-.93-1.679-.93-1.09,0-1.909.89-1.909,2.079s.819,2.079,1.909,2.079c.66,0,1.22-.31,1.679-.929l1.16,1.099c-.61.83-1.72,1.359-2.839,1.359-2.079,0-3.688-1.569-3.688-3.608Z"/>
    <path class="uuid-52fef95a-0302-40f6-bb78-6e40c0852c7c" d="M359.108,88.01c0-1.52,1.16-2.669,2.688-2.669s2.688,1.149,2.688,2.669-1.159,2.668-2.688,2.668-2.688-1.149-2.688-2.668ZM362.906,88.01c0-.77-.459-1.319-1.109-1.319s-1.109.549-1.109,1.319.46,1.319,1.109,1.319,1.109-.549,1.109-1.319Z"/>
    <path class="uuid-52fef95a-0302-40f6-bb78-6e40c0852c7c" d="M365.518,85.421h1.619v.84c.399-.6.959-.92,1.629-.92.999,0,1.709.73,1.709,1.759v3.478h-1.619v-3.008c0-.58-.34-.959-.859-.959-.35,0-.63.14-.859.43v3.538h-1.619v-5.157Z"/>
    <path class="uuid-52fef95a-0302-40f6-bb78-6e40c0852c7c" d="M372.308,86.671h-1.07v-1.25h1.07v-.68c0-1.229.729-1.899,2.059-1.899.279,0,.649.04.859.1v1.329c-.29-.05-.439-.06-.62-.06-.459,0-.679.18-.679.56v.649h1.299v1.25h-1.299v3.908h-1.619v-3.908Z"/>
    <path class="uuid-52fef95a-0302-40f6-bb78-6e40c0852c7c" d="M376.047,83.722c0-.5.41-.909.91-.909s.909.41.909.909-.41.91-.909.91-.91-.41-.91-.91ZM376.148,85.421h1.619v5.157h-1.619v-5.157Z"/>
    <path class="uuid-52fef95a-0302-40f6-bb78-6e40c0852c7c" d="M379.328,92.308l.5-1.169c.569.27,1.079.4,1.579.4.77,0,1.169-.32,1.169-.95v-.699c-.34.419-.899.68-1.499.68-1.27,0-2.279-1.16-2.279-2.599s1.06-2.579,2.399-2.579c.55,0,1.049.23,1.398.649v-.62h1.59v5.187c0,1.39-.96,2.159-2.719,2.159-.779,0-1.52-.16-2.139-.46ZM382.576,88.839v-1.719c-.25-.26-.59-.4-.96-.4-.709,0-1.229.53-1.229,1.259s.529,1.27,1.229,1.27c.391,0,.71-.14.96-.41Z"/>
    <path class="uuid-52fef95a-0302-40f6-bb78-6e40c0852c7c" d="M385.597,83.582h2.159l1.689,3.358,1.679-3.358h2.159v6.996h-1.619v-4.748l-2.239,4.248-2.249-4.288v4.788h-1.579v-6.996Z"/>
    <path class="uuid-52fef95a-0302-40f6-bb78-6e40c0852c7c" d="M394.358,89.1c0-.95.739-1.5,2.009-1.5.37,0,.74.07,1.199.24v-.42c0-.5-.329-.75-1.02-.75-.39,0-.849.11-1.449.36l-.56-1.129c.85-.38,1.609-.56,2.369-.56,1.429,0,2.259.71,2.259,1.939v3.298h-1.6v-.45c-.449.38-.879.53-1.429.53-1.05,0-1.779-.64-1.779-1.559ZM396.637,89.589c.34,0,.649-.09.929-.26v-.66c-.3-.07-.589-.11-.889-.11-.53,0-.83.18-.83.51s.29.52.79.52Z"/>
    <path class="uuid-52fef95a-0302-40f6-bb78-6e40c0852c7c" d="M400.388,85.421h1.599v.72c.34-.46.91-.75,1.529-.75,1.27,0,2.279,1.169,2.279,2.619s-1.06,2.598-2.399,2.598c-.56,0-1.049-.209-1.389-.6v2.659h-1.619v-7.246ZM404.206,88c0-.729-.529-1.269-1.229-1.269-.399,0-.709.14-.969.419v1.719c.25.26.59.41.969.41.71,0,1.229-.54,1.229-1.279Z"/>
  </g>
  <g>
    <path class="uuid-52fef95a-0302-40f6-bb78-6e40c0852c7c" d="M469.701,88.328c0-1.306.99-2.332,2.278-2.332.702,0,1.35.279,1.8.765l-.63.657c-.315-.351-.702-.531-1.134-.531-.729,0-1.297.63-1.297,1.44,0,.819.567,1.44,1.297,1.44.432,0,.818-.18,1.134-.522l.63.648c-.45.486-1.098.765-1.8.765-1.288,0-2.278-1.018-2.278-2.332Z"/>
    <path class="uuid-52fef95a-0302-40f6-bb78-6e40c0852c7c" d="M474.273,88.328c0-1.333.973-2.332,2.269-2.332,1.288,0,2.26,1,2.26,2.332s-.972,2.332-2.26,2.332c-1.296,0-2.269-1-2.269-2.332ZM477.802,88.328c0-.837-.531-1.468-1.261-1.468-.738,0-1.269.63-1.269,1.468,0,.846.53,1.467,1.269,1.467.729,0,1.261-.621,1.261-1.467Z"/>
    <path class="uuid-52fef95a-0302-40f6-bb78-6e40c0852c7c" d="M479.852,86.068h1.018v.738c.342-.531.837-.811,1.423-.811.927,0,1.575.657,1.575,1.612v2.971h-1.026v-2.683c0-.657-.387-1.081-.99-1.081-.414,0-.747.189-.981.549v3.214h-1.018v-4.51Z"/>
    <path class="uuid-52fef95a-0302-40f6-bb78-6e40c0852c7c" d="M485.568,86.878h-.972v-.81h.972v-.774c0-.981.55-1.512,1.558-1.512.252,0,.504.027.675.081v.864c-.225-.045-.359-.063-.54-.063-.468,0-.675.207-.675.648v.756h1.215v.81h-1.215v3.7h-1.018v-3.7Z"/>
    <path class="uuid-52fef95a-0302-40f6-bb78-6e40c0852c7c" d="M488.529,84.529c0-.342.279-.63.631-.63.342,0,.63.288.63.63s-.288.621-.63.621c-.352,0-.631-.279-.631-.621ZM488.646,86.068h1.018v4.51h-1.018v-4.51Z"/>
    <path class="uuid-52fef95a-0302-40f6-bb78-6e40c0852c7c" d="M491.22,92.109l.351-.747c.531.261.963.378,1.413.378.757,0,1.152-.342,1.152-.999v-.765c-.323.396-.818.63-1.386.63-1.144,0-2.035-1.017-2.035-2.295s.928-2.278,2.106-2.278c.522,0,.991.207,1.324.603v-.567h1.008v4.672c0,1.161-.756,1.81-2.125,1.81-.647,0-1.278-.162-1.809-.441ZM494.136,89.264v-1.891c-.261-.306-.647-.486-1.071-.486-.773,0-1.35.603-1.35,1.431,0,.819.576,1.44,1.35,1.44.441,0,.811-.18,1.071-.495Z"/>
    <path class="uuid-52fef95a-0302-40f6-bb78-6e40c0852c7c" d="M496.277,87.59h3.143v.864h-3.143v-.864Z"/>
    <path class="uuid-52fef95a-0302-40f6-bb78-6e40c0852c7c" d="M500.328,89.282c0-.81.666-1.323,1.729-1.323.423,0,.819.09,1.215.288v-.504c0-.594-.342-.9-1.035-.9-.378,0-.792.108-1.314.352l-.36-.738c.676-.306,1.27-.459,1.873-.459,1.179,0,1.846.594,1.846,1.639v2.944h-1.009v-.468c-.387.378-.819.549-1.341.549-.945,0-1.603-.567-1.603-1.377ZM502.208,89.939c.405,0,.757-.117,1.062-.378v-.729c-.324-.153-.648-.216-1.035-.216-.585,0-.954.243-.954.648,0,.414.36.675.927.675Z"/>
    <path class="uuid-52fef95a-0302-40f6-bb78-6e40c0852c7c" d="M505.511,86.068h1v.639c.323-.423.828-.675,1.404-.675,1.143,0,2.034,1.017,2.034,2.296,0,1.287-.918,2.295-2.098,2.295-.531,0-.999-.198-1.323-.576v2.413h-1.018v-6.392ZM508.951,88.328c0-.819-.576-1.44-1.342-1.44-.45,0-.819.18-1.08.504v1.882c.261.315.648.504,1.08.504.774,0,1.342-.621,1.342-1.449Z"/>
    <path class="uuid-52fef95a-0302-40f6-bb78-6e40c0852c7c" d="M511.01,86.068h1v.639c.323-.423.828-.675,1.404-.675,1.144,0,2.034,1.017,2.034,2.296,0,1.287-.918,2.295-2.098,2.295-.531,0-.999-.198-1.323-.576v2.413h-1.018v-6.392ZM514.45,88.328c0-.819-.576-1.44-1.342-1.44-.45,0-.819.18-1.08.504v1.882c.261.315.648.504,1.08.504.774,0,1.342-.621,1.342-1.449Z"/>
  </g>
  <rect class="uuid-07ef4488-b1f7-48e8-8ea1-cb054169b852" x="427.167" y="121.182" width="130.821" height="25.287"/>
  <g>
    <path class="uuid-52fef95a-0302-40f6-bb78-6e40c0852c7c" d="M469.701,133.072c0-1.306.99-2.332,2.278-2.332.702,0,1.35.279,1.8.765l-.63.657c-.315-.351-.702-.531-1.134-.531-.729,0-1.297.63-1.297,1.44,0,.819.567,1.44,1.297,1.44.432,0,.818-.18,1.134-.522l.63.648c-.45.486-1.098.765-1.8.765-1.288,0-2.278-1.018-2.278-2.332Z"/>
    <path class="uuid-52fef95a-0302-40f6-bb78-6e40c0852c7c" d="M474.273,133.072c0-1.333.973-2.332,2.269-2.332,1.288,0,2.26,1,2.26,2.332s-.972,2.332-2.26,2.332c-1.296,0-2.269-1-2.269-2.332ZM477.802,133.072c0-.837-.531-1.468-1.261-1.468-.738,0-1.269.63-1.269,1.468,0,.846.53,1.467,1.269,1.467.729,0,1.261-.621,1.261-1.467Z"/>
    <path class="uuid-52fef95a-0302-40f6-bb78-6e40c0852c7c" d="M479.852,130.812h1.018v.738c.342-.531.837-.811,1.423-.811.927,0,1.575.657,1.575,1.612v2.971h-1.026v-2.683c0-.657-.387-1.081-.99-1.081-.414,0-.747.189-.981.549v3.214h-1.018v-4.51Z"/>
    <path class="uuid-52fef95a-0302-40f6-bb78-6e40c0852c7c" d="M485.568,131.622h-.972v-.81h.972v-.774c0-.981.55-1.512,1.558-1.512.252,0,.504.027.675.081v.864c-.225-.045-.359-.063-.54-.063-.468,0-.675.207-.675.648v.756h1.215v.81h-1.215v3.7h-1.018v-3.7Z"/>
    <path class="uuid-52fef95a-0302-40f6-bb78-6e40c0852c7c" d="M488.529,129.273c0-.342.279-.63.631-.63.342,0,.63.288.63.63s-.288.621-.63.621c-.352,0-.631-.279-.631-.621ZM488.646,130.812h1.018v4.51h-1.018v-4.51Z"/>
    <path class="uuid-52fef95a-0302-40f6-bb78-6e40c0852c7c" d="M491.22,136.853l.351-.747c.531.261.963.378,1.413.378.757,0,1.152-.342,1.152-.999v-.765c-.323.396-.818.63-1.386.63-1.144,0-2.035-1.017-2.035-2.295s.928-2.278,2.106-2.278c.522,0,.991.207,1.324.603v-.567h1.008v4.672c0,1.161-.756,1.81-2.125,1.81-.647,0-1.278-.162-1.809-.441ZM494.136,134.008v-1.891c-.261-.306-.647-.486-1.071-.486-.773,0-1.35.603-1.35,1.431,0,.819.576,1.44,1.35,1.44.441,0,.811-.18,1.071-.495Z"/>
    <path class="uuid-52fef95a-0302-40f6-bb78-6e40c0852c7c" d="M496.277,132.334h3.143v.864h-3.143v-.864Z"/>
    <path class="uuid-52fef95a-0302-40f6-bb78-6e40c0852c7c" d="M500.328,134.026c0-.81.666-1.323,1.729-1.323.423,0,.819.09,1.215.288v-.504c0-.594-.342-.9-1.035-.9-.378,0-.792.108-1.314.352l-.36-.738c.676-.306,1.27-.459,1.873-.459,1.179,0,1.846.594,1.846,1.639v2.944h-1.009v-.468c-.387.378-.819.549-1.341.549-.945,0-1.603-.567-1.603-1.377ZM502.208,134.684c.405,0,.757-.117,1.062-.378v-.729c-.324-.153-.648-.216-1.035-.216-.585,0-.954.243-.954.648,0,.414.36.675.927.675Z"/>
    <path class="uuid-52fef95a-0302-40f6-bb78-6e40c0852c7c" d="M505.511,130.812h1v.639c.323-.423.828-.675,1.404-.675,1.143,0,2.034,1.017,2.034,2.296,0,1.287-.918,2.295-2.098,2.295-.531,0-.999-.198-1.323-.576v2.413h-1.018v-6.392ZM508.951,133.072c0-.819-.576-1.44-1.342-1.44-.45,0-.819.18-1.08.504v1.882c.261.315.648.504,1.08.504.774,0,1.342-.621,1.342-1.449Z"/>
    <path class="uuid-52fef95a-0302-40f6-bb78-6e40c0852c7c" d="M511.01,130.812h1v.639c.323-.423.828-.675,1.404-.675,1.144,0,2.034,1.017,2.034,2.296,0,1.287-.918,2.295-2.098,2.295-.531,0-.999-.198-1.323-.576v2.413h-1.018v-6.392ZM514.45,133.072c0-.819-.576-1.44-1.342-1.44-.45,0-.819.18-1.08.504v1.882c.261.315.648.504,1.08.504.774,0,1.342-.621,1.342-1.449Z"/>
  </g>
  <g>
    <path class="uuid-52fef95a-0302-40f6-bb78-6e40c0852c7c" d="M352.438,129.515h2.849c1.959,0,3.519,1.559,3.519,3.498s-1.56,3.498-3.519,3.498h-2.849v-6.996ZM355.287,135.041c.97,0,1.739-.899,1.739-2.029s-.77-2.029-1.739-2.029h-1.129v4.058h1.129Z"/>
    <path class="uuid-52fef95a-0302-40f6-bb78-6e40c0852c7c" d="M359.658,133.942c0-1.509,1.12-2.669,2.599-2.669,1.489,0,2.539,1.129,2.539,2.729v.35h-3.548c.149.58.619.969,1.209.969.43,0,.79-.15,1.02-.43l1.069.89c-.67.589-1.299.83-2.169.83-1.52,0-2.719-1.169-2.719-2.668ZM363.296,133.433c-.141-.55-.53-.9-1.05-.9-.51,0-.869.33-.999.9h2.049Z"/>
    <path class="uuid-52fef95a-0302-40f6-bb78-6e40c0852c7c" d="M365.808,131.353h1.599v.72c.34-.46.91-.75,1.529-.75,1.27,0,2.279,1.169,2.279,2.619s-1.06,2.598-2.399,2.598c-.56,0-1.049-.209-1.389-.6v2.659h-1.619v-7.246ZM369.625,133.932c0-.729-.529-1.269-1.229-1.269-.399,0-.709.14-.969.419v1.719c.25.26.59.41.969.41.71,0,1.229-.54,1.229-1.279Z"/>
    <path class="uuid-52fef95a-0302-40f6-bb78-6e40c0852c7c" d="M372.249,129.394l1.619-.25v7.366h-1.619v-7.116Z"/>
    <path class="uuid-52fef95a-0302-40f6-bb78-6e40c0852c7c" d="M374.898,133.942c0-1.52,1.16-2.669,2.688-2.669s2.688,1.149,2.688,2.669-1.159,2.668-2.688,2.668-2.688-1.149-2.688-2.668ZM378.696,133.942c0-.77-.459-1.319-1.109-1.319s-1.109.549-1.109,1.319.46,1.319,1.109,1.319,1.109-.549,1.109-1.319Z"/>
    <path class="uuid-52fef95a-0302-40f6-bb78-6e40c0852c7c" d="M381.048,138.62v-1.359c.12.02.29.04.479.04.44,0,.68-.18.84-.52l.08-.17-1.899-5.257h1.789l1.03,3.328,1.179-3.328h1.749l-2.318,5.737c-.479,1.179-1.069,1.609-2.259,1.609-.19,0-.45-.03-.67-.08Z"/>
    <path class="uuid-52fef95a-0302-40f6-bb78-6e40c0852c7c" d="M386.999,131.353h1.619v.82c.38-.59.899-.9,1.529-.9.669,0,1.199.37,1.449.959.399-.62.979-.959,1.688-.959.949,0,1.619.75,1.619,1.809v3.428h-1.619v-3.108c0-.52-.31-.859-.77-.859-.3,0-.54.12-.749.39v3.578h-1.619v-3.108c0-.52-.311-.859-.77-.859-.3,0-.55.13-.76.4v3.568h-1.619v-5.157Z"/>
    <path class="uuid-52fef95a-0302-40f6-bb78-6e40c0852c7c" d="M395.898,133.942c0-1.509,1.12-2.669,2.599-2.669,1.489,0,2.539,1.129,2.539,2.729v.35h-3.548c.149.58.619.969,1.209.969.43,0,.79-.15,1.02-.43l1.069.89c-.67.589-1.299.83-2.169.83-1.52,0-2.719-1.169-2.719-2.668ZM399.537,133.433c-.141-.55-.53-.9-1.05-.9-.51,0-.869.33-.999.9h2.049Z"/>
    <path class="uuid-52fef95a-0302-40f6-bb78-6e40c0852c7c" d="M402.048,131.353h1.619v.84c.399-.6.959-.92,1.629-.92.999,0,1.709.73,1.709,1.759v3.478h-1.619v-3.008c0-.58-.34-.959-.859-.959-.35,0-.63.14-.859.43v3.538h-1.619v-5.157Z"/>
    <path class="uuid-52fef95a-0302-40f6-bb78-6e40c0852c7c" d="M408.758,134.952v-2.349h-1v-1.25h1v-1.429l1.619-.33v1.759h1.379v1.25h-1.379v2.029c0,.459.18.62.68.62.189,0,.34-.02.659-.11v1.309c-.3.09-.779.16-1.109.16-1.22,0-1.849-.56-1.849-1.659Z"/>
  </g>
  <g>
    <path class="uuid-52fef95a-0302-40f6-bb78-6e40c0852c7c" d="M341.342,56.22c0-1.045.814-1.65,2.212-1.65.407,0,.813.077,1.32.264v-.462c0-.55-.363-.825-1.122-.825-.43,0-.936.121-1.596.396l-.616-1.243c.936-.418,1.771-.616,2.607-.616,1.573,0,2.486.781,2.486,2.134v3.63h-1.76v-.495c-.495.418-.969.583-1.573.583-1.155,0-1.959-.704-1.959-1.716ZM343.851,56.759c.374,0,.715-.099,1.023-.286v-.726c-.33-.077-.649-.121-.979-.121-.583,0-.913.198-.913.561s.319.572.869.572Z"/>
    <path class="uuid-52fef95a-0302-40f6-bb78-6e40c0852c7c" d="M347.976,52.171h1.76v.792c.374-.506,1.001-.825,1.684-.825,1.397,0,2.508,1.287,2.508,2.882s-1.166,2.861-2.64,2.861c-.616,0-1.155-.231-1.529-.66v2.926h-1.782v-7.976ZM352.178,55.01c0-.803-.583-1.397-1.353-1.397-.44,0-.781.154-1.067.462v1.892c.274.286.648.451,1.067.451.78,0,1.353-.594,1.353-1.408Z"/>
    <path class="uuid-52fef95a-0302-40f6-bb78-6e40c0852c7c" d="M355.06,52.171h1.76v.792c.374-.506,1.001-.825,1.684-.825,1.397,0,2.508,1.287,2.508,2.882s-1.166,2.861-2.64,2.861c-.616,0-1.155-.231-1.529-.66v2.926h-1.782v-7.976ZM359.262,55.01c0-.803-.583-1.397-1.353-1.397-.44,0-.781.154-1.067.462v1.892c.274.286.648.451,1.067.451.78,0,1.353-.594,1.353-1.408Z"/>
    <path class="uuid-52fef95a-0302-40f6-bb78-6e40c0852c7c" d="M361.682,57.265l.78-1.188c.814.429,1.276.572,1.827.572.506,0,.813-.176.813-.462,0-.22-.165-.341-.528-.407l-1.089-.198c-1.1-.209-1.672-.771-1.672-1.65,0-1.155.891-1.848,2.376-1.848.792,0,1.573.22,2.311.649l-.814,1.133c-.572-.33-1.1-.484-1.628-.484-.429,0-.683.143-.683.385,0,.231.144.33.584.407l1.066.198c1.122.209,1.705.781,1.705,1.639,0,1.111-1.045,1.947-2.441,1.947-1.034,0-1.947-.242-2.607-.693Z"/>
    <path class="uuid-52fef95a-0302-40f6-bb78-6e40c0852c7c" d="M367.567,55.02c0-1.661,1.231-2.937,2.86-2.937,1.639,0,2.794,1.243,2.794,3.003v.385h-3.905c.165.638.682,1.067,1.331,1.067.473,0,.869-.165,1.122-.473l1.178.979c-.737.649-1.431.913-2.388.913-1.672,0-2.992-1.287-2.992-2.938ZM371.571,54.459c-.153-.605-.583-.99-1.155-.99-.561,0-.957.363-1.1.99h2.255Z"/>
    <path class="uuid-52fef95a-0302-40f6-bb78-6e40c0852c7c" d="M374.133,55.02c0-1.661,1.275-2.937,2.938-2.937.935,0,1.793.374,2.365,1.045l-1.09,1.089c-.362-.429-.726-.616-1.21-.616-.704,0-1.232.605-1.232,1.419s.528,1.419,1.232,1.419c.484,0,.848-.187,1.21-.616l1.09,1.089c-.572.671-1.431,1.045-2.365,1.045-1.662,0-2.938-1.276-2.938-2.938Z"/>
    <path class="uuid-52fef95a-0302-40f6-bb78-6e40c0852c7c" d="M380.183,53.954h4.048v1.485h-4.048v-1.485Z"/>
    <path class="uuid-52fef95a-0302-40f6-bb78-6e40c0852c7c" d="M385.22,56.22c0-1.045.814-1.65,2.212-1.65.407,0,.813.077,1.32.264v-.462c0-.55-.363-.825-1.122-.825-.43,0-.936.121-1.596.396l-.616-1.243c.936-.418,1.771-.616,2.607-.616,1.573,0,2.486.781,2.486,2.134v3.63h-1.76v-.495c-.495.418-.969.583-1.573.583-1.155,0-1.959-.704-1.959-1.716ZM387.729,56.759c.374,0,.715-.099,1.023-.286v-.726c-.33-.077-.649-.121-.979-.121-.583,0-.913.198-.913.561s.319.572.869.572Z"/>
    <path class="uuid-52fef95a-0302-40f6-bb78-6e40c0852c7c" d="M391.854,52.171h1.76v.792c.374-.506,1.001-.825,1.684-.825,1.397,0,2.508,1.287,2.508,2.882s-1.166,2.861-2.64,2.861c-.616,0-1.155-.231-1.529-.66v2.926h-1.782v-7.976ZM396.056,55.01c0-.803-.583-1.397-1.353-1.397-.44,0-.781.154-1.067.462v1.892c.274.286.648.451,1.067.451.78,0,1.353-.594,1.353-1.408Z"/>
    <path class="uuid-52fef95a-0302-40f6-bb78-6e40c0852c7c" d="M398.828,50.301c0-.55.451-1.001,1.001-1.001s1.001.451,1.001,1.001-.45,1.001-1.001,1.001-1.001-.451-1.001-1.001ZM398.938,52.171h1.782v5.677h-1.782v-5.677Z"/>
  </g>
  <g>
    <line class="uuid-76e2b87c-2f87-4870-83b8-96f6b84900e1" x1="254.309" y1="89.082" x2="336.094" y2="89.082"/>
    <polygon class="uuid-db1cbacc-18f6-4163-98f0-8b3e3aa9c3d5" points="335 92.821 341.476 89.082 335 85.342 335 92.821"/>
  </g>
  <g>
    <line class="uuid-10d0a0e5-2f19-4880-9bcd-ab9ef47f9cf4" x1="259.264" y1="208.362" x2="351.202" y2="208.362"/>
    <polygon class="uuid-52fef95a-0302-40f6-bb78-6e40c0852c7c" points="260.358 212.102 253.882 208.362 260.358 204.622 260.358 212.102"/>
  </g>
  <g>
    <line class="uuid-10d0a0e5-2f19-4880-9bcd-ab9ef47f9cf4" x1="451.76" y1="299.725" x2="451.76" y2="281.926"/>
    <polygon class="uuid-52fef95a-0302-40f6-bb78-6e40c0852c7c" points="455.5 298.631 451.76 305.108 448.02 298.631 455.5 298.631"/>
  </g>
  <g>
    <line class="uuid-10d0a0e5-2f19-4880-9bcd-ab9ef47f9cf4" x1="143.035" y1="157.196" x2="143.035" y2="132.87"/>
    <polygon class="uuid-52fef95a-0302-40f6-bb78-6e40c0852c7c" points="146.775 156.102 143.035 162.579 139.296 156.102 146.775 156.102"/>
  </g>
  <g>
    <line class="uuid-76e2b87c-2f87-4870-83b8-96f6b84900e1" x1="336.094" y1="133.826" x2="254.978" y2="133.826"/>
    <polygon class="uuid-db1cbacc-18f6-4163-98f0-8b3e3aa9c3d5" points="335 130.086 341.476 133.826 335 137.566 335 130.086"/>
  </g>
  <g>
    <path class="uuid-52fef95a-0302-40f6-bb78-6e40c0852c7c" d="M274.096,78.606h1.029l-.202.909c.386-.652.845-.983,1.369-.983.184,0,.377.046.515.11l-.202.91c-.11-.083-.386-.138-.606-.138-.45,0-.891.248-1.203.689l-.68,3.105h-1.02l1.001-4.602Z"/>
    <path class="uuid-52fef95a-0302-40f6-bb78-6e40c0852c7c" d="M276.871,81.151c0-1.433,1.093-2.618,2.425-2.618,1.13,0,1.92.845,1.92,2.049,0,.211-.009.395-.037.579h-3.316c.009.735.542,1.286,1.259,1.286.395,0,.781-.129,1.056-.368l.551.67c-.561.386-1.084.551-1.69.551-1.277,0-2.167-.882-2.167-2.149ZM280.297,80.517c-.028-.652-.459-1.13-1.066-1.13s-1.102.459-1.295,1.13h2.361Z"/>
    <path class="uuid-52fef95a-0302-40f6-bb78-6e40c0852c7c" d="M281.84,81.996c0-.9.707-1.479,1.81-1.479.496,0,.974.119,1.35.331l.092-.395c.156-.707-.174-1.065-.983-1.065-.34,0-.726.092-1.249.294l-.248-.753c.661-.257,1.222-.386,1.745-.386,1.341,0,2.012.708,1.754,1.874l-.615,2.792h-1.01l.092-.414c-.441.322-.827.469-1.259.469-.9,0-1.479-.496-1.479-1.268ZM284.697,82.207l.175-.771c-.294-.174-.662-.257-1.103-.257-.597,0-.983.294-.983.717,0,.413.331.652.9.652.367,0,.689-.101,1.01-.34Z"/>
    <path class="uuid-52fef95a-0302-40f6-bb78-6e40c0852c7c" d="M287.003,81.16c0-1.424,1.057-2.59,2.361-2.59.588,0,1.075.257,1.378.707l.561-2.655,1.047-.184-1.415,6.77h-1.01l.092-.432c-.331.303-.753.478-1.231.478-1.01,0-1.782-.909-1.782-2.094ZM290.172,82.005l.413-2.012c-.22-.331-.625-.542-1.075-.542-.845,0-1.497.707-1.497,1.626,0,.771.496,1.313,1.194,1.313.368,0,.68-.129.965-.386Z"/>
    <path class="uuid-52fef95a-0302-40f6-bb78-6e40c0852c7c" d="M294.361,81.996c0-.9.708-1.479,1.81-1.479.496,0,.974.119,1.35.331l.092-.395c.156-.707-.174-1.065-.983-1.065-.34,0-.726.092-1.249.294l-.248-.753c.661-.257,1.222-.386,1.745-.386,1.341,0,2.012.708,1.754,1.874l-.615,2.792h-1.011l.092-.414c-.441.322-.827.469-1.259.469-.9,0-1.479-.496-1.479-1.268ZM297.218,82.207l.175-.771c-.294-.174-.662-.257-1.103-.257-.597,0-.983.294-.983.717,0,.413.331.652.9.652.367,0,.689-.101,1.01-.34Z"/>
    <path class="uuid-52fef95a-0302-40f6-bb78-6e40c0852c7c" d="M299.514,81.215c0-1.479,1.13-2.673,2.508-2.673.753,0,1.442.34,1.819.918l-.744.606c-.248-.413-.625-.615-1.103-.615-.799,0-1.47.762-1.47,1.681,0,.744.505,1.268,1.194,1.268.395,0,.763-.156,1.065-.422l.496.652c-.478.441-1.094.67-1.728.67-1.176,0-2.039-.882-2.039-2.085Z"/>
    <path class="uuid-52fef95a-0302-40f6-bb78-6e40c0852c7c" d="M304.117,81.215c0-1.479,1.13-2.673,2.508-2.673.754,0,1.442.34,1.819.918l-.744.606c-.248-.413-.625-.615-1.103-.615-.799,0-1.47.762-1.47,1.681,0,.744.505,1.268,1.194,1.268.395,0,.762-.156,1.065-.422l.496.652c-.478.441-1.093.67-1.728.67-1.176,0-2.039-.882-2.039-2.085Z"/>
    <path class="uuid-52fef95a-0302-40f6-bb78-6e40c0852c7c" d="M308.718,81.151c0-1.433,1.094-2.618,2.426-2.618,1.129,0,1.919.845,1.919,2.049,0,.211-.009.395-.036.579h-3.316c.01.735.542,1.286,1.259,1.286.395,0,.78-.129,1.057-.368l.551.67c-.561.386-1.084.551-1.69.551-1.276,0-2.168-.882-2.168-2.149ZM312.145,80.517c-.027-.652-.46-1.13-1.065-1.13s-1.103.459-1.296,1.13h2.361Z"/>
    <path class="uuid-52fef95a-0302-40f6-bb78-6e40c0852c7c" d="M313.477,82.538l.569-.662c.579.469.974.634,1.479.634.486,0,.854-.275.854-.625,0-.248-.156-.395-.542-.496l-.781-.202c-.717-.202-1.074-.606-1.074-1.203,0-.891.67-1.46,1.727-1.46.688,0,1.322.239,1.874.689l-.569.652c-.45-.358-.938-.551-1.36-.551-.478,0-.762.211-.762.542,0,.257.138.395.532.505l.781.211c.763.211,1.13.588,1.13,1.157,0,.9-.781,1.571-1.837,1.571-.79,0-1.525-.275-2.021-.762Z"/>
    <path class="uuid-52fef95a-0302-40f6-bb78-6e40c0852c7c" d="M317.804,82.538l.569-.662c.579.469.974.634,1.479.634.486,0,.854-.275.854-.625,0-.248-.156-.395-.542-.496l-.781-.202c-.717-.202-1.074-.606-1.074-1.203,0-.891.67-1.46,1.727-1.46.688,0,1.322.239,1.874.689l-.569.652c-.45-.358-.938-.551-1.36-.551-.478,0-.762.211-.762.542,0,.257.138.395.532.505l.781.211c.763.211,1.13.588,1.13,1.157,0,.9-.781,1.571-1.837,1.571-.79,0-1.525-.275-2.021-.762Z"/>
  </g>
  <g>
    <path class="uuid-52fef95a-0302-40f6-bb78-6e40c0852c7c" d="M274.602,126.433c0-1.433,1.093-2.618,2.425-2.618,1.13,0,1.92.845,1.92,2.049,0,.211-.009.395-.037.579h-3.316c.009.735.542,1.286,1.259,1.286.395,0,.781-.129,1.056-.368l.551.67c-.561.386-1.084.551-1.69.551-1.277,0-2.167-.882-2.167-2.149ZM278.028,125.799c-.028-.652-.459-1.13-1.066-1.13s-1.102.459-1.295,1.13h2.361Z"/>
    <path class="uuid-52fef95a-0302-40f6-bb78-6e40c0852c7c" d="M279.773,126.442c0-1.424,1.057-2.59,2.361-2.59.588,0,1.075.257,1.378.707l.561-2.655,1.047-.184-1.415,6.77h-1.01l.092-.432c-.331.303-.753.478-1.231.478-1.01,0-1.782-.909-1.782-2.094ZM282.943,127.288l.413-2.012c-.22-.331-.625-.542-1.075-.542-.845,0-1.497.707-1.497,1.626,0,.771.496,1.313,1.194,1.313.368,0,.68-.129.965-.386Z"/>
    <path class="uuid-52fef95a-0302-40f6-bb78-6e40c0852c7c" d="M285.974,123.889h1.02l-.992,4.602h-1.029l1.001-4.602ZM286.13,122.391c0-.376.331-.716.707-.716.312,0,.57.248.57.57,0,.386-.322.707-.708.707-.331,0-.569-.239-.569-.561Z"/>
    <path class="uuid-52fef95a-0302-40f6-bb78-6e40c0852c7c" d="M288.105,127.205l.533-2.489h-.9l.184-.827h.882l.275-1.268,1.075-.221-.321,1.488h1.258l-.184.827h-1.258l-.496,2.306c-.101.478.064.661.588.661.147,0,.239-.009.523-.083l-.184.873c-.221.055-.505.092-.781.092-.956,0-1.378-.487-1.194-1.359Z"/>
    <path class="uuid-52fef95a-0302-40f6-bb78-6e40c0852c7c" d="M293.149,127.278c0-.9.707-1.479,1.81-1.479.496,0,.974.119,1.35.331l.092-.395c.156-.707-.174-1.065-.983-1.065-.34,0-.726.092-1.249.294l-.248-.753c.661-.257,1.222-.386,1.745-.386,1.341,0,2.012.708,1.754,1.874l-.615,2.792h-1.01l.092-.414c-.441.322-.827.469-1.259.469-.9,0-1.479-.496-1.479-1.268ZM296.005,127.489l.175-.771c-.294-.174-.662-.257-1.103-.257-.597,0-.983.294-.983.717,0,.413.331.652.9.652.367,0,.689-.101,1.01-.34Z"/>
    <path class="uuid-52fef95a-0302-40f6-bb78-6e40c0852c7c" d="M298.302,126.497c0-1.479,1.13-2.673,2.508-2.673.754,0,1.442.34,1.819.918l-.744.606c-.248-.413-.625-.615-1.103-.615-.799,0-1.47.762-1.47,1.681,0,.744.505,1.268,1.194,1.268.395,0,.762-.156,1.065-.422l.496.652c-.478.441-1.093.67-1.728.67-1.176,0-2.039-.882-2.039-2.085Z"/>
    <path class="uuid-52fef95a-0302-40f6-bb78-6e40c0852c7c" d="M302.904,126.497c0-1.479,1.13-2.673,2.508-2.673.754,0,1.442.34,1.819.918l-.744.606c-.248-.413-.625-.615-1.103-.615-.799,0-1.47.762-1.47,1.681,0,.744.505,1.268,1.194,1.268.395,0,.762-.156,1.065-.422l.496.652c-.478.441-1.093.67-1.728.67-1.176,0-2.039-.882-2.039-2.085Z"/>
    <path class="uuid-52fef95a-0302-40f6-bb78-6e40c0852c7c" d="M307.506,126.433c0-1.433,1.094-2.618,2.426-2.618,1.13,0,1.919.845,1.919,2.049,0,.211-.009.395-.036.579h-3.316c.01.735.542,1.286,1.259,1.286.395,0,.78-.129,1.057-.368l.551.67c-.561.386-1.084.551-1.69.551-1.276,0-2.168-.882-2.168-2.149ZM310.933,125.799c-.027-.652-.459-1.13-1.065-1.13s-1.103.459-1.296,1.13h2.361Z"/>
    <path class="uuid-52fef95a-0302-40f6-bb78-6e40c0852c7c" d="M312.265,127.82l.569-.662c.579.469.974.634,1.479.634.486,0,.854-.275.854-.625,0-.248-.156-.395-.542-.496l-.781-.202c-.717-.202-1.074-.606-1.074-1.203,0-.891.67-1.46,1.727-1.46.688,0,1.322.239,1.874.689l-.569.652c-.45-.358-.938-.551-1.36-.551-.478,0-.762.211-.762.542,0,.257.138.395.532.505l.781.211c.763.211,1.13.588,1.13,1.157,0,.9-.781,1.571-1.837,1.571-.79,0-1.525-.275-2.021-.762Z"/>
    <path class="uuid-52fef95a-0302-40f6-bb78-6e40c0852c7c" d="M316.591,127.82l.569-.662c.579.469.974.634,1.479.634.486,0,.854-.275.854-.625,0-.248-.156-.395-.542-.496l-.781-.202c-.717-.202-1.074-.606-1.074-1.203,0-.891.67-1.46,1.727-1.46.688,0,1.322.239,1.874.689l-.569.652c-.45-.358-.938-.551-1.36-.551-.478,0-.762.211-.762.542,0,.257.138.395.532.505l.781.211c.763.211,1.13.588,1.13,1.157,0,.9-.781,1.571-1.837,1.571-.79,0-1.525-.275-2.021-.762Z"/>
  </g>
</svg>