<?xml version="1.0" encoding="UTF-8" standalone="no"?>
<svg
   xmlns:dc="http://purl.org/dc/elements/1.1/"
   xmlns:cc="http://creativecommons.org/ns#"
   xmlns:rdf="http://www.w3.org/1999/02/22-rdf-syntax-ns#"
   xmlns:svg="http://www.w3.org/2000/svg"
   xmlns="http://www.w3.org/2000/svg"
   xmlns:sodipodi="http://sodipodi.sourceforge.net/DTD/sodipodi-0.dtd"
   xmlns:inkscape="http://www.inkscape.org/namespaces/inkscape"
   inkscape:version="1.0 (4035a4f, 2020-05-01)"
   sodipodi:docname="network-sdn-routes-passthrough.svg"
   version="1.1"
   viewBox="0 0 595.276 369.38"
   height="130.309mm"
   width="210mm"
   data-name="Layer 1"
   id="uuid-a222b2d0-5293-4b36-be55-0aca51ee0413">
  <metadata
     id="metadata593">
    <rdf:RDF>
      <cc:Work
         rdf:about="">
        <dc:format>image/svg+xml</dc:format>
        <dc:type
           rdf:resource="http://purl.org/dc/dcmitype/StillImage" />
        <dc:title></dc:title>
        <dc:subject>
          <rdf:Bag>
            <rdf:li>network</rdf:li>
            <rdf:li>sdn</rdf:li>
            <rdf:li>passthrough</rdf:li>
          </rdf:Bag>
        </dc:subject>
      </cc:Work>
    </rdf:RDF>
  </metadata>
  <sodipodi:namedview
     inkscape:current-layer="uuid-a222b2d0-5293-4b36-be55-0aca51ee0413"
     inkscape:window-maximized="0"
     inkscape:window-y="25"
     inkscape:window-x="0"
     inkscape:cy="246.25324"
     inkscape:cx="396.85039"
     inkscape:zoom="1.3266964"
     showgrid="false"
     id="namedview591"
     inkscape:window-height="480"
     inkscape:window-width="709"
     inkscape:pageshadow="2"
     inkscape:pageopacity="0"
     guidetolerance="10"
     gridtolerance="10"
     objecttolerance="10"
     borderopacity="1"
     bordercolor="#666666"
     pagecolor="#ffffff" />
  <defs
     id="defs12">
    <style
       id="style10">
      .uuid-2d1889b3-e545-4eea-b00c-382a336d6cf8, .uuid-c29cf5dc-626c-459f-8154-a666d1f2e881, .uuid-af9325ef-35f5-4d8a-a84b-df00a645b729 {
        fill: none;
        stroke-linecap: round;
        stroke-linejoin: round;
      }

      .uuid-2d1889b3-e545-4eea-b00c-382a336d6cf8, .uuid-af9325ef-35f5-4d8a-a84b-df00a645b729 {
        stroke: #3f9c35;
      }

      .uuid-c29cf5dc-626c-459f-8154-a666d1f2e881 {
        stroke: #000;
      }

      .uuid-af9325ef-35f5-4d8a-a84b-df00a645b729 {
        stroke-dasharray: 0 0 3 3;
      }

      .uuid-73d44ca0-a7f4-4ffe-bc01-298f5a361e72 {
        fill: #fff;
      }

      .uuid-860883f3-b7d1-45d0-9d73-2387e9fc09a1 {
        fill: #c8c8c8;
      }

      .uuid-0251b9c8-d093-4f70-84a9-11ff379aee6c {
        fill: #3f9c35;
      }

      .uuid-3198267c-004e-4aef-927f-90592ca80512 {
        fill: #99c2eb;
      }

      .uuid-4500c3b5-6467-40e2-81be-097fb1682b9a, .uuid-e1f8ed2c-7cab-4835-a761-63833e06fbe9 {
        fill: #4c4c4c;
      }

      .uuid-a8dbb63a-9169-4974-8f23-39a5f9ba2dba {
        fill: #e6e6e6;
        stroke: #c8c8c8;
      }

      .uuid-a8dbb63a-9169-4974-8f23-39a5f9ba2dba, .uuid-e1f8ed2c-7cab-4835-a761-63833e06fbe9 {
        stroke-miterlimit: 10;
      }

      .uuid-e1f8ed2c-7cab-4835-a761-63833e06fbe9 {
        stroke: #4d4c4c;
      }
    </style>
  </defs>
  <rect
     id="rect14"
     height="89.225"
     width="176.116"
     y="37.034"
     x="126.036"
     class="uuid-a8dbb63a-9169-4974-8f23-39a5f9ba2dba" />
  <g
     id="g50">
    <path
       id="path16"
       d="m170.544,99.085h3.238c1.369,0,2.288.85,2.288,2.089s-.93,2.089-2.288,2.089h-2.189v2.818h-1.049v-6.996Zm3.128,3.288c.819,0,1.35-.459,1.35-1.189,0-.719-.53-1.179-1.35-1.179h-2.079v2.369h2.079Z" />
    <path
       id="path18"
       d="m176.514,104.622c0-.959.779-1.549,2.059-1.549.49,0,.97.1,1.39.29v-.54c0-.72-.43-1.089-1.239-1.089-.47,0-.95.13-1.58.43l-.369-.75c.77-.36,1.419-.52,2.089-.52,1.329,0,2.079.649,2.079,1.809v3.378h-.979v-.44c-.45.36-.96.53-1.579.53-1.1,0-1.869-.629-1.869-1.549Zm2.099.799c.54,0,.979-.15,1.35-.479v-.86c-.38-.22-.8-.32-1.31-.32-.729,0-1.18.33-1.18.84,0,.49.46.819,1.14.819Z" />
    <path
       id="path20"
       d="m181.614,105.432l.549-.66c.521.419,1.08.64,1.649.64.72,0,1.22-.31,1.22-.76,0-.37-.26-.58-.819-.66l-.92-.13c-1.02-.14-1.52-.63-1.52-1.429,0-.91.8-1.539,1.999-1.539.74,0,1.409.22,2.039.66l-.51.66c-.56-.37-1.069-.54-1.609-.54-.609,0-1.02.28-1.02.7,0,.38.24.57.84.65l.92.13c1.009.14,1.539.629,1.539,1.419,0,.919-.92,1.609-2.129,1.609-.88,0-1.669-.27-2.229-.75Z" />
    <path
       id="path22"
       d="m186.265,105.432l.549-.66c.521.419,1.08.64,1.649.64.72,0,1.22-.31,1.22-.76,0-.37-.26-.58-.819-.66l-.92-.13c-1.02-.14-1.52-.63-1.52-1.429,0-.91.8-1.539,1.999-1.539.74,0,1.409.22,2.039.66l-.51.66c-.56-.37-1.069-.54-1.609-.54-.609,0-1.02.28-1.02.7,0,.38.24.57.84.65l.92.13c1.009.14,1.539.629,1.539,1.419,0,.919-.92,1.609-2.129,1.609-.88,0-1.669-.27-2.229-.75Z" />
    <path
       id="path24"
       d="m191.264,102.823h3.598v.87h-3.598v-.87Z" />
    <path
       id="path26"
       d="m196.503,104.822v-2.988h-1.079v-.84h1.079v-1.299l.989-.24v1.539h1.5v.84h-1.5v2.758c0,.52.21.72.75.72.28,0,.479-.03.729-.12v.84c-.27.09-.659.14-.949.14-.989,0-1.52-.459-1.52-1.349Z" />
    <path
       id="path28"
       d="m199.734,99.085l.999-.22v2.648c.39-.41.92-.62,1.529-.62,1.17,0,1.989.81,1.989,1.989v3.198h-1v-3.028c0-.79-.489-1.289-1.269-1.289-.54,0-.97.24-1.25.659v3.658h-.999v-6.996Z" />
    <path
       id="path30"
       d="m205.403,100.994h.999v.65c.32-.49.8-.77,1.399-.77.22.01.36.03.51.09v.899c-.189-.07-.39-.11-.59-.11-.59,0-1.06.32-1.319.919v3.408h-.999v-5.087Z" />
    <path
       id="path32"
       d="m208.593,103.543c0-1.479,1.17-2.648,2.649-2.648s2.648,1.169,2.648,2.648-1.17,2.639-2.648,2.639-2.649-1.16-2.649-2.639Zm4.318,0c0-.989-.74-1.769-1.669-1.769s-1.67.78-1.67,1.769.74,1.759,1.67,1.759,1.669-.77,1.669-1.759Z" />
    <path
       id="path34"
       d="m214.823,104.182v-3.188h.99v3.019c0,.799.489,1.299,1.269,1.299.54,0,.979-.24,1.25-.67v-3.648h.999v5.087h-.999v-.52c-.391.41-.91.62-1.52.62-1.18,0-1.989-.82-1.989-1.999Z" />
    <path
       id="path36"
       d="m220.984,107.721l.38-.78c.6.3,1.109.44,1.639.44.89,0,1.359-.42,1.359-1.219v-.58c-.439.35-.959.529-1.529.529-1.419,0-2.549-1.139-2.549-2.598s1.13-2.609,2.589-2.609c.54,0,1.06.19,1.499.52v-.43h.99v5.167c0,1.329-.83,2.059-2.329,2.059-.75,0-1.47-.18-2.049-.5Zm3.378-3.068v-2.279c-.319-.38-.829-.6-1.399-.6-.959,0-1.699.76-1.699,1.739s.74,1.739,1.699,1.739c.58,0,1.08-.21,1.399-.6Z" />
    <path
       id="path38"
       d="m226.543,99.085l.999-.22v2.648c.39-.41.92-.62,1.529-.62,1.17,0,1.989.81,1.989,1.989v3.198h-1v-3.028c0-.79-.489-1.289-1.269-1.289-.54,0-.97.24-1.25.659v3.658h-.999v-6.996Z" />
    <path
       id="path40"
       d="m234.303,100.994h.999v.65c.32-.49.8-.77,1.399-.77.22.01.36.03.51.09v.899c-.189-.07-.39-.11-.59-.11-.59,0-1.06.32-1.319.919v3.408h-.999v-5.087Z" />
    <path
       id="path42"
       d="m237.493,103.543c0-1.479,1.17-2.648,2.649-2.648s2.648,1.169,2.648,2.648-1.17,2.639-2.648,2.639-2.649-1.16-2.649-2.639Zm4.318,0c0-.989-.74-1.769-1.669-1.769s-1.67.78-1.67,1.769.74,1.759,1.67,1.759,1.669-.77,1.669-1.759Z" />
    <path
       id="path44"
       d="m243.723,104.182v-3.188h.99v3.019c0,.799.489,1.299,1.269,1.299.54,0,.979-.24,1.25-.67v-3.648h.999v5.087h-.999v-.52c-.391.41-.91.62-1.52.62-1.18,0-1.989-.82-1.989-1.999Z" />
    <path
       id="path46"
       d="m250.072,104.822v-2.988h-1.079v-.84h1.079v-1.299l.99-.24v1.539h1.499v.84h-1.499v2.758c0,.52.209.72.749.72.28,0,.479-.03.729-.12v.84c-.27.09-.659.14-.949.14-.989,0-1.52-.459-1.52-1.349Z" />
    <path
       id="path48"
       d="m252.983,103.533c0-1.469,1.12-2.628,2.549-2.628,1.399,0,2.459,1.169,2.459,2.679v.28h-4.008c.14.839.829,1.459,1.709,1.459.5,0,.97-.16,1.289-.45l.64.63c-.6.459-1.209.669-1.969.669-1.499,0-2.669-1.149-2.669-2.639Zm4.019-.419c-.141-.78-.75-1.359-1.489-1.359-.77,0-1.38.55-1.52,1.359h3.009Z" />
  </g>
  <g
     id="g64">
    <path
       id="path52"
       d="m25.45,107.877c0-2.029,1.599-3.608,3.668-3.608,1.109,0,2.159.459,2.818,1.209l-.699.72c-.53-.62-1.31-.959-2.119-.959-1.479,0-2.599,1.14-2.599,2.639,0,1.489,1.129,2.639,2.629,2.639.81,0,1.569-.34,2.079-.939l.69.699c-.69.75-1.729,1.21-2.799,1.21-2.069,0-3.668-1.589-3.668-3.608Z" />
    <path
       id="path54"
       d="m32.83,104.379l1-.19v7.186h-1v-6.996Z" />
    <path
       id="path56"
       d="m34.901,104.849c0-.34.28-.61.609-.61.34,0,.62.27.62.61s-.28.62-.62.62c-.33,0-.609-.28-.609-.62Zm.11,1.439h1v5.087h-1v-5.087Z" />
    <path
       id="path58"
       d="m36.96,108.826c0-1.469,1.119-2.628,2.548-2.628,1.399,0,2.459,1.169,2.459,2.679v.28h-4.008c.14.839.83,1.459,1.709,1.459.5,0,.969-.16,1.289-.45l.64.629c-.6.46-1.209.67-1.969.67-1.499,0-2.668-1.149-2.668-2.639Zm4.018-.419c-.14-.78-.75-1.359-1.489-1.359-.77,0-1.379.55-1.519,1.359h3.008Z" />
    <path
       id="path60"
       d="m42.92,106.288h1v.52c.39-.41.919-.62,1.529-.62,1.169,0,1.989.81,1.989,1.989v3.198h-1v-3.028c0-.79-.49-1.289-1.27-1.289-.54,0-.969.24-1.249.659v3.658h-1v-5.087Z" />
    <path
       id="path62"
       d="m49.1,110.116v-2.988h-1.08v-.84h1.08v-1.299l.989-.24v1.539h1.499v.84h-1.499v2.758c0,.52.21.72.75.72.28,0,.48-.03.729-.12v.84c-.27.09-.66.14-.949.14-.99,0-1.519-.46-1.519-1.349Z" />
  </g>
  <path
     id="path66"
     d="m102.901,58.363l.365.521c-1.488,1.119-3.142,2.843-4.964,5.172-1.821,2.329-3.212,4.505-4.171,6.528l-.771.521c-.64.445-1.074.775-1.304.991-.09-.327-.289-.862-.594-1.606l-.292-.678c-.417-.973-.805-1.693-1.163-2.159-.358-.466-.76-.775-1.205-.928.751-.792,1.439-1.188,2.065-1.188.535,0,1.129.727,1.783,2.179l.323.73c1.175-1.981,2.684-3.907,4.526-5.777,1.842-1.87,3.643-3.306,5.402-4.307Z"
     class="uuid-0251b9c8-d093-4f70-84a9-11ff379aee6c" />
  <path
     id="path68"
     d="m341.037,58.363l.365.521c-1.488,1.119-3.143,2.843-4.964,5.172-1.822,2.329-3.212,4.505-4.172,6.528l-.771.521c-.64.445-1.074.775-1.304.991-.09-.327-.288-.862-.595-1.606l-.292-.678c-.417-.973-.805-1.693-1.162-2.159-.358-.466-.76-.775-1.205-.928.751-.792,1.439-1.188,2.065-1.188.535,0,1.13.727,1.783,2.179l.323.73c1.175-1.981,2.684-3.907,4.525-5.777,1.843-1.87,3.644-3.306,5.402-4.307Z"
     class="uuid-0251b9c8-d093-4f70-84a9-11ff379aee6c" />
  <g
     id="g74">
    <line
       id="line70"
       y2="81.646"
       x2="120.729"
       y1="81.646"
       x1="60.123"
       class="uuid-2d1889b3-e545-4eea-b00c-382a336d6cf8" />
    <polygon
       id="polygon72"
       points="119.635 85.386 126.111 81.647 119.635 77.907 119.635 85.386"
       class="uuid-0251b9c8-d093-4f70-84a9-11ff379aee6c" />
  </g>
  <path
     id="path76"
     d="m22.164,94.46h8.701c.191,0,.345-.154.345-.345s-.154-.345-.345-.345h-8.701c-.191,0-.345.154-.345.345s.154.345.345.345Zm34.121-37.578H21.412c-1.364,0-2.47,1.106-2.47,2.47v34.874c0,1.364,1.106,2.47,2.47,2.47h34.874c1.364,0,2.47-1.106,2.47-2.47h0v-34.874c0-1.364-1.106-2.47-2.47-2.47h0Zm1.235,37.351c0,.682-.553,1.235-1.235,1.235H21.412c-.682,0-1.235-.553-1.235-1.235h0v-1.573h37.344v1.573Zm0-2.608H20.177v-27.152h37.344v27.152Zm0-28.187H20.177v-4.085c0-.682.553-1.235,1.235-1.235h34.874c.682,0,1.235.553,1.235,1.235h0v4.085Zm-9.281-3.554c-.549,0-.994.445-.994.994s.445.994.994.994.994-.445.994-.994h0c0-.549-.445-.994-.994-.994Zm6.528,0c-.549-.004-.997.438-1,.987-.004.549.438.997.987,1,.549.004.997-.438,1-.987,0-.007,0-.014,0-.021-.008-.543-.45-.98-.994-.98h.007Zm-3.264,0c-.549,0-.994.445-.994.994s.445.994.994.994.994-.445.994-.994h0c0-.549-.445-.994-.994-.994Z" />
  <g
     id="g90">
    <path
       id="path78"
       d="m203.338,78.306l.512.741c.544.733,1.19,1.455,1.959,2.137l.808.664c.146.112.304.22.458.329,12.276-8.54,18.429-17.319,20.027-19.813l.102-.181v-2.536c-1.257-.289-2.394-.545-3.423-.772l-.53-.116c-1.768,2.641-8.063,11.25-19.912,19.548Z"
       class="uuid-73d44ca0-a7f4-4ffe-bc01-298f5a361e72" />
    <path
       id="path80"
       d="m207.988,82.776c1.63.984,3.635,1.79,6.116,2.273,3.532-.5,6.108-1.733,7.992-3.266l.713-.62c1.031-.908,2.037-2.455,2.037-2.455l.524-.882c1.685-2.762,1.832-6.567,1.832-6.567v-6.265h0v-.955c-2.397,3.462-8.451,11.177-19.215,18.737Z"
       class="uuid-73d44ca0-a7f4-4ffe-bc01-298f5a361e72" />
    <path
       id="path82"
       d="m204.296,58.899l-3.31.747.009,5.525v1.2l-.009,4.851c.022.561.217,3.285,1.828,6.21,11.209-7.863,17.36-15.979,19.365-18.907-4.486-.966-6.501-1.282-7.365-1.383h-1.474c-.869.105-9.044,1.756-9.044,1.756Z"
       class="uuid-73d44ca0-a7f4-4ffe-bc01-298f5a361e72" />
    <path
       id="path84"
       d="m214.233,51.89c-.089.025-.183.025-.273,0-.3-.025-2.546.046-15.299,3.021v16.352c.016.544.565,13.673,15.447,16.353,15.244-1.924,15.419-16.208,15.419-16.353v-16.352c-12.743-2.972-14.992-3.038-15.295-3.022Zm13.438,7.081c.173.04.296.193.296.371v3.536l.01.005s-.007.01-.01.015v8.365c-.002.174-.037,1.649-.582,3.602h.002l-.004.005c-1.09,3.895-4.221,9.695-13.236,10.943-.017.003-.034.004-.052.004-.024,0-.048-.003-.072-.007-12.956-2.484-13.752-13.343-13.799-14.574v-11.894c0-.177.122-.332.295-.371,8.386-1.932,11.604-2.451,12.777-2.588l.809-.003.756.002c1.208.138,4.415.654,12.81,2.589Z"
       class="uuid-73d44ca0-a7f4-4ffe-bc01-298f5a361e72" />
    <path
       id="path86"
       d="m230.152,54.013c-12.118-2.836-15.118-3.142-15.846-3.142-.076,0-.146.003-.211.011-.064-.008-.134-.011-.211-.011-.729,0-3.731.306-15.849,3.142-.23.053-.393.259-.393.495v16.769c.004.145.577,14.557,16.363,17.353.029.006.058.008.088.008.021,0,.042-.001.062-.004,16.201-1.994,16.388-17.217,16.388-17.371v-16.755c0-.237-.163-.442-.393-.495Zm-.624,17.25c0,.145-.176,14.429-15.419,16.353-14.882-2.68-15.432-15.808-15.447-16.353v-16.352c12.753-2.975,14.999-3.046,15.299-3.021.09.025.184.024.273,0,.303-.017,2.552.049,15.295,3.022v16.352Z" />
    <path
       id="path88"
       d="m213.296,56.383c-1.173.137-4.391.655-12.777,2.588-.173.04-.296.194-.296.371v11.894c.048,1.231.844,12.09,13.8,14.574.024.004.048.007.072.007.018,0,.035-.001.052-.004,9.015-1.248,12.146-7.048,13.236-10.943l.004-.005h-.002c.546-1.954.58-3.428.582-3.602v-8.365c.003-.005.007-.011.01-.015l-.01-.005v-3.536c0-.178-.123-.332-.296-.371-8.395-1.934-11.602-2.45-12.81-2.589l-.756-.002-.809.003Zm13.908,8.611h0v6.265s-.147,3.805-1.832,6.567l-.524.882s-1.006,1.547-2.037,2.455l-.713.62c-1.884,1.533-4.46,2.766-7.992,3.266-2.482-.483-4.487-1.288-6.116-2.273,10.764-7.56,16.818-15.276,19.215-18.737v.955Zm-3.423-6.121c1.029.227,2.166.483,3.423.772v2.536l-.102.181c-1.597,2.495-7.751,11.274-20.027,19.813-.155-.109-.312-.218-.458-.329l-.808-.664c-.769-.682-1.415-1.405-1.959-2.137l-.512-.741c11.849-8.298,18.145-16.907,19.912-19.548l.53.116Zm-1.602-.348c-2.005,2.927-8.156,11.044-19.365,18.907-1.611-2.925-1.806-5.649-1.828-6.21l.009-4.851v-1.2l-.009-5.525,3.31-.747s8.175-1.652,9.044-1.755h1.474c.863.099,2.879.416,7.365,1.382Z" />
  </g>
  <rect
     id="rect92"
     height="200.739"
     width="214.027"
     y="22.621"
     x="360.372"
     class="uuid-a8dbb63a-9169-4974-8f23-39a5f9ba2dba" />
  <rect
     id="rect94"
     height="38.049"
     width="214.027"
     y="163.186"
     x="360.372"
     class="uuid-e1f8ed2c-7cab-4835-a761-63833e06fbe9" />
  <rect
     id="rect96"
     height="111"
     width="179.405"
     y="37.464"
     x="377.683"
     class="uuid-860883f3-b7d1-45d0-9d73-2387e9fc09a1" />
  <rect
     id="rect98"
     height="69.478"
     width="144.657"
     y="49.839"
     x="395.057"
     class="uuid-73d44ca0-a7f4-4ffe-bc01-298f5a361e72" />
  <rect
     id="rect100"
     height="34.219"
     width="61.25"
     y="57.104"
     x="402.532"
     class="uuid-3198267c-004e-4aef-927f-90592ca80512" />
  <rect
     id="rect102"
     height="34.219"
     width="61.25"
     y="57.104"
     x="470.989"
     class="uuid-3198267c-004e-4aef-927f-90592ca80512" />
  <g
     id="g126">
    <path
       id="path104"
       d="m444.459,130.744h1.239l2.858,6.996h-1.14l-.81-2.049h-3.128l-.819,2.049h-1.09l2.889-6.996Zm1.809,4.078l-1.219-3.079-1.229,3.079h2.448Z" />
    <path
       id="path106"
       d="m449.16,132.654h.989v.489c.42-.369.96-.569,1.56-.569,1.449,0,2.568,1.149,2.568,2.618,0,1.479-1.13,2.629-2.589,2.629-.56,0-1.089-.19-1.529-.52v2.479h-.999v-7.126Zm4.138,2.548c0-.999-.75-1.759-1.719-1.759-.58,0-1.09.22-1.42.61v2.298c.33.38.85.6,1.42.6.979,0,1.719-.749,1.719-1.749Z" />
    <path
       id="path108"
       d="m455.231,132.654h.989v.489c.42-.369.96-.569,1.56-.569,1.449,0,2.568,1.149,2.568,2.618,0,1.479-1.13,2.629-2.589,2.629-.56,0-1.089-.19-1.529-.52v2.479h-.999v-7.126Zm4.138,2.548c0-.999-.75-1.759-1.719-1.759-.58,0-1.09.22-1.42.61v2.298c.33.38.85.6,1.42.6.979,0,1.719-.749,1.719-1.749Z" />
    <path
       id="path110"
       d="m461.3,130.744l.999-.19v7.187h-.999v-6.996Z" />
    <path
       id="path112"
       d="m463.37,131.214c0-.34.28-.609.61-.609.34,0,.619.27.619.609s-.279.619-.619.619c-.33,0-.61-.279-.61-.619Zm.11,1.439h.999v5.087h-.999v-5.087Z" />
    <path
       id="path114"
       d="m465.43,135.192c0-1.479,1.149-2.639,2.619-2.639.77,0,1.519.311,2.039.84l-.62.689c-.39-.42-.88-.64-1.399-.64-.929,0-1.648.77-1.648,1.749,0,1,.729,1.759,1.669,1.759.51,0,.959-.199,1.369-.609l.609.64c-.539.54-1.259.85-2.019.85-1.47,0-2.619-1.149-2.619-2.639Z" />
    <path
       id="path116"
       d="m470.61,136.282c0-.96.779-1.55,2.059-1.55.489,0,.97.101,1.39.29v-.539c0-.72-.43-1.09-1.239-1.09-.47,0-.95.13-1.579.43l-.37-.749c.77-.36,1.419-.521,2.089-.521,1.329,0,2.079.65,2.079,1.81v3.378h-.979v-.439c-.45.359-.96.529-1.579.529-1.1,0-1.869-.63-1.869-1.549Zm2.099.8c.54,0,.979-.15,1.35-.48v-.859c-.38-.22-.8-.319-1.31-.319-.729,0-1.18.329-1.18.839,0,.49.46.82,1.14.82Z" />
    <path
       id="path118"
       d="m476.699,136.481v-2.988h-1.079v-.839h1.079v-1.3l.99-.239v1.539h1.499v.839h-1.499v2.759c0,.52.209.72.749.72.28,0,.479-.03.729-.12v.84c-.27.09-.659.14-.949.14-.989,0-1.52-.46-1.52-1.35Z" />
    <path
       id="path120"
       d="m479.819,131.214c0-.34.28-.609.61-.609.34,0,.619.27.619.609s-.279.619-.619.619c-.33,0-.61-.279-.61-.619Zm.11,1.439h.999v5.087h-.999v-5.087Z" />
    <path
       id="path122"
       d="m481.879,135.201c0-1.479,1.17-2.648,2.649-2.648s2.648,1.17,2.648,2.648-1.17,2.639-2.648,2.639-2.649-1.159-2.649-2.639Zm4.318,0c0-.989-.74-1.769-1.669-1.769s-1.67.779-1.67,1.769.74,1.76,1.67,1.76,1.669-.77,1.669-1.76Z" />
    <path
       id="path124"
       d="m488.13,132.654h.999v.52c.39-.41.92-.62,1.529-.62,1.17,0,1.989.81,1.989,1.989v3.198h-1v-3.028c0-.79-.489-1.289-1.269-1.289-.54,0-.97.239-1.25.659v3.658h-.999v-5.087Z" />
  </g>
  <g
     id="g146">
    <path
       id="path128"
       d="m445.25,211.557c0-2.029,1.599-3.608,3.668-3.608,1.109,0,2.158.46,2.818,1.21l-.7.72c-.529-.62-1.309-.96-2.118-.96-1.479,0-2.599,1.14-2.599,2.639,0,1.489,1.129,2.639,2.628,2.639.81,0,1.569-.34,2.079-.939l.689.699c-.689.75-1.729,1.21-2.798,1.21-2.069,0-3.668-1.59-3.668-3.608Z" />
    <path
       id="path130"
       d="m452.249,212.516c0-1.479,1.17-2.648,2.649-2.648s2.648,1.17,2.648,2.648-1.17,2.639-2.648,2.639-2.649-1.159-2.649-2.639Zm4.318,0c0-.989-.74-1.769-1.669-1.769s-1.67.779-1.67,1.769.74,1.76,1.67,1.76,1.669-.77,1.669-1.76Z" />
    <path
       id="path132"
       d="m458.499,209.968h.999v.52c.39-.41.92-.62,1.529-.62,1.17,0,1.989.81,1.989,1.989v3.198h-1v-3.028c0-.79-.489-1.289-1.269-1.289-.54,0-.97.239-1.25.659v3.658h-.999v-5.087Z" />
    <path
       id="path134"
       d="m464.679,213.795v-2.988h-1.079v-.839h1.079v-1.3l.989-.239v1.539h1.5v.839h-1.5v2.759c0,.52.21.72.75.72.28,0,.479-.03.729-.12v.84c-.27.09-.659.14-.949.14-.989,0-1.52-.46-1.52-1.35Z" />
    <path
       id="path136"
       d="m467.65,213.596c0-.96.779-1.55,2.059-1.55.489,0,.97.101,1.39.29v-.539c0-.72-.43-1.09-1.239-1.09-.47,0-.95.13-1.579.43l-.37-.749c.77-.36,1.419-.521,2.089-.521,1.329,0,2.079.65,2.079,1.81v3.378h-.979v-.439c-.45.359-.96.529-1.579.529-1.1,0-1.869-.63-1.869-1.549Zm2.099.8c.54,0,.979-.15,1.35-.48v-.859c-.38-.22-.8-.319-1.31-.319-.729,0-1.18.329-1.18.839,0,.49.46.82,1.14.82Z" />
    <path
       id="path138"
       d="m473.119,208.529c0-.34.28-.609.61-.609.34,0,.619.27.619.609s-.279.619-.619.619c-.33,0-.61-.279-.61-.619Zm.11,1.439h.999v5.087h-.999v-5.087Z" />
    <path
       id="path140"
       d="m475.409,209.968h.999v.52c.39-.41.92-.62,1.529-.62,1.17,0,1.989.81,1.989,1.989v3.198h-1v-3.028c0-.79-.489-1.289-1.269-1.289-.54,0-.97.239-1.25.659v3.658h-.999v-5.087Z" />
    <path
       id="path142"
       d="m480.849,212.506c0-1.469,1.12-2.628,2.549-2.628,1.399,0,2.459,1.169,2.459,2.678v.28h-4.008c.14.84.829,1.459,1.709,1.459.5,0,.97-.16,1.289-.449l.64.629c-.6.46-1.209.67-1.969.67-1.499,0-2.669-1.149-2.669-2.639Zm4.019-.42c-.141-.779-.75-1.358-1.489-1.358-.77,0-1.38.549-1.52,1.358h3.009Z" />
    <path
       id="path144"
       d="m486.809,209.968h.999v.649c.32-.49.8-.77,1.399-.77.22.01.36.03.51.09v.899c-.189-.07-.39-.109-.59-.109-.59,0-1.06.319-1.319.919v3.408h-.999v-5.087Z" />
  </g>
  <g
     id="g168">
    <path
       id="path148"
       d="m443.155,102.266h5.157v.919h-4.108v2.099h2.699v.89h-2.699v2.169h4.148v.919h-5.197v-6.996Z" />
    <path
       id="path150"
       d="m449.316,104.175h.999v.52c.39-.41.92-.62,1.529-.62,1.17,0,1.989.81,1.989,1.989v3.198h-1v-3.028c0-.79-.489-1.289-1.269-1.289-.54,0-.97.24-1.25.659v3.658h-.999v-5.087Z" />
    <path
       id="path152"
       d="m454.755,106.713c0-1.479,1.149-2.638,2.619-2.638.77,0,1.519.31,2.039.839l-.62.689c-.39-.419-.879-.64-1.399-.64-.929,0-1.648.77-1.648,1.749,0,1,.729,1.759,1.669,1.759.51,0,.959-.2,1.369-.61l.609.64c-.539.54-1.259.85-2.019.85-1.47,0-2.619-1.149-2.619-2.639Z" />
    <path
       id="path154"
       d="m460.195,104.175h.999v.65c.32-.49.8-.77,1.399-.77.22.01.36.03.51.09v.899c-.189-.07-.39-.11-.59-.11-.59,0-1.06.32-1.319.919v3.408h-.999v-5.087Z" />
    <path
       id="path156"
       d="m463.815,111.351v-.88c.13.03.25.04.44.04.47,0,.799-.239,1.009-.75l.221-.49-2.039-5.097h1.109l1.479,3.878,1.64-3.878h1.079l-2.459,5.717c-.47,1.089-1.019,1.519-1.948,1.519-.22,0-.41-.02-.53-.06Z" />
    <path
       id="path158"
       d="m469.375,104.175h.989v.49c.42-.37.96-.569,1.56-.569,1.449,0,2.568,1.149,2.568,2.618,0,1.479-1.13,2.629-2.589,2.629-.56,0-1.089-.19-1.529-.52v2.479h-.999v-7.126Zm4.138,2.549c0-1-.75-1.759-1.719-1.759-.58,0-1.09.22-1.42.61v2.299c.33.38.85.6,1.42.6.979,0,1.719-.75,1.719-1.749Z" />
    <path
       id="path160"
       d="m475.814,108.003v-2.988h-1.079v-.84h1.079v-1.299l.989-.24v1.539h1.5v.84h-1.5v2.758c0,.52.21.72.75.72.28,0,.479-.03.729-.12v.84c-.27.09-.659.14-.949.14-.989,0-1.52-.459-1.52-1.349Z" />
    <path
       id="path162"
       d="m478.935,102.736c0-.34.28-.61.61-.61.34,0,.619.27.619.61s-.279.62-.619.62c-.33,0-.61-.28-.61-.62Zm.11,1.439h.999v5.087h-.999v-5.087Z" />
    <path
       id="path164"
       d="m480.994,106.723c0-1.479,1.17-2.648,2.649-2.648s2.648,1.169,2.648,2.648-1.17,2.639-2.648,2.639-2.649-1.16-2.649-2.639Zm4.318,0c0-.989-.74-1.769-1.669-1.769s-1.67.78-1.67,1.769.74,1.759,1.67,1.759,1.669-.77,1.669-1.759Z" />
    <path
       id="path166"
       d="m487.244,104.175h.999v.52c.39-.41.92-.62,1.529-.62,1.17,0,1.989.81,1.989,1.989v3.198h-1v-3.028c0-.79-.489-1.289-1.269-1.289-.54,0-.97.24-1.25.659v3.658h-.999v-5.087Z" />
  </g>
  <g
     id="g184">
    <path
       id="path170"
       d="m375.739,174.331h.728l.655,1.995.228.756h.029l.221-.756.662-1.995h.728v4.675h-.57v-2.337c0-.456.071-1.255.1-1.653h-.021l-.264.912-.67,1.838h-.427l-.656-1.838-.271-.912h-.015c.043.398.101,1.197.101,1.653v2.337h-.557v-4.675Z"
       class="uuid-73d44ca0-a7f4-4ffe-bc01-298f5a361e72" />
    <path
       id="path172"
       d="m379.926,177.282c0-1.161.798-1.824,1.71-1.824s1.71.663,1.71,1.824c0,1.147-.798,1.811-1.71,1.811s-1.71-.663-1.71-1.811Zm2.814,0c0-.798-.441-1.332-1.104-1.332s-1.104.534-1.104,1.332c0,.791.441,1.318,1.104,1.318s1.104-.527,1.104-1.318Z"
       class="uuid-73d44ca0-a7f4-4ffe-bc01-298f5a361e72" />
    <path
       id="path174"
       d="m384.318,177.695v-2.151h.592v2.073c0,.648.228.962.798.962.398,0,.691-.186,1.076-.634v-2.401h.591v3.463h-.491l-.05-.605h-.029c-.349.406-.755.691-1.289.691-.819,0-1.197-.485-1.197-1.397Z"
       class="uuid-73d44ca0-a7f4-4ffe-bc01-298f5a361e72" />
    <path
       id="path176"
       d="m388.704,175.543h.484l.05.584h.028c.363-.378.763-.67,1.304-.67.82,0,1.197.484,1.197,1.396v2.152h-.591v-2.073c0-.656-.229-.962-.791-.962-.414,0-.691.206-1.091.619v2.416h-.591v-3.463Z"
       class="uuid-73d44ca0-a7f4-4ffe-bc01-298f5a361e72" />
    <path
       id="path178"
       d="m393.78,177.659v-1.639h-.983v-.442l1.005-.035.078-1.112h.492v1.112h1.695v.478h-1.695v1.646c0,.62.206.94.876.94.321,0,.577-.063.827-.156l.128.435c-.313.114-.648.207-1.083.207-1.012,0-1.34-.577-1.34-1.433Z"
       class="uuid-73d44ca0-a7f4-4ffe-bc01-298f5a361e72" />
    <path
       id="path180"
       d="m397.089,178.55l.271-.392c.399.285.87.47,1.504.47.584,0,.869-.242.869-.534,0-.264-.135-.449-1.076-.642-.904-.185-1.354-.491-1.354-1.012,0-.556.491-.983,1.439-.983.527,0,1.055.207,1.396.442l-.285.377c-.32-.221-.72-.363-1.161-.363-.584,0-.798.235-.798.499,0,.299.299.428,1.012.577,1.147.249,1.425.534,1.425,1.069,0,.562-.549,1.033-1.539,1.033-.677,0-1.282-.25-1.703-.542Z"
       class="uuid-73d44ca0-a7f4-4ffe-bc01-298f5a361e72" />
    <path
       id="path182"
       d="m402.415,175.935c0-.356.257-.605.577-.605s.577.249.577.605c0,.363-.257.605-.577.605s-.577-.242-.577-.605Zm0,2.551c0-.356.257-.605.577-.605s.577.249.577.605c0,.363-.257.606-.577.606s-.577-.243-.577-.606Z"
       class="uuid-73d44ca0-a7f4-4ffe-bc01-298f5a361e72" />
  </g>
  <g
     id="g268">
    <path
       id="path186"
       d="m378.27,184.469h.527l-2.338,6.199h-.527l2.338-6.199Z"
       class="uuid-73d44ca0-a7f4-4ffe-bc01-298f5a361e72" />
    <path
       id="path188"
       d="m380.047,188.217v-2.151h.592v2.073c0,.648.228.962.798.962.398,0,.691-.186,1.076-.634v-2.401h.591v3.463h-.491l-.05-.605h-.029c-.349.406-.755.691-1.289.691-.819,0-1.197-.485-1.197-1.397Z"
       class="uuid-73d44ca0-a7f4-4ffe-bc01-298f5a361e72" />
    <path
       id="path190"
       d="m384.276,189.073l.271-.392c.399.285.87.47,1.504.47.584,0,.869-.242.869-.534,0-.264-.135-.449-1.076-.642-.904-.185-1.354-.491-1.354-1.012,0-.556.491-.983,1.439-.983.527,0,1.055.207,1.396.442l-.285.377c-.32-.221-.72-.363-1.161-.363-.584,0-.798.235-.798.499,0,.299.299.428,1.012.577,1.147.249,1.425.534,1.425,1.069,0,.562-.549,1.033-1.539,1.033-.677,0-1.282-.25-1.703-.542Z"
       class="uuid-73d44ca0-a7f4-4ffe-bc01-298f5a361e72" />
    <path
       id="path192"
       d="m389.074,186.066h.492l.057.819h.014c.364-.563.905-.905,1.547-.905.257,0,.471.036.684.143l-.135.506c-.242-.078-.371-.114-.642-.114-.521,0-1.012.264-1.425.991v2.023h-.592v-3.463Z"
       class="uuid-73d44ca0-a7f4-4ffe-bc01-298f5a361e72" />
    <path
       id="path194"
       d="m395.356,184.469h.527l-2.338,6.199h-.527l2.338-6.199Z"
       class="uuid-73d44ca0-a7f4-4ffe-bc01-298f5a361e72" />
    <path
       id="path196"
       d="m398.336,188.368v-3.435h-1.226v-.478h1.817v3.954c0,.499.271.713.684.713.199,0,.413-.05.648-.156l.149.441c-.32.136-.548.207-.926.207-.741,0-1.147-.428-1.147-1.247Z"
       class="uuid-73d44ca0-a7f4-4ffe-bc01-298f5a361e72" />
    <path
       id="path198"
       d="m401.282,187.804c0-1.161.798-1.824,1.71-1.824s1.71.663,1.71,1.824c0,1.147-.798,1.811-1.71,1.811s-1.71-.663-1.71-1.811Zm2.814,0c0-.798-.441-1.332-1.104-1.332s-1.104.534-1.104,1.332c0,.791.441,1.318,1.104,1.318s1.104-.527,1.104-1.318Z"
       class="uuid-73d44ca0-a7f4-4ffe-bc01-298f5a361e72" />
    <path
       id="path200"
       d="m405.696,187.804c0-1.161.884-1.824,1.931-1.824.563,0,.977.229,1.262.506l-.292.378c-.285-.242-.585-.392-.948-.392-.798,0-1.347.534-1.347,1.332,0,.791.542,1.318,1.333,1.318.427,0,.783-.192,1.068-.435l.264.385c-.385.342-.862.542-1.375.542-1.083,0-1.896-.663-1.896-1.811Z"
       class="uuid-73d44ca0-a7f4-4ffe-bc01-298f5a361e72" />
    <path
       id="path202"
       d="m409.968,188.631c0-.777.727-1.154,2.516-1.297-.021-.471-.25-.87-.92-.87-.448,0-.891.214-1.211.414l-.235-.399c.356-.229.94-.499,1.546-.499.948,0,1.411.563,1.411,1.426v2.123h-.491l-.05-.471h-.021c-.378.3-.877.557-1.361.557-.648,0-1.183-.364-1.183-.983Zm2.516-.008v-.897c-1.482.114-1.932.406-1.932.862,0,.392.356.549.756.549.392,0,.776-.186,1.176-.514Z"
       class="uuid-73d44ca0-a7f4-4ffe-bc01-298f5a361e72" />
    <path
       id="path204"
       d="m415.422,188.368v-3.435h-1.226v-.478h1.817v3.954c0,.499.271.713.684.713.199,0,.413-.05.648-.156l.149.441c-.32.136-.548.207-.926.207-.741,0-1.147-.428-1.147-1.247Z"
       class="uuid-73d44ca0-a7f4-4ffe-bc01-298f5a361e72" />
    <path
       id="path206"
       d="m420.984,184.469h.527l-2.338,6.199h-.527l2.338-6.199Z"
       class="uuid-73d44ca0-a7f4-4ffe-bc01-298f5a361e72" />
    <path
       id="path208"
       d="m422.696,187.79c0-1.126.841-1.811,1.768-1.811.997,0,1.582.648,1.582,1.625,0,.135-.015.264-.028.356h-2.929v-.456h2.579l-.149.164c0-.82-.406-1.227-1.041-1.227-.641,0-1.196.485-1.196,1.348,0,.897.584,1.354,1.354,1.354.413,0,.741-.128,1.055-.328l.214.385c-.342.229-.784.414-1.34.414-1.04,0-1.867-.67-1.867-1.824Z"
       class="uuid-73d44ca0-a7f4-4ffe-bc01-298f5a361e72" />
    <path
       id="path210"
       d="m427.951,188.182v-1.639h-.983v-.442l1.005-.035.078-1.112h.492v1.112h1.695v.478h-1.695v1.646c0,.62.206.94.876.94.321,0,.577-.063.827-.156l.128.435c-.313.114-.648.207-1.083.207-1.012,0-1.34-.577-1.34-1.433Z"
       class="uuid-73d44ca0-a7f4-4ffe-bc01-298f5a361e72" />
    <path
       id="path212"
       d="m431.325,187.804c0-1.161.884-1.824,1.931-1.824.563,0,.977.229,1.262.506l-.292.378c-.285-.242-.585-.392-.948-.392-.798,0-1.347.534-1.347,1.332,0,.791.542,1.318,1.333,1.318.427,0,.783-.192,1.068-.435l.264.385c-.385.342-.862.542-1.375.542-1.083,0-1.896-.663-1.896-1.811Z"
       class="uuid-73d44ca0-a7f4-4ffe-bc01-298f5a361e72" />
    <path
       id="path214"
       d="m438.068,184.469h.527l-2.338,6.199h-.527l2.338-6.199Z"
       class="uuid-73d44ca0-a7f4-4ffe-bc01-298f5a361e72" />
    <path
       id="path216"
       d="m439.803,189.073l.271-.392c.399.285.87.47,1.504.47.584,0,.869-.242.869-.534,0-.264-.135-.449-1.076-.642-.904-.185-1.354-.491-1.354-1.012,0-.556.491-.983,1.439-.983.527,0,1.055.207,1.396.442l-.285.377c-.32-.221-.72-.363-1.161-.363-.584,0-.798.235-.798.499,0,.299.299.428,1.012.577,1.147.249,1.425.534,1.425,1.069,0,.562-.549,1.033-1.539,1.033-.677,0-1.282-.25-1.703-.542Z"
       class="uuid-73d44ca0-a7f4-4ffe-bc01-298f5a361e72" />
    <path
       id="path218"
       d="m444.074,189.073l.271-.392c.399.285.87.47,1.504.47.584,0,.869-.242.869-.534,0-.264-.135-.449-1.076-.642-.904-.185-1.354-.491-1.354-1.012,0-.556.491-.983,1.439-.983.527,0,1.055.207,1.396.442l-.285.377c-.32-.221-.72-.363-1.161-.363-.584,0-.798.235-.798.499,0,.299.299.428,1.012.577,1.147.249,1.425.534,1.425,1.069,0,.562-.549,1.033-1.539,1.033-.677,0-1.282-.25-1.703-.542Z"
       class="uuid-73d44ca0-a7f4-4ffe-bc01-298f5a361e72" />
    <path
       id="path220"
       d="m449.593,188.368v-3.435h-1.226v-.478h1.817v3.954c0,.499.271.713.684.713.199,0,.413-.05.648-.156l.149.441c-.32.136-.548.207-.926.207-.741,0-1.147-.428-1.147-1.247Z"
       class="uuid-73d44ca0-a7f4-4ffe-bc01-298f5a361e72" />
    <path
       id="path222"
       d="m455.154,184.469h.527l-2.338,6.199h-.527l2.338-6.199Z"
       class="uuid-73d44ca0-a7f4-4ffe-bc01-298f5a361e72" />
    <path
       id="path224"
       d="m456.953,187.804c0-1.161.884-1.824,1.931-1.824.563,0,.977.229,1.262.506l-.292.378c-.285-.242-.585-.392-.948-.392-.798,0-1.347.534-1.347,1.332,0,.791.542,1.318,1.332,1.318.428,0,.784-.192,1.069-.435l.264.385c-.385.342-.862.542-1.375.542-1.083,0-1.896-.663-1.896-1.811Z"
       class="uuid-73d44ca0-a7f4-4ffe-bc01-298f5a361e72" />
    <path
       id="path226"
       d="m461.139,187.79c0-1.126.841-1.811,1.768-1.811.997,0,1.582.648,1.582,1.625,0,.135-.015.264-.028.356h-2.929v-.456h2.579l-.149.164c0-.82-.406-1.227-1.041-1.227-.641,0-1.196.485-1.196,1.348,0,.897.584,1.354,1.354,1.354.413,0,.741-.128,1.055-.328l.214.385c-.342.229-.784.414-1.34.414-1.04,0-1.867-.67-1.867-1.824Z"
       class="uuid-73d44ca0-a7f4-4ffe-bc01-298f5a361e72" />
    <path
       id="path228"
       d="m465.959,186.066h.492l.057.819h.014c.364-.563.905-.905,1.547-.905.257,0,.471.036.684.143l-.135.506c-.242-.078-.371-.114-.642-.114-.521,0-1.012.264-1.425.991v2.023h-.592v-3.463Z"
       class="uuid-73d44ca0-a7f4-4ffe-bc01-298f5a361e72" />
    <path
       id="path230"
       d="m470.665,188.182v-1.639h-.983v-.442l1.005-.035.078-1.112h.492v1.112h1.695v.478h-1.695v1.646c0,.62.206.94.876.94.321,0,.577-.063.827-.156l.128.435c-.313.114-.648.207-1.083.207-1.012,0-1.34-.577-1.34-1.433Z"
       class="uuid-73d44ca0-a7f4-4ffe-bc01-298f5a361e72" />
    <path
       id="path232"
       d="m473.974,189.073l.271-.392c.399.285.87.47,1.504.47.584,0,.869-.242.869-.534,0-.264-.135-.449-1.076-.642-.904-.185-1.354-.491-1.354-1.012,0-.556.491-.983,1.439-.983.527,0,1.055.207,1.396.442l-.285.377c-.32-.221-.72-.363-1.161-.363-.584,0-.798.235-.798.499,0,.299.299.428,1.012.577,1.147.249,1.425.534,1.425,1.069,0,.562-.549,1.033-1.539,1.033-.677,0-1.282-.25-1.703-.542Z"
       class="uuid-73d44ca0-a7f4-4ffe-bc01-298f5a361e72" />
    <path
       id="path234"
       d="m482.745,186.101l1.004-.035h2.017v.478h-3.021v-.442Zm.99-.327c0-.841.441-1.404,1.396-1.404.342,0,.67.064.998.199l-.136.442c-.285-.121-.506-.164-.806-.164-.619,0-.869.349-.869.905v3.776h-.584v-3.755Z"
       class="uuid-73d44ca0-a7f4-4ffe-bc01-298f5a361e72" />
    <path
       id="path236"
       d="m487.316,186.066h.492l.057.819h.015c.363-.563.904-.905,1.546-.905.257,0,.471.036.684.143l-.135.506c-.242-.078-.371-.114-.642-.114-.521,0-1.012.264-1.425.991v2.023h-.592v-3.463Z"
       class="uuid-73d44ca0-a7f4-4ffe-bc01-298f5a361e72" />
    <path
       id="path238"
       d="m490.982,187.804c0-1.161.798-1.824,1.71-1.824s1.71.663,1.71,1.824c0,1.147-.798,1.811-1.71,1.811s-1.71-.663-1.71-1.811Zm2.814,0c0-.798-.441-1.332-1.104-1.332s-1.104.534-1.104,1.332c0,.791.441,1.318,1.104,1.318s1.104-.527,1.104-1.318Z"
       class="uuid-73d44ca0-a7f4-4ffe-bc01-298f5a361e72" />
    <path
       id="path240"
       d="m495.238,186.066h.471l.05.456h.014c.179-.321.393-.542.791-.542.343,0,.557.199.656.599.199-.37.413-.599.812-.599.484,0,.77.378.77,1.069v2.479h-.585v-2.438c0-.398-.113-.605-.37-.605-.242,0-.371.179-.556.534v2.509h-.542v-2.438c0-.398-.1-.605-.356-.605-.242,0-.398.179-.569.534v2.509h-.585v-3.463Z"
       class="uuid-73d44ca0-a7f4-4ffe-bc01-298f5a361e72" />
    <path
       id="path242"
       d="m504.836,188.182v-1.639h-.983v-.442l1.005-.035.078-1.112h.492v1.112h1.695v.478h-1.695v1.646c0,.62.206.94.876.94.321,0,.577-.063.827-.156l.128.435c-.313.114-.648.207-1.083.207-1.012,0-1.34-.577-1.34-1.433Z"
       class="uuid-73d44ca0-a7f4-4ffe-bc01-298f5a361e72" />
    <path
       id="path244"
       d="m509.393,188.368v-3.435h-1.226v-.478h1.817v3.954c0,.499.271.713.684.713.199,0,.413-.05.648-.156l.149.441c-.32.136-.548.207-.926.207-.741,0-1.147-.428-1.147-1.247Z"
       class="uuid-73d44ca0-a7f4-4ffe-bc01-298f5a361e72" />
    <path
       id="path246"
       d="m512.416,189.073l.271-.392c.399.285.87.47,1.504.47.584,0,.869-.242.869-.534,0-.264-.135-.449-1.076-.642-.904-.185-1.354-.491-1.354-1.012,0-.556.491-.983,1.439-.983.527,0,1.055.207,1.396.442l-.285.377c-.32-.221-.72-.363-1.161-.363-.584,0-.798.235-.798.499,0,.299.299.428,1.012.577,1.147.249,1.425.534,1.425,1.069,0,.562-.549,1.033-1.539,1.033-.677,0-1.282-.25-1.703-.542Z"
       class="uuid-73d44ca0-a7f4-4ffe-bc01-298f5a361e72" />
    <path
       id="path248"
       d="m516.787,186.956h3.064v.441h-3.064v-.441Z"
       class="uuid-73d44ca0-a7f4-4ffe-bc01-298f5a361e72" />
    <path
       id="path250"
       d="m521.024,187.804c0-1.161.884-1.824,1.931-1.824.563,0,.977.229,1.262.506l-.292.378c-.285-.242-.585-.392-.948-.392-.798,0-1.347.534-1.347,1.332,0,.791.542,1.318,1.332,1.318.428,0,.784-.192,1.069-.435l.264.385c-.385.342-.862.542-1.375.542-1.083,0-1.896-.663-1.896-1.811Z"
       class="uuid-73d44ca0-a7f4-4ffe-bc01-298f5a361e72" />
    <path
       id="path252"
       d="m525.209,187.79c0-1.126.841-1.811,1.768-1.811.997,0,1.582.648,1.582,1.625,0,.135-.015.264-.028.356h-2.929v-.456h2.579l-.149.164c0-.82-.406-1.227-1.041-1.227-.641,0-1.196.485-1.196,1.348,0,.897.584,1.354,1.354,1.354.413,0,.741-.128,1.055-.328l.214.385c-.342.229-.784.414-1.34.414-1.04,0-1.867-.67-1.867-1.824Z"
       class="uuid-73d44ca0-a7f4-4ffe-bc01-298f5a361e72" />
    <path
       id="path254"
       d="m530.029,186.066h.492l.057.819h.014c.364-.563.905-.905,1.547-.905.257,0,.471.036.684.143l-.135.506c-.242-.078-.371-.114-.642-.114-.521,0-1.012.264-1.425.991v2.023h-.592v-3.463Z"
       class="uuid-73d44ca0-a7f4-4ffe-bc01-298f5a361e72" />
    <path
       id="path256"
       d="m534.735,188.182v-1.639h-.983v-.442l1.005-.035.078-1.112h.492v1.112h1.695v.478h-1.695v1.646c0,.62.206.94.876.94.321,0,.577-.063.827-.156l.128.435c-.313.114-.648.207-1.083.207-1.012,0-1.34-.577-1.34-1.433Z"
       class="uuid-73d44ca0-a7f4-4ffe-bc01-298f5a361e72" />
    <path
       id="path258"
       d="m538.045,189.073l.271-.392c.399.285.87.47,1.504.47.584,0,.869-.242.869-.534,0-.264-.135-.449-1.076-.642-.904-.185-1.354-.491-1.354-1.012,0-.556.491-.983,1.439-.983.527,0,1.055.207,1.396.442l-.285.377c-.32-.221-.72-.363-1.161-.363-.584,0-.798.235-.798.499,0,.299.299.428,1.012.577,1.147.249,1.425.534,1.425,1.069,0,.562-.549,1.033-1.539,1.033-.677,0-1.282-.25-1.703-.542Z"
       class="uuid-73d44ca0-a7f4-4ffe-bc01-298f5a361e72" />
    <path
       id="path260"
       d="m547.565,187.547c0-1.375.605-2.465,1.596-3.234l.328.299c-.955.806-1.396,1.739-1.396,2.936s.441,2.131,1.396,2.937l-.328.299c-.99-.77-1.596-1.859-1.596-3.235Z"
       class="uuid-73d44ca0-a7f4-4ffe-bc01-298f5a361e72" />
    <path
       id="path262"
       d="m551.387,186.066h.492l.057.819h.014c.364-.563.905-.905,1.547-.905.257,0,.471.036.684.143l-.135.506c-.242-.078-.371-.114-.642-.114-.521,0-1.012.264-1.425.991v2.023h-.592v-3.463Z"
       class="uuid-73d44ca0-a7f4-4ffe-bc01-298f5a361e72" />
    <path
       id="path264"
       d="m555.052,187.804c0-1.161.798-1.824,1.71-1.824s1.71.663,1.71,1.824c0,1.147-.798,1.811-1.71,1.811s-1.71-.663-1.71-1.811Zm2.814,0c0-.798-.441-1.332-1.104-1.332s-1.104.534-1.104,1.332c0,.791.441,1.318,1.104,1.318s1.104-.527,1.104-1.318Z"
       class="uuid-73d44ca0-a7f4-4ffe-bc01-298f5a361e72" />
    <path
       id="path266"
       d="m559.765,190.484c.955-.806,1.396-1.739,1.396-2.937s-.441-2.13-1.396-2.936l.328-.299c.99.77,1.596,1.859,1.596,3.234s-.605,2.466-1.596,3.235l-.328-.299Z"
       class="uuid-73d44ca0-a7f4-4ffe-bc01-298f5a361e72" />
  </g>
  <rect
     id="rect270"
     height="110.689"
     width="214.027"
     y="236.02"
     x="360.372"
     class="uuid-4500c3b5-6467-40e2-81be-097fb1682b9a" />
  <g
     id="g298">
    <path
       id="path272"
       d="m375.583,251.468h.605l.798,1.959c.136.35.264.691.385,1.026h.029c.121-.335.234-.677.377-1.026l.799-1.959h.569l-1.439,3.463h-.662l-1.461-3.463Z"
       class="uuid-73d44ca0-a7f4-4ffe-bc01-298f5a361e72" />
    <path
       id="path274"
       d="m379.926,253.206c0-1.161.798-1.824,1.71-1.824s1.71.663,1.71,1.824c0,1.147-.798,1.811-1.71,1.811s-1.71-.663-1.71-1.811Zm2.814,0c0-.798-.441-1.332-1.104-1.332s-1.104.534-1.104,1.332c0,.791.441,1.318,1.104,1.318s1.104-.527,1.104-1.318Z"
       class="uuid-73d44ca0-a7f4-4ffe-bc01-298f5a361e72" />
    <path
       id="path276"
       d="m385.523,253.77v-3.435h-1.226v-.478h1.817v3.954c0,.499.271.713.684.713.199,0,.413-.05.648-.156l.149.441c-.32.136-.548.207-.926.207-.741,0-1.147-.428-1.147-1.247Z"
       class="uuid-73d44ca0-a7f4-4ffe-bc01-298f5a361e72" />
    <path
       id="path278"
       d="m388.59,253.619v-2.151h.592v2.073c0,.648.228.962.798.962.398,0,.691-.186,1.076-.634v-2.401h.591v3.463h-.491l-.05-.605h-.029c-.349.406-.755.691-1.289.691-.819,0-1.197-.485-1.197-1.397Z"
       class="uuid-73d44ca0-a7f4-4ffe-bc01-298f5a361e72" />
    <path
       id="path280"
       d="m392.726,251.468h.471l.05.456h.014c.179-.321.393-.542.791-.542.343,0,.557.199.656.599.199-.37.413-.599.812-.599.484,0,.77.378.77,1.069v2.479h-.585v-2.438c0-.398-.113-.605-.37-.605-.242,0-.371.179-.556.534v2.509h-.542v-2.438c0-.398-.1-.605-.356-.605-.242,0-.398.179-.569.534v2.509h-.585v-3.463Z"
       class="uuid-73d44ca0-a7f4-4ffe-bc01-298f5a361e72" />
    <path
       id="path282"
       d="m397.067,253.193c0-1.126.841-1.811,1.768-1.811.997,0,1.582.648,1.582,1.625,0,.135-.015.264-.028.356h-2.929v-.456h2.579l-.149.164c0-.82-.406-1.227-1.041-1.227-.641,0-1.196.485-1.196,1.348,0,.897.584,1.354,1.354,1.354.413,0,.741-.128,1.055-.328l.214.385c-.342.229-.784.414-1.34.414-1.04,0-1.867-.67-1.867-1.824Z"
       class="uuid-73d44ca0-a7f4-4ffe-bc01-298f5a361e72" />
    <path
       id="path284"
       d="m401.367,250.256h.728l.655,1.995.228.756h.029l.221-.756.662-1.995h.728v4.675h-.57v-2.337c0-.456.071-1.255.1-1.653h-.021l-.264.912-.67,1.838h-.427l-.656-1.838-.271-.912h-.015c.043.398.101,1.197.101,1.653v2.337h-.557v-4.675Z"
       class="uuid-73d44ca0-a7f4-4ffe-bc01-298f5a361e72" />
    <path
       id="path286"
       d="m405.554,253.206c0-1.161.798-1.824,1.71-1.824s1.71.663,1.71,1.824c0,1.147-.798,1.811-1.71,1.811s-1.71-.663-1.71-1.811Zm2.814,0c0-.798-.441-1.332-1.104-1.332s-1.104.534-1.104,1.332c0,.791.441,1.318,1.104,1.318s1.104-.527,1.104-1.318Z"
       class="uuid-73d44ca0-a7f4-4ffe-bc01-298f5a361e72" />
    <path
       id="path288"
       d="m409.946,253.619v-2.151h.591v2.073c0,.648.229.962.799.962.398,0,.691-.186,1.076-.634v-2.401h.591v3.463h-.491l-.05-.605h-.029c-.349.406-.755.691-1.289.691-.819,0-1.197-.485-1.197-1.397Z"
       class="uuid-73d44ca0-a7f4-4ffe-bc01-298f5a361e72" />
    <path
       id="path290"
       d="m414.332,251.468h.484l.05.584h.028c.363-.378.763-.67,1.304-.67.82,0,1.197.484,1.197,1.396v2.152h-.591v-2.073c0-.656-.229-.962-.791-.962-.414,0-.691.206-1.091.619v2.416h-.591v-3.463Z"
       class="uuid-73d44ca0-a7f4-4ffe-bc01-298f5a361e72" />
    <path
       id="path292"
       d="m419.408,253.584v-1.639h-.983v-.442l1.005-.035.078-1.112h.492v1.112h1.695v.478h-1.695v1.646c0,.62.206.94.876.94.321,0,.577-.063.827-.156l.128.435c-.313.114-.648.207-1.083.207-1.012,0-1.34-.577-1.34-1.433Z"
       class="uuid-73d44ca0-a7f4-4ffe-bc01-298f5a361e72" />
    <path
       id="path294"
       d="m422.718,254.475l.271-.392c.399.285.87.47,1.504.47.584,0,.869-.242.869-.534,0-.264-.135-.449-1.076-.642-.904-.185-1.354-.491-1.354-1.012,0-.556.491-.983,1.439-.983.527,0,1.055.207,1.396.442l-.285.377c-.32-.221-.72-.363-1.161-.363-.584,0-.798.235-.798.499,0,.299.299.428,1.012.577,1.147.249,1.425.534,1.425,1.069,0,.562-.549,1.033-1.539,1.033-.677,0-1.282-.25-1.703-.542Z"
       class="uuid-73d44ca0-a7f4-4ffe-bc01-298f5a361e72" />
    <path
       id="path296"
       d="m428.044,251.86c0-.356.257-.605.577-.605s.577.249.577.605c0,.363-.257.605-.577.605s-.577-.242-.577-.605Zm0,2.551c0-.356.257-.605.577-.605s.577.249.577.605c0,.363-.257.606-.577.606s-.577-.243-.577-.606Z"
       class="uuid-73d44ca0-a7f4-4ffe-bc01-298f5a361e72" />
  </g>
  <g
     id="g424">
    <path
       id="path300"
       d="m375.832,262.021h3.064v.441h-3.064v-.441Z"
       class="uuid-73d44ca0-a7f4-4ffe-bc01-298f5a361e72" />
    <path
       id="path302"
       d="m384.433,261.13h.484l.05.584h.028c.363-.378.763-.67,1.304-.67.82,0,1.197.484,1.197,1.396v2.152h-.591v-2.073c0-.656-.229-.962-.791-.962-.414,0-.691.206-1.091.619v2.416h-.591v-3.463Z"
       class="uuid-73d44ca0-a7f4-4ffe-bc01-298f5a361e72" />
    <path
       id="path304"
       d="m388.611,263.696c0-.777.727-1.154,2.516-1.297-.021-.471-.25-.87-.92-.87-.448,0-.891.214-1.211.414l-.235-.399c.356-.229.94-.499,1.546-.499.948,0,1.411.563,1.411,1.426v2.123h-.491l-.05-.471h-.021c-.378.3-.877.557-1.361.557-.648,0-1.183-.364-1.183-.983Zm2.516-.008v-.897c-1.482.114-1.932.406-1.932.862,0,.392.356.549.756.549.392,0,.776-.186,1.176-.514Z"
       class="uuid-73d44ca0-a7f4-4ffe-bc01-298f5a361e72" />
    <path
       id="path306"
       d="m392.726,261.13h.471l.05.456h.014c.179-.321.393-.542.791-.542.343,0,.557.199.656.599.199-.37.413-.599.812-.599.484,0,.77.378.77,1.069v2.479h-.585v-2.438c0-.398-.113-.605-.37-.605-.242,0-.371.179-.556.534v2.509h-.542v-2.438c0-.398-.1-.605-.356-.605-.242,0-.398.179-.569.534v2.509h-.585v-3.463Z"
       class="uuid-73d44ca0-a7f4-4ffe-bc01-298f5a361e72" />
    <path
       id="path308"
       d="m397.067,262.855c0-1.126.841-1.811,1.768-1.811.997,0,1.582.648,1.582,1.625,0,.135-.015.264-.028.356h-2.929v-.456h2.579l-.149.164c0-.82-.406-1.227-1.041-1.227-.641,0-1.196.485-1.196,1.348,0,.897.584,1.354,1.354,1.354.413,0,.741-.128,1.055-.328l.214.385c-.342.229-.784.414-1.34.414-1.04,0-1.867-.67-1.867-1.824Z"
       class="uuid-73d44ca0-a7f4-4ffe-bc01-298f5a361e72" />
    <path
       id="path310"
       d="m402.415,261.522c0-.356.257-.605.577-.605s.577.249.577.605c0,.363-.257.605-.577.605s-.577-.242-.577-.605Zm0,2.551c0-.356.257-.605.577-.605s.577.249.577.605c0,.363-.257.606-.577.606s-.577-.243-.577-.606Z"
       class="uuid-73d44ca0-a7f4-4ffe-bc01-298f5a361e72" />
    <path
       id="path312"
       d="m410.865,263.246v-1.639h-.983v-.442l1.005-.035.078-1.112h.492v1.112h1.695v.478h-1.695v1.646c0,.62.206.94.876.94.321,0,.577-.063.827-.156l.128.435c-.313.114-.648.207-1.083.207-1.012,0-1.34-.577-1.34-1.433Z"
       class="uuid-73d44ca0-a7f4-4ffe-bc01-298f5a361e72" />
    <path
       id="path314"
       d="m415.422,263.432v-3.435h-1.226v-.478h1.817v3.954c0,.499.271.713.684.713.199,0,.413-.05.648-.156l.149.441c-.32.136-.548.207-.926.207-.741,0-1.147-.428-1.147-1.247Z"
       class="uuid-73d44ca0-a7f4-4ffe-bc01-298f5a361e72" />
    <path
       id="path316"
       d="m418.446,264.137l.271-.392c.399.285.87.47,1.504.47.584,0,.869-.242.869-.534,0-.264-.135-.449-1.076-.642-.904-.185-1.354-.491-1.354-1.012,0-.556.491-.983,1.439-.983.527,0,1.055.207,1.396.442l-.285.377c-.32-.221-.72-.363-1.161-.363-.584,0-.798.235-.798.499,0,.299.299.428,1.012.577,1.147.249,1.425.534,1.425,1.069,0,.562-.549,1.033-1.539,1.033-.677,0-1.282-.25-1.703-.542Z"
       class="uuid-73d44ca0-a7f4-4ffe-bc01-298f5a361e72" />
    <path
       id="path318"
       d="m422.817,262.021h3.064v.441h-3.064v-.441Z"
       class="uuid-73d44ca0-a7f4-4ffe-bc01-298f5a361e72" />
    <path
       id="path320"
       d="m427.054,262.868c0-1.161.884-1.824,1.931-1.824.563,0,.977.229,1.262.506l-.292.378c-.285-.242-.585-.392-.948-.392-.798,0-1.347.534-1.347,1.332,0,.791.542,1.318,1.333,1.318.427,0,.783-.192,1.068-.435l.264.385c-.385.342-.862.542-1.375.542-1.083,0-1.896-.663-1.896-1.811Z"
       class="uuid-73d44ca0-a7f4-4ffe-bc01-298f5a361e72" />
    <path
       id="path322"
       d="m431.239,262.855c0-1.126.841-1.811,1.768-1.811.997,0,1.582.648,1.582,1.625,0,.135-.015.264-.028.356h-2.929v-.456h2.579l-.149.164c0-.82-.406-1.227-1.041-1.227-.641,0-1.196.485-1.196,1.348,0,.897.584,1.354,1.354,1.354.413,0,.741-.128,1.055-.328l.214.385c-.342.229-.784.414-1.34.414-1.04,0-1.867-.67-1.867-1.824Z"
       class="uuid-73d44ca0-a7f4-4ffe-bc01-298f5a361e72" />
    <path
       id="path324"
       d="m436.059,261.13h.492l.057.819h.014c.364-.563.905-.905,1.547-.905.257,0,.471.036.684.143l-.135.506c-.242-.078-.371-.114-.642-.114-.521,0-1.012.264-1.425.991v2.023h-.592v-3.463Z"
       class="uuid-73d44ca0-a7f4-4ffe-bc01-298f5a361e72" />
    <path
       id="path326"
       d="m440.765,263.246v-1.639h-.983v-.442l1.005-.035.078-1.112h.492v1.112h1.695v.478h-1.695v1.646c0,.62.206.94.876.94.321,0,.577-.063.827-.156l.128.435c-.313.114-.648.207-1.083.207-1.012,0-1.34-.577-1.34-1.433Z"
       class="uuid-73d44ca0-a7f4-4ffe-bc01-298f5a361e72" />
    <path
       id="path328"
       d="m444.074,264.137l.271-.392c.399.285.87.47,1.504.47.584,0,.869-.242.869-.534,0-.264-.135-.449-1.076-.642-.904-.185-1.354-.491-1.354-1.012,0-.556.491-.983,1.439-.983.527,0,1.055.207,1.396.442l-.285.377c-.32-.221-.72-.363-1.161-.363-.584,0-.798.235-.798.499,0,.299.299.428,1.012.577,1.147.249,1.425.534,1.425,1.069,0,.562-.549,1.033-1.539,1.033-.677,0-1.282-.25-1.703-.542Z"
       class="uuid-73d44ca0-a7f4-4ffe-bc01-298f5a361e72" />
    <path
       id="path330"
       d="m384.803,269.673h.492l.057.819h.014c.364-.563.905-.905,1.547-.905.257,0,.471.036.684.143l-.135.506c-.242-.078-.371-.114-.642-.114-.521,0-1.012.264-1.425.991v2.023h-.592v-3.463Z"
       class="uuid-73d44ca0-a7f4-4ffe-bc01-298f5a361e72" />
    <path
       id="path332"
       d="m388.526,271.398c0-1.126.841-1.811,1.768-1.811.997,0,1.582.648,1.582,1.625,0,.135-.015.264-.028.356h-2.929v-.456h2.579l-.149.164c0-.82-.406-1.227-1.041-1.227-.641,0-1.196.485-1.196,1.348,0,.897.584,1.354,1.354,1.354.413,0,.741-.128,1.055-.328l.214.385c-.342.229-.784.414-1.34.414-1.04,0-1.867-.67-1.867-1.824Z"
       class="uuid-73d44ca0-a7f4-4ffe-bc01-298f5a361e72" />
    <path
       id="path334"
       d="m392.883,272.239c0-.777.727-1.154,2.516-1.297-.021-.471-.25-.87-.92-.87-.448,0-.891.214-1.211.414l-.235-.399c.356-.229.94-.499,1.546-.499.948,0,1.411.563,1.411,1.426v2.123h-.491l-.05-.471h-.021c-.378.3-.877.557-1.361.557-.648,0-1.183-.364-1.183-.983Zm2.516-.008v-.897c-1.482.114-1.932.406-1.932.862,0,.392.356.549.756.549.392,0,.776-.186,1.176-.514Z"
       class="uuid-73d44ca0-a7f4-4ffe-bc01-298f5a361e72" />
    <path
       id="path336"
       d="m397.011,271.411c0-1.126.748-1.824,1.567-1.824.413,0,.734.164,1.04.442h.015l-.028-.635v-1.332h.592v5.073h-.485l-.05-.456h-.021c-.285.292-.698.542-1.133.542-.897,0-1.496-.656-1.496-1.811Zm2.594.798v-1.724c-.313-.293-.605-.399-.905-.399-.599,0-1.083.527-1.083,1.318,0,.826.385,1.318,1.019,1.318.343,0,.663-.171.97-.514Z"
       class="uuid-73d44ca0-a7f4-4ffe-bc01-298f5a361e72" />
    <path
       id="path338"
       d="m401.196,270.778c0-1.511.741-2.401,1.796-2.401s1.796.891,1.796,2.401c0,1.532-.741,2.444-1.796,2.444s-1.796-.912-1.796-2.444Zm2.972,0c0-1.176-.471-1.874-1.176-1.874s-1.176.698-1.176,1.874c0,1.197.471,1.917,1.176,1.917s1.176-.72,1.176-1.917Z"
       class="uuid-73d44ca0-a7f4-4ffe-bc01-298f5a361e72" />
    <path
       id="path340"
       d="m405.789,269.673h.484l.05.584h.028c.363-.378.763-.67,1.304-.67.82,0,1.197.484,1.197,1.396v2.152h-.591v-2.073c0-.656-.229-.962-.791-.962-.414,0-.691.206-1.091.619v2.416h-.591v-3.463Z"
       class="uuid-73d44ca0-a7f4-4ffe-bc01-298f5a361e72" />
    <path
       id="path342"
       d="m411.151,271.975v-3.435h-1.226v-.478h1.817v3.954c0,.499.271.713.684.713.199,0,.413-.05.648-.156l.149.441c-.32.136-.548.207-.926.207-.741,0-1.147-.428-1.147-1.247Z"
       class="uuid-73d44ca0-a7f4-4ffe-bc01-298f5a361e72" />
    <path
       id="path344"
       d="m414.147,274.554l.121-.471c.093.029.207.051.313.051.484,0,.776-.307.947-.734l.101-.257-1.61-3.47h.598l.842,1.909c.135.307.284.67.427,1.005h.029c.121-.328.256-.691.37-1.005l.748-1.909h.57l-1.532,3.748c-.257.684-.677,1.204-1.468,1.204-.164,0-.335-.028-.456-.071Z"
       class="uuid-73d44ca0-a7f4-4ffe-bc01-298f5a361e72" />
    <path
       id="path346"
       d="m419.501,270.065c0-.356.257-.605.577-.605s.577.249.577.605c0,.363-.257.605-.577.605s-.577-.242-.577-.605Zm0,2.551c0-.356.257-.605.577-.605s.577.249.577.605c0,.363-.257.606-.577.606s-.577-.243-.577-.606Z"
       class="uuid-73d44ca0-a7f4-4ffe-bc01-298f5a361e72" />
    <path
       id="path348"
       d="m427.951,271.789v-1.639h-.983v-.442l1.005-.035.078-1.112h.492v1.112h1.695v.478h-1.695v1.646c0,.62.206.94.876.94.321,0,.577-.063.827-.156l.128.435c-.313.114-.648.207-1.083.207-1.012,0-1.34-.577-1.34-1.433Z"
       class="uuid-73d44ca0-a7f4-4ffe-bc01-298f5a361e72" />
    <path
       id="path350"
       d="m431.788,269.673h.492l.057.819h.015c.363-.563.904-.905,1.546-.905.257,0,.471.036.684.143l-.135.506c-.242-.078-.371-.114-.642-.114-.521,0-1.012.264-1.425.991v2.023h-.592v-3.463Z"
       class="uuid-73d44ca0-a7f4-4ffe-bc01-298f5a361e72" />
    <path
       id="path352"
       d="m435.574,271.825v-2.151h.592v2.073c0,.648.228.962.798.962.398,0,.691-.186,1.076-.634v-2.401h.591v3.463h-.491l-.05-.605h-.029c-.349.406-.755.691-1.289.691-.819,0-1.197-.485-1.197-1.397Z"
       class="uuid-73d44ca0-a7f4-4ffe-bc01-298f5a361e72" />
    <path
       id="path354"
       d="m439.781,271.398c0-1.126.841-1.811,1.768-1.811.997,0,1.582.648,1.582,1.625,0,.135-.015.264-.028.356h-2.929v-.456h2.579l-.149.164c0-.82-.406-1.227-1.041-1.227-.641,0-1.196.485-1.196,1.348,0,.897.584,1.354,1.354,1.354.413,0,.741-.128,1.055-.328l.214.385c-.342.229-.784.414-1.34.414-1.04,0-1.867-.67-1.867-1.824Z"
       class="uuid-73d44ca0-a7f4-4ffe-bc01-298f5a361e72" />
    <path
       id="path356"
       d="m384.183,278.216h.471l.05.456h.014c.179-.321.393-.542.791-.542.343,0,.557.199.656.599.199-.37.413-.599.812-.599.484,0,.77.378.77,1.069v2.479h-.585v-2.438c0-.398-.113-.605-.37-.605-.242,0-.371.179-.556.534v2.509h-.542v-2.438c0-.398-.1-.605-.356-.605-.242,0-.398.179-.569.534v2.509h-.585v-3.463Z"
       class="uuid-73d44ca0-a7f4-4ffe-bc01-298f5a361e72" />
    <path
       id="path358"
       d="m388.469,279.954c0-1.161.798-1.824,1.71-1.824s1.71.663,1.71,1.824c0,1.147-.798,1.811-1.71,1.811s-1.71-.663-1.71-1.811Zm2.814,0c0-.798-.441-1.332-1.104-1.332s-1.104.534-1.104,1.332c0,.791.441,1.318,1.104,1.318s1.104-.527,1.104-1.318Z"
       class="uuid-73d44ca0-a7f4-4ffe-bc01-298f5a361e72" />
    <path
       id="path360"
       d="m392.861,280.368v-2.151h.592v2.073c0,.648.228.962.798.962.398,0,.691-.186,1.076-.634v-2.401h.591v3.463h-.491l-.05-.605h-.029c-.349.406-.755.691-1.289.691-.819,0-1.197-.485-1.197-1.397Z"
       class="uuid-73d44ca0-a7f4-4ffe-bc01-298f5a361e72" />
    <path
       id="path362"
       d="m397.246,278.216h.484l.05.584h.028c.363-.378.763-.67,1.304-.67.82,0,1.197.484,1.197,1.396v2.152h-.591v-2.073c0-.656-.229-.962-.791-.962-.414,0-.691.206-1.091.619v2.416h-.591v-3.463Z"
       class="uuid-73d44ca0-a7f4-4ffe-bc01-298f5a361e72" />
    <path
       id="path364"
       d="m402.322,280.332v-1.639h-.983v-.442l1.005-.035.078-1.112h.492v1.112h1.695v.478h-1.695v1.646c0,.62.206.94.876.94.321,0,.577-.063.827-.156l.128.435c-.313.114-.648.207-1.083.207-1.012,0-1.34-.577-1.34-1.433Z"
       class="uuid-73d44ca0-a7f4-4ffe-bc01-298f5a361e72" />
    <path
       id="path366"
       d="m405.853,277.004h1.411c1.033,0,1.731.35,1.731,1.376,0,.99-.705,1.446-1.731,1.446h-.812v1.853h-.599v-4.675Zm1.34,2.338c.812,0,1.204-.3,1.204-.962,0-.67-.398-.892-1.204-.892h-.741v1.854h.741Z"
       class="uuid-73d44ca0-a7f4-4ffe-bc01-298f5a361e72" />
    <path
       id="path368"
       d="m409.968,280.782c0-.777.727-1.154,2.516-1.297-.021-.471-.25-.87-.92-.87-.448,0-.891.214-1.211.414l-.235-.399c.356-.229.94-.499,1.546-.499.948,0,1.411.563,1.411,1.426v2.123h-.491l-.05-.471h-.021c-.378.3-.877.557-1.361.557-.648,0-1.183-.364-1.183-.983Zm2.516-.008v-.897c-1.482.114-1.932.406-1.932.862,0,.392.356.549.756.549.392,0,.776-.186,1.176-.514Z"
       class="uuid-73d44ca0-a7f4-4ffe-bc01-298f5a361e72" />
    <path
       id="path370"
       d="m415.137,280.332v-1.639h-.983v-.442l1.005-.035.078-1.112h.492v1.112h1.695v.478h-1.695v1.646c0,.62.206.94.876.94.321,0,.577-.063.827-.156l.128.435c-.313.114-.648.207-1.083.207-1.012,0-1.34-.577-1.34-1.433Z"
       class="uuid-73d44ca0-a7f4-4ffe-bc01-298f5a361e72" />
    <path
       id="path372"
       d="m418.604,276.606h.591v1.382l-.035.819h.021c.349-.385.755-.677,1.289-.677.82,0,1.197.484,1.197,1.396v2.152h-.591v-2.073c0-.656-.229-.962-.791-.962-.414,0-.691.206-1.091.619v2.416h-.591v-5.073Z"
       class="uuid-73d44ca0-a7f4-4ffe-bc01-298f5a361e72" />
    <path
       id="path374"
       d="m423.773,278.608c0-.356.257-.605.577-.605s.577.249.577.605c0,.363-.257.605-.577.605s-.577-.242-.577-.605Zm0,2.551c0-.356.257-.605.577-.605s.577.249.577.605c0,.363-.257.606-.577.606s-.577-.243-.577-.606Z"
       class="uuid-73d44ca0-a7f4-4ffe-bc01-298f5a361e72" />
    <path
       id="path376"
       d="m433.798,276.619h.527l-2.338,6.199h-.527l2.338-6.199Z"
       class="uuid-73d44ca0-a7f4-4ffe-bc01-298f5a361e72" />
    <path
       id="path378"
       d="m435.574,280.368v-2.151h.592v2.073c0,.648.228.962.798.962.398,0,.691-.186,1.076-.634v-2.401h.591v3.463h-.491l-.05-.605h-.029c-.349.406-.755.691-1.289.691-.819,0-1.197-.485-1.197-1.397Z"
       class="uuid-73d44ca0-a7f4-4ffe-bc01-298f5a361e72" />
    <path
       id="path380"
       d="m439.803,281.223l.271-.392c.399.285.87.47,1.504.47.584,0,.869-.242.869-.534,0-.264-.135-.449-1.076-.642-.904-.185-1.354-.491-1.354-1.012,0-.556.491-.983,1.439-.983.527,0,1.055.207,1.396.442l-.285.377c-.32-.221-.72-.363-1.161-.363-.584,0-.798.235-.798.499,0,.299.299.428,1.012.577,1.147.249,1.425.534,1.425,1.069,0,.562-.549,1.033-1.539,1.033-.677,0-1.282-.25-1.703-.542Z"
       class="uuid-73d44ca0-a7f4-4ffe-bc01-298f5a361e72" />
    <path
       id="path382"
       d="m444.602,278.216h.492l.057.819h.014c.364-.563.905-.905,1.547-.905.257,0,.471.036.684.143l-.135.506c-.242-.078-.371-.114-.642-.114-.521,0-1.012.264-1.425.991v2.023h-.592v-3.463Z"
       class="uuid-73d44ca0-a7f4-4ffe-bc01-298f5a361e72" />
    <path
       id="path384"
       d="m450.883,276.619h.527l-2.338,6.199h-.527l2.338-6.199Z"
       class="uuid-73d44ca0-a7f4-4ffe-bc01-298f5a361e72" />
    <path
       id="path386"
       d="m453.864,280.518v-3.435h-1.226v-.478h1.817v3.954c0,.499.271.713.684.713.199,0,.413-.05.648-.156l.149.441c-.32.136-.548.207-.926.207-.741,0-1.147-.428-1.147-1.247Z"
       class="uuid-73d44ca0-a7f4-4ffe-bc01-298f5a361e72" />
    <path
       id="path388"
       d="m456.811,279.954c0-1.161.798-1.824,1.71-1.824s1.71.663,1.71,1.824c0,1.147-.798,1.811-1.71,1.811s-1.71-.663-1.71-1.811Zm2.814,0c0-.798-.441-1.332-1.104-1.332s-1.104.534-1.104,1.332c0,.791.441,1.318,1.104,1.318s1.104-.527,1.104-1.318Z"
       class="uuid-73d44ca0-a7f4-4ffe-bc01-298f5a361e72" />
    <path
       id="path390"
       d="m461.225,279.954c0-1.161.884-1.824,1.931-1.824.563,0,.977.229,1.262.506l-.292.378c-.285-.242-.585-.392-.948-.392-.798,0-1.347.534-1.347,1.332,0,.791.542,1.318,1.332,1.318.428,0,.784-.192,1.069-.435l.264.385c-.385.342-.862.542-1.375.542-1.083,0-1.896-.663-1.896-1.811Z"
       class="uuid-73d44ca0-a7f4-4ffe-bc01-298f5a361e72" />
    <path
       id="path392"
       d="m465.496,280.782c0-.777.727-1.154,2.516-1.297-.021-.471-.25-.87-.92-.87-.448,0-.891.214-1.211.414l-.235-.399c.356-.229.94-.499,1.546-.499.948,0,1.411.563,1.411,1.426v2.123h-.491l-.05-.471h-.021c-.378.3-.877.557-1.361.557-.648,0-1.183-.364-1.183-.983Zm2.516-.008v-.897c-1.482.114-1.932.406-1.932.862,0,.392.356.549.756.549.392,0,.776-.186,1.176-.514Z"
       class="uuid-73d44ca0-a7f4-4ffe-bc01-298f5a361e72" />
    <path
       id="path394"
       d="m470.95,280.518v-3.435h-1.226v-.478h1.817v3.954c0,.499.271.713.684.713.199,0,.413-.05.648-.156l.149.441c-.32.136-.548.207-.926.207-.741,0-1.147-.428-1.147-1.247Z"
       class="uuid-73d44ca0-a7f4-4ffe-bc01-298f5a361e72" />
    <path
       id="path396"
       d="m476.511,276.619h.527l-2.338,6.199h-.527l2.338-6.199Z"
       class="uuid-73d44ca0-a7f4-4ffe-bc01-298f5a361e72" />
    <path
       id="path398"
       d="m478.224,279.941c0-1.126.841-1.811,1.768-1.811.997,0,1.582.648,1.582,1.625,0,.135-.015.264-.028.356h-2.929v-.456h2.579l-.149.164c0-.82-.406-1.227-1.041-1.227-.641,0-1.196.485-1.196,1.348,0,.897.584,1.354,1.354,1.354.413,0,.741-.128,1.055-.328l.214.385c-.342.229-.784.414-1.34.414-1.04,0-1.867-.67-1.867-1.824Z"
       class="uuid-73d44ca0-a7f4-4ffe-bc01-298f5a361e72" />
    <path
       id="path400"
       d="m483.479,280.332v-1.639h-.983v-.442l1.005-.035.078-1.112h.492v1.112h1.695v.478h-1.695v1.646c0,.62.206.94.876.94.321,0,.577-.063.827-.156l.128.435c-.313.114-.648.207-1.083.207-1.012,0-1.34-.577-1.34-1.433Z"
       class="uuid-73d44ca0-a7f4-4ffe-bc01-298f5a361e72" />
    <path
       id="path402"
       d="m486.853,279.954c0-1.161.884-1.824,1.931-1.824.563,0,.977.229,1.262.506l-.292.378c-.285-.242-.585-.392-.948-.392-.798,0-1.347.534-1.347,1.332,0,.791.542,1.318,1.333,1.318.427,0,.783-.192,1.068-.435l.264.385c-.385.342-.862.542-1.375.542-1.083,0-1.896-.663-1.896-1.811Z"
       class="uuid-73d44ca0-a7f4-4ffe-bc01-298f5a361e72" />
    <path
       id="path404"
       d="m493.597,276.619h.527l-2.338,6.199h-.527l2.338-6.199Z"
       class="uuid-73d44ca0-a7f4-4ffe-bc01-298f5a361e72" />
    <path
       id="path406"
       d="m495.331,281.223l.271-.392c.399.285.87.47,1.504.47.584,0,.869-.242.869-.534,0-.264-.135-.449-1.076-.642-.904-.185-1.354-.491-1.354-1.012,0-.556.491-.983,1.439-.983.527,0,1.055.207,1.396.442l-.285.377c-.32-.221-.72-.363-1.161-.363-.584,0-.798.235-.798.499,0,.299.299.428,1.012.577,1.147.249,1.425.534,1.425,1.069,0,.562-.549,1.033-1.539,1.033-.677,0-1.282-.25-1.703-.542Z"
       class="uuid-73d44ca0-a7f4-4ffe-bc01-298f5a361e72" />
    <path
       id="path408"
       d="m499.603,281.223l.271-.392c.399.285.87.47,1.504.47.584,0,.869-.242.869-.534,0-.264-.135-.449-1.076-.642-.904-.185-1.354-.491-1.354-1.012,0-.556.491-.983,1.439-.983.527,0,1.055.207,1.396.442l-.285.377c-.32-.221-.72-.363-1.161-.363-.584,0-.798.235-.798.499,0,.299.299.428,1.012.577,1.147.249,1.425.534,1.425,1.069,0,.562-.549,1.033-1.539,1.033-.677,0-1.282-.25-1.703-.542Z"
       class="uuid-73d44ca0-a7f4-4ffe-bc01-298f5a361e72" />
    <path
       id="path410"
       d="m505.121,280.518v-3.435h-1.226v-.478h1.817v3.954c0,.499.271.713.684.713.199,0,.413-.05.648-.156l.149.441c-.32.136-.548.207-.926.207-.741,0-1.147-.428-1.147-1.247Z"
       class="uuid-73d44ca0-a7f4-4ffe-bc01-298f5a361e72" />
    <path
       id="path412"
       d="m510.683,276.619h.527l-2.338,6.199h-.527l2.338-6.199Z"
       class="uuid-73d44ca0-a7f4-4ffe-bc01-298f5a361e72" />
    <path
       id="path414"
       d="m512.481,279.954c0-1.161.884-1.824,1.931-1.824.563,0,.977.229,1.262.506l-.292.378c-.285-.242-.585-.392-.948-.392-.798,0-1.347.534-1.347,1.332,0,.791.542,1.318,1.332,1.318.428,0,.784-.192,1.069-.435l.264.385c-.385.342-.862.542-1.375.542-1.083,0-1.896-.663-1.896-1.811Z"
       class="uuid-73d44ca0-a7f4-4ffe-bc01-298f5a361e72" />
    <path
       id="path416"
       d="m516.666,279.941c0-1.126.841-1.811,1.768-1.811.997,0,1.582.648,1.582,1.625,0,.135-.015.264-.028.356h-2.929v-.456h2.579l-.149.164c0-.82-.406-1.227-1.041-1.227-.641,0-1.196.485-1.196,1.348,0,.897.584,1.354,1.354,1.354.413,0,.741-.128,1.055-.328l.214.385c-.342.229-.784.414-1.34.414-1.04,0-1.867-.67-1.867-1.824Z"
       class="uuid-73d44ca0-a7f4-4ffe-bc01-298f5a361e72" />
    <path
       id="path418"
       d="m521.486,278.216h.492l.057.819h.014c.364-.563.905-.905,1.547-.905.257,0,.471.036.684.143l-.135.506c-.242-.078-.371-.114-.642-.114-.521,0-1.012.264-1.425.991v2.023h-.592v-3.463Z"
       class="uuid-73d44ca0-a7f4-4ffe-bc01-298f5a361e72" />
    <path
       id="path420"
       d="m526.192,280.332v-1.639h-.983v-.442l1.005-.035.078-1.112h.492v1.112h1.695v.478h-1.695v1.646c0,.62.206.94.876.94.321,0,.577-.063.827-.156l.128.435c-.313.114-.648.207-1.083.207-1.012,0-1.34-.577-1.34-1.433Z"
       class="uuid-73d44ca0-a7f4-4ffe-bc01-298f5a361e72" />
    <path
       id="path422"
       d="m529.502,281.223l.271-.392c.399.285.87.47,1.504.47.584,0,.869-.242.869-.534,0-.264-.135-.449-1.076-.642-.904-.185-1.354-.491-1.354-1.012,0-.556.491-.983,1.439-.983.527,0,1.055.207,1.396.442l-.285.377c-.32-.221-.72-.363-1.161-.363-.584,0-.798.235-.798.499,0,.299.299.428,1.012.577,1.147.249,1.425.534,1.425,1.069,0,.562-.549,1.033-1.539,1.033-.677,0-1.282-.25-1.703-.542Z"
       class="uuid-73d44ca0-a7f4-4ffe-bc01-298f5a361e72" />
  </g>
  <path
     id="path426"
     d="m375.832,295.582h3.064v.441h-3.064v-.441Z"
     class="uuid-73d44ca0-a7f4-4ffe-bc01-298f5a361e72" />
  <g
     id="g530">
    <path
       id="path428"
       d="m375.583,304.354h.605l.798,1.959c.136.35.264.691.385,1.026h.029c.121-.335.234-.677.377-1.026l.799-1.959h.569l-1.439,3.463h-.662l-1.461-3.463Z"
       class="uuid-73d44ca0-a7f4-4ffe-bc01-298f5a361e72" />
    <path
       id="path430"
       d="m379.926,306.092c0-1.161.798-1.824,1.71-1.824s1.71.663,1.71,1.824c0,1.147-.798,1.811-1.71,1.811s-1.71-.663-1.71-1.811Zm2.814,0c0-.798-.441-1.332-1.104-1.332s-1.104.534-1.104,1.332c0,.791.441,1.318,1.104,1.318s1.104-.527,1.104-1.318Z"
       class="uuid-73d44ca0-a7f4-4ffe-bc01-298f5a361e72" />
    <path
       id="path432"
       d="m385.523,306.656v-3.435h-1.226v-.478h1.817v3.954c0,.499.271.713.684.713.199,0,.413-.05.648-.156l.149.441c-.32.136-.548.207-.926.207-.741,0-1.147-.428-1.147-1.247Z"
       class="uuid-73d44ca0-a7f4-4ffe-bc01-298f5a361e72" />
    <path
       id="path434"
       d="m388.59,306.505v-2.151h.592v2.073c0,.648.228.962.798.962.398,0,.691-.186,1.076-.634v-2.401h.591v3.463h-.491l-.05-.605h-.029c-.349.406-.755.691-1.289.691-.819,0-1.197-.485-1.197-1.397Z"
       class="uuid-73d44ca0-a7f4-4ffe-bc01-298f5a361e72" />
    <path
       id="path436"
       d="m392.726,304.354h.471l.05.456h.014c.179-.321.393-.542.791-.542.343,0,.557.199.656.599.199-.37.413-.599.812-.599.484,0,.77.378.77,1.069v2.479h-.585v-2.438c0-.398-.113-.605-.37-.605-.242,0-.371.179-.556.535v2.508h-.542v-2.438c0-.398-.1-.605-.356-.605-.242,0-.398.179-.569.535v2.508h-.585v-3.463Z"
       class="uuid-73d44ca0-a7f4-4ffe-bc01-298f5a361e72" />
    <path
       id="path438"
       d="m397.067,306.078c0-1.126.841-1.811,1.768-1.811.997,0,1.582.648,1.582,1.625,0,.135-.015.264-.028.356h-2.929v-.456h2.579l-.149.164c0-.82-.406-1.227-1.041-1.227-.641,0-1.196.485-1.196,1.348,0,.897.584,1.354,1.354,1.354.413,0,.741-.128,1.055-.328l.214.385c-.342.229-.784.414-1.34.414-1.04,0-1.867-.67-1.867-1.824Z"
       class="uuid-73d44ca0-a7f4-4ffe-bc01-298f5a361e72" />
    <path
       id="path440"
       d="m401.36,307.361l.271-.392c.399.285.87.47,1.504.47.584,0,.869-.242.869-.534,0-.264-.135-.449-1.076-.642-.904-.185-1.354-.491-1.354-1.012,0-.556.491-.983,1.439-.983.527,0,1.055.207,1.396.442l-.285.377c-.32-.221-.72-.363-1.161-.363-.584,0-.798.235-.798.499,0,.299.299.428,1.012.577,1.147.249,1.425.534,1.425,1.069,0,.562-.549,1.033-1.539,1.033-.677,0-1.282-.25-1.703-.542Z"
       class="uuid-73d44ca0-a7f4-4ffe-bc01-298f5a361e72" />
    <path
       id="path442"
       d="m406.687,304.745c0-.356.257-.605.577-.605s.577.249.577.605c0,.363-.257.605-.577.605s-.577-.242-.577-.605Zm0,2.551c0-.356.257-.605.577-.605s.577.249.577.605c0,.363-.257.606-.577.606s-.577-.243-.577-.606Z"
       class="uuid-73d44ca0-a7f4-4ffe-bc01-298f5a361e72" />
    <path
       id="path444"
       d="m375.832,313.787h3.064v.441h-3.064v-.441Z"
       class="uuid-73d44ca0-a7f4-4ffe-bc01-298f5a361e72" />
    <path
       id="path446"
       d="m384.433,312.897h.484l.05.584h.028c.363-.378.763-.67,1.304-.67.82,0,1.197.484,1.197,1.396v2.152h-.591v-2.073c0-.656-.229-.962-.791-.962-.414,0-.691.206-1.091.619v2.416h-.591v-3.463Z"
       class="uuid-73d44ca0-a7f4-4ffe-bc01-298f5a361e72" />
    <path
       id="path448"
       d="m388.611,315.462c0-.777.727-1.155,2.516-1.297-.021-.471-.25-.87-.92-.87-.448,0-.891.214-1.211.414l-.235-.399c.356-.229.94-.499,1.546-.499.948,0,1.411.563,1.411,1.426v2.123h-.491l-.05-.471h-.021c-.378.3-.877.557-1.361.557-.648,0-1.183-.364-1.183-.983Zm2.516-.008v-.897c-1.482.114-1.932.406-1.932.862,0,.392.356.549.756.549.392,0,.776-.186,1.176-.514Z"
       class="uuid-73d44ca0-a7f4-4ffe-bc01-298f5a361e72" />
    <path
       id="path450"
       d="m392.726,312.897h.471l.05.456h.014c.179-.321.393-.542.791-.542.343,0,.557.199.656.599.199-.37.413-.599.812-.599.484,0,.77.378.77,1.069v2.479h-.585v-2.438c0-.398-.113-.605-.37-.605-.242,0-.371.179-.556.535v2.508h-.542v-2.438c0-.398-.1-.605-.356-.605-.242,0-.398.179-.569.535v2.508h-.585v-3.463Z"
       class="uuid-73d44ca0-a7f4-4ffe-bc01-298f5a361e72" />
    <path
       id="path452"
       d="m397.067,314.621c0-1.126.841-1.811,1.768-1.811.997,0,1.582.648,1.582,1.625,0,.135-.015.264-.028.356h-2.929v-.456h2.579l-.149.164c0-.82-.406-1.227-1.041-1.227-.641,0-1.196.485-1.196,1.348,0,.897.584,1.354,1.354,1.354.413,0,.741-.128,1.055-.328l.214.385c-.342.229-.784.414-1.34.414-1.04,0-1.867-.67-1.867-1.824Z"
       class="uuid-73d44ca0-a7f4-4ffe-bc01-298f5a361e72" />
    <path
       id="path454"
       d="m402.415,313.288c0-.356.257-.605.577-.605s.577.249.577.605c0,.363-.257.605-.577.605s-.577-.242-.577-.605Zm0,2.551c0-.356.257-.605.577-.605s.577.249.577.605c0,.363-.257.606-.577.606s-.577-.243-.577-.606Z"
       class="uuid-73d44ca0-a7f4-4ffe-bc01-298f5a361e72" />
    <path
       id="path456"
       d="m410.865,315.013v-1.639h-.983v-.442l1.005-.035.078-1.112h.492v1.112h1.695v.478h-1.695v1.646c0,.62.206.94.876.94.321,0,.577-.063.827-.156l.128.435c-.313.114-.648.207-1.083.207-1.012,0-1.34-.577-1.34-1.433Z"
       class="uuid-73d44ca0-a7f4-4ffe-bc01-298f5a361e72" />
    <path
       id="path458"
       d="m415.422,315.199v-3.435h-1.226v-.478h1.817v3.954c0,.499.271.713.684.713.199,0,.413-.05.648-.156l.149.441c-.32.136-.548.207-.926.207-.741,0-1.147-.428-1.147-1.247Z"
       class="uuid-73d44ca0-a7f4-4ffe-bc01-298f5a361e72" />
    <path
       id="path460"
       d="m418.446,315.904l.271-.392c.399.285.87.47,1.504.47.584,0,.869-.242.869-.534,0-.264-.135-.449-1.076-.642-.904-.185-1.354-.491-1.354-1.012,0-.556.491-.983,1.439-.983.527,0,1.055.207,1.396.442l-.285.377c-.32-.221-.72-.363-1.161-.363-.584,0-.798.235-.798.499,0,.299.299.428,1.012.577,1.147.249,1.425.534,1.425,1.069,0,.562-.549,1.033-1.539,1.033-.677,0-1.282-.25-1.703-.542Z"
       class="uuid-73d44ca0-a7f4-4ffe-bc01-298f5a361e72" />
    <path
       id="path462"
       d="m422.817,313.787h3.064v.441h-3.064v-.441Z"
       class="uuid-73d44ca0-a7f4-4ffe-bc01-298f5a361e72" />
    <path
       id="path464"
       d="m427.054,314.635c0-1.161.884-1.824,1.931-1.824.563,0,.977.229,1.262.506l-.292.378c-.285-.242-.585-.392-.948-.392-.798,0-1.347.534-1.347,1.332,0,.791.542,1.318,1.333,1.318.427,0,.783-.192,1.068-.435l.264.385c-.385.342-.862.542-1.375.542-1.083,0-1.896-.663-1.896-1.811Z"
       class="uuid-73d44ca0-a7f4-4ffe-bc01-298f5a361e72" />
    <path
       id="path466"
       d="m431.239,314.621c0-1.126.841-1.811,1.768-1.811.997,0,1.582.648,1.582,1.625,0,.135-.015.264-.028.356h-2.929v-.456h2.579l-.149.164c0-.82-.406-1.227-1.041-1.227-.641,0-1.196.485-1.196,1.348,0,.897.584,1.354,1.354,1.354.413,0,.741-.128,1.055-.328l.214.385c-.342.229-.784.414-1.34.414-1.04,0-1.867-.67-1.867-1.824Z"
       class="uuid-73d44ca0-a7f4-4ffe-bc01-298f5a361e72" />
    <path
       id="path468"
       d="m436.059,312.897h.492l.057.819h.014c.364-.563.905-.905,1.547-.905.257,0,.471.036.684.143l-.135.506c-.242-.078-.371-.114-.642-.114-.521,0-1.012.264-1.425.991v2.023h-.592v-3.463Z"
       class="uuid-73d44ca0-a7f4-4ffe-bc01-298f5a361e72" />
    <path
       id="path470"
       d="m440.765,315.013v-1.639h-.983v-.442l1.005-.035.078-1.112h.492v1.112h1.695v.478h-1.695v1.646c0,.62.206.94.876.94.321,0,.577-.063.827-.156l.128.435c-.313.114-.648.207-1.083.207-1.012,0-1.34-.577-1.34-1.433Z"
       class="uuid-73d44ca0-a7f4-4ffe-bc01-298f5a361e72" />
    <path
       id="path472"
       d="m444.074,315.904l.271-.392c.399.285.87.47,1.504.47.584,0,.869-.242.869-.534,0-.264-.135-.449-1.076-.642-.904-.185-1.354-.491-1.354-1.012,0-.556.491-.983,1.439-.983.527,0,1.055.207,1.396.442l-.285.377c-.32-.221-.72-.363-1.161-.363-.584,0-.798.235-.798.499,0,.299.299.428,1.012.577,1.147.249,1.425.534,1.425,1.069,0,.562-.549,1.033-1.539,1.033-.677,0-1.282-.25-1.703-.542Z"
       class="uuid-73d44ca0-a7f4-4ffe-bc01-298f5a361e72" />
    <path
       id="path474"
       d="m384.276,324.447l.271-.392c.399.285.87.47,1.504.47.584,0,.869-.242.869-.534,0-.264-.135-.449-1.076-.642-.904-.185-1.354-.491-1.354-1.012,0-.556.491-.983,1.439-.983.527,0,1.055.207,1.396.442l-.285.377c-.32-.221-.72-.363-1.161-.363-.584,0-.798.235-.798.499,0,.299.299.428,1.012.577,1.147.249,1.425.534,1.425,1.069,0,.562-.549,1.033-1.539,1.033-.677,0-1.282-.25-1.703-.542Z"
       class="uuid-73d44ca0-a7f4-4ffe-bc01-298f5a361e72" />
    <path
       id="path476"
       d="m388.526,323.164c0-1.126.841-1.811,1.768-1.811.997,0,1.582.648,1.582,1.625,0,.135-.015.264-.028.356h-2.929v-.456h2.579l-.149.164c0-.82-.406-1.227-1.041-1.227-.641,0-1.196.485-1.196,1.348,0,.897.584,1.354,1.354,1.354.413,0,.741-.128,1.055-.328l.214.385c-.342.229-.784.414-1.34.414-1.04,0-1.867-.67-1.867-1.824Z"
       class="uuid-73d44ca0-a7f4-4ffe-bc01-298f5a361e72" />
    <path
       id="path478"
       d="m392.883,323.178c0-1.161.884-1.824,1.931-1.824.563,0,.977.229,1.262.506l-.292.378c-.285-.242-.585-.392-.948-.392-.798,0-1.347.534-1.347,1.332,0,.791.542,1.318,1.332,1.318.428,0,.784-.192,1.069-.435l.264.385c-.385.342-.862.542-1.375.542-1.083,0-1.896-.663-1.896-1.811Z"
       class="uuid-73d44ca0-a7f4-4ffe-bc01-298f5a361e72" />
    <path
       id="path480"
       d="m397.616,321.44h.492l.057.819h.015c.363-.563.904-.905,1.546-.905.257,0,.471.036.684.143l-.135.506c-.242-.078-.371-.114-.642-.114-.521,0-1.012.264-1.425.991v2.023h-.592v-3.463Z"
       class="uuid-73d44ca0-a7f4-4ffe-bc01-298f5a361e72" />
    <path
       id="path482"
       d="m401.339,323.164c0-1.126.841-1.811,1.768-1.811.997,0,1.582.648,1.582,1.625,0,.135-.015.264-.028.356h-2.929v-.456h2.579l-.149.164c0-.82-.406-1.227-1.041-1.227-.641,0-1.196.485-1.196,1.348,0,.897.584,1.354,1.354,1.354.413,0,.741-.128,1.055-.328l.214.385c-.342.229-.784.414-1.34.414-1.04,0-1.867-.67-1.867-1.824Z"
       class="uuid-73d44ca0-a7f4-4ffe-bc01-298f5a361e72" />
    <path
       id="path484"
       d="m406.594,323.556v-1.639h-.983v-.442l1.005-.035.078-1.112h.492v1.112h1.695v.478h-1.695v1.646c0,.62.206.94.876.94.321,0,.577-.063.827-.156l.128.435c-.313.114-.648.207-1.083.207-1.012,0-1.34-.577-1.34-1.433Z"
       class="uuid-73d44ca0-a7f4-4ffe-bc01-298f5a361e72" />
    <path
       id="path486"
       d="m410.958,321.831c0-.356.257-.605.577-.605s.577.249.577.605c0,.363-.257.605-.577.605s-.577-.242-.577-.605Zm0,2.551c0-.356.257-.605.577-.605s.577.249.577.605c0,.363-.257.606-.577.606s-.577-.243-.577-.606Z"
       class="uuid-73d44ca0-a7f4-4ffe-bc01-298f5a361e72" />
    <path
       id="path488"
       d="m392.818,332.99l.271-.392c.399.285.87.47,1.504.47.584,0,.869-.242.869-.534,0-.264-.135-.449-1.076-.642-.904-.185-1.354-.491-1.354-1.012,0-.556.491-.983,1.439-.983.527,0,1.055.207,1.396.442l-.285.377c-.32-.221-.72-.363-1.161-.363-.584,0-.798.235-.798.499,0,.299.299.428,1.012.577,1.147.249,1.425.534,1.425,1.069,0,.562-.549,1.033-1.539,1.033-.677,0-1.282-.25-1.703-.542Z"
       class="uuid-73d44ca0-a7f4-4ffe-bc01-298f5a361e72" />
    <path
       id="path490"
       d="m397.067,331.707c0-1.126.841-1.811,1.768-1.811.997,0,1.582.648,1.582,1.625,0,.135-.015.264-.028.356h-2.929v-.456h2.579l-.149.164c0-.82-.406-1.227-1.041-1.227-.641,0-1.196.485-1.196,1.348,0,.897.584,1.354,1.354,1.354.413,0,.741-.128,1.055-.328l.214.385c-.342.229-.784.414-1.34.414-1.04,0-1.867-.67-1.867-1.824Z"
       class="uuid-73d44ca0-a7f4-4ffe-bc01-298f5a361e72" />
    <path
       id="path492"
       d="m401.425,331.721c0-1.161.884-1.824,1.931-1.824.563,0,.977.229,1.262.506l-.292.378c-.285-.242-.585-.392-.948-.392-.798,0-1.347.534-1.347,1.332,0,.791.542,1.318,1.333,1.318.427,0,.783-.192,1.068-.435l.264.385c-.385.342-.862.542-1.375.542-1.083,0-1.896-.663-1.896-1.811Z"
       class="uuid-73d44ca0-a7f4-4ffe-bc01-298f5a361e72" />
    <path
       id="path494"
       d="m406.159,329.983h.492l.057.819h.015c.363-.563.904-.905,1.546-.905.257,0,.471.036.684.143l-.135.506c-.242-.078-.371-.114-.642-.114-.521,0-1.012.264-1.425.991v2.023h-.592v-3.463Z"
       class="uuid-73d44ca0-a7f4-4ffe-bc01-298f5a361e72" />
    <path
       id="path496"
       d="m409.882,331.707c0-1.126.841-1.811,1.768-1.811.997,0,1.582.648,1.582,1.625,0,.135-.015.264-.028.356h-2.929v-.456h2.579l-.149.164c0-.82-.406-1.227-1.041-1.227-.641,0-1.196.485-1.196,1.348,0,.897.584,1.354,1.354,1.354.413,0,.741-.128,1.055-.328l.214.385c-.342.229-.784.414-1.34.414-1.04,0-1.867-.67-1.867-1.824Z"
       class="uuid-73d44ca0-a7f4-4ffe-bc01-298f5a361e72" />
    <path
       id="path498"
       d="m415.137,332.099v-1.639h-.983v-.442l1.005-.035.078-1.112h.492v1.112h1.695v.478h-1.695v1.646c0,.62.206.94.876.94.321,0,.577-.063.827-.156l.128.435c-.313.114-.648.207-1.083.207-1.012,0-1.34-.577-1.34-1.433Z"
       class="uuid-73d44ca0-a7f4-4ffe-bc01-298f5a361e72" />
    <path
       id="path500"
       d="m418.525,328.771h.656l1.496,2.937.449.969h.014c-.021-.463-.078-.99-.078-1.482v-2.423h.57v4.675h-.656l-1.496-2.936-.449-.97h-.014c.021.478.078.977.078,1.461v2.444h-.57v-4.675Z"
       class="uuid-73d44ca0-a7f4-4ffe-bc01-298f5a361e72" />
    <path
       id="path502"
       d="m422.782,332.548c0-.777.727-1.155,2.516-1.297-.021-.471-.25-.87-.92-.87-.448,0-.891.214-1.211.414l-.235-.399c.356-.229.94-.499,1.546-.499.948,0,1.411.563,1.411,1.426v2.123h-.491l-.05-.471h-.021c-.378.3-.877.557-1.361.557-.648,0-1.183-.364-1.183-.983Zm2.516-.008v-.897c-1.482.114-1.932.406-1.932.862,0,.392.356.549.756.549.392,0,.776-.186,1.176-.514Z"
       class="uuid-73d44ca0-a7f4-4ffe-bc01-298f5a361e72" />
    <path
       id="path504"
       d="m426.897,329.983h.471l.05.456h.014c.179-.321.393-.542.791-.542.343,0,.557.199.656.599.199-.37.413-.599.812-.599.484,0,.77.378.77,1.069v2.479h-.585v-2.438c0-.398-.113-.605-.37-.605-.242,0-.371.179-.556.535v2.508h-.542v-2.438c0-.398-.1-.605-.356-.605-.242,0-.398.179-.569.535v2.508h-.585v-3.463Z"
       class="uuid-73d44ca0-a7f4-4ffe-bc01-298f5a361e72" />
    <path
       id="path506"
       d="m431.239,331.707c0-1.126.841-1.811,1.768-1.811.997,0,1.582.648,1.582,1.625,0,.135-.015.264-.028.356h-2.929v-.456h2.579l-.149.164c0-.82-.406-1.227-1.041-1.227-.641,0-1.196.485-1.196,1.348,0,.897.584,1.354,1.354,1.354.413,0,.741-.128,1.055-.328l.214.385c-.342.229-.784.414-1.34.414-1.04,0-1.867-.67-1.867-1.824Z"
       class="uuid-73d44ca0-a7f4-4ffe-bc01-298f5a361e72" />
    <path
       id="path508"
       d="m436.586,330.374c0-.356.257-.605.577-.605s.577.249.577.605c0,.363-.257.605-.577.605s-.577-.242-.577-.605Zm0,2.551c0-.356.257-.605.577-.605s.577.249.577.605c0,.363-.257.606-.577.606s-.577-.243-.577-.606Z"
       class="uuid-73d44ca0-a7f4-4ffe-bc01-298f5a361e72" />
    <path
       id="path510"
       d="m445.036,332.099v-1.639h-.983v-.442l1.005-.035.078-1.112h.492v1.112h1.695v.478h-1.695v1.646c0,.62.206.94.876.94.321,0,.577-.063.827-.156l.128.435c-.313.114-.648.207-1.083.207-1.012,0-1.34-.577-1.34-1.433Z"
       class="uuid-73d44ca0-a7f4-4ffe-bc01-298f5a361e72" />
    <path
       id="path512"
       d="m448.268,331.721c0-1.161.798-1.824,1.71-1.824s1.71.663,1.71,1.824c0,1.147-.798,1.811-1.71,1.811s-1.71-.663-1.71-1.811Zm2.814,0c0-.798-.441-1.332-1.104-1.332s-1.104.534-1.104,1.332c0,.791.441,1.318,1.104,1.318s1.104-.527,1.104-1.318Z"
       class="uuid-73d44ca0-a7f4-4ffe-bc01-298f5a361e72" />
    <path
       id="path514"
       d="m452.539,331.721c0-1.126.748-1.824,1.567-1.824.413,0,.734.164,1.04.442h.015l-.028-.635v-1.332h.592v5.073h-.485l-.05-.456h-.021c-.285.292-.698.542-1.133.542-.897,0-1.496-.656-1.496-1.811Zm2.594.798v-1.724c-.313-.293-.605-.399-.905-.399-.599,0-1.083.527-1.083,1.318,0,.826.385,1.318,1.02,1.318.342,0,.662-.171.969-.514Z"
       class="uuid-73d44ca0-a7f4-4ffe-bc01-298f5a361e72" />
    <path
       id="path516"
       d="m456.811,331.721c0-1.161.798-1.824,1.71-1.824s1.71.663,1.71,1.824c0,1.147-.798,1.811-1.71,1.811s-1.71-.663-1.71-1.811Zm2.814,0c0-.798-.441-1.332-1.104-1.332s-1.104.534-1.104,1.332c0,.791.441,1.318,1.104,1.318s1.104-.527,1.104-1.318Z"
       class="uuid-73d44ca0-a7f4-4ffe-bc01-298f5a361e72" />
    <path
       id="path518"
       d="m461.26,330.873h3.064v.441h-3.064v-.441Z"
       class="uuid-73d44ca0-a7f4-4ffe-bc01-298f5a361e72" />
    <path
       id="path520"
       d="m465.496,331.721c0-1.161.884-1.824,1.931-1.824.563,0,.977.229,1.262.506l-.292.378c-.285-.242-.585-.392-.948-.392-.798,0-1.347.534-1.347,1.332,0,.791.542,1.318,1.332,1.318.428,0,.784-.192,1.069-.435l.264.385c-.385.342-.862.542-1.375.542-1.083,0-1.896-.663-1.896-1.811Z"
       class="uuid-73d44ca0-a7f4-4ffe-bc01-298f5a361e72" />
    <path
       id="path522"
       d="m469.682,331.707c0-1.126.841-1.811,1.768-1.811.997,0,1.582.648,1.582,1.625,0,.135-.015.264-.028.356h-2.929v-.456h2.579l-.149.164c0-.82-.406-1.227-1.041-1.227-.641,0-1.196.485-1.196,1.348,0,.897.584,1.354,1.354,1.354.413,0,.741-.128,1.055-.328l.214.385c-.342.229-.784.414-1.34.414-1.04,0-1.867-.67-1.867-1.824Z"
       class="uuid-73d44ca0-a7f4-4ffe-bc01-298f5a361e72" />
    <path
       id="path524"
       d="m474.501,329.983h.492l.057.819h.015c.363-.563.904-.905,1.546-.905.257,0,.471.036.684.143l-.135.506c-.242-.078-.371-.114-.642-.114-.521,0-1.012.264-1.425.991v2.023h-.592v-3.463Z"
       class="uuid-73d44ca0-a7f4-4ffe-bc01-298f5a361e72" />
    <path
       id="path526"
       d="m479.207,332.099v-1.639h-.983v-.442l1.005-.035.078-1.112h.492v1.112h1.695v.478h-1.695v1.646c0,.62.206.94.876.94.321,0,.577-.063.827-.156l.128.435c-.313.114-.648.207-1.083.207-1.012,0-1.34-.577-1.34-1.433Z"
       class="uuid-73d44ca0-a7f4-4ffe-bc01-298f5a361e72" />
    <path
       id="path528"
       d="m482.517,332.99l.271-.392c.399.285.87.47,1.504.47.584,0,.869-.242.869-.534,0-.264-.135-.449-1.076-.642-.904-.185-1.354-.491-1.354-1.012,0-.556.491-.983,1.439-.983.527,0,1.055.207,1.396.442l-.285.377c-.32-.221-.72-.363-1.161-.363-.584,0-.798.235-.798.499,0,.299.299.428,1.012.577,1.147.249,1.425.534,1.425,1.069,0,.562-.549,1.033-1.539,1.033-.677,0-1.282-.25-1.703-.542Z"
       class="uuid-73d44ca0-a7f4-4ffe-bc01-298f5a361e72" />
  </g>
  <g
     id="g546">
    <path
       id="path532"
       d="m422.181,76.337v-3.268h-1.079v-.63h1.079v-1.269l.729-.19v1.459h1.51v.63h-1.51v3.078c0,.54.221.75.77.75.28,0,.48-.03.73-.13v.65c-.261.09-.59.13-.88.13-.869,0-1.35-.42-1.35-1.209Z" />
    <path
       id="path534"
       d="m425.212,70.451l.739-.17v7.166h-.739v-6.996Z" />
    <path
       id="path536"
       d="m426.701,76.767l.449-.479c.46.43,1.04.669,1.63.669.799,0,1.358-.37,1.358-.899,0-.44-.289-.68-.929-.77l-.87-.12c-.999-.14-1.479-.59-1.479-1.369,0-.839.779-1.459,1.879-1.459.729,0,1.349.21,1.969.66l-.39.5c-.56-.38-1.069-.56-1.619-.56-.689,0-1.159.34-1.159.83,0,.45.27.669.929.759l.87.12c.999.14,1.499.589,1.499,1.369,0,.87-.88,1.529-2.029,1.529-.829,0-1.579-.28-2.108-.78Z" />
    <path
       id="path538"
       d="m431.681,76.997c0-.28.23-.51.51-.51s.51.23.51.51-.229.51-.51.51-.51-.23-.51-.51Z" />
    <path
       id="path540"
       d="m433.541,74.938c0-1.449,1.12-2.599,2.549-2.599.729,0,1.439.29,1.959.79l-.47.54c-.399-.42-.939-.65-1.479-.65-1.029,0-1.829.85-1.829,1.919,0,1.089.81,1.929,1.84,1.929.539,0,1.029-.21,1.459-.63l.46.5c-.53.51-1.22.799-1.939.799-1.429,0-2.549-1.139-2.549-2.599Z" />
    <path
       id="path542"
       d="m438.901,72.439h.739v.709c.3-.52.79-.819,1.399-.819.189,0,.319.02.47.07v.68c-.18-.06-.35-.09-.52-.09-.62,0-1.09.36-1.35,1.029v3.428h-.739v-5.007Z" />
    <path
       id="path544"
       d="m442.981,76.337v-3.268h-1.079v-.63h1.079v-1.269l.729-.19v1.459h1.51v.63h-1.51v3.078c0,.54.221.75.77.75.28,0,.48-.03.73-.13v.65c-.261.09-.59.13-.88.13-.869,0-1.35-.42-1.35-1.209Z" />
  </g>
  <g
     id="g562">
    <path
       id="path548"
       d="m489.067,76.337v-3.268h-1.079v-.63h1.079v-1.269l.729-.19v1.459h1.51v.63h-1.51v3.078c0,.54.221.75.77.75.28,0,.48-.03.73-.13v.65c-.261.09-.59.13-.88.13-.869,0-1.35-.42-1.35-1.209Z" />
    <path
       id="path550"
       d="m492.099,70.451l.739-.17v7.166h-.739v-6.996Z" />
    <path
       id="path552"
       d="m493.588,76.767l.449-.479c.46.43,1.04.669,1.63.669.799,0,1.358-.37,1.358-.899,0-.44-.289-.68-.929-.77l-.87-.12c-.999-.14-1.479-.59-1.479-1.369,0-.839.779-1.459,1.879-1.459.729,0,1.349.21,1.969.66l-.39.5c-.56-.38-1.069-.56-1.619-.56-.689,0-1.159.34-1.159.83,0,.45.27.669.929.759l.87.12c.999.14,1.499.589,1.499,1.369,0,.87-.88,1.529-2.029,1.529-.829,0-1.579-.28-2.108-.78Z" />
    <path
       id="path554"
       d="m498.567,76.997c0-.28.23-.51.51-.51s.51.23.51.51-.229.51-.51.51-.51-.23-.51-.51Z" />
    <path
       id="path556"
       d="m500.958,70.451l.739-.17v4.417l2.619-2.259h.899l-2.749,2.379,2.879,2.628h-1.01l-2.639-2.398v2.398h-.739v-6.996Z" />
    <path
       id="path558"
       d="m505.218,74.938c0-1.439,1.09-2.579,2.469-2.579,1.329,0,2.369,1.14,2.369,2.579v.23h-4.108c.11.99.89,1.719,1.88,1.719.52,0,1.039-.17,1.379-.46l.46.49c-.56.42-1.149.62-1.869.62-1.449,0-2.579-1.129-2.579-2.599Zm4.098-.36c-.13-.889-.819-1.569-1.648-1.569-.87,0-1.56.649-1.699,1.569h3.348Z" />
    <path
       id="path560"
       d="m510.679,79.535v-.669c.13.03.239.04.42.04.449,0,.77-.25.999-.779l.3-.689-2.039-4.998h.819l1.619,4.108,1.749-4.108h.8l-2.498,5.787c-.42.969-.9,1.359-1.699,1.359-.19,0-.36-.02-.47-.05Z" />
  </g>
  <g
     id="g568">
    <line
       id="line564"
       y2="81.922"
       x2="388.054"
       y1="81.922"
       x1="302.409"
       class="uuid-af9325ef-35f5-4d8a-a84b-df00a645b729" />
    <polygon
       id="polygon566"
       points="386.96 85.661 393.436 81.922 386.96 78.182 386.96 85.661"
       class="uuid-0251b9c8-d093-4f70-84a9-11ff379aee6c" />
  </g>
  <g
     id="g574">
    <line
       id="line570"
       y2="91.907"
       x2="420.132"
       y1="157.4"
       x1="420.132"
       class="uuid-c29cf5dc-626c-459f-8154-a666d1f2e881" />
    <polygon
       id="polygon572"
       points="423.871 156.305 420.132 162.781 416.392 156.305 423.871 156.305" />
  </g>
  <g
     id="g580">
    <line
       id="line576"
       y2="207.425"
       x2="420.132"
       y1="236.033"
       x1="420.132"
       class="uuid-c29cf5dc-626c-459f-8154-a666d1f2e881" />
    <polygon
       id="polygon578"
       points="423.871 208.519 420.132 202.043 416.392 208.519 423.871 208.519" />
  </g>
  <g
     id="g586">
    <line
       id="line582"
       y2="91.907"
       x2="513.662"
       y1="157.4"
       x1="513.662"
       class="uuid-c29cf5dc-626c-459f-8154-a666d1f2e881" />
    <polygon
       id="polygon584"
       points="517.401 156.305 513.662 162.781 509.922 156.305 517.401 156.305" />
  </g>
  <line
     id="line588"
     y2="74.213"
     x2="470.901"
     y1="74.213"
     x1="464.008"
     class="uuid-c29cf5dc-626c-459f-8154-a666d1f2e881" />
</svg>
