<?xml version="1.0" encoding="UTF-8"?>
<svg id="uuid-02dc9110-d0c6-4951-a26e-41ba0b15e52d" data-name="Layer 1" xmlns="http://www.w3.org/2000/svg" width="210mm" height="50.583mm" viewBox="0 0 595.276 143.384">
  <defs>
    <style>
      .uuid-14acd453-106b-4b11-b113-a3cd2e0ff121 {
        stroke: #3f9c35;
      }

      .uuid-14acd453-106b-4b11-b113-a3cd2e0ff121, .uuid-9621b820-f093-4d31-89b8-64c9f61dae72, .uuid-b2c3b948-c2a3-4dfb-b26f-eec62aeaf3d3 {
        fill: none;
        stroke-linecap: round;
        stroke-linejoin: round;
      }

      .uuid-9621b820-f093-4d31-89b8-64c9f61dae72, .uuid-b2c3b948-c2a3-4dfb-b26f-eec62aeaf3d3 {
        stroke: #be0000;
      }

      .uuid-b2c3b948-c2a3-4dfb-b26f-eec62aeaf3d3 {
        stroke-dasharray: 0 0 2.924 2.924;
      }

      .uuid-b5d7b3e6-979d-4f98-8fe2-915d12c03b32 {
        fill: #e6e6e6;
      }

      .uuid-29719296-6a69-4c14-8f5e-ab4c0c27859d {
        fill: #fff;
      }

      .uuid-706132aa-1dd4-435c-8f29-0404218e1b26 {
        fill: #be0000;
      }

      .uuid-b602b24d-3fb5-42f2-bb8f-bccabbdc9203 {
        fill: #3f9c35;
      }

      .uuid-4fcbd6fa-7a3e-4d37-9537-2097b9debc2c {
        fill: #99c2eb;
      }
    </style>
  </defs>
  <rect class="uuid-b5d7b3e6-979d-4f98-8fe2-915d12c03b32" x="133.014" y="16.759" width="189.097" height="108.822"/>
  <rect class="uuid-29719296-6a69-4c14-8f5e-ab4c0c27859d" x="149.903" y="31.984" width="155.319" height="68.894"/>
  <rect class="uuid-4fcbd6fa-7a3e-4d37-9537-2097b9debc2c" x="157.929" y="39.783" width="65.764" height="36.741"/>
  <rect class="uuid-4fcbd6fa-7a3e-4d37-9537-2097b9debc2c" x="231.432" y="39.783" width="65.764" height="36.741"/>
  <rect class="uuid-b5d7b3e6-979d-4f98-8fe2-915d12c03b32" x="387.602" y="16.759" width="189.097" height="108.822"/>
  <g>
    <path d="m201.127,110.862h5.287v1.439h-3.568v1.329h2.519v1.399h-2.519v1.389h3.608v1.439h-5.327v-6.996Z"/>
    <path d="m207.177,115.269c0-1.449,1.059-2.599,2.398-2.599.54,0,1.03.221,1.379.62v-2.549l1.619-.25v7.366h-1.599v-.67c-.34.43-.91.7-1.519.7-1.27,0-2.279-1.17-2.279-2.619Zm3.778.87v-1.739c-.25-.26-.59-.399-.959-.399-.709,0-1.229.539-1.229,1.279,0,.729.53,1.269,1.229,1.269.39,0,.709-.14.959-.409Z"/>
    <path d="m214.137,119.588l.5-1.17c.57.27,1.08.399,1.579.399.77,0,1.169-.319,1.169-.949v-.699c-.34.42-.899.68-1.499.68-1.27,0-2.279-1.159-2.279-2.599s1.059-2.579,2.398-2.579c.55,0,1.049.23,1.399.65v-.62h1.589v5.188c0,1.389-.959,2.158-2.718,2.158-.78,0-1.519-.159-2.139-.459Zm3.248-3.469v-1.719c-.25-.26-.59-.399-.959-.399-.709,0-1.229.529-1.229,1.259s.53,1.27,1.229,1.27c.39,0,.709-.14.959-.41Z"/>
    <path d="m220.027,115.29c0-1.51,1.119-2.669,2.599-2.669,1.489,0,2.539,1.13,2.539,2.729v.35h-3.548c.15.58.62.97,1.209.97.43,0,.79-.149,1.02-.43l1.069.89c-.669.59-1.299.829-2.169.829-1.519,0-2.718-1.169-2.718-2.668Zm3.638-.51c-.14-.55-.529-.899-1.049-.899-.51,0-.87.329-1,.899h2.049Z"/>
    <path d="m228.327,112.701h1.619v1.169c.33-.859.79-1.269,1.399-1.269.23.01.34.029.54.13v1.389c-.2-.1-.479-.159-.759-.159-.48,0-.919.249-1.18.64v3.258h-1.619v-5.157Z"/>
    <path d="m232.367,115.29c0-1.52,1.159-2.669,2.688-2.669s2.688,1.149,2.688,2.669-1.159,2.668-2.688,2.668-2.688-1.149-2.688-2.668Zm3.798,0c0-.77-.46-1.319-1.109-1.319s-1.109.55-1.109,1.319.459,1.319,1.109,1.319,1.109-.55,1.109-1.319Z"/>
    <path d="m238.737,116.18v-3.479h1.619v3.009c0,.579.34.959.859.959.35,0,.629-.14.859-.43v-3.538h1.619v5.157h-1.619v-.84c-.4.6-.959.92-1.629.92-1,0-1.709-.729-1.709-1.759Z"/>
    <path d="m245.636,116.299v-2.349h-1v-1.249h1v-1.429l1.619-.33v1.759h1.379v1.249h-1.379v2.029c0,.46.18.619.68.619.189,0,.34-.02.659-.109v1.31c-.3.09-.779.159-1.109.159-1.22,0-1.849-.56-1.849-1.659Z"/>
    <path d="m249.257,115.29c0-1.51,1.12-2.669,2.599-2.669,1.489,0,2.539,1.13,2.539,2.729v.35h-3.548c.149.58.619.97,1.209.97.43,0,.79-.149,1.02-.43l1.069.89c-.67.59-1.299.829-2.169.829-1.519,0-2.719-1.169-2.719-2.668Zm3.639-.51c-.141-.55-.53-.899-1.05-.899-.51,0-.869.329-.999.899h2.049Z"/>
  </g>
  <g>
    <path d="m202.807,83.876h5.007v1.02h-3.808v1.949h2.658v.999h-2.658v2.009h3.848v1.02h-5.047v-6.996Z"/>
    <path d="m209.077,85.865h1.129v.819c.38-.59.929-.899,1.579-.899,1.029,0,1.749.729,1.749,1.789v3.298h-1.14v-2.979c0-.729-.43-1.199-1.099-1.199-.46,0-.83.21-1.089.609v3.568h-1.129v-5.007Z"/>
    <path d="m214.667,88.373c0-1.449,1.1-2.588,2.529-2.588.779,0,1.499.31,1.999.85l-.699.729c-.35-.39-.78-.59-1.259-.59-.81,0-1.439.699-1.439,1.599,0,.91.63,1.6,1.439,1.6.479,0,.909-.2,1.259-.58l.699.72c-.5.54-1.219.85-1.999.85-1.429,0-2.529-1.129-2.529-2.589Z"/>
    <path d="m220.127,85.865h1.129v1.079c.28-.76.759-1.17,1.379-1.17.19.011.32.03.49.101v.989c-.18-.07-.41-.12-.62-.12-.549,0-.999.31-1.249.83v3.298h-1.129v-5.007Z"/>
    <path d="m223.957,92.991v-.979c.13.029.29.04.44.04.4,0,.64-.181.81-.57l.23-.56-1.889-5.057h1.25l1.279,3.708,1.389-3.708h1.239l-2.398,5.876c-.39.97-.85,1.319-1.789,1.319-.16,0-.36-.02-.56-.069Z"/>
    <path d="m229.527,85.865h1.109v.709c.36-.47.919-.749,1.559-.749,1.27,0,2.259,1.129,2.259,2.548,0,1.43-1.02,2.549-2.329,2.549-.59,0-1.109-.22-1.469-.64v2.679h-1.129v-7.096Zm3.818,2.508c0-.909-.64-1.599-1.489-1.599-.5,0-.91.2-1.199.56v2.089c.29.35.72.56,1.199.56.859,0,1.489-.689,1.489-1.609Z"/>
    <path d="m236.026,89.573v-2.809h-1v-.899h1v-1.38l1.129-.239v1.619h1.389v.899h-1.389v2.559c0,.489.19.68.7.68.22,0,.379-.03.68-.12v.949c-.29.09-.67.14-.97.14-1.009,0-1.539-.479-1.539-1.398Z"/>
    <path d="m239.406,84.155c0-.379.31-.699.7-.699.38,0,.7.32.7.699s-.32.69-.7.69c-.39,0-.7-.311-.7-.69Zm.13,1.71h1.129v5.007h-1.129v-5.007Z"/>
    <path d="m241.837,88.373c0-1.479,1.08-2.588,2.519-2.588,1.43,0,2.509,1.109,2.509,2.588s-1.079,2.589-2.509,2.589c-1.439,0-2.519-1.109-2.519-2.589Zm3.918,0c0-.929-.59-1.629-1.399-1.629-.819,0-1.409.7-1.409,1.629,0,.939.59,1.63,1.409,1.63.81,0,1.399-.69,1.399-1.63Z"/>
    <path d="m248.036,85.865h1.13v.819c.38-.59.93-.899,1.579-.899,1.029,0,1.749.729,1.749,1.789v3.298h-1.14v-2.979c0-.729-.43-1.199-1.1-1.199-.459,0-.829.21-1.089.609v3.568h-1.13v-5.007Z"/>
  </g>
  <g>
    <path d="m178.631,60.326v-2.809h-1v-.899h1v-1.38l1.129-.239v1.619h1.389v.899h-1.389v2.559c0,.489.19.68.7.68.22,0,.379-.03.68-.12v.949c-.29.09-.67.14-.97.14-1.009,0-1.539-.479-1.539-1.398Z"/>
    <path d="m182.151,54.459l1.129-.2v7.366h-1.129v-7.166Z"/>
    <path d="m184.221,61.045l.53-.749c.659.409,1.099.569,1.609.569.6,0,1.009-.279,1.009-.68,0-.31-.209-.47-.699-.569l-.88-.15c-.979-.18-1.449-.629-1.449-1.379,0-.939.77-1.549,1.939-1.549.7,0,1.33.199,1.969.6l-.53.749c-.51-.329-1-.479-1.509-.479-.52,0-.859.22-.859.58,0,.319.18.459.699.55l.89.17c1,.18,1.479.64,1.479,1.389,0,.92-.88,1.629-2.049,1.629-.86,0-1.619-.239-2.149-.68Z"/>
    <path d="m189.261,60.995c0-.399.31-.729.7-.729s.699.33.699.729-.31.72-.699.72-.7-.319-.7-.72Z"/>
    <path d="m191.481,59.126c0-1.449,1.1-2.588,2.529-2.588.779,0,1.499.31,1.999.85l-.699.729c-.35-.39-.78-.59-1.26-.59-.809,0-1.439.699-1.439,1.599,0,.91.63,1.6,1.439,1.6.48,0,.91-.2,1.26-.58l.699.72c-.5.54-1.219.85-1.999.85-1.429,0-2.529-1.129-2.529-2.589Z"/>
    <path d="m196.941,56.618h1.129v1.079c.28-.76.759-1.17,1.379-1.17.19.011.32.03.49.101v.989c-.18-.07-.41-.12-.62-.12-.549,0-.999.31-1.249.83v3.298h-1.129v-5.007Z"/>
    <path d="m201.49,60.326v-2.809h-1v-.899h1v-1.38l1.129-.239v1.619h1.389v.899h-1.389v2.559c0,.489.19.68.7.68.22,0,.379-.03.68-.12v.949c-.29.09-.67.14-.97.14-1.009,0-1.539-.479-1.539-1.398Z"/>
  </g>
  <g>
    <path d="m250.704,60.326v-2.809h-.999v-.899h.999v-1.38l1.129-.239v1.619h1.39v.899h-1.39v2.559c0,.489.19.68.7.68.22,0,.38-.03.68-.12v.949c-.29.09-.67.14-.97.14-1.01,0-1.539-.479-1.539-1.398Z"/>
    <path d="m254.223,54.459l1.13-.2v7.366h-1.13v-7.166Z"/>
    <path d="m256.295,61.045l.529-.749c.66.409,1.1.569,1.609.569.6,0,1.01-.279,1.01-.68,0-.31-.21-.47-.7-.569l-.879-.15c-.979-.18-1.449-.629-1.449-1.379,0-.939.77-1.549,1.938-1.549.7,0,1.329.199,1.969.6l-.529.749c-.51-.329-1-.479-1.51-.479-.52,0-.859.22-.859.58,0,.319.181.459.7.55l.89.17c.999.18,1.479.64,1.479,1.389,0,.92-.879,1.629-2.049,1.629-.859,0-1.619-.239-2.148-.68Z"/>
    <path d="m261.334,60.995c0-.399.31-.729.699-.729s.7.33.7.729-.311.72-.7.72-.699-.319-.699-.72Z"/>
    <path d="m263.983,54.438l1.13-.189v4.498l2.079-2.129h1.299l-2.309,2.318,2.429,2.688h-1.439l-2.059-2.309v2.309h-1.13v-7.187Z"/>
    <path d="m268.764,59.126c0-1.469,1.06-2.588,2.438-2.588,1.369,0,2.369,1.089,2.369,2.588v.271h-3.698c.11.81.72,1.399,1.499,1.399.47,0,.91-.181,1.189-.47l.739.669c-.609.51-1.219.729-1.979.729-1.439,0-2.559-1.129-2.559-2.599Zm3.738-.43c-.12-.729-.64-1.239-1.31-1.239-.68,0-1.18.49-1.31,1.239h2.619Z"/>
    <path d="m274.375,63.744v-.979c.13.029.29.04.439.04.399,0,.64-.181.81-.57l.229-.56-1.889-5.057h1.249l1.279,3.708,1.39-3.708h1.239l-2.398,5.876c-.39.97-.85,1.319-1.789,1.319-.16,0-.36-.02-.56-.069Z"/>
  </g>
  <rect class="uuid-29719296-6a69-4c14-8f5e-ab4c0c27859d" x="404.49" y="31.984" width="155.319" height="68.894"/>
  <g>
    <path d="m458.086,114.36c0-2.039,1.608-3.608,3.688-3.608,1.119,0,2.229.53,2.839,1.359l-1.16,1.1c-.459-.62-1.019-.93-1.679-.93-1.09,0-1.909.89-1.909,2.079s.819,2.079,1.909,2.079c.66,0,1.22-.311,1.679-.93l1.16,1.1c-.61.829-1.72,1.359-2.839,1.359-2.079,0-3.688-1.569-3.688-3.608Z"/>
    <path d="m465.085,115.29c0-1.52,1.16-2.669,2.688-2.669s2.688,1.149,2.688,2.669-1.159,2.668-2.688,2.668-2.688-1.149-2.688-2.668Zm3.798,0c0-.77-.459-1.319-1.109-1.319s-1.109.55-1.109,1.319.46,1.319,1.109,1.319,1.109-.55,1.109-1.319Z"/>
    <path d="m471.495,112.701h1.619v.84c.399-.6.959-.92,1.629-.92.999,0,1.709.729,1.709,1.759v3.479h-1.619v-3.009c0-.579-.34-.959-.859-.959-.35,0-.63.14-.859.43v3.538h-1.619v-5.157Z"/>
    <path d="m478.205,116.299v-2.349h-1v-1.249h1v-1.429l1.619-.33v1.759h1.379v1.249h-1.379v2.029c0,.46.18.619.68.619.189,0,.34-.02.659-.109v1.31c-.3.09-.779.159-1.109.159-1.22,0-1.849-.56-1.849-1.659Z"/>
    <path d="m481.865,116.379c0-.949.739-1.499,2.009-1.499.37,0,.74.07,1.199.24v-.42c0-.5-.329-.75-1.02-.75-.39,0-.849.11-1.449.36l-.56-1.13c.85-.38,1.609-.56,2.369-.56,1.429,0,2.259.71,2.259,1.939v3.298h-1.6v-.45c-.449.38-.879.53-1.429.53-1.05,0-1.779-.64-1.779-1.56Zm2.279.49c.34,0,.649-.09.929-.26v-.66c-.3-.069-.589-.109-.889-.109-.53,0-.83.18-.83.51s.29.52.79.52Z"/>
    <path d="m487.795,111.002c0-.499.41-.909.91-.909s.909.41.909.909-.41.91-.909.91-.91-.41-.91-.91Zm.101,1.699h1.619v5.157h-1.619v-5.157Z"/>
    <path d="m490.775,112.701h1.619v.84c.399-.6.959-.92,1.629-.92.999,0,1.709.729,1.709,1.759v3.479h-1.619v-3.009c0-.579-.34-.959-.859-.959-.35,0-.63.14-.859.43v3.538h-1.619v-5.157Z"/>
    <path d="m496.724,115.29c0-1.51,1.12-2.669,2.599-2.669,1.489,0,2.539,1.13,2.539,2.729v.35h-3.548c.149.58.619.97,1.209.97.43,0,.79-.149,1.02-.43l1.069.89c-.67.59-1.299.829-2.169.829-1.52,0-2.719-1.169-2.719-2.668Zm3.639-.51c-.141-.55-.53-.899-1.05-.899-.51,0-.869.329-.999.899h2.049Z"/>
    <path d="m502.875,112.701h1.619v1.169c.329-.859.789-1.269,1.399-1.269.229.01.34.029.539.13v1.389c-.199-.1-.479-.159-.76-.159-.479,0-.919.249-1.179.64v3.258h-1.619v-5.157Z"/>
  </g>
  <g>
    <path d="m458.329,83.876h1.389l2.709,6.996h-1.289l-.72-1.959h-2.868l-.72,1.959h-1.25l2.749-6.996Zm1.759,4.098l-1.1-2.958-1.089,2.958h2.188Z"/>
    <path d="m463.189,85.865h1.109v.709c.36-.47.92-.749,1.56-.749,1.27,0,2.259,1.129,2.259,2.548,0,1.43-1.02,2.549-2.329,2.549-.589,0-1.109-.22-1.469-.64v2.679h-1.13v-7.096Zm3.818,2.508c0-.909-.64-1.599-1.489-1.599-.5,0-.909.2-1.199.56v2.089c.29.35.72.56,1.199.56.859,0,1.489-.689,1.489-1.609Z"/>
    <path d="m469.299,85.865h1.109v.709c.36-.47.92-.749,1.56-.749,1.27,0,2.259,1.129,2.259,2.548,0,1.43-1.02,2.549-2.329,2.549-.589,0-1.109-.22-1.469-.64v2.679h-1.13v-7.096Zm3.818,2.508c0-.909-.64-1.599-1.489-1.599-.5,0-.909.2-1.199.56v2.089c.29.35.72.56,1.199.56.859,0,1.489-.689,1.489-1.609Z"/>
    <path d="m475.409,83.706l1.13-.2v7.366h-1.13v-7.166Z"/>
    <path d="m477.79,84.155c0-.379.31-.699.7-.699.379,0,.699.32.699.699s-.32.69-.699.69c-.391,0-.7-.311-.7-.69Zm.13,1.71h1.13v5.007h-1.13v-5.007Z"/>
    <path d="m480.219,88.373c0-1.449,1.1-2.588,2.528-2.588.78,0,1.499.31,1.999.85l-.699.729c-.35-.39-.78-.59-1.26-.59-.81,0-1.438.699-1.438,1.599,0,.91.629,1.6,1.438,1.6.479,0,.91-.2,1.26-.58l.699.72c-.5.54-1.219.85-1.999.85-1.429,0-2.528-1.129-2.528-2.589Z"/>
    <path d="m485.42,89.433c0-.899.74-1.469,1.919-1.469.47,0,.91.1,1.35.319v-.56c0-.659-.38-.999-1.149-.999-.42,0-.88.12-1.459.39l-.4-.819c.75-.34,1.409-.51,2.079-.51,1.31,0,2.049.659,2.049,1.818v3.269h-1.119v-.52c-.43.42-.909.609-1.489.609-1.05,0-1.779-.63-1.779-1.529Zm2.089.729c.45,0,.84-.13,1.18-.419v-.81c-.359-.17-.72-.24-1.149-.24-.649,0-1.06.27-1.06.72,0,.46.4.749,1.029.749Z"/>
    <path d="m491.649,89.573v-2.809h-.999v-.899h.999v-1.38l1.129-.239v1.619h1.39v.899h-1.39v2.559c0,.489.19.68.7.68.22,0,.38-.03.68-.12v.949c-.29.09-.67.14-.97.14-1.01,0-1.539-.479-1.539-1.398Z"/>
    <path d="m495.029,84.155c0-.379.31-.699.7-.699.379,0,.699.32.699.699s-.32.69-.699.69c-.391,0-.7-.311-.7-.69Zm.13,1.71h1.13v5.007h-1.13v-5.007Z"/>
    <path d="m497.46,88.373c0-1.479,1.079-2.588,2.519-2.588,1.43,0,2.509,1.109,2.509,2.588s-1.079,2.589-2.509,2.589c-1.439,0-2.519-1.109-2.519-2.589Zm3.918,0c0-.929-.59-1.629-1.399-1.629-.819,0-1.409.7-1.409,1.629,0,.939.59,1.63,1.409,1.63.81,0,1.399-.69,1.399-1.63Z"/>
    <path d="m503.659,85.865h1.13v.819c.38-.59.93-.899,1.579-.899,1.029,0,1.749.729,1.749,1.789v3.298h-1.14v-2.979c0-.729-.43-1.199-1.1-1.199-.459,0-.829.21-1.089.609v3.568h-1.13v-5.007Z"/>
  </g>
  <g>
    <path d="m25.969,99.592c0-2.029,1.599-3.608,3.668-3.608,1.109,0,2.159.46,2.818,1.21l-.699.72c-.53-.62-1.31-.96-2.119-.96-1.479,0-2.599,1.14-2.599,2.639,0,1.489,1.129,2.639,2.629,2.639.81,0,1.569-.34,2.079-.939l.689.699c-.689.75-1.729,1.21-2.798,1.21-2.069,0-3.668-1.59-3.668-3.608Z"/>
    <path d="m33.349,96.094l1-.19v7.187h-1v-6.996Z"/>
    <path d="m35.419,96.563c0-.34.28-.609.61-.609.34,0,.62.27.62.609s-.28.619-.62.619c-.33,0-.61-.279-.61-.619Zm.11,1.439h1v5.087h-1v-5.087Z"/>
    <path d="m37.479,100.541c0-1.469,1.119-2.628,2.548-2.628,1.399,0,2.459,1.169,2.459,2.678v.28h-4.008c.14.84.83,1.459,1.709,1.459.5,0,.969-.16,1.289-.449l.64.629c-.6.46-1.209.67-1.969.67-1.499,0-2.668-1.149-2.668-2.639Zm4.018-.42c-.14-.779-.75-1.358-1.489-1.358-.77,0-1.379.549-1.519,1.358h3.008Z"/>
    <path d="m43.439,98.003h1v.52c.39-.41.919-.62,1.529-.62,1.169,0,1.989.81,1.989,1.989v3.198h-1v-3.028c0-.79-.49-1.289-1.27-1.289-.54,0-.969.239-1.249.659v3.658h-1v-5.087Z"/>
    <path d="m49.618,101.83v-2.988h-1.08v-.839h1.08v-1.3l.989-.239v1.539h1.499v.839h-1.499v2.759c0,.52.21.72.75.72.28,0,.48-.03.729-.12v.84c-.27.09-.66.14-.949.14-.99,0-1.519-.46-1.519-1.35Z"/>
  </g>
  <path class="uuid-b602b24d-3fb5-42f2-bb8f-bccabbdc9203" d="m108.174,46.17l.392.56c-1.598,1.202-3.375,3.053-5.33,5.554s-3.449,4.837-4.479,7.01l-.829.56c-.687.478-1.153.832-1.4,1.063-.097-.351-.31-.926-.638-1.725l-.313-.728c-.448-1.045-.864-1.817-1.249-2.317-.384-.5-.815-.832-1.293-.997.806-.851,1.545-1.276,2.217-1.276.575,0,1.213.78,1.915,2.341l.347.783c1.262-2.127,2.881-4.195,4.86-6.203,1.978-2.008,3.911-3.55,5.8-4.624Z"/>
  <g>
    <line class="uuid-9621b820-f093-4d31-89b8-64c9f61dae72" x1="322.163" y1="66.431" x2="323.663" y2="66.431"/>
    <line class="uuid-b2c3b948-c2a3-4dfb-b26f-eec62aeaf3d3" x1="326.587" y1="66.431" x2="395.312" y2="66.431"/>
    <line class="uuid-9621b820-f093-4d31-89b8-64c9f61dae72" x1="396.774" y1="66.431" x2="398.274" y2="66.431"/>
    <polygon class="uuid-706132aa-1dd4-435c-8f29-0404218e1b26" points="397.18 70.17 403.656 66.431 397.18 62.691 397.18 70.17"/>
  </g>
  <g>
    <line class="uuid-14acd453-106b-4b11-b113-a3cd2e0ff121" x1="62.243" y1="66.431" x2="143.326" y2="66.431"/>
    <polygon class="uuid-b602b24d-3fb5-42f2-bb8f-bccabbdc9203" points="142.232 70.17 148.708 66.431 142.232 62.691 142.232 70.17"/>
  </g>
  <g>
    <path d="m485.936,63.089l-1.113-3.303h-5.363l-1.132,3.303h-1.485l4.51-12.99h1.596l4.509,12.99h-1.522Zm-2.988-8.889c-.297-.854-.668-2.023-.798-2.561-.13.52-.501,1.689-.816,2.598l-1.429,4.231h4.472l-1.429-4.268Z"/>
    <path d="m497.574,75.166h-30.848c-1.204,0-2.184-.98-2.184-2.184v-30.848c0-1.204.98-2.184,2.184-2.184h30.848c1.204,0,2.184.98,2.184,2.184v30.848c0,1.204-.98,2.184-2.184,2.184Zm-30.848-34.124c-.602,0-1.092.49-1.092,1.092v30.848c0,.602.49,1.092,1.092,1.092h30.848c.602,0,1.092-.49,1.092-1.092v-30.848c0-.602-.49-1.092-1.092-1.092h-30.848Z"/>
  </g>
  <path d="m21.486,84.928h9.342c.205,0,.37-.166.37-.37s-.166-.37-.37-.37h-9.342c-.205,0-.37.166-.37.37s.166.37.37.37Zm36.636-40.348H20.678c-1.465,0-2.652,1.187-2.652,2.652v37.444c0,1.465,1.187,2.652,2.652,2.652h37.444c1.465,0,2.652-1.187,2.652-2.652h0v-37.444c0-1.465-1.187-2.652-2.652-2.652h0Zm1.326,40.104c0,.732-.594,1.326-1.326,1.326H20.678c-.732,0-1.326-.594-1.326-1.326h0v-1.689h40.096v1.689Zm0-2.801H19.352v-29.153h40.096v29.153Zm0-30.265H19.352v-4.386c0-.732.594-1.326,1.326-1.326h37.444c.732,0,1.326.594,1.326,1.326h0v4.386Zm-9.965-3.816c-.589,0-1.067.478-1.067,1.067s.478,1.067,1.067,1.067,1.067-.478,1.067-1.067h0c0-.589-.478-1.067-1.067-1.067Zm7.009,0c-.589-.004-1.07.47-1.074,1.06-.004.589.47,1.07,1.06,1.074.589.004,1.07-.47,1.074-1.06,0-.007,0-.015,0-.022-.008-.583-.483-1.052-1.067-1.052h.007Zm-3.504,0c-.589,0-1.067.478-1.067,1.067s.478,1.067,1.067,1.067,1.067-.478,1.067-1.067h0c0-.589-.478-1.067-1.067-1.067Z"/>
  <path class="uuid-706132aa-1dd4-435c-8f29-0404218e1b26" d="m351.889,61.561c-.201,0-.39-.078-.533-.221l-.504-.505c-.296-.296-.299-.782-.007-1.082l3.597-3.689c.106-.108.194-.2.258-.267-.061-.061-.147-.148-.269-.272l-3.584-3.633c-.295-.299-.293-.783.004-1.08l.502-.502c.287-.287.791-.286,1.077.003l3.604,3.648c.102.103.196.198.267.27.067-.065.158-.153.266-.26l3.693-3.629c.144-.141.335-.219.538-.219.206,0,.398.079.543.224l.391.391c.296.296.3.782.01,1.083l-3.575,3.703c-.113.117-.197.204-.262.27.07.071.162.164.262.266l3.609,3.657c.295.299.293.783-.004,1.08l-.502.502c-.288.288-.791.286-1.077-.003l-3.628-3.672c-.11-.111-.202-.204-.27-.271-.065.065-.155.156-.265.269l-3.599,3.709c-.143.148-.335.229-.541.229Z"/>
</svg>